<svg xmlns="http://www.w3.org/2000/svg" width="44" height="44" fill="none"><circle cx="22" cy="22" r="17.295" fill="#000" transform="rotate(16.324 22 22)"/><circle cx="22" cy="22" r="17.295" fill="url(#a)" transform="rotate(16.324 22 22)"/><circle cx="22" cy="22" r="17.295" stroke="#fff" stroke-linecap="round" stroke-linejoin="round" stroke-width=".7" transform="rotate(16.324 22 22)"/><path fill="#000" stroke="#fff" stroke-linecap="round" stroke-linejoin="round" stroke-width=".7" d="M14.67 19.83a1.795 1.795 0 1 0 1.01-3.444 1.795 1.795 0 0 0-1.01 3.445"/><path stroke="#fff" stroke-linecap="round" stroke-linejoin="round" stroke-width=".7" d="M19.487 19.527a6.125 6.125 0 0 0-8.799-2.578"/><path fill="#000" stroke="#fff" stroke-linecap="round" stroke-linejoin="round" stroke-width=".7" d="M31.807 24.85a1.795 1.795 0 1 0 1.009-3.445 1.795 1.795 0 0 0-1.009 3.444"/><path stroke="#fff" stroke-linecap="round" stroke-linejoin="round" stroke-width=".7" d="M36.625 24.546a6.127 6.127 0 0 0-8.801-2.578M22.525 30.16c.08-.625.321-1.468 1.112-1.367 2.49.32 2.658-1.387 2.658-1.387.21-.864-2.068-6.39-2.197-6.701a.152.152 0 0 1-.012-.03v0a.476.476 0 0 1 .03-.373 23.025 23.025 0 0 0 2.403-7.945c.14-1.22.184-2.45.131-3.677"/><path stroke="#fff" stroke-linecap="round" stroke-linejoin="round" stroke-miterlimit="10" stroke-width=".7" d="M12.768 25.097a9.732 9.732 0 0 0 17.871 5.234"/><path stroke="#fff" stroke-linecap="round" stroke-linejoin="round" stroke-miterlimit="10" stroke-width=".7" d="M31.049 31.984a1.7 1.7 0 1 0-1.946-2.327M11.37 26.222a1.701 1.701 0 1 1 2.893-.911"/><defs><linearGradient id="a" x1="25.722" x2="25.726" y1="17.307" y2="4.705" gradientUnits="userSpaceOnUse"><stop/><stop offset=".758" stop-color="#fff"/></linearGradient></defs></svg>