<svg xmlns="http://www.w3.org/2000/svg" width="44" height="44" fill="none"><rect width="29.45" height="29.45" x="7.275" y="7.275" fill="#000" rx="5.725"/><rect width="29.45" height="29.45" x="7.275" y="7.275" fill="url(#a)" rx="5.725"/><rect width="29.45" height="29.45" x="7.275" y="7.275" stroke="#fff" stroke-width=".55" rx="5.725"/><path stroke="#fff" stroke-linecap="round" stroke-linejoin="round" stroke-width=".7" d="M23.472 28.25c-.094-.596-.1-1.434.65-1.553 2.37-.376 2.064-1.988 2.064-1.988-.04-.85-3.61-5.308-3.811-5.56l-.018-.024a.449.449 0 0 1-.073-.35c.502-2.62.525-5.31.07-7.94-.2-1.157-.49-2.297-.868-3.41"/><path fill="#000" stroke="#fff" stroke-linecap="round" stroke-linejoin="round" stroke-width=".7" d="M13.424 20.789a1.711 1.711 0 1 0 0-3.423 1.711 1.711 0 0 0 0 3.423M30.458 20.789a1.711 1.711 0 1 0 .001-3.423 1.711 1.711 0 0 0-.001 3.423M22.635 28.098c4.355.03 7.598-1.98 7.572-.377.025 1.54-3.217 4.694-7.572 4.664-4.354.03-7.597-3.123-7.57-4.664-.025-1.603 3.216.407 7.57.377"/><defs><linearGradient id="a" x1="25.228" x2="25.232" y1="17.93" y2="7" gradientUnits="userSpaceOnUse"><stop/><stop offset=".758" stop-color="#fff"/></linearGradient></defs></svg>