<svg xmlns="http://www.w3.org/2000/svg" width="44" height="44" fill="none"><g clip-path="url(#a)"><path fill="#000" d="M16.878 5.734c2.11-4.22 8.131-4.22 10.241 0l13.416 26.828c1.903 3.807-.865 8.286-5.121 8.286H8.585c-4.255 0-7.023-4.479-5.12-8.285z"/><path fill="url(#b)" d="M16.878 5.734c2.11-4.22 8.131-4.22 10.241 0l13.416 26.828c1.903 3.807-.865 8.286-5.121 8.286H8.585c-4.255 0-7.023-4.479-5.12-8.285z"/><path stroke="#fff" stroke-width=".55" d="M16.878 5.734c2.11-4.22 8.131-4.22 10.241 0l13.416 26.828c1.903 3.807-.865 8.286-5.121 8.286H8.585c-4.255 0-7.023-4.479-5.12-8.285z"/><path stroke="#fff" stroke-linecap="round" stroke-linejoin="round" stroke-width=".7" d="M23.577 30.327c-.094-.596-.1-1.434.65-1.553 2.37-.376 2.064-1.988 2.064-1.988-.04-.85-3.61-5.309-3.811-5.56l-.018-.024a.448.448 0 0 1-.073-.35c.502-2.621.525-5.311.07-7.94-.2-1.158-.49-2.298-.868-3.41"/><path fill="#000" stroke="#fff" stroke-linecap="round" stroke-linejoin="round" stroke-width=".7" d="M13.528 22.865a1.711 1.711 0 1 0 .002-3.423 1.711 1.711 0 0 0-.002 3.423"/><path stroke="#fff" stroke-linecap="round" stroke-linejoin="round" stroke-width=".7" d="M17.851 21.41a5.844 5.844 0 0 0-6.772-1.452 5.844 5.844 0 0 0-1.977 1.452"/><path fill="#000" stroke="#fff" stroke-linecap="round" stroke-linejoin="round" stroke-width=".7" d="M30.563 22.865a1.711 1.711 0 1 0 .001-3.422 1.711 1.711 0 0 0-.001 3.422"/><path stroke="#fff" stroke-linecap="round" stroke-linejoin="round" stroke-width=".7" d="M34.886 21.41a5.844 5.844 0 0 0-6.773-1.452 5.844 5.844 0 0 0-1.976 1.452"/><path fill="url(#c)" d="M24.611 30.376a12.774 12.774 0 0 1-8.467-2.568c-.33-.248-.812.05-.68.44 1.218 3.61 3.855 6.682 9.351 7.266"/><path stroke="#fff" stroke-linecap="round" stroke-miterlimit="10" stroke-width=".7" d="M24.611 30.376a12.774 12.774 0 0 1-8.467-2.568c-.33-.248-.812.05-.68.44 1.218 3.61 3.855 6.682 9.351 7.266"/></g><defs><linearGradient id="b" x1="26.977" x2="26.985" y1="23.803" y2="-5.122" gradientUnits="userSpaceOnUse"><stop/><stop offset=".668" stop-color="#fff"/></linearGradient><linearGradient id="c" x1="16.196" x2="25.17" y1="28.832" y2="32.409" gradientUnits="userSpaceOnUse"><stop offset=".49"/><stop offset=".84" stop-opacity="0"/></linearGradient><clipPath id="a"><path fill="#fff" d="M0 0h44v44H0z"/></clipPath></defs></svg>