<svg xmlns="http://www.w3.org/2000/svg" width="44" height="44" fill="none"><path fill="#000" d="M6.094 18.665C6.094 9.88 13.215 2.758 22 2.758S37.906 9.88 37.906 18.665v19.852a2.725 2.725 0 0 1-2.725 2.725H8.82a2.725 2.725 0 0 1-2.725-2.725z"/><path fill="url(#a)" d="M6.094 18.665C6.094 9.88 13.215 2.758 22 2.758S37.906 9.88 37.906 18.665v19.852a2.725 2.725 0 0 1-2.725 2.725H8.82a2.725 2.725 0 0 1-2.725-2.725z"/><path stroke="#fff" stroke-width=".55" d="M6.094 18.665C6.094 9.88 13.215 2.758 22 2.758S37.906 9.88 37.906 18.665v19.852a2.725 2.725 0 0 1-2.725 2.725H8.82a2.725 2.725 0 0 1-2.725-2.725z"/><path stroke="#fff" stroke-linecap="round" stroke-linejoin="round" stroke-width=".7" d="M23.577 34.797c-.094-.596-.1-1.434.65-1.553 2.37-.376 2.064-1.988 2.064-1.988-.04-.85-3.61-5.309-3.811-5.56l-.018-.024a.448.448 0 0 1-.073-.35c.502-2.621.526-5.311.07-7.94-.2-1.158-.49-2.298-.868-3.41"/><path fill="#000" stroke="#fff" stroke-linecap="round" stroke-linejoin="round" stroke-width=".7" d="M13.529 27.335a1.711 1.711 0 1 0 0-3.423 1.711 1.711 0 0 0 0 3.423"/><path stroke="#fff" stroke-linecap="round" stroke-linejoin="round" stroke-width=".7" d="M17.852 25.88a5.844 5.844 0 0 0-6.773-1.452 5.844 5.844 0 0 0-1.976 1.453"/><path fill="#000" stroke="#fff" stroke-linecap="round" stroke-linejoin="round" stroke-width=".7" d="M30.563 27.335a1.711 1.711 0 1 0 .001-3.423 1.711 1.711 0 0 0-.001 3.423"/><path stroke="#fff" stroke-linecap="round" stroke-linejoin="round" stroke-width=".7" d="M34.886 25.88a5.846 5.846 0 0 0-8.749 0"/><path stroke="#fff" stroke-linecap="round" stroke-miterlimit="10" stroke-width=".7" d="M13.612 31.194a9.292 9.292 0 0 0 8.896 6.589 9.304 9.304 0 0 0 8.897-6.59"/><defs><linearGradient id="a" x1="25.483" x2="25.488" y1="16.704" y2="2.483" gradientUnits="userSpaceOnUse"><stop/><stop offset=".758" stop-color="#fff"/></linearGradient></defs></svg>