<svg xmlns="http://www.w3.org/2000/svg" width="44" height="44" fill="none"><g clip-path="url(#a)"><path fill="#000" d="M6.005 17.463a1.754 1.754 0 0 0 1.073-2.794c-.654-.85.048-2.067 1.112-1.927a1.754 1.754 0 0 0 1.883-2.325c-.359-1.012.685-1.952 1.654-1.489a1.754 1.754 0 0 0 2.51-1.63c-.03-1.073 1.254-1.644 2.032-.905.95.903 2.52.483 2.89-.774.305-1.03 1.702-1.176 2.214-.233a1.754 1.754 0 0 0 2.988.157c.607-.885 1.981-.593 2.176.462a1.754 1.754 0 0 0 2.794 1.073c.85-.654 2.068.048 1.927 1.112a1.754 1.754 0 0 0 2.325 1.883c1.012-.359 1.952.686 1.49 1.654a1.754 1.754 0 0 0 1.629 2.51c1.073-.03 1.645 1.254.905 2.033a1.754 1.754 0 0 0 .775 2.89c1.029.304 1.176 1.701.232 2.213a1.754 1.754 0 0 0-.156 2.988c.885.607.592 1.982-.463 2.177a1.754 1.754 0 0 0-1.072 2.793c.654.851-.049 2.068-1.113 1.927a1.754 1.754 0 0 0-1.883 2.326c.359 1.011-.685 1.951-1.654 1.488a1.754 1.754 0 0 0-2.51 1.63c.03 1.073-1.254 1.645-2.032.905a1.754 1.754 0 0 0-2.89.775c-.305 1.03-1.702 1.176-2.213.232a1.754 1.754 0 0 0-2.989-.156c-.607.885-1.981.593-2.176-.463a1.754 1.754 0 0 0-2.794-1.072c-.85.654-2.068-.049-1.927-1.113a1.754 1.754 0 0 0-2.325-1.883c-1.012.36-1.952-.685-1.49-1.654a1.754 1.754 0 0 0-1.629-2.51c-1.073.03-1.644-1.254-.905-2.032a1.754 1.754 0 0 0-.774-2.89c-1.03-.304-1.177-1.702-.233-2.213a1.754 1.754 0 0 0 .157-2.988c-.885-.608-.593-1.982.462-2.177"/><path fill="url(#b)" d="M6.005 17.463a1.754 1.754 0 0 0 1.073-2.794c-.654-.85.048-2.067 1.112-1.927a1.754 1.754 0 0 0 1.883-2.325c-.359-1.012.685-1.952 1.654-1.489a1.754 1.754 0 0 0 2.51-1.63c-.03-1.073 1.254-1.644 2.032-.905.95.903 2.52.483 2.89-.774.305-1.03 1.702-1.176 2.214-.233a1.754 1.754 0 0 0 2.988.157c.607-.885 1.981-.593 2.176.462a1.754 1.754 0 0 0 2.794 1.073c.85-.654 2.068.048 1.927 1.112a1.754 1.754 0 0 0 2.325 1.883c1.012-.359 1.952.686 1.49 1.654a1.754 1.754 0 0 0 1.629 2.51c1.073-.03 1.645 1.254.905 2.033a1.754 1.754 0 0 0 .775 2.89c1.029.304 1.176 1.701.232 2.213a1.754 1.754 0 0 0-.156 2.988c.885.607.592 1.982-.463 2.177a1.754 1.754 0 0 0-1.072 2.793c.654.851-.049 2.068-1.113 1.927a1.754 1.754 0 0 0-1.883 2.326c.359 1.011-.685 1.951-1.654 1.488a1.754 1.754 0 0 0-2.51 1.63c.03 1.073-1.254 1.645-2.032.905a1.754 1.754 0 0 0-2.89.775c-.305 1.03-1.702 1.176-2.213.232a1.754 1.754 0 0 0-2.989-.156c-.607.885-1.981.593-2.176-.463a1.754 1.754 0 0 0-2.794-1.072c-.85.654-2.068-.049-1.927-1.113a1.754 1.754 0 0 0-2.325-1.883c-1.012.36-1.952-.685-1.49-1.654a1.754 1.754 0 0 0-1.629-2.51c-1.073.03-1.644-1.254-.905-2.032a1.754 1.754 0 0 0-.774-2.89c-1.03-.304-1.177-1.702-.233-2.213a1.754 1.754 0 0 0 .157-2.988c-.885-.608-.593-1.982.462-2.177"/><path stroke="#fff" stroke-width=".55" d="M6.005 17.463a1.754 1.754 0 0 0 1.073-2.794c-.654-.85.048-2.067 1.112-1.927a1.754 1.754 0 0 0 1.883-2.325c-.359-1.012.685-1.952 1.654-1.489a1.754 1.754 0 0 0 2.51-1.63c-.03-1.073 1.254-1.644 2.032-.905.95.903 2.52.483 2.89-.774.305-1.03 1.702-1.176 2.214-.233a1.754 1.754 0 0 0 2.988.157c.607-.885 1.981-.593 2.176.462a1.754 1.754 0 0 0 2.794 1.073c.85-.654 2.068.048 1.927 1.112a1.754 1.754 0 0 0 2.325 1.883c1.012-.359 1.952.686 1.49 1.654a1.754 1.754 0 0 0 1.629 2.51c1.073-.03 1.645 1.254.905 2.033a1.754 1.754 0 0 0 .775 2.89c1.029.304 1.176 1.701.232 2.213a1.754 1.754 0 0 0-.156 2.988c.885.607.592 1.982-.463 2.177a1.754 1.754 0 0 0-1.072 2.793c.654.851-.049 2.068-1.113 1.927a1.754 1.754 0 0 0-1.883 2.326c.359 1.011-.685 1.951-1.654 1.488a1.754 1.754 0 0 0-2.51 1.63c.03 1.073-1.254 1.645-2.032.905a1.754 1.754 0 0 0-2.89.775c-.305 1.03-1.702 1.176-2.213.232a1.754 1.754 0 0 0-2.989-.156c-.607.885-1.981.593-2.176-.463a1.754 1.754 0 0 0-2.794-1.072c-.85.654-2.068-.049-1.927-1.113a1.754 1.754 0 0 0-2.325-1.883c-1.012.36-1.952-.685-1.49-1.654a1.754 1.754 0 0 0-1.629-2.51c-1.073.03-1.644-1.254-.905-2.032a1.754 1.754 0 0 0-.774-2.89c-1.03-.304-1.177-1.702-.233-2.213a1.754 1.754 0 0 0 .157-2.988c-.885-.608-.593-1.982.462-2.177Z"/><path stroke="#fff" stroke-linecap="round" stroke-linejoin="round" stroke-miterlimit="10" stroke-width=".55" d="M31.11 26.888a2.13 2.13 0 0 1-2.13 2.13H17.091a2.13 2.13 0 0 1-2.13-2.13"/><path stroke="#fff" stroke-linecap="round" stroke-linejoin="round" stroke-width=".55" d="M23.166 25.419c-.082-.514-.087-1.236.566-1.34 2.062-.323 1.797-1.712 1.797-1.712-.035-.733-3.143-4.576-3.318-4.793l-.016-.02a.385.385 0 0 1-.063-.302c.436-2.259.457-4.577.06-6.843a19.293 19.293 0 0 0-.755-2.939"/><path fill="#000" stroke="#fff" stroke-linecap="round" stroke-linejoin="round" stroke-width=".7" d="M15.162 21.545a1.996 1.996 0 1 0 0-3.991 1.996 1.996 0 0 0 0 3.991M29.18 21.545a1.996 1.996 0 1 0 0-3.991 1.996 1.996 0 0 0 0 3.991"/></g><defs><linearGradient id="b" x1="17.416" x2="17.416" y1="18.546" y2="6.034" gradientUnits="userSpaceOnUse"><stop/><stop offset=".848" stop-color="#fff"/></linearGradient><clipPath id="a"><path fill="#fff" d="M0 0h44v44H0z"/></clipPath></defs></svg>