<svg xmlns="http://www.w3.org/2000/svg" width="44" height="44" fill="none"><path fill="url(#a)" stroke="#fff" stroke-linecap="round" stroke-linejoin="round" stroke-miterlimit="10" stroke-width=".7" d="M42 22c0 2.027-2.661 3.61-3.257 5.441-.615 1.896.587 4.737-.562 6.315-1.149 1.579-4.241 1.32-5.837 2.485-1.595 1.166-2.266 4.168-4.163 4.785-1.83.6-4.153-1.425-6.182-1.425-2.028 0-4.351 2.019-6.181 1.425-1.897-.617-2.585-3.636-4.164-4.785-1.578-1.149-4.678-.89-5.835-2.485-1.157-1.595.052-4.419-.564-6.315C4.655 25.611 2 24.028 2 22c0-2.028 2.662-3.61 3.255-5.44.616-1.897-.585-4.738.564-6.317 1.149-1.578 4.241-1.319 5.835-2.484 1.594-1.164 2.267-4.169 4.164-4.784 1.83-.6 4.153 1.425 6.181 1.425 2.029 0 4.352-2.02 6.182-1.425 1.897.615 2.585 3.635 4.163 4.784 1.579 1.15 4.678.89 5.837 2.484 1.159 1.594-.053 4.42.563 6.317.595 1.83 3.256 3.412 3.256 5.44"/><path stroke="#fff" stroke-linecap="round" stroke-linejoin="round" stroke-width=".7" d="M23.395 28.102c-.094-.596-.1-1.433.65-1.553 2.366-.375 2.061-1.986 2.061-1.986-.04-.85-3.606-5.306-3.807-5.558l-.017-.024a.446.446 0 0 1-.073-.35c.5-2.62.524-5.308.07-7.935-.2-1.157-.49-2.297-.867-3.409"/><path fill="url(#b)" d="M8.94 18.688a5.839 5.839 0 0 0 8.738 0"/><path stroke="#fff" stroke-linecap="round" stroke-linejoin="round" stroke-width=".7" d="M8.94 18.688a5.839 5.839 0 0 0 8.738 0"/><path fill="url(#c)" d="M25.953 18.688a5.84 5.84 0 0 0 8.738 0"/><path stroke="#fff" stroke-linecap="round" stroke-linejoin="round" stroke-width=".7" d="M25.953 18.688a5.84 5.84 0 0 0 8.738 0"/><path stroke="#fff" stroke-linecap="round" stroke-miterlimit="10" stroke-width=".7" d="M31.066 24.502a9.169 9.169 0 0 1-17.545-.025"/><defs><linearGradient id="a" x1="26.305" x2="26.308" y1="16.807" y2="2.863" gradientUnits="userSpaceOnUse"><stop/><stop offset=".758" stop-color="#fff"/></linearGradient><linearGradient id="b" x1="13.309" x2="13.309" y1="20.654" y2="18.688" gradientUnits="userSpaceOnUse"><stop offset=".547"/><stop offset="1" stop-opacity="0"/></linearGradient><linearGradient id="c" x1="30.322" x2="30.322" y1="20.654" y2="18.688" gradientUnits="userSpaceOnUse"><stop offset=".547"/><stop offset="1" stop-opacity="0"/></linearGradient></defs></svg>