<svg xmlns="http://www.w3.org/2000/svg" width="564" height="361" fill="none"><g clip-path="url(#a)"><path fill="#000" d="M0 .258h564v360H0z"/><g stroke="#fff" stroke-miterlimit="10" stroke-width="2.5" opacity=".1"><path d="M21.979-7.009v457.244M94.838-7.009v457.244M167.696-7.009v457.244M240.558-7.009v457.244M313.417-7.009v457.244M386.275-7.009v457.244M459.134-7.009v457.244M531.995-7.009v457.244M-97.026 330.901H651M-97.026 258.042H651M-97.026 185.184H651M-97.026 112.325H651M-97.026 39.464H651"/></g><g stroke="#fff" stroke-miterlimit="10" stroke-width="2.5" opacity=".27"><path d="M312.633 10.08c20.591 10.511 50.846 1.256 75.287 7.78 23.23 6.221 41.453 29.667 65.668 34.213 24.692 4.707 48.819 10.03 71.865 15.04 25.854 5.583 52.008 4.67 72.264 13.298 25.55 10.88 51.705 20.345 61.684 41.12 17.551 36.7-12.688 70.3-51.14 83.552-26.834 9.236-60.954 10.079-90.212 19.083-38.465 11.828-79.312 23.22-81.103 53.013-1.199 19.711 19.455 49.29 44.602 74.23 17.414 17.296 46.747 24.679 67.51 42.218 21.462 18.11 42.149 36.881 58.948 53.201 30.285 29.429 46.321 62.316 23.523 76.614-18.597 11.679-49.589 8.849-79.684-3.69-20.348-8.45-41.602-24.068-64.946-38.035-20.598-12.307-41.814-26.189-63.434-39.525-21.521-13.288-39.432-32.995-60.76-44.246-23.719-12.511-51.283-12.596-73.162-18.67-32.745-9.075-55.578 5.654-81.612 12.972-25.935 7.367-55.556 6.336-87.119-9.02-30.988-15.146-33.781-48.333-44.754-72.364-11.372-24.826-27.19-47.154-50.539-69.559-18.68-17.85-36.883-41.212-60.521-56.296-22.878-14.632-54.92-15.296-76.702-30.13-24.05-16.333-46.898-34.16-62.448-54.116-14.57-18.723-32.673-35.764-47.828-55.524-15.321-19.917-28.151-42.629-41.166-62.447-15.007-22.821-29.741-45.21-37.687-66.32-11.22-29.827-.515-57.289 12.859-79.322 13.293-21.998 32.233-46.049 64.962-55.047 23.387-6.392 52.668-17.25 81.808-17.578 24.893-.269 51.073 7.938 77.764 11.771 25.063 3.622 50.596 10.314 75.389 17.236 24.337 6.845 39.634 31.155 60.72 43.479 21.135 12.349 52.256 9.496 71.759 25.141 19.169 15.331 28.689 44.24 47.707 60.466 18.703 15.995 35.975 35.013 55.936 49.766 19.635 14.666 42.29 26.35 64.562 37.696Z"/><path d="M387.823 249.157c-1.83 19.248 22.362 44.237 45.833 67.972 17.842 18.031 43.958 29.865 61.06 46.559 29.152 28.494 42.264 50.898 17.333 62.346-17.638 9.691-44.634 16.83-73.299 2.836-19.539-9.541-38.534-27.622-60.507-41.358-20.354-12.782-39.123-29.856-59.738-41.648-22.748-13.074-49.137-13.995-69.92-20.272-25.055-7.5-41.675-5.218-61.67-.354-19.915 4.828-38.873 1.398-62.974-10.855-23.705-12.056-39.796-24.441-48.527-43.18-8.943-19.291-12.413-41.989-30.48-59.461-21.517-20.899-45.673-44.75-73.17-62.345-28.64-18.386-62.593-28.731-80.634-51.565-15.208-19.412-33.406-38.442-48.779-58.982-16.441-21.964-34.406-42.894-45.199-63.775-15.563-30.19-7.772-60.068 3.907-81.821 11.057-22.958 30.288-40.817 64.482-47.596 23.455-4.715 50.175-3.108 78.925-.867 24.816 1.932 52.739-.493 78.382 6.104 24.642 6.251 47.53 17.603 68.786 30.684 20.81 12.86 39.537 30.136 59.275 46.047 19.188 15.415 39.572 29.706 59.758 44.869 19.653 14.749 40.486 27.322 62.975 38.849 20.609 10.596 41.345 24.688 66.105 31.071 23.829 6.145 48.967 10.103 72.698 15.23 25.676 5.568 50.205 11.315 71.247 19.138 26.687 9.877 44.085 25.151 54.652 45.024 22.267 40.681-12.413 53.714-55.737 68.357-40.097 13.556-91.753 26.305-94.784 58.993Z"/><path d="M349.017 221.101c-2.938 19.594 10.335 46.632 29.254 68.482 24.155 27.957 49.689 52.267 20.282 59.629-16.65 7.045-40.038-5.749-66.166-20.575-18.68-10.609-40.767-20.743-60.756-33.27-21.164-13.259-40.68-27.792-59.768-34.348-34.742-11.707-53.163 6.628-86.52-11.634-33.259-18.213-32.926-45.893-57.986-70.64-15.438-15.346-35.143-29.151-54.814-42.416-20.284-13.644-44.132-23.009-57.503-39.72-16.77-21.082-29.809-49.422-44.806-71.418-20.743-30.37-32.212-56.214-23.152-77.7 7.189-24.726 30.587-41.638 67.134-44.787 23.57-2.045 50.71 2.607 78.855 8.803 24.854 5.235 44.89 20.325 66.692 34.273 20.578 13.193 43.563 23.996 64.52 39.467C184.176-.11 207.334 9.51 230.305 21.427c20.876 10.802 40.831 28.464 65.697 35.124 24.916 6.684 52.148 7.052 74.28 14.446 27.54 9.181 54.309 18.054 65.796 36.741 20.593 31.265-6.121 46.906-32.831 60.607-25.448 13.058-50.66 27.95-54.23 52.756Z"/><path d="M294.766 193.521c-7.967 30.463 33.789 67.746-12.277 66.845-15.545 2.965-37.103-7.354-58.338-21.32-18.204-12.016-37.158-24.626-53.431-31.951-19.392-8.499-31.69-.265-50.104-12.235-18.365-11.946-18.357-31.874-32.912-47.006-18.638-19.621-48.1-35.204-65.546-56.176C-2.617 61.549-30.924 25.86-27.076 2.686c-1.48-29.102 26.94-43.597 71.944-37.25 24.604 2.946 47.093 17.609 71.211 32.483 20.94 12.85 42.904 27.327 66.989 40.094 21.643 11.481 48.161 18.065 72.247 26.726 27.532 9.923 50.125 24.264 63.769 41.409 37.139 43.13-15.818 53.219-24.318 87.374Z"/><path d="M244.652 165.977c-9.155 16.361-38.15 23.405-77.776 8.528-34.062-12.788-41.216-37.612-57.173-59.188-25.39-34.243-90.497-84.153-54.027-90.773 38.972-7.023 107.41 37.373 154.504 72.601 34.054 25.476 44.135 51.602 34.472 68.832Z" clip-rule="evenodd"/></g><path fill="url(#b)" fill-opacity=".15" d="M-19.343-40.742h602.686v318H-19.343z"/><path fill="url(#c)" d="M0 341.258h554v60H0z" opacity=".7"/><rect width="237.153" height="285.586" x="154.208" y="37.433" fill="#000" rx="50.103"/><path fill="url(#d)" d="M346.295-35.944c-8.703-9.228-37.277-11.798-69.693-11.798-32.4 0-60.974 2.57-69.694 11.798s-1.207 51.946-23.203 68.416h185.793c-21.996-16.487-14.499-59.188-23.203-68.416"/><path fill="url(#e)" fill-opacity=".5" d="M346.295-35.944c-8.703-9.228-37.277-11.798-69.693-11.798-32.4 0-60.974 2.57-69.694 11.798s-1.207 51.946-23.203 68.416h185.793c-21.996-16.487-14.499-59.188-23.203-68.416"/><path fill="url(#f)" d="M206.908 396.78c8.703 9.227 37.277 11.797 69.694 11.797 32.399 0 60.973-2.57 69.693-11.797 8.721-9.228 1.207-51.947 23.203-68.416H183.705c21.996 16.469 14.5 59.188 23.203 68.416"/><path fill="url(#g)" fill-opacity=".5" d="M206.908 396.78c8.703 9.227 37.277 11.797 69.694 11.797 32.399 0 60.973-2.57 69.693-11.797 8.721-9.228 1.207-51.947 23.203-68.416H183.705c21.996 16.469 14.5 59.188 23.203 68.416"/><path fill="url(#h)" d="M344.46 28.232h-136.6c-50.179 0-62.86 44.521-62.86 79.547v145.342c0 35.026 12.681 79.546 62.86 79.546h136.6c50.197 0 62.861-44.52 62.861-79.546V107.779c0-35.01-12.664-79.547-62.861-79.547m41.664 234.084c0 27.933-23.068 50.561-51.506 50.561H217.38c-28.456 0-51.506-22.644-51.506-50.561V98.034c0-27.934 23.067-50.562 51.506-50.562h117.238c28.455 0 51.506 22.644 51.506 50.562z"/><path fill="#000" d="M341.077 36.61H210.903c-31.056 0-56.231 24.712-56.231 55.2v176.73c0 30.487 25.175 55.2 56.231 55.2h130.174c31.057 0 56.231-24.713 56.231-55.2V91.826c.017-30.487-25.174-55.217-56.231-55.217m45.046 225.705c0 27.934-23.067 50.562-51.505 50.562H217.379c-28.455 0-51.505-22.644-51.505-50.562V98.033c0-27.933 23.067-50.56 51.505-50.56h117.239c28.455 0 51.505 22.643 51.505 50.56z"/><path fill="#000" d="M341.077 36.61H210.903c-31.056 0-56.231 24.712-56.231 55.2v176.73c0 30.487 25.175 55.2 56.231 55.2h130.174c31.057 0 56.231-24.713 56.231-55.2V91.826c.017-30.487-25.174-55.217-56.231-55.217m45.046 225.705c0 27.934-23.067 50.562-51.505 50.562H217.379c-28.455 0-51.505-22.644-51.505-50.562V98.033c0-27.933 23.067-50.56 51.505-50.56h117.239c28.455 0 51.505 22.643 51.505 50.56z"/><path fill="url(#i)" d="M341.077 180.482H210.903c-31.056 0-56.231-24.713-56.231-55.2V91.825c0-30.486 25.175-55.2 56.231-55.2h130.174c31.057 0 56.231 24.714 56.231 55.2v33.457c.017 30.487-25.174 55.2-56.231 55.2"/><path fill="url(#j)" d="M404.941 145.607c4.206 0 7.615-10.818 7.615-24.162 0-13.345-3.409-24.163-7.615-24.163s-7.615 10.818-7.615 24.163c0 13.344 3.409 24.162 7.615 24.162"/><path fill="url(#k)" d="M409.037 146.241h4.063c2.805 0 5.082-2.236 5.082-4.989v-39.615c0-2.753-2.277-4.99-5.082-4.99h-4.063c-2.805 0-5.082 2.237-5.082 4.99v39.615c0 2.753 2.277 4.989 5.082 4.989"/><path fill="url(#l)" d="M409.037 146.241h4.063c2.805 0 5.082-2.236 5.082-4.989v-39.615c0-2.753-2.277-4.99-5.082-4.99h-4.063c-2.805 0-5.082 2.237-5.082 4.99v39.615c0 2.753 2.277 4.989 5.082 4.989"/><path fill="url(#m)" d="M413.1 96.648h-4.063c-2.805 0-5.082 2.236-5.082 4.989v39.615c0 2.753 2.277 4.989 5.082 4.989h4.063c2.805 0 5.082-2.236 5.082-4.989v-39.615c0-2.753-2.277-4.99-5.082-4.99"/><path fill="url(#n)" d="M418.182 104.124v34.642c0 2.369-1.037 4.472-2.635 5.84V98.3c1.598 1.352 2.635 3.471 2.635 5.824"/><path fill="url(#o)" d="M403.955 138.766v-34.642c0-2.369 1.037-4.472 2.634-5.84v46.306c-1.597-1.352-2.634-3.455-2.634-5.824"/><path stroke="#000" stroke-miterlimit="10" stroke-width=".912" d="M341.077 323.756H210.903c-31.056 0-56.231-24.713-56.231-55.2V91.826c0-30.487 25.175-55.2 56.231-55.2h130.174c31.057 0 56.231 24.713 56.231 55.2v176.73c.017 30.487-25.174 55.2-56.231 55.2Z"/><path fill="url(#p)" d="M314.526 36.61h26.551c31.057 0 56.231 24.712 56.231 55.2v176.73c0 30.487-25.174 55.2-56.231 55.2h-26.551c-31.057 0-56.231-24.713-56.231-55.2V91.826c0-30.487 25.174-55.217 56.231-55.217"/><path fill="url(#q)" d="M237.984 323.739h-26.552c-31.056 0-56.231-24.713-56.231-55.2V91.809c0-30.487 25.175-55.2 56.231-55.2h26.552c31.056 0 56.23 24.713 56.23 55.2v176.714c0 30.487-25.174 55.216-56.23 55.216"/><g clip-path="url(#r)"><path fill="#000" d="M183.001 66.273h182.748v228.435H183.001z"/><circle cx="274.375" cy="90.863" r="17.583" fill="url(#s)"/><path stroke="#fff" stroke-linecap="round" stroke-width="2.5" d="M273.048 82.623h9.981m0 0v9.98m0-9.98-16.481 16.48"/><path fill="#7A7A7A" d="M195.788 193.568v-7.161h-.023l-2.185 1.521v-1.035l2.197-1.579h1.006v8.254zm5.194 0v-7.161h-.023l-2.185 1.521v-1.035l2.196-1.579h1.007v8.254zm5.148-2.883v-.926h9.089v.926zm14.586 2.883v-7.161h-.023l-2.185 1.521v-1.035l2.196-1.579h1.007v8.254zm3.089 0v-.709l2.905-3.032c1.116-1.161 1.373-1.607 1.373-2.294v-.011c-.005-.841-.64-1.447-1.538-1.447-1.03 0-1.797.709-1.797 1.596v.028h-.995v-.034c0-1.43 1.236-2.488 2.774-2.488 1.493 0 2.586 1.001 2.586 2.294v.011c0 .904-.418 1.584-1.934 3.135l-1.961 2.013v.023h4.032v.915zm6.292-2.883v-.926h9.089v.926zm14.586 2.883v-7.161h-.023l-2.185 1.521v-1.035l2.196-1.579h1.007v8.254zm5.869.137c-1.705 0-2.809-.949-2.918-2.253l-.005-.069h.989l.006.057c.086.813.829 1.373 1.928 1.373 1.081 0 1.818-.606 1.818-1.481v-.012c0-1.012-.726-1.579-1.881-1.579h-1.036v-.869h.99c.984 0 1.67-.606 1.67-1.43v-.011c0-.864-.566-1.362-1.573-1.362-.972 0-1.664.515-1.75 1.35l-.006.057h-.99l.006-.057c.132-1.344 1.196-2.242 2.74-2.242 1.573 0 2.608.875 2.608 2.128v.011c0 1.018-.72 1.716-1.75 1.933v.023c1.201.103 2.019.853 2.019 2.025v.012c0 1.378-1.212 2.396-2.865 2.396m3.809-3.02v-.926h9.089v.926zm14.586 2.883v-7.161h-.023l-2.185 1.521v-1.035l2.197-1.579h1.006v8.254zm7.013 0v-1.716h-4.147v-.932l3.621-5.606h1.521v5.634h1.167v.904h-1.167v1.716zm-3.129-2.62h3.129v-4.753h-.034l-3.095 4.73zm8.346-.263v-.926h9.089v.926zm14.586 2.883v-7.161h-.023l-2.185 1.521v-1.035l2.196-1.579h1.007v8.254zm5.926.137c-1.579 0-2.706-.983-2.826-2.328l-.006-.063h1.013l.005.046c.103.818.835 1.442 1.825 1.442 1.121 0 1.899-.778 1.899-1.888v-.011c-.006-1.087-.789-1.865-1.882-1.865-.56 0-1.041.166-1.407.497q-.224.205-.389.487h-.909l.423-4.708h4.725v.915h-3.879l-.28 2.775h.023c.389-.555 1.075-.853 1.876-.853 1.585 0 2.729 1.15 2.729 2.734v.012c-.006 1.653-1.224 2.808-2.94 2.808m6.074-3.02v-.926h9.089v.926zm12.184 2.883v-7.161h-.023l-2.185 1.521v-1.035l2.196-1.579h1.007v8.254zm6.074.137c-1.521 0-3.134-1.052-3.134-4.112v-.012c0-2.78 1.184-4.404 3.203-4.404 1.402 0 2.448.801 2.723 2.002l.017.074h-1.047l-.023-.063c-.246-.68-.835-1.104-1.681-1.104-1.539 0-2.145 1.493-2.191 3.226q-.007.085-.006.178h.023c.332-.732 1.178-1.327 2.3-1.327 1.573 0 2.739 1.161 2.739 2.728v.012c0 1.624-1.235 2.802-2.923 2.802m-1.893-2.814c0 1.058.824 1.899 1.882 1.899 1.053 0 1.888-.823 1.888-1.865v-.011c0-1.075-.784-1.848-1.871-1.848-1.081 0-1.899.767-1.899 1.819zm8.197-.206v-.926h9.089v.926zm14.586 2.883v-7.161h-.023l-2.185 1.521v-1.035l2.197-1.579h1.006v8.254zm3.564 0 3.735-7.316v-.023h-4.445v-.915h5.463v.955l-3.672 7.299z"/><path stroke="url(#t)" stroke-linecap="round" stroke-width="1.5" d="M274.262 109.196v70.545"/><path fill="#fff" d="M314.17 88.28V77.804h-.043l-3.235 2.23v-1.818l3.261-2.317h1.896V88.28zm10.785 0v-2.462h-6.195v-1.674l5.26-8.245h2.78v8.305h1.707v1.614H326.8v2.462zm-4.41-4.05h4.427v-6.812h-.051l-4.376 6.76zm10.433-4.238a1.12 1.12 0 0 1-1.132-1.133c0-.626.497-1.124 1.132-1.124.627 0 1.124.498 1.124 1.124 0 .635-.497 1.133-1.124 1.133m0 6.443a1.12 1.12 0 0 1-1.132-1.124c0-.635.497-1.124 1.132-1.124.627 0 1.124.49 1.124 1.124 0 .627-.497 1.124-1.124 1.124m7.456 2.051c-2.96 0-4.727-2.463-4.727-6.392v-.017c0-3.93 1.767-6.384 4.727-6.384 2.952 0 4.728 2.454 4.728 6.384v.017c0 3.93-1.776 6.392-4.728 6.392m0-1.605c1.759 0 2.789-1.819 2.789-4.787v-.017c0-2.969-1.03-4.77-2.789-4.77-1.767 0-2.788 1.801-2.788 4.77v.017c0 2.969 1.021 4.788 2.788 4.788m10.966 1.605c-2.96 0-4.728-2.463-4.728-6.392v-.017c0-3.93 1.768-6.384 4.728-6.384 2.951 0 4.727 2.454 4.727 6.384v.017c0 3.93-1.776 6.392-4.727 6.392m0-1.605c1.759 0 2.788-1.819 2.788-4.787v-.017c0-2.969-1.029-4.77-2.788-4.77-1.768 0-2.789 1.801-2.789 4.77v.017c0 2.969 1.021 4.788 2.789 4.788M230.693 225.354c-4.445 0-7.271-3.13-7.271-8.108v-.011c0-4.977 2.826-8.085 7.271-8.085 3.456 0 6.053 2.13 6.542 5.227l.022.098h-2.413l-.065-.217c-.522-1.837-1.978-2.957-4.086-2.957-2.913 0-4.782 2.304-4.782 5.934v.011c0 3.63 1.88 5.956 4.782 5.956 2.086 0 3.532-1.087 4.119-3.076l.032-.097h2.413l-.011.108c-.489 3.119-3.087 5.217-6.553 5.217m8.574-.261V209.41h2.348v15.683zm8.119.207c-2.282 0-3.815-1.402-3.815-3.457v-.021c0-1.989 1.543-3.206 4.25-3.369l3.108-.185v-.859c0-1.26-.815-2.021-2.272-2.021-1.358 0-2.195.641-2.39 1.554l-.022.098h-2.217l.011-.12c.163-1.967 1.869-3.478 4.684-3.478 2.793 0 4.564 1.479 4.564 3.772v7.879h-2.358v-1.804h-.044c-.663 1.228-1.988 2.011-3.499 2.011m-1.446-3.511c0 1 .826 1.63 2.087 1.63 1.652 0 2.902-1.119 2.902-2.608v-.891l-2.793.174c-1.413.087-2.196.706-2.196 1.673zm9.63 3.304V213.66h2.347v1.956h.054c.37-1.337 1.326-2.174 2.63-2.174.337 0 .631.055.816.087v2.185c-.185-.076-.598-.131-1.055-.131-1.51 0-2.445.989-2.445 2.696v6.814zm8.574-13.194c-.76 0-1.369-.608-1.369-1.347 0-.75.609-1.359 1.369-1.359a1.352 1.352 0 1 1 0 2.706m-1.173 13.194V213.66h2.347v11.433zm8.781.228c-2.26 0-3.347-.956-3.347-3.238v-6.554h-1.641v-1.869h1.641v-2.978h2.402v2.978h2.141v1.869h-2.141v6.412c0 1.163.521 1.511 1.51 1.511.25 0 .457-.022.631-.044v1.815a8 8 0 0 1-1.196.098m4.489 3.587c-.457 0-.946-.055-1.229-.109v-1.837c.185.044.457.087.772.087 1.109 0 1.717-.293 2.109-1.402l.195-.543-4.162-11.444h2.543l2.88 9.303h.076l2.88-9.303h2.478l-4.26 11.966c-.848 2.369-2.044 3.282-4.282 3.282m18.606-3.815v-13.585h-4.804v-2.098h12.031v2.098h-4.793v13.585zm6.803 0V213.66h2.348v1.956h.054c.369-1.337 1.326-2.174 2.63-2.174.337 0 .63.055.815.087v2.185c-.185-.076-.598-.131-1.054-.131-1.511 0-2.445.989-2.445 2.696v6.814zm8.575-13.194a1.36 1.36 0 0 1-1.369-1.347c0-.75.608-1.359 1.369-1.359.772 0 1.369.609 1.369 1.359 0 .739-.597 1.347-1.369 1.347m-1.174 13.194V213.66h2.348v11.433zm4.771 3.804V213.66h2.348v1.967h.054c.685-1.359 1.945-2.185 3.576-2.185 2.912 0 4.782 2.283 4.782 5.934v.011c0 3.641-1.881 5.934-4.75 5.934-1.619 0-2.934-.826-3.608-2.152h-.054v5.728zm5.369-5.597c1.848 0 3-1.5 3-3.913v-.011c0-2.434-1.163-3.923-3-3.923-1.782 0-3.032 1.543-3.032 3.923v.011c0 2.37 1.261 3.913 3.032 3.913"/><path stroke="#fff" stroke-miterlimit="10" stroke-width="1.755" d="M275.435 286.719c13.536 0 24.509-10.973 24.509-24.509s-10.973-24.509-24.509-24.509c-13.537 0-24.51 10.973-24.51 24.509s10.973 24.509 24.51 24.509Z"/><path stroke="#fff" stroke-linecap="round" stroke-linejoin="round" stroke-width="1.755" d="M275.435 254.367a4.902 4.902 0 1 0-.001-9.803 4.902 4.902 0 0 0 .001 9.803M257.297 278.386l18.139-18.137 18.135 18.137M275.435 260.249v26.47"/><path fill="url(#u)" d="M183.001 291.194h224.92v14.057h-224.92z" transform="rotate(-90 183.001 291.194)"/><path fill="url(#v)" d="M365.75 66.273h228.435V80.33H365.75z" transform="rotate(90 365.75 66.273)"/><rect width="47.146" height="47.146" x="308.03" y="238.614" stroke="#9747FF" stroke-dasharray="0.6 0.3" stroke-width=".06" rx=".269"/><g stroke="#7A7A7A" stroke-linecap="round" stroke-linejoin="round" stroke-miterlimit="10" stroke-width="1.171" clip-path="url(#w)"><path d="M352.828 262.486c-10.492 0-10.492-15.446-20.985-15.446s-10.492 15.446-20.985 15.446M352.828 262.486c-10.492 0-10.492 15.446-20.985 15.446s-10.492-15.446-20.985-15.446"/><path d="M346.469 277.903c-14.567 0-14.567-30.922-29.163-30.922M352.828 262.486h-41.853"/><path d="M331.902 283.735c11.735 0 21.249-9.514 21.249-21.249 0-11.736-9.514-21.249-21.249-21.249-11.736 0-21.249 9.513-21.249 21.249s9.513 21.249 21.249 21.249"/></g><path stroke="url(#x)" stroke-width="2.5" d="M169.255 174.628c24.46 0 24.46-59.029 48.92-59.029s24.462 59.029 48.922 59.029 24.46-59.029 48.92-59.029 24.462 59.029 48.924 59.029"/></g><path fill="url(#y)" d="M564 412.258h106v462H564z" transform="rotate(-180 564 412.258)"/><path fill="url(#z)" fill-opacity=".2" d="M349.811-7.836c0 211.474-174.343 382.907-389.405 382.907C-254.657 375.071-429 203.638-429-7.836s174.343-382.906 389.406-382.906c215.062 0 389.405 171.433 389.405 382.906"/><path fill="url(#A)" fill-opacity=".2" d="M300-19.742c0 208.764-174.385 378-389.5 378S-479 189.022-479-19.742s174.385-378 389.5-378S300-228.506 300-19.742"/><path fill="url(#B)" fill-opacity=".2" d="M1090 180.258c0 99.411-162.073 180-362 180s-362-80.589-362-180 162.073-180 362-180 362 80.589 362 180"/></g><defs><linearGradient id="b" x1="282" x2="282" y1="-40.742" y2="277.258" gradientUnits="userSpaceOnUse"><stop stop-color="#D9D9D9"/><stop offset="1" stop-color="#D9D9D9" stop-opacity="0"/></linearGradient><linearGradient id="c" x1="277" x2="277" y1="341.258" y2="401.258" gradientUnits="userSpaceOnUse"><stop stop-opacity="0"/><stop offset="1"/></linearGradient><linearGradient id="d" x1="276.6" x2="276.6" y1="32.47" y2="-47.75" gradientUnits="userSpaceOnUse"><stop offset=".13"/><stop offset=".153" stop-color="#0B0B0B"/><stop offset=".2" stop-color="#171717"/><stop offset=".251" stop-color="#201F1F"/><stop offset=".307" stop-color="#222"/><stop offset=".543" stop-color="#232323"/><stop offset=".752" stop-color="#171717"/></linearGradient><linearGradient id="e" x1="197" x2="360.5" y1="14.758" y2="14.758" gradientUnits="userSpaceOnUse"><stop/><stop offset=".238" stop-opacity="0"/><stop offset=".763" stop-opacity="0"/><stop offset="1"/></linearGradient><linearGradient id="f" x1="276.601" x2="276.601" y1="328.361" y2="408.581" gradientUnits="userSpaceOnUse"><stop offset=".13"/><stop offset=".153" stop-color="#0B0B0B"/><stop offset=".2" stop-color="#1E1E1E"/><stop offset=".251" stop-color="#282828"/><stop offset=".307" stop-color="#2C2C2C"/><stop offset=".543" stop-color="#232323"/><stop offset=".752" stop-color="#171717"/></linearGradient><linearGradient id="g" x1="197" x2="360.5" y1="390.863" y2="390.863" gradientUnits="userSpaceOnUse"><stop/><stop offset=".238" stop-opacity="0"/><stop offset=".763" stop-opacity="0"/><stop offset="1"/></linearGradient><linearGradient id="i" x1="275.918" x2="275.918" y1="81.689" y2="37.431" gradientUnits="userSpaceOnUse"><stop offset=".49" stop-color="#fff" stop-opacity="0"/><stop offset=".781" stop-color="#fff" stop-opacity=".117"/><stop offset="1" stop-color="#fff" stop-opacity=".5"/></linearGradient><linearGradient id="k" x1="411.069" x2="411.069" y1="96.655" y2="146.237" gradientUnits="userSpaceOnUse"><stop stop-color="#69686B"/><stop offset=".009" stop-color="#6D6C6F"/><stop offset=".082" stop-color="#878689"/><stop offset=".148" stop-color="#969698"/><stop offset=".199" stop-color="#9C9C9E"/><stop offset=".522" stop-color="#424246"/><stop offset=".588" stop-color="#545458"/><stop offset=".722" stop-color="#848487"/><stop offset=".783" stop-color="#9C9C9E"/><stop offset=".822" stop-color="#919193"/><stop offset=".89" stop-color="#747476"/><stop offset=".978" stop-color="#464648"/><stop offset="1" stop-color="#39393B"/></linearGradient><linearGradient id="l" x1="403.96" x2="418.177" y1="121.446" y2="121.446" gradientUnits="userSpaceOnUse"><stop offset=".586" stop-color="#424246" stop-opacity="0"/><stop offset=".835" stop-color="#3F3F42" stop-opacity=".601"/><stop offset="1" stop-color="#39393B"/></linearGradient><linearGradient id="m" x1="418.177" x2="403.961" y1="121.446" y2="121.446" gradientUnits="userSpaceOnUse"><stop offset=".586" stop-color="#424246" stop-opacity="0"/><stop offset=".835" stop-color="#3F3F42" stop-opacity=".601"/><stop offset="1" stop-color="#39393B"/></linearGradient><linearGradient id="p" x1="351.579" x2="397.319" y1="180.185" y2="180.185" gradientUnits="userSpaceOnUse"><stop offset=".49" stop-color="#fff" stop-opacity="0"/><stop offset=".781" stop-color="#fff" stop-opacity=".117"/><stop offset="1" stop-color="#fff" stop-opacity=".5"/></linearGradient><linearGradient id="q" x1="200.93" x2="155.19" y1="180.164" y2="180.164" gradientUnits="userSpaceOnUse"><stop offset=".49" stop-color="#fff" stop-opacity="0"/><stop offset=".781" stop-color="#fff" stop-opacity=".117"/><stop offset="1" stop-color="#fff" stop-opacity=".5"/></linearGradient><linearGradient id="s" x1="274.375" x2="274.375" y1="73.28" y2="108.446" gradientUnits="userSpaceOnUse"><stop stop-color="#7A7A7A"/><stop offset=".26" stop-color="#7A7A7A" stop-opacity=".74"/><stop offset="1" stop-color="#7A7A7A" stop-opacity="0"/></linearGradient><linearGradient id="t" x1="273.512" x2="273.512" y1="108.446" y2="180.491" gradientUnits="userSpaceOnUse"><stop stop-color="#7A7A7A" stop-opacity="0"/><stop offset="1" stop-color="#7A7A7A"/></linearGradient><linearGradient id="u" x1="295.462" x2="295.462" y1="291.194" y2="305.251" gradientUnits="userSpaceOnUse"><stop/><stop offset="1" stop-opacity="0"/></linearGradient><linearGradient id="v" x1="479.967" x2="479.967" y1="66.273" y2="80.331" gradientUnits="userSpaceOnUse"><stop/><stop offset="1" stop-opacity="0"/></linearGradient><linearGradient id="x" x1="186.236" x2="364.952" y1="174.628" y2="174.808" gradientUnits="userSpaceOnUse"><stop stop-color="#fff" stop-opacity="0"/><stop offset=".161" stop-color="#fff"/><stop offset=".614" stop-color="#fff"/><stop offset=".807" stop-color="#fff"/><stop offset="1" stop-color="#fff" stop-opacity="0"/></linearGradient><linearGradient id="y" x1="564" x2="670" y1="562.774" y2="562.774" gradientUnits="userSpaceOnUse"><stop/><stop offset="1" stop-opacity="0"/></linearGradient><radialGradient id="h" cx="0" cy="0" r="1" gradientTransform="matrix(175.735 0 0 177.257 276.163 180.509)" gradientUnits="userSpaceOnUse"><stop offset=".196" stop-color="#A09FA2"/><stop offset=".5" stop-color="#9E9DA0"/><stop offset=".621" stop-color="#979699"/><stop offset=".709" stop-color="#8B8A8D"/><stop offset=".782" stop-color="#7A797B"/><stop offset=".844" stop-color="#646365"/><stop offset=".901" stop-color="#484849"/><stop offset=".95" stop-color="#282829"/><stop offset=".996" stop-color="#030303"/><stop offset="1"/></radialGradient><radialGradient id="j" cx="0" cy="0" r="1" gradientTransform="matrix(9.20038 0 0 25.5003 406.258 121.28)" gradientUnits="userSpaceOnUse"><stop/><stop offset=".847" stop-opacity="0"/></radialGradient><radialGradient id="n" cx="0" cy="0" r="1" gradientTransform="matrix(-11.4323 0 0 -30.0871 406.649 120.432)" gradientUnits="userSpaceOnUse"><stop stop-opacity=".1"/><stop offset=".147" stop-color="#565656" stop-opacity=".268"/><stop offset=".283" stop-color="#9E9E9E" stop-opacity=".423"/><stop offset=".395" stop-color="#D3D3D3" stop-opacity=".551"/><stop offset=".479" stop-color="#F3F3F3" stop-opacity=".647"/><stop offset=".525" stop-color="#fff" stop-opacity=".7"/><stop offset=".574" stop-color="#FAFAFA" stop-opacity=".639"/><stop offset=".632" stop-color="#EBEBEB" stop-opacity=".565"/><stop offset=".696" stop-color="#D2D2D2" stop-opacity=".484"/><stop offset=".765" stop-color="#B0B0B0" stop-opacity=".398"/><stop offset=".836" stop-color="#838383" stop-opacity=".307"/><stop offset=".91" stop-color="#4D4D4D" stop-opacity=".214"/><stop offset=".985" stop-color="#0E0E0E" stop-opacity=".119"/><stop offset="1" stop-opacity=".1"/></radialGradient><radialGradient id="o" cx="0" cy="0" r="1" gradientTransform="matrix(11.4341 0 0 30.0871 416.051 122.464)" gradientUnits="userSpaceOnUse"><stop stop-opacity=".1"/><stop offset=".147" stop-color="#565656" stop-opacity=".268"/><stop offset=".283" stop-color="#9E9E9E" stop-opacity=".423"/><stop offset=".395" stop-color="#D3D3D3" stop-opacity=".551"/><stop offset=".479" stop-color="#F3F3F3" stop-opacity=".647"/><stop offset=".525" stop-color="#fff" stop-opacity=".7"/><stop offset=".574" stop-color="#FAFAFA" stop-opacity=".639"/><stop offset=".632" stop-color="#EBEBEB" stop-opacity=".565"/><stop offset=".696" stop-color="#D2D2D2" stop-opacity=".484"/><stop offset=".765" stop-color="#B0B0B0" stop-opacity=".398"/><stop offset=".836" stop-color="#838383" stop-opacity=".307"/><stop offset=".91" stop-color="#4D4D4D" stop-opacity=".214"/><stop offset=".985" stop-color="#0E0E0E" stop-opacity=".119"/><stop offset="1" stop-opacity=".1"/></radialGradient><radialGradient id="z" cx="0" cy="0" r="1" gradientTransform="matrix(0 382.906 -389.405 0 -39.594 -7.836)" gradientUnits="userSpaceOnUse"><stop stop-color="#D9D9D9"/><stop offset="1" stop-color="#D9D9D9" stop-opacity="0"/></radialGradient><radialGradient id="A" cx="0" cy="0" r="1" gradientTransform="matrix(0 378 -389.5 0 -89.5 -19.742)" gradientUnits="userSpaceOnUse"><stop stop-color="#D9D9D9"/><stop offset="1" stop-color="#D9D9D9" stop-opacity="0"/></radialGradient><radialGradient id="B" cx="0" cy="0" r="1" gradientTransform="matrix(0 180 -362 0 728 180.258)" gradientUnits="userSpaceOnUse"><stop stop-color="#D9D9D9"/><stop offset="1" stop-color="#D9D9D9" stop-opacity="0"/></radialGradient><clipPath id="a"><path fill="#fff" d="M0 .258h564v360H0z"/></clipPath><clipPath id="r"><path fill="#fff" d="M183.001 66.273h182.748v228.435H183.001z"/></clipPath><clipPath id="w"><path fill="#fff" d="M309.792 240.377h44.218v44.218h-44.218z"/></clipPath></defs></svg>