<svg xmlns="http://www.w3.org/2000/svg" width="564" height="361" fill="none"><g clip-path="url(#a)"><path fill="#000" d="M0 .258h564v360H0z"/><path stroke="url(#b)" stroke-linecap="round" stroke-linejoin="round" stroke-miterlimit="10" stroke-width="2.5" d="M24 161.258c64.625 0 64.625 103 129.25 103s64.625-103 129.25-103 64.625 103 129.25 103 64.625-103 129.25-103"/><path fill="url(#c)" fill-opacity=".15" d="M-39.704.258h643.408v268H-39.704z"/><path fill="url(#d)" fill-opacity=".2" d="M953.811-57.836c0 211.474-174.343 382.907-389.406 382.907C349.343 325.071 175 153.638 175-57.836s174.343-382.906 389.405-382.906c215.063 0 389.406 171.433 389.406 382.906"/><path fill="url(#e)" fill-opacity=".2" d="M953.811-57.836c0 211.474-174.343 382.907-389.406 382.907C349.343 325.071 175 153.638 175-57.836s174.343-382.906 389.405-382.906c215.063 0 389.406 171.433 389.406 382.906"/><path fill="url(#f)" fill-opacity=".2" d="M86.254 89.015C133.807 197.68 32.411 347.012-140.22 422.556s-351.126 48.694-398.678-59.971c-47.553-108.666 53.843-257.997 226.474-333.542S38.701-19.65 86.254 89.015"/><g style="mix-blend-mode:screen"><path stroke="url(#g)" stroke-linecap="round" stroke-linejoin="round" stroke-miterlimit="10" stroke-width="2.5" d="M201.993 29.261v86"/><path stroke="url(#h)" stroke-linecap="round" stroke-linejoin="round" stroke-miterlimit="10" stroke-width="2.5" d="M361.993 29.261v86"/><path stroke="url(#i)" stroke-linecap="round" stroke-linejoin="round" stroke-miterlimit="10" stroke-width="2.5" d="M43 28.273v75.092c0 7.063 5.725 12.788 12.788 12.788h213.677c7.063 0 12.788 5.725 12.788 12.788h-.074c0-7.063 5.725-12.788 12.788-12.788h213.677c7.063 0 12.788-5.725 12.788-12.788V28.273"/><path stroke="#fff" stroke-linecap="round" stroke-linejoin="round" stroke-miterlimit="10" stroke-width="2.5" d="m120.775 87.127-3.643-16.654-16.654-3.643 34.869-14.573z"/><path stroke="#fff" stroke-linecap="round" stroke-linejoin="round" stroke-miterlimit="10" stroke-width="2.5" d="M121.444 99.171c18.478 0 33.457-14.979 33.457-33.457 0-18.477-14.979-33.456-33.457-33.456S87.987 47.237 87.987 65.714s14.979 33.457 33.457 33.457M443.515 56.359c0-7.435-6.245-13.457-13.754-13.085-6.394.297-11.673 5.353-12.342 11.672-.372 3.718.818 7.138 2.974 9.74l23.122 23.197 23.123-23.197a13.11 13.11 0 0 0 2.974-9.74c-.67-6.32-5.948-11.375-12.342-11.672-7.509-.372-13.755 5.65-13.755 13.085"/><path stroke="#fff" stroke-linecap="round" stroke-linejoin="round" stroke-miterlimit="10" stroke-width="2.5" d="M443.515 56.359c0-7.435-6.245-13.457-13.754-13.085-6.394.297-11.673 5.353-12.342 11.672-.372 3.718.818 7.138 2.974 9.74l23.122 23.197 23.123-23.197a13.11 13.11 0 0 0 2.974-9.74c-.67-6.32-5.948-11.375-12.342-11.672-7.509-.372-13.755 5.65-13.755 13.085M303.079 74.804l6.989-8.773c.297-.298.297-.595 0-.818l-6.989-8.773M256.76 65.584h52.713M288.061 55.547l6.988-8.698c.298-.298.298-.595 0-.818l-6.988-8.773M256.76 46.403h37.323M288.061 93.91l6.988-8.773c.298-.297.298-.594 0-.817l-6.988-8.7M256.76 84.767h37.694"/><path stroke="url(#j)" stroke-linecap="round" stroke-linejoin="round" stroke-miterlimit="10" stroke-width="2.5" d="M32.438 218.302c20.803 0 20.803 106.914 41.607 106.914s20.803-106.914 41.607-106.914 20.804 106.914 41.607 106.914 20.804-106.914 41.607-106.914 20.804 106.914 41.608 106.914 20.803-106.914 41.607-106.914 20.803 106.914 41.607 106.914 20.804-106.914 41.607-106.914 20.804 106.914 41.608 106.914 20.803-106.914 41.607-106.914 20.803 106.914 41.607 106.914 20.804-106.914 41.607-106.914" opacity=".3"/><g clip-path="url(#k)" opacity=".3"><path stroke="url(#l)" stroke-linecap="round" stroke-linejoin="round" stroke-miterlimit="10" stroke-width="2.5" d="M531.563 196.535c-20.803 0-20.803-60.553-41.607-60.553s-20.803 60.553-41.607 60.553-20.804-60.553-41.607-60.553-20.804 60.553-41.607 60.553-20.804-60.553-41.608-60.553-20.803 60.553-41.607 60.553-20.803-60.553-41.607-60.553-20.804 60.553-41.607 60.553-20.804-60.553-41.608-60.553-20.803 60.553-41.607 60.553-20.803-60.553-41.607-60.553-20.804 60.553-41.607 60.553"/></g></g><path stroke="url(#m)" stroke-width="2.5" d="M282.2 128.258v227"/><path fill="#fff" d="M282.11 170.209a8.475 8.475 0 1 0 0-16.951 8.475 8.475 0 0 0-8.475 8.476 8.475 8.475 0 0 0 8.475 8.475"/><path fill="url(#n)" fill-opacity=".1" d="M521 386.758c0 82.567-106.332 149.5-237.5 149.5S46 469.325 46 386.758s106.332-149.5 237.5-149.5S521 304.191 521 386.758"/></g><defs><linearGradient id="b" x1="21.546" x2="543.521" y1="212.758" y2="212.758" gradientUnits="userSpaceOnUse"><stop/><stop offset=".104" stop-color="#fff"/><stop offset=".758" stop-color="#fff"/><stop offset=".87" stop-color="#fff"/><stop offset=".885" stop-color="#FBFBFB"/><stop offset=".901" stop-color="#EEE"/><stop offset=".918" stop-color="#D9D9D9"/><stop offset=".935" stop-color="#BBB"/><stop offset=".952" stop-color="#949494"/><stop offset=".97" stop-color="#656565"/><stop offset=".987" stop-color="#2F2F2F"/><stop offset="1"/></linearGradient><linearGradient id="c" x1="282" x2="282" y1=".258" y2="268.258" gradientUnits="userSpaceOnUse"><stop stop-color="#D9D9D9"/><stop offset="1" stop-color="#D9D9D9" stop-opacity="0"/></linearGradient><linearGradient id="g" x1="202.493" x2="202.493" y1="29.261" y2="115.261" gradientUnits="userSpaceOnUse"><stop/><stop offset=".79" stop-color="#8A8A8A"/></linearGradient><linearGradient id="h" x1="362.493" x2="362.493" y1="29.261" y2="115.261" gradientUnits="userSpaceOnUse"><stop/><stop offset=".79" stop-color="#8A8A8A"/></linearGradient><linearGradient id="i" x1="282.216" x2="281.993" y1="130.168" y2="19.757" gradientUnits="userSpaceOnUse"><stop stop-color="#A6A6A6"/><stop offset=".931"/></linearGradient><linearGradient id="j" x1="30" x2="533.941" y1="271.745" y2="271.745" gradientUnits="userSpaceOnUse"><stop/><stop offset=".104" stop-color="#fff"/><stop offset=".758" stop-color="#fff"/><stop offset=".87" stop-color="#fff"/><stop offset=".885" stop-color="#FBFBFB"/><stop offset=".901" stop-color="#EEE"/><stop offset=".918" stop-color="#D9D9D9"/><stop offset=".935" stop-color="#BBB"/><stop offset=".952" stop-color="#949494"/><stop offset=".97" stop-color="#656565"/><stop offset=".987" stop-color="#2F2F2F"/><stop offset="1"/></linearGradient><linearGradient id="l" x1="534.001" x2="30.06" y1="166.266" y2="166.266" gradientUnits="userSpaceOnUse"><stop/><stop offset=".104" stop-color="#fff"/><stop offset=".758" stop-color="#fff"/><stop offset=".87" stop-color="#fff"/><stop offset=".885" stop-color="#FBFBFB"/><stop offset=".901" stop-color="#EEE"/><stop offset=".918" stop-color="#D9D9D9"/><stop offset=".935" stop-color="#BBB"/><stop offset=".952" stop-color="#949494"/><stop offset=".97" stop-color="#656565"/><stop offset=".987" stop-color="#2F2F2F"/><stop offset="1"/></linearGradient><linearGradient id="m" x1="282.7" x2="282.7" y1="128.258" y2="355.258" gradientUnits="userSpaceOnUse"><stop offset=".184" stop-color="#ADADAD"/><stop offset="1"/></linearGradient><radialGradient id="d" cx="0" cy="0" r="1" gradientTransform="matrix(0 382.906 -389.405 0 564.405 -57.836)" gradientUnits="userSpaceOnUse"><stop stop-color="#D9D9D9"/><stop offset="1" stop-color="#D9D9D9" stop-opacity="0"/></radialGradient><radialGradient id="e" cx="0" cy="0" r="1" gradientTransform="matrix(0 382.906 -389.405 0 564.405 -57.836)" gradientUnits="userSpaceOnUse"><stop stop-color="#D9D9D9"/><stop offset="1" stop-color="#D9D9D9" stop-opacity="0"/></radialGradient><radialGradient id="f" cx="0" cy="0" r="1" gradientTransform="rotate(66.366 -285.804 -60.142)scale(214.771 341.195)" gradientUnits="userSpaceOnUse"><stop stop-color="#D9D9D9"/><stop offset="1" stop-color="#D9D9D9" stop-opacity="0"/></radialGradient><radialGradient id="n" cx="0" cy="0" r="1" gradientTransform="matrix(0 149.5 -237.5 0 283.5 386.758)" gradientUnits="userSpaceOnUse"><stop stop-color="#D9D9D9"/><stop offset="1" stop-color="#D9D9D9" stop-opacity="0"/></radialGradient><clipPath id="a"><path fill="#fff" d="M0 .258h564v360H0z"/></clipPath><clipPath id="k"><path fill="#fff" d="M534 198.259H30v-64h504z"/></clipPath></defs></svg>