<svg xmlns="http://www.w3.org/2000/svg" width="564" height="360" fill="none"><g clip-path="url(#a)"><path fill="#000" d="M0 0h564v360H0z"/><path fill="#fff" stroke="#fff" stroke-miterlimit="10" stroke-width="1.048" d="M547.496 45.662a1.608 1.608 0 1 1-3.107.83 1.608 1.608 0 0 1 3.107-.83ZM267.761 114.926c.172.643-.383 1.35-1.24 1.58-.858.23-1.692-.105-1.864-.748s.383-1.35 1.24-1.58 1.691.105 1.864.748ZM352.72 181.321a.403.403 0 1 1-.778.207.403.403 0 0 1 .778-.207Z" opacity=".6"/><path stroke="#fff" stroke-miterlimit="10" stroke-width="1.048" d="m238.301 189.225-.104-.388-.104-.388a72 72 0 0 0 .208.776Z" opacity=".6"/><path fill="#fff" stroke="#fff" stroke-miterlimit="10" stroke-width="1.048" d="M509.129 29.743a.402.402 0 1 1-.777.207.402.402 0 0 1 .777-.207ZM333.72 51.793a.402.402 0 1 1-.777.208.402.402 0 0 1 .777-.208ZM210.029 89.926c.172.643-.383 1.35-1.24 1.58s-1.692-.105-1.864-.748.383-1.35 1.24-1.58 1.692.105 1.864.748ZM499.008 216.266c.172.643-.383 1.35-1.24 1.58-.858.229-1.692-.106-1.864-.748-.173-.643.383-1.351 1.24-1.58s1.691.105 1.864.748ZM416.18 347.834a1.606 1.606 0 1 1-3.103.83 1.606 1.606 0 0 1 3.103-.83ZM146.373 89.009a1.204 1.204 0 1 1-2.326.625 1.204 1.204 0 0 1 2.326-.625ZM113.809 275.404a1.607 1.607 0 1 1-3.104.832 1.607 1.607 0 0 1 3.104-.832ZM128.513 280.615a1.607 1.607 0 1 1-3.104.832 1.607 1.607 0 0 1 3.104-.832ZM138.179 31.834a1.607 1.607 0 1 1-3.103.832 1.607 1.607 0 0 1 3.103-.832ZM340.05 349.942c.172.643-.383 1.35-1.24 1.58-.858.229-1.692-.106-1.864-.749-.173-.642.383-1.35 1.24-1.579.857-.23 1.691.105 1.864.748ZM137.019 142.348c.172.643-.383 1.35-1.241 1.58-.857.229-1.691-.105-1.864-.748-.172-.643.383-1.351 1.241-1.58.857-.23 1.691.105 1.864.748ZM449.266 152.251a1.607 1.607 0 1 1-3.104.832 1.607 1.607 0 0 1 3.104-.832ZM263.829 313.805a.401.401 0 1 1-.775.208.401.401 0 0 1 .775-.208ZM422.166 296.332a.401.401 0 1 1-.774.209.401.401 0 0 1 .774-.209ZM385.882 247.832a.401.401 0 1 1-.777.21.401.401 0 0 1 .777-.21ZM468.442 347.977a.402.402 0 1 1-.777.207.402.402 0 0 1 .777-.207ZM171.943 203.688a.401.401 0 1 1-.774.209.401.401 0 0 1 .774-.209ZM172.307 224.383a.402.402 0 1 1-.777.207.402.402 0 0 1 .777-.207ZM19.083 170.205a1.607 1.607 0 1 1-3.104.831 1.607 1.607 0 0 1 3.104-.831ZM246.496 204.564a1.608 1.608 0 0 1-3.105.832 1.607 1.607 0 0 1 3.105-.832ZM314.019 65.454a.402.402 0 1 1-.777.207.402.402 0 0 1 .777-.207ZM417.059 155.118a.403.403 0 1 1-.778.207.403.403 0 0 1 .778-.207ZM51.72 340.223a.402.402 0 1 1-.776.208.402.402 0 0 1 .776-.208ZM208.129 188.645a.403.403 0 0 1-.776.208.402.402 0 0 1 .776-.208Z" opacity=".6"/><path stroke="#fff" stroke-miterlimit="10" stroke-width="1.048" d="m473.843 14.728.388-.104-.388.104-.388.104z" opacity=".6"/><path fill="#fff" stroke="#fff" stroke-miterlimit="10" stroke-width="1.048" d="M32.72 210.696a.402.402 0 1 1-.777.207.402.402 0 0 1 .777-.207ZM467.52 65.552a1.607 1.607 0 1 1-3.103.832 1.607 1.607 0 0 1 3.103-.832ZM294.787 167.502c.23.858-.105 1.692-.748 1.864s-1.35-.383-1.58-1.24.105-1.691.748-1.864c.643-.172 1.35.383 1.58 1.24ZM224.941 139.642a1.608 1.608 0 1 1-3.106.83 1.608 1.608 0 0 1 3.106-.83ZM84.475 84.127a1.607 1.607 0 1 1-3.104.831 1.607 1.607 0 0 1 3.104-.831ZM343.708 52.091a1.607 1.607 0 1 1-3.104.832 1.607 1.607 0 0 1 3.104-.832Z" opacity=".6"/><path fill="url(#b)" fill-opacity=".28" d="M74.5-491C343.187-491 561-304.974 561-75.5S343.187 340 74.5 340-412 153.974-412-75.5-194.187-491 74.5-491"/><path fill="url(#c)" fill-opacity=".2" d="M414 15c156.849 0 284 75.44 284 168.5S570.849 352 414 352s-284-75.44-284-168.5S257.151 15 414 15"/><path fill="#000" stroke="#4C4C4C" stroke-miterlimit="10" stroke-width="2.5" d="M490.131 100.902H100.666c-13.472 0-24.405 10.891-24.405 24.309v15.299a20.2 20.2 0 0 1-5.955 14.293l-19.33 19.253a6.613 6.613 0 0 0 0 9.431l19.33 19.253a20.2 20.2 0 0 1 5.955 14.293v17.021c0 13.418 10.933 24.309 24.405 24.309h389.367c13.472 0 24.406-10.891 24.406-24.309V125.211c.097-13.418-10.836-24.309-24.308-24.309Z"/><path fill="#fff" d="m127.511 143.935 5.553-9.165h2.754l-3.024 9.165zm7.585 0 5.553-9.165h2.754l-3.025 9.165zm5.405 22.799 11.197-31.603h3.702l11.151 31.603h-4.108l-2.889-8.487h-12.01l-2.889 8.487zm8.217-12.144h9.662l-4.831-14.177zm20.841 12.144V134.77h3.747v31.964zm28.867-12.37v1.58h-16.75c.181 4.515 2.574 7.811 6.682 7.811 3.205 0 4.966-1.355 6.501-4.425l3.16 1.355c-2.167 4.469-5.146 6.411-9.751 6.411-6.592 0-10.384-5.508-10.384-11.739 0-6.32 3.747-11.738 10.384-11.738 6.411 0 10.158 4.876 10.158 10.745m-16.524-1.625h12.731c-.541-3.386-2.618-5.779-6.365-5.779-2.98 0-5.553 1.896-6.366 5.779m17.04 13.995 7.63-12.325-6.456-10.429h4.018l4.425 7.224 4.469-7.224h4.018l-6.456 10.429 7.63 12.325h-3.883l-5.778-9.119-5.734 9.119zm28.006.362c-3.838 0-7.043-2.077-7.043-6.908 0-4.876 3.882-7.449 10.067-7.449h3.973v-.994c0-3.476-2.121-4.785-4.83-4.785s-4.244 1.535-4.967 3.702l-3.34-.768c.632-3.837 4.063-6.275 8.307-6.275 4.966 0 8.533 2.98 8.533 8.533v14.582h-2.935l-.677-3.295c-1.355 2.122-3.612 3.657-7.088 3.657m.677-3.341c2.799 0 6.32-1.987 6.32-7.088v-.723h-3.837c-4.289 0-6.321 1.535-6.321 4.199 0 2.348 1.49 3.612 3.838 3.612m13.268 7.314 2.483-9.03h5.282l-5.011 9.03zm29.491-3.973c-5.012 0-7.675-3.116-8.488-6.186l3.115-1.67c.858 2.664 2.393 4.515 5.373 4.515 2.167 0 3.611-1.219 3.611-3.432 0-2.076-2.122-3.115-4.921-4.153-3.25-1.174-5.643-2.89-5.643-6.456 0-3.612 2.844-6.095 6.637-6.095 2.979 0 5.146 1.219 6.591 3.567l-2.438 2.167c-1.129-1.761-2.528-2.393-4.199-2.393-1.625 0-2.979.993-2.979 2.754 0 1.715 1.399 2.618 5.056 3.973 2.98 1.083 5.553 3.025 5.553 6.501 0 4.289-2.889 6.908-7.268 6.908m18.861 0c-3.928 0-6.591-2.258-6.591-7.314v-12.461h-3.838v-3.341h3.838v-6.817l3.747-2.393v9.21h6.095v3.341h-6.095v12.732c0 2.618 1.219 3.702 3.16 3.702.858 0 1.761-.136 2.619-.632l.948 3.16c-1.174.587-2.573.813-3.883.813m12.945 0c-3.837 0-7.043-2.077-7.043-6.908 0-4.876 3.883-7.449 10.068-7.449h3.973v-.994c0-3.476-2.122-4.785-4.831-4.785s-4.244 1.535-4.966 3.702l-3.341-.768c.632-3.837 4.063-6.275 8.307-6.275 4.966 0 8.533 2.98 8.533 8.533v14.582h-2.934l-.678-3.295c-1.354 2.122-3.611 3.657-7.088 3.657m.677-3.341c2.8 0 6.321-1.987 6.321-7.088v-.723h-3.838c-4.289 0-6.32 1.535-6.32 4.199 0 2.348 1.49 3.612 3.837 3.612m15.346 2.979V143.98h3.747v3.928c1.445-2.754 3.748-4.289 6.682-4.289 1.219 0 2.167.271 3.206.677l-.768 3.477c-.903-.497-1.806-.768-2.934-.768-3.386 0-6.186 3.521-6.186 11.151v8.578zm25.683.362c-3.927 0-6.591-2.258-6.591-7.314v-12.461h-3.838v-3.341h3.838v-6.817l3.747-2.393v9.21h6.095v3.341h-6.095v12.732c0 2.618 1.219 3.702 3.16 3.702.858 0 1.761-.136 2.619-.632l.948 3.16c-1.174.587-2.573.813-3.883.813m26.436 0c-5.418 0-9.391-3.928-10.203-8.624l3.25-2.031c.903 3.792 2.89 6.998 6.998 6.998 2.889 0 5.192-1.716 5.192-5.373s-3.205-5.147-6.998-6.953c-3.566-1.715-6.636-4.108-6.636-8.623s3.386-7.72 7.945-7.72c4.38 0 6.727 2.077 8.082 5.147l-3.206 2.032c-1.128-2.754-2.979-3.522-4.876-3.522-2.528 0-4.108 1.806-4.108 3.838 0 3.386 3.115 4.83 6.501 6.365 3.973 1.806 7.269 4.199 7.269 9.256 0 5.598-3.928 9.21-9.21 9.21m13.71-.362V134.77h3.747v31.964zm28.867-12.37v1.58h-16.75c.181 4.515 2.574 7.811 6.682 7.811 3.206 0 4.966-1.355 6.501-4.425l3.161 1.355c-2.167 4.469-5.147 6.411-9.752 6.411-6.592 0-10.384-5.508-10.384-11.739 0-6.32 3.747-11.738 10.384-11.738 6.411 0 10.158 4.876 10.158 10.745m-16.524-1.625h12.732c-.542-3.386-2.619-5.779-6.366-5.779-2.98 0-5.553 1.896-6.366 5.779m40.355 1.625v1.58h-16.75c.181 4.515 2.574 7.811 6.682 7.811 3.206 0 4.966-1.355 6.501-4.425l3.161 1.355c-2.167 4.469-5.147 6.411-9.752 6.411-6.592 0-10.384-5.508-10.384-11.739 0-6.32 3.747-11.738 10.384-11.738 6.411 0 10.158 4.876 10.158 10.745m-16.524-1.625h12.732c-.542-3.386-2.619-5.779-6.366-5.779-2.98 0-5.553 1.896-6.366 5.779m21.122 23.205V143.98h3.748v2.935c.993-1.626 3.611-3.296 6.636-3.296 6.682 0 10.204 5.056 10.204 11.738s-3.522 11.739-10.204 11.739c-2.573 0-5.282-1.219-6.636-3.206v12.054zm10.023-12.189c4.199 0 6.682-3.522 6.682-8.398 0-4.921-2.483-8.397-6.682-8.397s-6.637 3.476-6.637 8.397c0 4.876 2.438 8.398 6.637 8.398m-256.947 58.979-6.953-22.754h3.838l4.876 17.743 4.514-17.743h3.567l4.47 17.743 4.921-17.743h3.837l-6.998 22.754h-3.521l-4.515-17.336-4.47 17.336zm28.01-26.591c-1.535 0-2.709-1.174-2.709-2.709s1.174-2.709 2.709-2.709c1.58 0 2.754 1.174 2.754 2.709s-1.174 2.709-2.754 2.709m-1.852 26.591V199.98h3.748v22.754zm17.174.362c-3.927 0-6.591-2.258-6.591-7.314v-12.461h-3.838v-3.341h3.838v-6.817l3.747-2.393v9.21h6.095v3.341h-6.095v12.732c0 2.618 1.219 3.702 3.16 3.702.858 0 1.761-.136 2.619-.632l.948 3.16c-1.174.587-2.573.813-3.883.813m6.945-.362V190.77h3.747v13.77c1.535-3.251 4.65-4.921 7.811-4.921 4.424 0 7.088 2.528 7.088 7.269v15.846h-3.702v-14.943c0-3.116-1.445-4.831-4.289-4.831-3.657 0-6.908 3.657-6.908 10.113v9.661zm35.506 0v-31.603h18.375v3.657h-14.447v9.301h11.738v3.611h-11.738v11.377h14.899v3.657zm23.29 0V199.98h3.747v4.379c1.58-2.799 4.379-4.74 7.539-4.74 4.199 0 6.998 2.573 6.998 7.269v15.846h-3.702V207.7c0-3.115-1.445-4.74-4.199-4.74-3.702 0-6.636 3.792-6.636 10.068v9.706zm32.898.362c-6.547 0-10.068-5.057-10.068-11.739s3.521-11.738 10.068-11.738c2.934 0 5.372 1.264 6.817 3.205V190.77h3.702v31.964h-3.702v-2.979c-1.083 1.67-3.747 3.341-6.817 3.341m.496-3.341c4.244 0 6.637-3.477 6.637-8.398 0-4.876-2.393-8.397-6.637-8.397-4.198 0-6.681 3.521-6.681 8.397 0 4.921 2.483 8.398 6.681 8.398m35.132-9.391v1.58h-16.75c.181 4.515 2.574 7.811 6.682 7.811 3.205 0 4.966-1.355 6.501-4.425l3.16 1.355c-2.167 4.469-5.146 6.411-9.751 6.411-6.592 0-10.384-5.508-10.384-11.739 0-6.32 3.747-11.738 10.384-11.738 6.411 0 10.158 4.876 10.158 10.745m-16.524-1.625h12.731c-.541-3.386-2.618-5.779-6.365-5.779-2.98 0-5.553 1.896-6.366 5.779m21.122 13.995V190.77h3.747v31.964zm7.874-22.799 2.979-9.165h5.283l-5.553 9.165zm7.584 0 2.98-9.165h5.282l-5.553 9.165z"/></g><defs><radialGradient id="b" cx="0" cy="0" r="1" gradientTransform="matrix(486.5 0 0 415.5 74.5 -75.5)" gradientUnits="userSpaceOnUse"><stop stop-color="#D9D9D9"/><stop offset="1" stop-color="#D9D9D9" stop-opacity="0"/></radialGradient><radialGradient id="c" cx="0" cy="0" r="1" gradientTransform="matrix(284 0 0 168.5 414 183.5)" gradientUnits="userSpaceOnUse"><stop stop-color="#D9D9D9"/><stop offset="1" stop-color="#D9D9D9" stop-opacity="0"/></radialGradient><clipPath id="a"><path fill="#fff" d="M0 0h564v360H0z"/></clipPath></defs></svg>