<svg xmlns="http://www.w3.org/2000/svg" width="564" height="360" fill="none"><g clip-path="url(#a)"><path fill="url(#b)" fill-opacity=".18" d="M493.441 208.1c0 183.753-151.465 332.715-338.306 332.715S-183.171 391.853-183.171 208.1c0-183.754 151.465-332.715 338.306-332.715S493.441 24.346 493.441 208.1"/><path fill="url(#c)" d="M486.808 11.403h24.875v311.946h-24.875z"/><ellipse cx="514.171" cy="3.258" fill="url(#d)" rx="165.836" ry="162.896"/><g clip-path="url(#e)"><path fill="#000" d="M-215-25H907.06v840.936H-215z"/><path fill="url(#f)" d="M1079.12 479.077H2534.4v518.618H1079.12z" transform="rotate(-180 1079.12 479.077)"/><path fill="url(#g)" d="M-336.456 340.58h1376.36v457.751h-1376.36z"/><ellipse cx="475.097" cy="117.783" fill="url(#h)" rx="249.203" ry="205.957" style="mix-blend-mode:overlay"/><path fill="url(#i)" d="M-278.698 781.763h1419.15v888.62h-1419.15z" transform="rotate(-45.402 -278.698 781.763)"/><path fill="url(#j)" d="M122.383-269.627h1419.15v888.62H122.383z" transform="rotate(60 122.383 -269.627)"/></g><ellipse cx="-89.884" cy="-273.386" fill="url(#k)" opacity=".4" rx="857.506" ry="707.339"/><ellipse cx="788.827" cy="682.339" fill="url(#l)" opacity=".4" rx="857.506" ry="707.339"/><path fill="url(#m)" d="M530.415 89.482v235.409a6 6 0 0 1-6 6h-484a6 6 0 0 1-6-6V89.482z"/><rect width="20.945" height="20.945" x="235.889" y="287.79" fill="#191919" rx="10.473"/><path stroke="#fff" stroke-linecap="round" stroke-linejoin="round" stroke-width=".785" d="M248.468 296.874h2.614l-1.666-1.667a4.32 4.32 0 0 0-4.173-1.118 4.32 4.32 0 0 0-3.055 3.056m-.547 5.12v-2.614m0 0h2.614m-2.614 0 1.665 1.667a4.32 4.32 0 0 0 4.173 1.118 4.32 4.32 0 0 0 3.054-3.055m.549-5.121v2.613"/><rect width="37.7" height="37.7" x="263.115" y="279.413" fill="#262626" rx="18.85"/><path stroke="#fff" stroke-linecap="round" stroke-linejoin="round" stroke-width="1.01" d="M279.272 292.876v11.22M284.882 292.876v11.22"/><rect width="20.945" height="20.945" x="307.097" y="287.79" fill="#191919" rx="10.473"/><path fill="#fff" fill-rule="evenodd" d="M316.509 293.66a.313.313 0 0 1 .011-.627l2.11.041a.314.314 0 0 1-.011.627zm1.06 9.832a4.71 4.71 0 0 0 4.713-4.706 4.71 4.71 0 0 0-4.713-4.706 4.71 4.71 0 0 0-4.713 4.706 4.71 4.71 0 0 0 4.713 4.706m-.001-.785a3.923 3.923 0 0 0 3.926-3.921 3.923 3.923 0 0 0-3.926-3.921 3.924 3.924 0 0 0-3.926 3.921 3.924 3.924 0 0 0 3.926 3.921m-.327-6.617a.333.333 0 1 1 .666 0v3.126a.333.333 0 1 1-.666 0z" clip-rule="evenodd"/><path stroke="#fff" stroke-linecap="round" stroke-linejoin="round" stroke-width=".785" d="M375.704 294.961a4.704 4.704 0 0 1 1.021 5.136 4.7 4.7 0 0 1-1.021 1.529m-1.388-5.277a2.75 2.75 0 0 1 0 3.888m-5.086-3.907 2.471-2.472a.39.39 0 0 1 .604.06c.043.064.066.14.066.218v8.315a.4.4 0 0 1-.242.362.39.39 0 0 1-.428-.085l-2.471-2.471h-1.173c-.461 0-.893-.266-1.015-.709a4.75 4.75 0 0 1 0-2.509c.122-.445.554-.709 1.015-.709z"/><rect width="52.346" height="2.094" x="383.148" y="297.247" fill="#777" rx="1.047"/><rect width="38.736" height="2.094" x="382.45" y="297.247" fill="#fff" rx="1.047"/><circle cx="420.837" cy="298.293" r="4.711" fill="#fff"/><rect width="41.89" height="29.323" x="129.662" y="284.261" fill="#191919" rx="6.284"/><path stroke="#fff" stroke-linecap="round" stroke-linejoin="round" stroke-width=".785" d="M152.57 295.78a1.965 1.965 0 0 1-3.352 1.389 1.965 1.965 0 0 1 1.389-3.352 1.964 1.964 0 0 1 1.963 1.963m-5.89 7.393a3.928 3.928 0 0 1 7.853 0 9.4 9.4 0 0 1-3.926.855 9.4 9.4 0 0 1-3.927-.855"/><g clip-path="url(#n)"><path fill="url(#o)" d="M0 0h758.639v60.806H0z" transform="translate(-96.904 67.113)"/><path fill="#fff" d="M270.373 93.516v-7.894h2.651c1.454 0 2.3.744 2.3 2.075 0 1.127-.609 1.815-1.646 2.018l2.368 3.8h-1.094l-2.357-3.743h-1.24v3.744zm.982-4.658h1.635c.857 0 1.342-.338 1.342-1.161 0-.812-.485-1.162-1.342-1.162h-1.635zm10.339 1.568v.394h-4.184c.045 1.128.643 1.951 1.669 1.951.801 0 1.241-.338 1.624-1.105l.789.338c-.541 1.117-1.285 1.602-2.436 1.602-1.646 0-2.593-1.376-2.593-2.932 0-1.579.936-2.932 2.593-2.932 1.602 0 2.538 1.218 2.538 2.684m-4.128-.406h3.181c-.136-.846-.655-1.444-1.591-1.444-.744 0-1.387.474-1.59 1.444m5.502 3.496V85.53h.936v7.985zm3.955.09c-.959 0-1.76-.519-1.76-1.725 0-1.219.97-1.861 2.515-1.861h.993v-.248c0-.869-.53-1.196-1.207-1.196s-1.06.384-1.241.925l-.834-.192c.158-.958 1.015-1.567 2.075-1.567 1.24 0 2.131.744 2.131 2.131v3.643h-.733l-.169-.824c-.338.53-.902.914-1.77.914m.169-.835c.699 0 1.579-.496 1.579-1.77v-.18h-.959c-1.071 0-1.579.383-1.579 1.048 0 .587.372.902.959.902m3.325.745 1.906-3.079-1.613-2.605h1.004l1.105 1.804 1.117-1.804h1.003l-1.612 2.605 1.905 3.079h-.969l-1.444-2.278-1.432 2.278z"/><path fill="#BFBFBF" d="m226.782 107.516 2.289-6.459h.756l2.279 6.459h-.839l-.591-1.735h-2.454l-.591 1.735zm1.68-2.482h1.974l-.987-2.898zm4.545 2.482v-3.968h-.692v-.683h.692v-.276c0-1.108.572-1.606 1.494-1.606.268 0 .508.065.656.139l-.166.655a1.1 1.1 0 0 0-.499-.111c-.452 0-.729.258-.729.83v.369h1.08v.683h-1.08v3.968zm4.575.073c-.803 0-1.347-.461-1.347-1.494v-2.547h-.785v-.683h.785v-1.393l.765-.489v1.882h1.246v.683H237v2.602c0 .535.25.757.646.757.176 0 .36-.028.535-.13l.194.646c-.24.12-.526.166-.793.166m5.408-2.601v.322h-3.423c.037.923.526 1.597 1.365 1.597.656 0 1.015-.277 1.329-.905l.646.277c-.443.914-1.052 1.31-1.993 1.31-1.347 0-2.122-1.125-2.122-2.398 0-1.292.766-2.399 2.122-2.399 1.31 0 2.076.996 2.076 2.196m-3.377-.333h2.602c-.111-.692-.535-1.181-1.301-1.181-.609 0-1.135.388-1.301 1.181m4.501 2.861v-4.651h.766v.803c.295-.563.766-.876 1.366-.876.249 0 .443.055.655.138l-.157.71a1.2 1.2 0 0 0-.6-.156c-.692 0-1.264.719-1.264 2.279v1.753zm3.577 0v-4.651h.766v.895c.323-.572.895-.968 1.541-.968.858 0 1.43.525 1.43 1.485v3.239h-.756v-3.073c0-.637-.296-.969-.858-.969-.757 0-1.357.775-1.357 2.058v1.984zm7.093.073c-1.403 0-2.242-1.134-2.242-2.398s.839-2.399 2.242-2.399c1.393 0 2.233 1.134 2.233 2.399 0 1.264-.84 2.398-2.233 2.398m0-.682c.941 0 1.439-.84 1.439-1.716 0-.877-.498-1.717-1.439-1.717-.951 0-1.449.84-1.449 1.717 0 .876.498 1.716 1.449 1.716m5.325.682c-1.402 0-2.242-1.134-2.242-2.398s.84-2.399 2.242-2.399c1.393 0 2.233 1.134 2.233 2.399 0 1.264-.84 2.398-2.233 2.398m0-.682c.941 0 1.439-.84 1.439-1.716 0-.877-.498-1.717-1.439-1.717-.95 0-1.449.84-1.449 1.717 0 .876.499 1.716 1.449 1.716m3.351.609v-4.651h.765v.895c.323-.572.895-.968 1.541-.968.858 0 1.43.525 1.43 1.485v3.239h-.756v-3.073c0-.637-.295-.969-.858-.969-.757 0-1.357.775-1.357 2.058v1.984zm7.544 0v-6.459h3.755v.747h-2.952v1.901h2.399v.738h-2.399v2.325h3.045v.748zm4.944 0v-4.651h.766v.895c.323-.572.895-.968 1.541-.968.858 0 1.43.525 1.43 1.485v3.239h-.757v-3.073c0-.637-.295-.969-.858-.969-.756 0-1.356.775-1.356 2.058v1.984zm9.049-2.528v.322h-3.423c.036.923.525 1.597 1.365 1.597.655 0 1.015-.277 1.329-.905l.646.277c-.443.914-1.052 1.31-1.993 1.31-1.347 0-2.123-1.125-2.123-2.398 0-1.292.766-2.399 2.123-2.399 1.31 0 2.076.996 2.076 2.196m-3.377-.333h2.602c-.111-.692-.536-1.181-1.301-1.181-.609 0-1.135.388-1.301 1.181m4.501 2.861v-4.651h.766v.803c.295-.563.766-.876 1.365-.876.249 0 .443.055.655.138l-.156.71a1.2 1.2 0 0 0-.6-.156c-.692 0-1.264.719-1.264 2.279v1.753zm5.066 1.956c-1.19 0-1.984-.554-1.984-1.532 0-.424.194-.757.452-.96-.212-.147-.332-.396-.332-.747 0-.406.24-.71.572-.876a1.56 1.56 0 0 1-.341-1.006c0-.95.72-1.559 1.624-1.559.295 0 .581.083.821.212l.84-.471.332.572-.655.351c.175.249.276.544.276.895 0 .959-.71 1.559-1.614 1.559-.295 0-.572-.064-.812-.184-.231.11-.323.267-.323.461 0 .295.24.415.526.415h1.116c.858 0 1.477.397 1.477 1.264 0 1.144-.914 1.606-1.975 1.606m-.009-4.198c.48 0 .886-.342.886-.923s-.406-.923-.886-.923c-.489 0-.886.342-.886.923s.397.923.886.923m.009 3.533c.793 0 1.227-.35 1.227-.867s-.341-.692-.858-.692h-.84q-.26 0-.479-.028c-.24.166-.314.434-.314.702 0 .553.443.885 1.264.885m5.773-5.942h.775l-2.334 6.533h-.748l.711-2.012-1.67-4.521h.784l1.264 3.442zm3.986 4.651v-6.459h2.168c1.19 0 1.882.609 1.882 1.698 0 .922-.498 1.485-1.347 1.651l1.938 3.11h-.895l-1.929-3.064h-1.015v3.064zm.802-3.811h1.338c.701 0 1.098-.277 1.098-.95 0-.665-.397-.951-1.098-.951h-1.338zm8.46 1.283v.322h-3.423c.037.923.526 1.597 1.365 1.597.655 0 1.015-.277 1.329-.905l.646.277c-.443.914-1.052 1.31-1.993 1.31-1.347 0-2.122-1.125-2.122-2.398 0-1.292.765-2.399 2.122-2.399 1.31 0 2.076.996 2.076 2.196m-3.377-.333h2.602c-.111-.692-.535-1.181-1.301-1.181-.609 0-1.135.388-1.301 1.181m6.365 2.934c-1.421 0-2.131-1.153-2.131-2.398s.71-2.399 2.131-2.399c.95 0 1.615.424 1.947 1.301l-.683.267c-.231-.563-.637-.886-1.264-.886-.914 0-1.338.766-1.338 1.717 0 .941.424 1.716 1.338 1.716.627 0 1.015-.314 1.264-.886l.683.267c-.332.859-.997 1.301-1.947 1.301m2.993-.073v-6.533h.766v2.814a1.74 1.74 0 0 1 1.596-1.005c.904 0 1.448.516 1.448 1.485v3.239h-.756v-3.054c0-.637-.296-.988-.877-.988-.747 0-1.411.748-1.411 2.067v1.975zm6.254.073c-.784 0-1.44-.424-1.44-1.411 0-.997.794-1.523 2.058-1.523h.812v-.203c0-.71-.434-.978-.987-.978-.554 0-.868.314-1.015.757l-.683-.157c.129-.784.83-1.282 1.698-1.282 1.015 0 1.744.609 1.744 1.743v2.981h-.6l-.139-.674c-.276.434-.738.747-1.448.747m.138-.682c.572 0 1.292-.406 1.292-1.449v-.148h-.784c-.877 0-1.292.314-1.292.859 0 .479.304.738.784.738m3.321.609v-4.651h.766v.803c.295-.563.766-.876 1.365-.876.249 0 .443.055.655.138l-.156.71a1.2 1.2 0 0 0-.6-.156c-.692 0-1.264.719-1.264 2.279v1.753zm5.066 1.956c-1.19 0-1.984-.554-1.984-1.532 0-.424.194-.757.452-.96-.212-.147-.332-.396-.332-.747 0-.406.24-.71.572-.876a1.56 1.56 0 0 1-.341-1.006c0-.95.72-1.559 1.624-1.559.295 0 .581.083.821.212l.84-.471.332.572-.655.351c.175.249.277.544.277.895 0 .959-.711 1.559-1.615 1.559-.295 0-.572-.064-.812-.184-.231.11-.323.267-.323.461 0 .295.24.415.526.415h1.116c.858 0 1.477.397 1.477 1.264 0 1.144-.914 1.606-1.975 1.606m-.009-4.198c.48 0 .886-.342.886-.923s-.406-.923-.886-.923c-.489 0-.886.342-.886.923s.397.923.886.923m.009 3.533c.794 0 1.227-.35 1.227-.867s-.341-.692-.858-.692h-.839c-.176 0-.333-.009-.48-.028-.24.166-.314.434-.314.702 0 .553.443.885 1.264.885m6.749-3.819v.322h-3.423c.036.923.525 1.597 1.365 1.597.655 0 1.015-.277 1.329-.905l.646.277c-.443.914-1.052 1.31-1.993 1.31-1.347 0-2.122-1.125-2.122-2.398 0-1.292.765-2.399 2.122-2.399 1.31 0 2.076.996 2.076 2.196m-3.377-.333h2.602c-.111-.692-.536-1.181-1.301-1.181-.609 0-1.135.388-1.301 1.181"/></g><path fill="url(#p)" d="M34.415 39.546a6 6 0 0 1 6-6h484a6 6 0 0 1 6 6v30.329h-496z"/><path stroke="#fff" stroke-linecap="round" stroke-width="1.359" d="M61.53 51H47.934M88.718 51H75.124M89.64 50.806 84.836 46M89.64 51.194 84.836 56M47.013 50.806 51.819 46M47.013 51.194 51.819 56"/><path stroke="#fff" stroke-linecap="round" stroke-linejoin="round" stroke-width="1.359" d="M137.237 51.74v6.796h-4.369v-8.822c0-.258.102-.505.284-.687l5.341-5.34a.97.97 0 0 1 1.373 0l5.34 5.34c.182.182.285.43.285.687v8.822h-4.37V51.74z"/><path stroke="#fff" stroke-linecap="round" stroke-width="1.359" d="M118.538 48.885V45M118.535 49h-3.885M117.93 48.37a7.3 7.3 0 0 0-1.726-2.428A7.26 7.26 0 0 0 111.253 44a7.26 7.26 0 0 0-4.951 1.942 7.26 7.26 0 0 0-2.332 5.34c0 2.11.898 4.011 2.332 5.341a7.26 7.26 0 0 0 4.951 1.942 7.26 7.26 0 0 0 4.951-1.942 7.3 7.3 0 0 0 1.726-2.427"/><rect width="360.635" height="18.75" x="160.979" y="42" fill="url(#q)" rx="4"/><path fill="#fff" d="M173.347 50.807v.408h-4.323c.047 1.165.664 2.016 1.724 2.016.828 0 1.282-.35 1.678-1.142l.816.35c-.559 1.153-1.328 1.654-2.517 1.654-1.701 0-2.68-1.421-2.68-3.03 0-1.63.967-3.029 2.68-3.029 1.655 0 2.622 1.259 2.622 2.773m-4.265-.42h3.286c-.14-.873-.676-1.49-1.643-1.49-.769 0-1.433.489-1.643 1.49M174.767 54v-5.873h.967v1.13c.408-.722 1.13-1.223 1.946-1.223 1.083 0 1.806.664 1.806 1.876V54h-.956v-3.88c0-.804-.373-1.224-1.083-1.224-.956 0-1.713.98-1.713 2.599V54zm8.723.093c-1.689 0-2.598-1.305-2.598-3.03s.909-3.029 2.598-3.029c.758 0 1.387.326 1.76.827v-3.11h.955V54h-.955v-.769c-.28.431-.967.862-1.76.862m.129-.862c1.095 0 1.713-.897 1.713-2.167 0-1.259-.618-2.168-1.713-2.168-1.084 0-1.725.91-1.725 2.168 0 1.27.641 2.167 1.725 2.167m9.3-2.424v.408h-4.323c.046 1.165.664 2.016 1.724 2.016.828 0 1.282-.35 1.678-1.142l.816.35c-.559 1.153-1.328 1.654-2.517 1.654-1.701 0-2.68-1.421-2.68-3.03 0-1.63.967-3.029 2.68-3.029 1.655 0 2.622 1.259 2.622 2.773m-4.265-.42h3.286c-.14-.873-.676-1.49-1.643-1.49-.769 0-1.433.489-1.643 1.49M194.339 54v-8.25h.967V54zm3.255.035a.69.69 0 0 1-.711-.71c0-.42.303-.723.711-.723.42 0 .723.303.723.722 0 .408-.303.711-.723.711m2.775-6.898a.687.687 0 0 1-.699-.7c0-.395.303-.698.699-.698a.69.69 0 0 1 .711.699.69.69 0 0 1-.711.699M199.892 54v-5.873h.967V54zm5.201.093c-1.771 0-2.831-1.433-2.831-3.03s1.06-3.029 2.831-3.029c1.76 0 2.82 1.433 2.82 3.03s-1.06 3.03-2.82 3.03m0-.862c1.189 0 1.818-1.06 1.818-2.167s-.629-2.168-1.818-2.168c-1.2 0-1.829 1.06-1.829 2.168 0 1.107.629 2.167 1.829 2.167m3.394 1.352 5.08-9.322h.967l-5.08 9.322zm6.561 1.794v-8.25h.967v.758c.257-.42.933-.85 1.713-.85 1.725 0 2.634 1.304 2.634 3.029s-.909 3.03-2.634 3.03c-.664 0-1.363-.315-1.713-.828v3.111zm2.587-3.146c1.084 0 1.725-.909 1.725-2.167 0-1.27-.641-2.168-1.725-2.168s-1.713.898-1.713 2.168c0 1.258.629 2.167 1.713 2.167m4.138.769v-8.25h.967V54zm4.086.093c-.99 0-1.817-.536-1.817-1.783 0-1.258 1.002-1.922 2.598-1.922h1.025v-.256c0-.898-.547-1.236-1.246-1.236s-1.096.397-1.282.956l-.862-.198c.163-.99 1.048-1.62 2.144-1.62 1.281 0 2.202.77 2.202 2.202V54h-.757l-.175-.85c-.35.547-.932.943-1.83.943m.175-.862c.723 0 1.631-.513 1.631-1.83v-.186h-.99c-1.107 0-1.631.396-1.631 1.084 0 .606.384.932.99.932m7.448-5.104h.978l-2.948 8.25h-.944l.898-2.54-2.109-5.71h.99l1.596 4.347zm6.785 2.68v.408h-4.323c.046 1.165.664 2.016 1.724 2.016.828 0 1.282-.35 1.678-1.142l.816.35c-.56 1.153-1.329 1.654-2.517 1.654-1.701 0-2.68-1.421-2.68-3.03 0-1.63.967-3.029 2.68-3.029 1.655 0 2.622 1.259 2.622 2.773m-4.265-.42h3.286c-.14-.873-.676-1.49-1.643-1.49-.769 0-1.433.489-1.643 1.49M241.686 54v-5.873h.968v1.014c.372-.71.967-1.107 1.724-1.107.315 0 .559.07.827.175l-.198.897a1.5 1.5 0 0 0-.757-.198c-.874 0-1.596.909-1.596 2.878V54z"/><path stroke="url(#r)" stroke-miterlimit="10" stroke-width="1.825" d="M1165.94 235.014c-56.52-34.421-85.36-92.41-182.338-92.41-138.013 0-138.013 117.404-276.026 117.404-138.014 0-138.014-117.405-276.027-117.405S293.536 260.008 155.522 260.008c-138.207-.11-138.206-117.405-276.22-117.405-103.558 0-129.496 65.993-194.148 99.098"/><path fill="url(#s)" d="M0 0h564v29H0z" transform="translate(0 331)"/></g><defs><linearGradient id="c" x1="511.683" x2="486.808" y1="122.579" y2="122.579" gradientUnits="userSpaceOnUse"><stop/><stop offset="1" stop-opacity="0"/></linearGradient><linearGradient id="f" x1="1880.68" x2="1880.68" y1="479.077" y2="997.695" gradientUnits="userSpaceOnUse"><stop offset=".661" stop-opacity="0"/><stop offset=".962"/></linearGradient><linearGradient id="g" x1="421.631" x2="421.631" y1="340.58" y2="798.331" gradientUnits="userSpaceOnUse"><stop stop-opacity="0"/><stop offset=".116"/><stop offset=".294"/><stop offset=".986" stop-opacity=".5"/></linearGradient><linearGradient id="i" x1="430.876" x2="430.876" y1="781.763" y2="1670.38" gradientUnits="userSpaceOnUse"><stop stop-opacity="0"/><stop offset=".667"/></linearGradient><linearGradient id="m" x1="282.415" x2="282.415" y1="89.482" y2="330.891" gradientUnits="userSpaceOnUse"><stop/></linearGradient><linearGradient id="o" x1="379.319" x2="379.319" y1="0" y2="60.806" gradientUnits="userSpaceOnUse"><stop offset=".258"/></linearGradient><linearGradient id="p" x1="-7.824" x2="-63.113" y1="6.103" y2="8.137" gradientUnits="userSpaceOnUse"><stop offset=".197"/><stop offset=".747" stop-color="#B3B3B3"/></linearGradient><linearGradient id="q" x1="134.415" x2="674.371" y1="42" y2="345.085" gradientUnits="userSpaceOnUse"><stop stop-color="#1D1D1D"/><stop offset="1" stop-color="#A9A9A9"/></linearGradient><linearGradient id="r" x1="46.89" x2="523.915" y1="246.402" y2="246.401" gradientUnits="userSpaceOnUse"><stop stop-color="#fff" stop-opacity="0"/><stop offset=".195" stop-color="#fff"/><stop offset=".76" stop-color="#fff"/><stop offset="1" stop-color="#fff" stop-opacity="0"/></linearGradient><linearGradient id="s" x1="282" x2="282" y1="29" y2="0" gradientUnits="userSpaceOnUse"><stop/><stop offset="1" stop-opacity="0"/></linearGradient><radialGradient id="b" cx="0" cy="0" r="1" gradientTransform="matrix(0 332.715 -338.306 0 155.135 208.1)" gradientUnits="userSpaceOnUse"><stop stop-color="#D9D9D9"/><stop offset="1" stop-color="#D9D9D9" stop-opacity="0"/></radialGradient><radialGradient id="d" cx="0" cy="0" r="1" gradientTransform="matrix(0 162.896 -165.836 0 514.171 3.258)" gradientUnits="userSpaceOnUse"><stop/><stop offset="1" stop-opacity="0"/><stop offset="1" stop-opacity="0"/></radialGradient><radialGradient id="h" cx="0" cy="0" r="1" gradientTransform="matrix(0 205.957 -249.203 0 475.097 117.783)" gradientUnits="userSpaceOnUse"><stop stop-color="#fff"/><stop offset="1" stop-color="#fff" stop-opacity="0"/></radialGradient><radialGradient id="j" cx="0" cy="0" r="1" gradientTransform="rotate(86.515 687.89 113.04)scale(1201.67 1919.09)" gradientUnits="userSpaceOnUse"><stop offset=".366" stop-opacity="0"/><stop offset=".698"/></radialGradient><radialGradient id="k" cx="0" cy="0" r="1" gradientTransform="matrix(0 707.339 -707.426 0 -89.884 -273.386)" gradientUnits="userSpaceOnUse"><stop offset=".402" stop-color="#fff"/><stop offset="1" stop-color="#fff" stop-opacity="0"/></radialGradient><radialGradient id="l" cx="0" cy="0" r="1" gradientTransform="matrix(0 707.339 -707.426 0 788.827 682.339)" gradientUnits="userSpaceOnUse"><stop offset=".402" stop-color="#fff"/><stop offset="1" stop-color="#fff" stop-opacity="0"/></radialGradient><clipPath id="a"><path fill="#fff" d="M0 0h564v360H0z"/></clipPath><clipPath id="e"><path fill="#fff" d="M-215-25H907.06v840.936H-215z"/></clipPath><clipPath id="n"><path fill="#fff" d="M34.415 50.113h496v259.662a7.34 7.34 0 0 1-7.338 7.338H41.753a7.34 7.34 0 0 1-7.338-7.338z"/></clipPath></defs></svg>