<svg xmlns="http://www.w3.org/2000/svg" width="564" height="360" fill="none"><g clip-path="url(#a)"><path fill="#000" d="M0 0h564v360H0z"/><path fill="url(#b)" d="M-100 0h711v314h-711z" opacity=".2"/><path fill="url(#c)" d="M106.774 360h16.29v340.453h-16.29z" transform="rotate(-90 106.774 360)"/><g clip-path="url(#d)"><path fill="#2D2D2D" d="M-1504.76 66.11H446.37v1097.17h-1951.13z"/><path fill="#C2C2C2" d="M258.91 75.085h10.254v14.099H258.91z"/><path fill="#121212" d="M-143.555 66.113H472.96v30.762h-616.515z"/><path fill="#fff" d="M380.63 86.215v-.541l4.277-5.546c.964-1.2 1.201-1.742 1.201-2.638 0-1.217-.71-1.978-1.894-1.978-1.116 0-1.877.88-2.046 2.13l-1.302-.253c.152-1.826 1.505-3.145 3.365-3.145 1.944 0 3.297 1.2 3.297 3.246 0 1.082-.507 2.046-1.302 3.06l-3.382 4.38h4.955v1.285zm13.121 0v-2.553h-5.174v-.541l4.988-8.742h1.589v8.015h1.488v1.268h-1.488v2.553zm-3.331-3.821h3.331v-5.986zm8.755-2.232c-.609 0-1.048-.423-1.048-1.032 0-.591.439-1.048 1.048-1.048.592 0 1.048.457 1.048 1.048 0 .61-.456 1.032-1.048 1.032m0 6.104c-.609 0-1.048-.44-1.048-1.032 0-.608.439-1.048 1.048-1.048.592 0 1.048.44 1.048 1.048 0 .592-.456 1.032-1.048 1.032m7.122.084c-2.756 0-4.176-2.384-4.176-6.053s1.42-6.053 4.176-6.053 4.159 2.384 4.159 6.053-1.403 6.053-4.159 6.053m0-1.285c1.792 0 2.756-1.894 2.756-4.768s-.964-4.785-2.756-4.785c-1.809 0-2.756 1.91-2.756 4.785s.947 4.768 2.756 4.768m9.415 1.285c-1.995 0-3.517-1.285-3.737-3.398l1.37-.186c.203 1.352.98 2.3 2.367 2.3 1.538 0 2.401-.982 2.401-2.537 0-1.674-.913-2.57-2.384-2.57-.372 0-.71.084-1.049.287l-.625-.828 2.79-3.77h-4.295v-1.269h6.391v.44l-3.06 4.092c.118-.034.304-.051.439-.051 1.759 0 3.213 1.37 3.213 3.669 0 2.282-1.505 3.821-3.821 3.821"/><path fill="#fff" fill-rule="evenodd" d="M362.945 72.587a.555.555 0 0 1-.543-.563.55.55 0 0 1 .562-.541l3.714.072a.554.554 0 0 1 .542.563.55.55 0 0 1-.562.541zm1.866 17.305c4.581 0 8.295-3.708 8.295-8.283s-3.714-8.283-8.295-8.283-8.294 3.709-8.294 8.283c0 4.575 3.713 8.283 8.294 8.283m0-1.382c3.817 0 6.91-3.09 6.91-6.9 0-3.812-3.093-6.901-6.91-6.901-3.816 0-6.91 3.09-6.91 6.9s3.094 6.9 6.91 6.9m-.576-11.646a.586.586 0 0 1 1.172 0v5.502a.586.586 0 1 1-1.172 0z" clip-rule="evenodd"/><path fill="#fff" d="M337.377 74.709a.83.83 0 0 1 .83-.83v-1.106a1.935 1.935 0 0 0-1.935 1.936zm0 12.902V74.709h-1.105V87.61zm.83.83a.83.83 0 0 1-.83-.83h-1.105c0 1.069.866 1.935 1.935 1.935zm.829-.83a.83.83 0 0 1-.829.83v1.105a1.935 1.935 0 0 0 1.935-1.935zm0-12.902V87.61h1.106V74.709zm-.829-.83a.83.83 0 0 1 .829.83h1.106a1.935 1.935 0 0 0-1.935-1.936zm5.622.83a.83.83 0 0 1 .829-.83v-1.106a1.935 1.935 0 0 0-1.935 1.936zm0 12.902V74.709h-1.106V87.61zm.829.83a.83.83 0 0 1-.829-.83h-1.106c0 1.069.866 1.935 1.935 1.935zm.829-.83a.83.83 0 0 1-.829.83v1.105a1.935 1.935 0 0 0 1.935-1.935zm0-12.902V87.61h1.106V74.709zm-.829-.83a.83.83 0 0 1 .829.83h1.106a1.935 1.935 0 0 0-1.935-1.936zM242.262 86.215V74.379h7.016v1.37h-5.545v3.635h4.531v1.37h-4.531v5.46zm11.935.135c-2.57 0-4.109-2.08-4.109-4.396s1.539-4.396 4.109-4.396c2.553 0 4.092 2.08 4.092 4.396s-1.539 4.396-4.092 4.396m0-1.251c1.725 0 2.638-1.539 2.638-3.145s-.913-3.145-2.638-3.145c-1.742 0-2.655 1.539-2.655 3.145s.913 3.145 2.655 3.145m9.556 1.251c-2.604 0-3.906-2.113-3.906-4.396s1.302-4.396 3.906-4.396c1.741 0 2.958.778 3.567 2.384l-1.251.49c-.423-1.031-1.167-1.623-2.316-1.623-1.674 0-2.452 1.404-2.452 3.145 0 1.725.778 3.145 2.452 3.145 1.149 0 1.859-.575 2.316-1.623l1.251.49c-.609 1.573-1.826 2.384-3.567 2.384m7.973 0c-1.573 0-2.621-.964-2.621-2.722v-5.935h1.403v5.63c0 1.167.541 1.776 1.556 1.776 1.386 0 2.502-1.42 2.502-3.788v-3.618h1.387v8.522h-1.387v-1.64c-.592 1.048-1.64 1.775-2.84 1.775m9.246 0c-1.877 0-2.874-1.166-3.179-2.316l1.167-.626c.321.998.896 1.69 2.012 1.69.812 0 1.353-.456 1.353-1.284 0-.778-.795-1.167-1.843-1.556-1.218-.44-2.114-1.082-2.114-2.417 0-1.353 1.066-2.283 2.486-2.283 1.116 0 1.927.456 2.468 1.336l-.913.811c-.422-.66-.947-.896-1.572-.896-.609 0-1.116.372-1.116 1.032 0 .642.524.98 1.894 1.487 1.116.406 2.079 1.133 2.079 2.435 0 1.606-1.082 2.587-2.722 2.587"/><rect width="28.839" height="28.839" x="207.214" y="67.01" fill="#000" rx="2.563"/><path fill="#fff" fill-rule="evenodd" d="M221.57 70.786c-5.914 0-10.708 4.794-10.708 10.708 0 5.913 4.794 10.707 10.708 10.707 5.913 0 10.707-4.794 10.707-10.707s-4.794-10.708-10.707-10.708m-11.536 10.708c0-6.371 5.165-11.536 11.536-11.536s11.535 5.165 11.535 11.536-5.165 11.535-11.535 11.535c-6.371 0-11.536-5.164-11.536-11.535" clip-rule="evenodd"/><path fill="#fff" fill-rule="evenodd" d="M215.746 77.158c1.339-1.97 2.827-4.162 5.793-4.162s4.454 2.191 5.793 4.162l.041.061c1.397 2.056 2.654 3.86 5.149 3.86a.414.414 0 1 1 0 .83c-2.966 0-4.454-2.193-5.792-4.163l-.042-.061c-1.397-2.056-2.654-3.861-5.149-3.861s-3.753 1.805-5.149 3.86l-.042.062c-1.338 1.97-2.827 4.162-5.792 4.162a.415.415 0 1 1 0-.828c2.495 0 3.752-1.805 5.149-3.86z" clip-rule="evenodd"/><path fill="#fff" fill-rule="evenodd" d="M210.141 81.493c0-.228.186-.414.415-.414 2.965 0 4.454 2.192 5.792 4.162l.042.062c1.396 2.055 2.654 3.86 5.149 3.86s3.752-1.805 5.149-3.86l.042-.062c1.338-1.97 2.826-4.162 5.792-4.162a.414.414 0 1 1 0 .828c-2.495 0-3.752 1.805-5.149 3.861l-.041.061c-1.339 1.971-2.827 4.163-5.793 4.163s-4.454-2.192-5.793-4.163l-.041-.06c-1.397-2.057-2.654-3.862-5.149-3.862a.415.415 0 0 1-.415-.414" clip-rule="evenodd"/><path fill="#fff" fill-rule="evenodd" d="M213.516 73.379c0-.229.186-.414.414-.414 2.084 0 3.624 1.113 4.861 2.687 1.224 1.555 2.196 3.616 3.141 5.62l.01.022c.96 2.035 1.894 4.011 3.05 5.484 1.148 1.461 2.47 2.37 4.202 2.37a.414.414 0 0 1 0 .829c-2.081 0-3.618-1.114-4.853-2.687-1.219-1.553-2.189-3.608-3.132-5.608l-.016-.035c-.959-2.034-1.894-4.01-3.053-5.483-1.149-1.461-2.474-2.37-4.21-2.37a.415.415 0 0 1-.414-.415" clip-rule="evenodd"/><path fill="#fff" fill-rule="evenodd" d="M210.203 81.493c0-.228.185-.414.414-.414h21.905a.414.414 0 1 1 0 .828h-21.905a.414.414 0 0 1-.414-.414" clip-rule="evenodd"/></g><g clip-path="url(#e)"><rect width="379.394" height="736.953" x="29.575" y="96.874" fill="#000" rx="20.508"/><g filter="url(#f)"><path fill="#000" d="M29.575 96.875H408.97v61.523H29.575z"/><path fill="#fff" d="M58.389 120.971c0-.509.413-.923.923-.923v-1.23c-1.19 0-2.154.964-2.154 2.153zm0 14.356v-14.356h-1.23v14.356zm.923.922a.923.923 0 0 1-.923-.922h-1.23c0 1.189.964 2.153 2.153 2.153zm.923-.922a.923.923 0 0 1-.923.922v1.231c1.189 0 2.153-.964 2.153-2.153zm0-14.356v14.356h1.23v-14.356zm-.923-.923c.51 0 .923.414.923.923h1.23a2.153 2.153 0 0 0-2.153-2.153zm6.255.923c0-.509.413-.923.922-.923v-1.23c-1.189 0-2.153.964-2.153 2.153zm0 14.356v-14.356h-1.231v14.356zm.922.923a.923.923 0 0 1-.922-.923h-1.231c0 1.189.964 2.153 2.153 2.153zm.923-.923a.923.923 0 0 1-.923.923v1.23c1.19 0 2.154-.964 2.154-2.153zm0-14.356v14.356h1.23v-14.356zm-.923-.923c.51 0 .923.414.923.923h1.23a2.153 2.153 0 0 0-2.153-2.153z"/><path fill="#fff" fill-rule="evenodd" d="m125.377 119.99.644 3.665c.095.542-.237.86-.766.765l-3.68-.643c-.631-.116-.834-.563-.353-1.043l1.01-1.01a8.116 8.116 0 0 0-10.75.664 8.16 8.16 0 0 0-2.379 6.32c.027.474-.23.853-.684.927-.461.082-.854-.243-.888-.792-.197-2.743.732-5.541 2.799-7.606 3.531-3.529 9.252-3.76 13.068-.678l.928-.928c.488-.487.943-.291 1.051.359m1.586 7.451c.19 2.737-.739 5.548-2.806 7.614-3.538 3.535-9.245 3.765-13.061.684l-.936.934c-.488.488-.942.278-1.05-.359l-.637-3.671c-.095-.542.237-.86.766-.765l3.68.643c.624.109.834.562.353 1.043l-1.017 1.016a8.11 8.11 0 0 0 10.75-.677c1.748-1.747 2.548-4.064 2.386-6.326-.034-.468.223-.86.677-.935.455-.074.854.257.895.799" clip-rule="evenodd"/><path fill="#fff" d="M163.416 132.255h3.149c.128 0 .234.032.32.117l4.936 4.404c.405.362.745.554 1.171.554.595 0 1.01-.437 1.01-1.032V120.03c0-.596-.415-1.085-1.021-1.085-.436 0-.724.223-1.16.606l-4.936 4.426c-.086.085-.192.107-.32.107h-3.149c-1.255 0-1.872.638-1.872 1.957v4.267c0 1.33.617 1.947 1.872 1.947m.053-1.203c-.457 0-.638-.191-.638-.649v-4.447c0-.468.181-.66.638-.66h3.384c.298 0 .51-.042.755-.276l4.745-4.33c.075-.054.128-.107.213-.107.096 0 .16.053.16.17v14.768c0 .117-.064.181-.149.181-.064 0-.128-.032-.213-.107l-4.756-4.266c-.245-.223-.457-.277-.755-.277zm18.151 4.341c.298.213.67.139.894-.17 1.362-1.83 2.202-4.437 2.202-7.086 0-2.66-.83-5.277-2.202-7.086-.224-.319-.596-.383-.894-.181-.308.213-.362.596-.117.937 1.234 1.702 1.936 3.958 1.936 6.33 0 2.373-.712 4.618-1.936 6.331-.234.34-.191.723.117.925m-3.734-2.787c.276.191.659.138.883-.181.819-1.064 1.34-2.607 1.34-4.288s-.521-3.224-1.34-4.287c-.224-.32-.607-.383-.883-.181-.33.234-.383.627-.128.968.713.968 1.075 2.149 1.075 3.5s-.373 2.522-1.075 3.49c-.245.351-.202.745.128.979"/><path stroke="#fff" stroke-linecap="round" stroke-width="3.845" d="M202.61 127.636h136.117" opacity=".2"/><path stroke="#fff" stroke-linecap="round" stroke-width="3.845" d="M203.891 127.636h69.214"/><g filter="url(#g)"><circle cx="271.193" cy="128.288" r="10.254" fill="#fff"/><circle cx="271.193" cy="128.288" r="9.455" stroke="#000" stroke-width="1.597"/></g><path fill="#fff" fill-rule="evenodd" d="M365.288 127.636a3.691 3.691 0 1 0 7.382.002 3.691 3.691 0 0 0-7.382-.002m6.152 0a2.461 2.461 0 1 1-4.922 0 2.461 2.461 0 0 1 4.922 0m6.767 3.692a3.692 3.692 0 1 1 .002-7.384 3.692 3.692 0 0 1-.002 7.384m2.461-3.692a2.461 2.461 0 1 1-4.922 0 2.461 2.461 0 0 1 4.922 0m6.768 3.692a3.692 3.692 0 1 1 0-7.384 3.692 3.692 0 0 1 0 7.384m2.461-3.692a2.461 2.461 0 1 1-4.922 0 2.461 2.461 0 0 1 4.922 0" clip-rule="evenodd"/></g><path fill="#fff" d="M53.206 212.033v-25.122h14.893v2.907H56.328v7.716h9.618v2.907h-9.618v11.592zm25.334.287c-5.456 0-8.721-4.414-8.721-9.331s3.266-9.331 8.72-9.331c5.42 0 8.686 4.414 8.686 9.331s-3.266 9.331-8.685 9.331m0-2.656c3.66 0 5.598-3.266 5.598-6.675 0-3.41-1.938-6.675-5.599-6.675-3.696 0-5.634 3.265-5.634 6.675s1.938 6.675 5.635 6.675m20.282 2.656c-5.527 0-8.29-4.486-8.29-9.331s2.763-9.331 8.29-9.331c3.696 0 6.28 1.651 7.572 5.06l-2.655 1.041c-.898-2.189-2.477-3.445-4.917-3.445-3.553 0-5.204 2.978-5.204 6.675 0 3.66 1.65 6.675 5.204 6.675 2.44 0 3.948-1.22 4.917-3.445l2.655 1.041c-1.292 3.337-3.876 5.06-7.572 5.06m16.923 0c-3.337 0-5.562-2.046-5.562-5.778v-12.597h2.978v11.951c0 2.476 1.149 3.768 3.302 3.768 2.943 0 5.312-3.015 5.312-8.039v-7.68h2.942v18.088h-2.942v-3.481c-1.256 2.225-3.482 3.768-6.03 3.768m19.627 0c-3.984 0-6.101-2.476-6.747-4.917l2.476-1.328c.682 2.118 1.902 3.589 4.271 3.589 1.723 0 2.871-.969 2.871-2.727 0-1.651-1.687-2.477-3.912-3.302-2.584-.933-4.486-2.297-4.486-5.132 0-2.871 2.261-4.845 5.276-4.845 2.368 0 4.091.969 5.239 2.835l-1.938 1.723c-.897-1.4-2.009-1.902-3.337-1.902-1.292 0-2.369.789-2.369 2.189 0 1.363 1.113 2.081 4.02 3.158 2.368.861 4.414 2.404 4.414 5.168 0 3.409-2.297 5.491-5.778 5.491"/><path stroke="#fff" stroke-width="1.603" d="M151.48 207.042v-6.011M155.488 207.042v-9.017M159.496 207.042v-7.013M163.503 207.042V195.02"/><path stroke="#fff" stroke-linecap="round" stroke-linejoin="round" stroke-miterlimit="10" stroke-width="1.68" d="M88.535 305.31c16.382 0 29.663-13.281 29.663-29.663 0-16.383-13.281-29.663-29.663-29.663s-29.663 13.28-29.663 29.663c0 16.382 13.28 29.663 29.663 29.663M108.582 296.963v-10.678M108.582 264.968V254.29M108.582 286.285v-10.638M108.582 275.647v-10.678M95.204 286.285v10.678M95.204 264.969v10.678M95.204 275.647v10.638M95.204 246.761v7.528M95.204 304.492v-7.529M95.204 264.968V254.29M81.825 286.285v10.678M81.825 296.963v7.529M81.825 275.647v-10.678M81.825 254.29v10.678M81.825 275.647v10.638M81.825 246.761v7.528M68.446 286.285v10.678M68.446 264.968V254.29M68.446 264.969v10.678M68.446 286.285v-10.638M116.151 264.969h-7.569M68.446 264.969h13.379M60.877 264.969h7.569M81.825 264.969h13.379M95.204 264.969h13.379M68.446 275.647h13.379M117.706 275.647h-9.124M95.204 275.647h13.379M59.322 275.647h9.123M81.825 275.647h13.379M116.151 286.285h-7.569M95.204 286.285h13.379M68.446 286.285h-7.57M81.825 286.285h13.379M68.446 286.285h13.379M81.825 296.963h-13.38M95.204 296.963h13.379M81.825 296.963h13.379M108.583 254.29h-13.38M95.204 254.29h-13.38M68.446 254.29h13.379M81.825 286.285v10.678M81.825 296.963v7.529M81.825 275.647v-10.678M81.825 254.29v10.678M81.825 275.647v10.638M81.825 246.761v7.528M68.446 286.285v10.678M68.446 264.968V254.29M68.446 264.969v10.678M68.446 286.285v-10.638M68.446 264.969h13.379M60.877 264.969h7.569M81.825 264.969h13.379M68.446 275.647h13.379M59.322 275.647h9.123M81.825 275.647h13.379M68.446 286.285h-7.57M81.825 286.285h13.379M68.446 286.285h13.379M81.825 296.963h-13.38M81.825 296.963h13.379M95.204 254.29h-13.38M68.446 254.29h13.379"/><path fill="#fff" d="M73.116 330.444v-8.972h5.319v1.038H74.23v2.756h3.435v1.038H74.23v4.14zm9.047.103c-1.948 0-3.114-1.577-3.114-3.333s1.166-3.332 3.114-3.332c1.936 0 3.102 1.576 3.102 3.332s-1.166 3.333-3.102 3.333m0-.949c1.308 0 2-1.166 2-2.384s-.692-2.384-2-2.384c-1.32 0-2.012 1.167-2.012 2.384 0 1.218.692 2.384 2.012 2.384m7.244.949c-1.974 0-2.96-1.602-2.96-3.333 0-1.73.986-3.332 2.96-3.332 1.32 0 2.243.589 2.705 1.807l-.949.372c-.32-.782-.884-1.231-1.756-1.231-1.269 0-1.858 1.064-1.858 2.384 0 1.308.59 2.384 1.858 2.384.872 0 1.41-.435 1.756-1.23l.949.372c-.462 1.192-1.385 1.807-2.705 1.807m6.044 0c-1.192 0-1.986-.731-1.986-2.064v-4.499h1.063v4.269c0 .884.41 1.345 1.18 1.345 1.05 0 1.897-1.076 1.897-2.871v-2.743h1.05v6.46h-1.05v-1.243c-.45.795-1.244 1.346-2.154 1.346m7.01 0c-1.423 0-2.179-.885-2.41-1.756l.884-.474c.244.756.68 1.281 1.526 1.281.615 0 1.025-.346 1.025-.974 0-.589-.602-.884-1.397-1.179-.923-.333-1.602-.82-1.602-1.833 0-1.025.807-1.73 1.884-1.73.846 0 1.461.346 1.871 1.012l-.692.616c-.32-.5-.718-.68-1.192-.68-.461 0-.846.282-.846.782 0 .487.398.744 1.436 1.128.846.308 1.576.859 1.576 1.846 0 1.217-.82 1.961-2.063 1.961"/><g opacity=".35"><path stroke="#fff" stroke-linecap="round" stroke-linejoin="round" stroke-miterlimit="10" stroke-width="1.68" d="M175.693 306.092c16.383 0 29.663-13.28 29.663-29.663 0-16.382-13.28-29.663-29.663-29.663-16.382 0-29.663 13.281-29.663 29.663 0 16.383 13.281 29.663 29.663 29.663"/><path stroke="#fff" stroke-linecap="round" stroke-linejoin="round" stroke-miterlimit="10" stroke-width="1.68" d="M204.907 276.43c-14.648 0-14.648-21.562-29.295-21.562s-14.647 21.562-29.295 21.562M204.907 276.43c-14.648 0-14.648 21.562-29.295 21.562s-14.647-21.562-29.295-21.562"/><path stroke="#fff" stroke-linecap="round" stroke-linejoin="round" stroke-miterlimit="10" stroke-width="1.68" d="M196.028 297.95c-20.335 0-20.335-43.165-40.71-43.165M204.906 276.43H146.48"/><path fill="#fff" d="M162.007 330.445v-8.972h3.012c1.654 0 2.615.846 2.615 2.358 0 1.282-.692 2.064-1.871 2.294l2.691 4.32h-1.243l-2.679-4.256h-1.41v4.256zm1.115-5.294h1.859c.974 0 1.525-.384 1.525-1.32 0-.923-.551-1.32-1.525-1.32h-1.859zm11.752 1.782v.448h-4.756c.052 1.282.731 2.218 1.897 2.218.91 0 1.41-.385 1.846-1.256l.897.384c-.615 1.269-1.461 1.82-2.768 1.82-1.872 0-2.948-1.563-2.948-3.332 0-1.795 1.064-3.333 2.948-3.333 1.82 0 2.884 1.385 2.884 3.051m-4.691-.462h3.614c-.154-.961-.743-1.64-1.807-1.64-.846 0-1.577.538-1.807 1.64m6.253 3.974v-9.075h1.063v9.075zm4.494.102c-1.089 0-1.999-.589-1.999-1.961 0-1.384 1.102-2.115 2.858-2.115h1.128v-.282c0-.986-.602-1.358-1.371-1.358-.77 0-1.205.436-1.41 1.051l-.949-.218c.18-1.09 1.154-1.782 2.359-1.782 1.409 0 2.422.846 2.422 2.423v4.14h-.833l-.192-.936c-.385.603-1.026 1.038-2.013 1.038m.193-.948c.794 0 1.794-.564 1.794-2.012v-.206h-1.089c-1.218 0-1.795.436-1.795 1.192 0 .667.423 1.026 1.09 1.026m3.779.846 2.166-3.499-1.833-2.961h1.141l1.256 2.051 1.269-2.051h1.141l-1.833 2.961 2.166 3.499h-1.102l-1.641-2.589-1.628 2.589z"/></g><g opacity=".35"><path stroke="#fff" stroke-linecap="round" stroke-linejoin="round" stroke-miterlimit="10" stroke-width="1.68" d="M262.851 306.092c16.383 0 29.663-13.28 29.663-29.663 0-16.382-13.28-29.663-29.663-29.663-16.382 0-29.663 13.281-29.663 29.663 0 16.383 13.281 29.663 29.663 29.663"/><path fill="#fff" stroke="#fff" stroke-linejoin="round" stroke-miterlimit="10" stroke-width="1.05" d="M263.014 268.45a.532.532 0 1 0 0-1.063.532.532 0 0 0 0 1.063ZM280.444 268.45a.531.531 0 1 0 0-1.063.531.531 0 0 0 0 1.063ZM263.014 278.638a.532.532 0 1 0 0-1.063.532.532 0 0 0 0 1.063ZM280.444 278.638a.531.531 0 1 0 0-1.063.531.531 0 0 0 0 1.063ZM271.728 273.565a.532.532 0 1 0 0-1.064.532.532 0 0 0 0 1.064ZM271.728 283.344a.532.532 0 1 0 0-1.065.532.532 0 0 0 0 1.065ZM271.728 263.786a.532.532 0 1 0 0-1.063.532.532 0 0 0 0 1.063Z"/><path stroke="#fff" stroke-linecap="round" stroke-linejoin="round" stroke-miterlimit="10" stroke-width="1.68" d="M271.444 293.327c-11.211 0-20.294-9.083-20.294-20.294 0-7.937 4.582-14.852 11.251-18.166-11.701.246-21.111 9.779-21.111 21.562 0 11.906 9.655 21.562 21.561 21.562a21.5 21.5 0 0 0 14.361-5.482c-1.841.49-3.764.818-5.768.818"/><path fill="#fff" d="M250.739 330.547c-1.538 0-2.666-1.115-2.896-2.448l.922-.577c.257 1.077.821 1.987 1.987 1.987.82 0 1.474-.487 1.474-1.525s-.91-1.461-1.987-1.974c-1.012-.487-1.884-1.166-1.884-2.448s.962-2.192 2.256-2.192c1.243 0 1.91.59 2.294 1.461l-.91.577c-.32-.782-.846-1-1.384-1-.718 0-1.166.513-1.166 1.09 0 .961.884 1.371 1.845 1.807 1.128.513 2.064 1.192 2.064 2.628 0 1.589-1.115 2.614-2.615 2.614m4.149-.102v-9.075h1.064v9.075zm8.452-3.512v.448h-4.756c.052 1.282.731 2.218 1.897 2.218.91 0 1.41-.385 1.846-1.256l.897.384c-.615 1.269-1.461 1.82-2.768 1.82-1.872 0-2.948-1.563-2.948-3.332 0-1.795 1.064-3.333 2.948-3.333 1.82 0 2.884 1.385 2.884 3.051m-4.691-.462h3.614c-.154-.961-.743-1.64-1.807-1.64-.846 0-1.577.538-1.807 1.64m11.713.462v.448h-4.756c.052 1.282.731 2.218 1.897 2.218.91 0 1.41-.385 1.846-1.256l.897.384c-.615 1.269-1.461 1.82-2.768 1.82-1.872 0-2.948-1.563-2.948-3.332 0-1.795 1.064-3.333 2.948-3.333 1.82 0 2.884 1.385 2.884 3.051m-4.691-.462h3.614c-.154-.961-.743-1.64-1.807-1.64-.846 0-1.577.538-1.807 1.64m6.252 6.589v-9.075h1.064v.833c.282-.461 1.026-.936 1.884-.936 1.897 0 2.897 1.436 2.897 3.333s-1 3.332-2.897 3.332c-.73 0-1.499-.346-1.884-.91v3.423zm2.846-3.461c1.192 0 1.897-1 1.897-2.384 0-1.397-.705-2.384-1.897-2.384s-1.884.987-1.884 2.384c0 1.384.692 2.384 1.884 2.384"/></g><g opacity=".35"><path stroke="#fff" stroke-linecap="round" stroke-linejoin="round" stroke-miterlimit="10" stroke-width="1.68" d="M350.009 306.092c16.383 0 29.663-13.28 29.663-29.663 0-16.382-13.28-29.663-29.663-29.663-16.382 0-29.663 13.281-29.663 29.663 0 16.383 13.281 29.663 29.663 29.663"/><path stroke="#fff" stroke-linecap="round" stroke-linejoin="round" stroke-miterlimit="10" stroke-width="1.68" d="m328.652 295.246 2.634-1.222a11.58 11.58 0 0 1 9.735 0l4.519 2.095a11.57 11.57 0 0 0 9.734 0l4.503-2.085a11.56 11.56 0 0 1 9.756 0l2.396 1.121M323.312 287.415a7 7 0 0 0 1.071-.393l6.447-2.999a11.57 11.57 0 0 1 9.734 0l4.519 2.095a11.57 11.57 0 0 0 9.735 0l4.503-2.085a11.55 11.55 0 0 1 9.756.015l6.309 2.943c.437.205.895.364 1.366.474M321.532 277.68a7 7 0 0 0 2.94-.647l6.446-2.986a11.58 11.58 0 0 1 9.735 0l4.512 2.094a11.56 11.56 0 0 0 9.735 0l4.503-2.085a11.58 11.58 0 0 1 9.756 0l6.309 2.946c.925.43 1.934.653 2.955.653"/><path fill="#fff" stroke="#fff" stroke-linecap="round" stroke-linejoin="round" stroke-miterlimit="10" stroke-width="1.68" d="M356.053 266.341a.592.592 0 0 0 .119-1.175.59.59 0 0 0-.71.582.593.593 0 0 0 .591.593M343.538 266.341a.596.596 0 0 0 .582-.709.594.594 0 0 0-1.075-.214.596.596 0 0 0 .074.749.6.6 0 0 0 .419.174M368.566 266.341a.592.592 0 1 0 0-1.185.592.592 0 0 0 0 1.185M331.025 266.341a.596.596 0 0 0 .582-.709.594.594 0 0 0-1.075-.214.596.596 0 0 0 .074.749.6.6 0 0 0 .419.174M362.307 257.894a.6.6 0 0 0 .548-.366.593.593 0 1 0-.548.366M337.28 257.894a.6.6 0 0 0 .548-.366.593.593 0 1 0-.548.366M349.793 257.894a.596.596 0 0 0 .582-.709.594.594 0 0 0-1.075-.214.596.596 0 0 0 .266.878q.11.045.227.045"/><path fill="#fff" d="m320.792 330.445-2.422-8.972h1.179l1.846 7.306 1.948-6.358h.987l1.935 6.358 1.859-7.306h1.166l-2.422 8.972h-1.128l-1.91-6.255-1.897 6.255zm10.126-7.55a.755.755 0 0 1-.769-.769c0-.435.333-.769.769-.769.449 0 .782.334.782.769a.76.76 0 0 1-.782.769m-.525 7.55v-6.46h1.063v6.46zm2.979 0v-6.46h1.063v1.243c.449-.795 1.244-1.346 2.141-1.346 1.192 0 1.987.731 1.987 2.064v4.499h-1.051v-4.268c0-.885-.41-1.346-1.192-1.346-1.051 0-1.885 1.076-1.885 2.858v2.756zm9.596.102c-1.859 0-2.858-1.435-2.858-3.332s.999-3.333 2.858-3.333c.833 0 1.525.359 1.935.91v-3.422h1.051v9.075h-1.051v-.846c-.307.474-1.064.948-1.935.948m.141-.948c1.205 0 1.884-.987 1.884-2.384 0-1.384-.679-2.384-1.884-2.384-1.192 0-1.897 1-1.897 2.384 0 1.397.705 2.384 1.897 2.384m8.14.846v-8.972h2.5c2.243 0 4.114 1.576 4.114 4.486s-1.871 4.486-4.114 4.486zm1.116-1.038h1.217c1.59 0 3.128-.936 3.128-3.448s-1.538-3.448-3.128-3.448h-1.217zm9.847 1.14c-1.948 0-3.114-1.576-3.114-3.332s1.166-3.333 3.114-3.333c1.936 0 3.102 1.577 3.102 3.333s-1.166 3.332-3.102 3.332m0-.948c1.308 0 2-1.166 2-2.384s-.692-2.384-2-2.384c-1.32 0-2.012 1.166-2.012 2.384s.692 2.384 2.012 2.384m5.747.846-1.974-6.46h1.089l1.384 5.037 1.282-5.037h1.013l1.269 5.037 1.397-5.037h1.089l-1.986 6.46h-1l-1.282-4.922-1.269 4.922zm7.682 0v-6.46h1.064v1.243c.449-.795 1.243-1.346 2.141-1.346 1.192 0 1.986.731 1.986 2.064v4.499h-1.051v-4.268c0-.885-.41-1.346-1.192-1.346-1.051 0-1.884 1.076-1.884 2.858v2.756z"/></g><path fill="url(#h)" stroke="#fff" stroke-linecap="round" stroke-linejoin="round" stroke-miterlimit="10" stroke-width="1.68" d="M88.535 413.25c16.383 0 29.663-13.28 29.663-29.663 0-16.382-13.28-29.663-29.663-29.663-16.382 0-29.663 13.281-29.663 29.663 0 16.383 13.28 29.663 29.663 29.663" opacity=".35"/><path stroke="#fff" stroke-linecap="round" stroke-linejoin="round" stroke-miterlimit="10" stroke-width="1.68" d="M175.693 413.25c16.383 0 29.663-13.28 29.663-29.663 0-16.382-13.28-29.663-29.663-29.663-16.382 0-29.663 13.281-29.663 29.663 0 16.383 13.281 29.663 29.663 29.663M262.851 413.25c16.383 0 29.663-13.28 29.663-29.663 0-16.382-13.28-29.663-29.663-29.663-16.382 0-29.663 13.281-29.663 29.663 0 16.383 13.281 29.663 29.663 29.663" opacity=".35"/><g stroke="#fff" stroke-linecap="round" stroke-linejoin="round" stroke-miterlimit="10" stroke-width="1.68" opacity=".3"><path d="M349.895 413.136c16.382 0 29.663-13.281 29.663-29.663 0-16.383-13.281-29.663-29.663-29.663-16.383 0-29.663 13.28-29.663 29.663 0 16.382 13.28 29.663 29.663 29.663"/><path d="M349.895 353.92c8.19 0 14.831 6.531 14.831 14.721s-6.641 14.832-14.831 14.832c-8.191 0-14.832 6.641-14.832 14.831 0 8.191 6.641 14.832 14.832 14.832"/></g></g><path fill="url(#i)" d="M30.479 406.831h88.569v377.772H30.479z" transform="rotate(-90 30.48 406.831)"/><path fill="url(#j)" d="M30 407h93v378H30z" transform="rotate(-90 30 407)"/><path fill="#6D6E70" d="M426.78 39h-1822.43c-26.59 0-48.13 21.158-48.13 47.247V1311.51H474.927V86.247C474.927 60.14 453.374 39 426.78 39m19.927 1207.33c0 .9-.749 1.63-1.662 1.63H-1413.89c-.92 0-1.67-.73-1.67-1.63V89.51c0-12.587 10.42-22.807 23.24-22.807H423.474c12.822 0 23.233 10.22 23.233 22.807z"/><path fill="#1F1F1F" d="M426.786 42.248H-1395.64c-24.75 0-44.81 19.705-44.81 43.983V1311.49H471.608V86.249c0-24.296-20.073-44.001-44.822-44.001m19.927 1204.082c0 .9-.749 1.64-1.662 1.64H-1413.89c-.91 0-1.66-.74-1.66-1.64V89.512c0-12.587 10.41-22.807 23.23-22.807H423.479c12.823 0 23.234 10.22 23.234 22.807z"/><path fill="#000" d="M426.783 47.139H-1395.64c-21.99 0-39.84 17.5-39.84 39.106V1267.52H466.619V86.245c0-21.606-17.827-39.106-39.836-39.106M446.71 1246.33c0 .9-.749 1.63-1.662 1.63H-1413.89c-.91 0-1.66-.73-1.66-1.63V89.509c0-12.588 10.41-22.808 23.23-22.808H423.477c12.822 0 23.233 10.22 23.233 22.808z"/><path stroke="url(#k)" stroke-miterlimit="10" stroke-width=".268" d="M474.93 172.098V86.247C474.93 60.14 453.395 39 426.801 39H-1395.62c-26.6 0-48.13 21.158-48.13 47.247v85.851"/><path fill="url(#l)" fill-opacity=".16" d="M391.452 18.733c0 191.625-157.961 346.968-352.817 346.968-194.855 0-352.816-155.343-352.816-346.968S-156.22-328.235 38.635-328.235c194.856 0 352.817 155.343 352.817 346.968"/><path fill="#D9D9D9" d="M.907-87.15h582.086v571.765H.907z" opacity=".4" style="mix-blend-mode:overlay"/><path fill="url(#m)" d="M0 0h564v29H0z" transform="translate(0 331)"/></g><defs><linearGradient id="b" x1="255.5" x2="255.5" y1="0" y2="314" gradientUnits="userSpaceOnUse"><stop stop-color="#D9D9D9"/><stop offset="1" stop-color="#D9D9D9" stop-opacity="0"/></linearGradient><linearGradient id="c" x1="106.774" x2="123.063" y1="466.68" y2="466.68" gradientUnits="userSpaceOnUse"><stop/><stop offset="1" stop-opacity="0"/></linearGradient><linearGradient id="i" x1="30.479" x2="119.048" y1="525.205" y2="525.205" gradientUnits="userSpaceOnUse"><stop/><stop offset="1" stop-opacity="0"/></linearGradient><linearGradient id="j" x1="30" x2="123" y1="525.446" y2="525.446" gradientUnits="userSpaceOnUse"><stop/><stop offset="1" stop-opacity="0"/></linearGradient><linearGradient id="k" x1="-1444.16" x2="475.319" y1="105.351" y2="105.351" gradientUnits="userSpaceOnUse"><stop stop-color="#fff" stop-opacity="0"/><stop offset=".035" stop-color="#fff" stop-opacity=".141"/><stop offset=".248" stop-color="#fff"/><stop offset=".636" stop-color="#666"/><stop offset="1" stop-color="#171717" stop-opacity="0"/></linearGradient><linearGradient id="m" x1="282" x2="282" y1="29" y2="0" gradientUnits="userSpaceOnUse"><stop/><stop offset="1" stop-opacity="0"/></linearGradient><clipPath id="a"><path fill="#fff" d="M0 0h564v360H0z"/></clipPath><clipPath id="d"><rect width="1951.13" height="1097.17" x="-1504.76" y="66.113" fill="#fff" rx="16.582"/></clipPath><clipPath id="e"><rect width="379.394" height="736.953" x="29.575" y="96.874" fill="#fff" rx="20.508"/></clipPath><radialGradient id="h" cx="0" cy="0" r="1" gradientTransform="translate(88.561 383.616)scale(29.6154)" gradientUnits="userSpaceOnUse"><stop stop-color="#fff"/><stop offset=".111" stop-color="#F7F7F7"/><stop offset=".286" stop-color="#E0E0E0"/><stop offset=".503" stop-color="#BCBCBC"/><stop offset=".751" stop-color="#898989"/><stop offset="1" stop-color="#4F4F4F"/></radialGradient><radialGradient id="l" cx="0" cy="0" r="1" gradientTransform="matrix(0 346.968 -352.817 0 38.635 18.733)" gradientUnits="userSpaceOnUse"><stop stop-color="#D9D9D9"/><stop offset="1" stop-color="#D9D9D9" stop-opacity="0"/></radialGradient><filter id="f" width="379.394" height="62.805" x="29.575" y="96.874" color-interpolation-filters="sRGB" filterUnits="userSpaceOnUse"><feFlood flood-opacity="0" result="BackgroundImageFix"/><feColorMatrix in="SourceAlpha" result="hardAlpha" values="0 0 0 0 0 0 0 0 0 0 0 0 0 0 0 0 0 0 127 0"/><feOffset dy="1.282"/><feComposite in2="hardAlpha" operator="out"/><feColorMatrix values="0 0 0 0 1 0 0 0 0 1 0 0 0 0 1 0 0 0 0.1 0"/><feBlend in2="BackgroundImageFix" result="effect1_dropShadow_4604_26672"/><feBlend in="SourceGraphic" in2="effect1_dropShadow_4604_26672" result="shape"/></filter><filter id="g" width="30.088" height="30.088" x="256.149" y="113.243" color-interpolation-filters="sRGB" filterUnits="userSpaceOnUse"><feFlood flood-opacity="0" result="BackgroundImageFix"/><feColorMatrix in="SourceAlpha" result="hardAlpha" values="0 0 0 0 0 0 0 0 0 0 0 0 0 0 0 0 0 0 127 0"/><feOffset/><feGaussianBlur stdDeviation="2.395"/><feComposite in2="hardAlpha" operator="out"/><feColorMatrix values="0 0 0 0 0 0 0 0 0 0 0 0 0 0 0 0 0 0 1 0"/><feBlend in2="BackgroundImageFix" result="effect1_dropShadow_4604_26672"/><feBlend in="SourceGraphic" in2="effect1_dropShadow_4604_26672" result="shape"/></filter></defs></svg>