<svg xmlns="http://www.w3.org/2000/svg" width="1152" height="671" fill="none"><path fill="#1E1E1E" d="M350 665h451v5H350z"/><path fill="url(#a)" d="M363.939 648h422.464L802 665H350z"/><path fill="url(#b)" d="M415 648h322v7H415z"/><path fill="url(#c)" d="M415 655h322v10H415z" opacity=".8"/><path fill="url(#d)" d="M415 648h322v7H415z"/><path fill="#fff" d="M350 665h451v1H350z" opacity=".1"/><path fill="#131516" d="M350 665h452v5H350z"/><path stroke="url(#e)" stroke-width="6" d="M5 6h1142v637H5z"/><path stroke="#414141" stroke-width=".98" d="M.49.49h1151.02v647.02H.49z"/><path fill="url(#f)" fill-rule="evenodd" d="M932.227 503h72.543c17.12 0 23.33 1.75 29.59 5.039 6.25 3.288 11.16 8.112 14.51 14.261s5.13 12.246 5.13 29.062v71.275c0 16.816-1.78 22.914-5.13 29.063-3.35 6.147-8.26 10.973-14.51 14.261-6.26 3.288-12.47 5.039-29.59 5.039h-72.543c-17.117 0-23.325-1.751-29.582-5.039s-11.169-8.114-14.516-14.261c-3.346-6.149-5.129-12.247-5.129-29.063v-71.275c0-16.816 1.783-22.914 5.129-29.062 3.347-6.149 8.258-10.973 14.516-14.261 6.257-3.289 12.465-5.039 29.582-5.039" clip-rule="evenodd"/><g filter="url(#g)"><path fill="#000" d="M958.371 594.276a19 19 0 0 1-1.915 3.383c-1.006 1.41-1.831 2.388-2.466 2.93q-1.476 1.334-3.171 1.371c-.81 0-1.789-.227-2.928-.686q-1.714-.687-3.153-.685-1.51-.002-3.242.685-1.733.688-2.8.723-1.625.068-3.242-1.408-1.034-.885-2.581-3.033-1.66-2.294-2.728-5.326-1.145-3.275-1.145-6.347 0-3.519 1.548-6.064a9 9 0 0 1 3.245-3.224 8.8 8.8 0 0 1 4.385-1.216c.86 0 1.99.261 3.392.775q2.099.775 2.691.777c.293 0 1.291-.305 2.983-.915 1.6-.566 2.949-.8 4.055-.708 2.997.238 5.248 1.399 6.745 3.49q-4.02 2.396-3.979 6.698c.023 2.233.848 4.092 2.469 5.567a8.1 8.1 0 0 0 2.466 1.59 26 26 0 0 1-.629 1.623m-6.872-26.575q-.001 2.625-1.948 4.897c-1.565 1.798-3.458 2.837-5.512 2.673a6 6 0 0 1-.041-.663c0-1.681.744-3.478 2.066-4.949q.99-1.118 2.517-1.857 1.524-.731 2.88-.802.04.351.038.701"/></g><path fill="#000308" d="M958.371 594.276a19 19 0 0 1-1.915 3.383c-1.006 1.41-1.831 2.388-2.466 2.93q-1.476 1.334-3.171 1.371c-.81 0-1.789-.227-2.928-.686q-1.714-.687-3.153-.685-1.51-.002-3.242.685-1.733.688-2.8.723-1.625.068-3.242-1.408-1.034-.885-2.581-3.033-1.66-2.294-2.728-5.326-1.145-3.275-1.145-6.347 0-3.519 1.548-6.064a9 9 0 0 1 3.245-3.224 8.8 8.8 0 0 1 4.385-1.216c.86 0 1.99.261 3.392.775q2.099.775 2.691.777c.293 0 1.291-.305 2.983-.915 1.6-.566 2.949-.8 4.055-.708 2.997.238 5.248 1.399 6.745 3.49q-4.02 2.396-3.979 6.698c.023 2.233.848 4.092 2.469 5.567a8.1 8.1 0 0 0 2.466 1.59 26 26 0 0 1-.629 1.623m-6.872-26.575q-.001 2.625-1.948 4.897c-1.565 1.798-3.458 2.837-5.512 2.673a6 6 0 0 1-.041-.663c0-1.681.744-3.478 2.066-4.949q.99-1.118 2.517-1.857 1.524-.731 2.88-.802.04.351.038.701"/><g filter="url(#h)"><path fill="#000" d="M968.916 569h5.555v6.282h5.119v4.314h-5.119v14.634c0 2.295 1.023 3.33 3.276 3.33.563 0 1.459-.051 1.817-.126v4.314c-.614.151-1.843.252-3.071.252-5.452 0-7.577-2.043-7.577-7.165v-15.239H965v-4.314h3.916zm39.084 6.282-9.65 26.541h-5.938l-9.701-26.541h5.887l6.758 21.218h.102l6.762-21.218z"/></g><path fill="#000308" d="M968.916 569h5.555v6.282h5.119v4.314h-5.119v14.634c0 2.295 1.023 3.33 3.276 3.33.563 0 1.459-.051 1.817-.126v4.314c-.614.151-1.843.252-3.071.252-5.452 0-7.577-2.043-7.577-7.165v-15.239H965v-4.314h3.916zm39.084 6.282-9.65 26.541h-5.938l-9.701-26.541h5.887l6.758 21.218h.102l6.762-21.218z"/><defs><linearGradient id="a" x1="575.999" x2="575.999" y1="648" y2="665" gradientUnits="userSpaceOnUse"><stop stop-color="#5D5F61"/><stop offset="1" stop-color="#3D3D3D"/></linearGradient><linearGradient id="b" x1="576.001" x2="576.001" y1="648" y2="655" gradientUnits="userSpaceOnUse"><stop stop-color="#414141"/><stop offset="1" stop-color="#1B1B1B"/></linearGradient><linearGradient id="c" x1="576.001" x2="576.001" y1="655" y2="665.001" gradientUnits="userSpaceOnUse"><stop offset=".526"/><stop offset="1" stop-color="#2E2E2E"/></linearGradient><linearGradient id="d" x1="576.001" x2="576.001" y1="648" y2="655" gradientUnits="userSpaceOnUse"><stop stop-color="#5B5D60"/><stop offset="1" stop-color="#202224"/></linearGradient><linearGradient id="e" x1="595.309" x2="3.365" y1="649.599" y2="-5.115" gradientUnits="userSpaceOnUse"><stop stop-color="#202020"/><stop offset="1" stop-color="#494949"/></linearGradient><linearGradient id="f" x1="968.5" x2="968.5" y1="503" y2="671" gradientUnits="userSpaceOnUse"><stop stop-color="#676767"/><stop offset="1"/></linearGradient><filter id="g" width="31.961" height="36.961" x="928.02" y="567" color-interpolation-filters="sRGB" filterUnits="userSpaceOnUse"><feFlood flood-opacity="0" result="BackgroundImageFix"/><feColorMatrix in="SourceAlpha" result="hardAlpha" values="0 0 0 0 0 0 0 0 0 0 0 0 0 0 0 0 0 0 127 0"/><feOffset dy=".98"/><feGaussianBlur stdDeviation=".49"/><feColorMatrix values="0 0 0 0 1 0 0 0 0 1 0 0 0 0 1 0 0 0 0.107709 0"/><feBlend in2="BackgroundImageFix" result="effect1_dropShadow_5944_3013"/><feBlend in="SourceGraphic" in2="effect1_dropShadow_5944_3013" result="shape"/></filter><filter id="h" width="44.961" height="34.961" x="964.02" y="569" color-interpolation-filters="sRGB" filterUnits="userSpaceOnUse"><feFlood flood-opacity="0" result="BackgroundImageFix"/><feColorMatrix in="SourceAlpha" result="hardAlpha" values="0 0 0 0 0 0 0 0 0 0 0 0 0 0 0 0 0 0 127 0"/><feOffset dy=".98"/><feGaussianBlur stdDeviation=".49"/><feColorMatrix values="0 0 0 0 1 0 0 0 0 1 0 0 0 0 1 0 0 0 0.107709 0"/><feBlend in2="BackgroundImageFix" result="effect1_dropShadow_5944_3013"/><feBlend in="SourceGraphic" in2="effect1_dropShadow_5944_3013" result="shape"/></filter></defs></svg>