<svg width="763" height="484" viewBox="0 0 763 484" fill="none" xmlns="http://www.w3.org/2000/svg">
<g clip-path="url(#clip0_4540_44336)">
<rect width="762.02" height="483.635" transform="translate(0 0.257812)" fill="black"/>
<path d="M614.241 489.098C715.623 457.528 772.518 351.745 741.319 252.823C710.121 153.902 602.643 99.302 501.261 130.871C399.879 162.441 342.984 268.224 374.182 367.146C405.381 466.067 512.858 520.667 614.241 489.098Z" fill="url(#paint0_linear_4540_44336)"/>
<path d="M352.241 630.015C515.626 579.138 607.317 408.66 557.039 249.24C506.76 89.8208 333.551 1.82927 170.166 52.7056C6.78138 103.582 -84.9096 274.06 -34.631 433.48C15.6476 592.899 188.856 680.891 352.241 630.015Z" fill="url(#paint1_linear_4540_44336)"/>
<circle cx="556.428" cy="308.97" r="84.5892" fill="url(#paint2_linear_4540_44336)"/>
<circle cx="181.145" cy="337.11" r="131.602" fill="url(#paint3_linear_4540_44336)"/>
<path opacity="0.3" d="M389.965 440.897L344.058 415.213L343.141 467.815L308.832 427.93L289.917 477.031L271.298 427.823L236.787 467.549L236.095 414.948L190.055 440.419L207.451 390.749L155.478 399.003L188.76 358.25L137.123 348.171L182.373 321.308L137.28 294.202L188.969 284.359L155.856 243.485L207.777 251.976L190.702 202.22L236.615 227.899L237.526 175.302L271.836 215.176L290.756 166.081L309.37 215.283L343.881 175.557L344.578 228.164L390.619 202.693L373.217 252.357L425.195 244.109L391.913 284.862L443.55 294.941L398.295 321.797L443.382 348.909L391.699 358.747L424.811 399.632L372.896 391.136L389.965 440.897Z" fill="url(#paint4_linear_4540_44336)"/>
<path d="M430.399 300.624L381.706 314.326L422.821 343.823L372.386 339.962L400.894 381.797L354.806 360.919L367.373 409.978L331.184 374.597L326.18 424.996L304.3 379.315L282.428 424.996L277.415 374.597L241.226 409.978L253.801 360.919L207.714 381.797L236.221 339.962L185.786 343.823L226.901 314.326L178.208 300.624L226.901 286.93L185.786 257.433L236.221 261.294L207.714 219.459L253.801 240.337L241.226 191.278L277.415 226.659L282.428 176.26L304.3 221.941L326.18 176.26L331.184 226.659L367.373 191.278L354.806 240.337L400.894 219.459L372.386 261.294L422.821 257.433L381.706 286.93L430.399 300.624Z" fill="url(#paint5_linear_4540_44336)"/>
<path d="M285.92 170.141L334.815 157.176L294.15 127.061L344.521 131.684L316.649 89.4231L362.416 110.995L350.591 61.7516L386.241 97.6751L392.007 47.3573L413.194 93.3637L435.753 48.0181L440.004 98.4872L476.724 63.6569L463.409 112.52L509.807 92.3409L480.67 133.741L531.158 130.642L489.603 159.514L538.083 173.95L489.189 186.907L529.853 217.022L479.482 212.399L507.355 254.661L461.588 233.089L473.42 282.332L437.77 246.409L431.997 296.726L410.817 250.72L388.25 296.066L384.007 245.597L347.288 280.427L360.594 231.563L314.197 251.743L343.333 210.343L292.845 213.442L334.401 184.569L285.92 170.141Z" fill="url(#paint6_linear_4540_44336)"/>
<path d="M442.139 102.418C448.674 103.883 451.515 119.657 457.559 121.261C464.167 123.011 475.086 111.008 480.725 113.293C487.113 115.922 485.255 131.601 489.969 135.475C494.977 139.627 510.441 136.148 512.982 142.395C515.184 147.763 502.107 156.8 502.056 164.189C502.019 169.908 515.83 177.919 514.252 185.081C512.49 193.064 496.042 196.154 492.958 203.265C489.712 210.771 498.597 224.919 494.14 231.253C489.433 237.947 473.184 234.183 467.42 239.309C461.318 244.765 462.904 261.417 455.973 264.874C448.725 268.491 436.801 257.016 429.032 258.129C421.263 259.242 412.702 273.566 404.801 271.823C396.9 270.081 395.175 253.516 388.566 249.246C381.958 244.977 366.325 250.411 361.266 244.12C356.434 238.079 364.879 223.615 361.64 216.131C358.578 209.035 342.241 205.652 340.787 197.604C339.407 189.988 353.424 180.863 353.637 172.705C353.835 164.958 340.207 155.269 341.969 147.287C343.548 140.125 359.46 138.638 361.795 133.424C364.864 126.694 356.816 113.029 361.06 109.068C365.987 104.461 378.565 114.091 384.858 112.429C390.732 110.862 395.674 95.8714 402.576 96.157C408.678 96.4133 413.524 111.916 420.25 113.081C426.374 114.143 435.604 100.983 442.139 102.418Z" fill="black" stroke="#707070" stroke-width="3.53879" stroke-miterlimit="10" stroke-linecap="round"/>
<path d="M388.637 161.164C393.345 161.164 397.162 157.348 397.162 152.64C397.162 147.932 393.345 144.115 388.637 144.115C383.929 144.115 380.113 147.932 380.113 152.64C380.113 157.348 383.929 161.164 388.637 161.164Z" fill="black" stroke="#707070" stroke-width="3.53879" stroke-linecap="round" stroke-linejoin="round"/>
<path d="M409.956 155.598C406.622 158.018 402.809 159.706 398.772 160.549C394.734 161.392 390.563 161.371 386.534 160.487C382.505 159.603 378.71 157.877 375.4 155.422C372.091 152.968 369.341 149.841 367.334 146.248" stroke="#707070" stroke-width="3.53879" stroke-linecap="round" stroke-linejoin="round"/>
<path d="M470.7 179.27C475.408 179.27 479.225 175.453 479.225 170.745C479.225 166.037 475.408 162.221 470.7 162.221C465.992 162.221 462.176 166.037 462.176 170.745C462.176 175.453 465.992 179.27 470.7 179.27Z" fill="black" stroke="#707070" stroke-width="3.53879" stroke-linecap="round" stroke-linejoin="round"/>
<path d="M492.008 173.706C488.673 176.125 484.86 177.812 480.823 178.654C476.786 179.496 472.615 179.474 468.587 178.59C464.559 177.706 460.765 175.98 457.455 173.525C454.145 171.071 451.395 167.944 449.386 164.352" stroke="#707070" stroke-width="3.53879" stroke-linecap="round" stroke-linejoin="round"/>
<path d="M427.006 204.846C427.185 201.907 428.061 197.837 431.847 198.064C443.786 198.799 444.024 190.717 444.024 190.717C444.766 186.588 432.144 161.329 431.402 159.918C431.379 159.873 431.359 159.826 431.342 159.779C431.22 159.5 431.156 159.2 431.156 158.897C431.156 158.593 431.22 158.293 431.342 158.015C436.591 145.938 439.582 133.018 440.17 119.884C440.436 114.101 440.245 108.306 439.599 102.552" stroke="#707070" stroke-width="3.53879" stroke-linecap="round" stroke-linejoin="round"/>
<path d="M413.139 258.12C419.929 252.135 416.57 243.202 416.57 243.202" stroke="#707070" stroke-width="3.53879" stroke-linecap="round" stroke-linejoin="round"/>
<path d="M379.047 229.531C382.82 222.829 388.65 217.515 395.679 214.372C402.707 211.229 410.561 210.425 418.083 212.076C425.604 213.728 432.395 217.748 437.453 223.545C442.512 229.342 445.57 236.608 446.177 244.271" stroke="#707070" stroke-width="3.53879" stroke-miterlimit="10" stroke-linecap="round"/>
<path d="M451.498 240.005C452.316 240.698 452.934 241.579 453.292 242.564C453.651 243.55 453.738 244.607 453.546 245.634C453.354 246.661 452.889 247.623 452.195 248.43C451.502 249.237 450.603 249.86 449.584 250.24C448.566 250.621 447.462 250.746 446.378 250.603C445.295 250.461 444.268 250.055 443.395 249.426C442.523 248.797 441.834 247.964 441.396 247.009C440.957 246.053 440.783 245.006 440.889 243.968" stroke="#707070" stroke-width="3.53879" stroke-miterlimit="10" stroke-linecap="round"/>
<path d="M377.325 222.962C376.248 223.285 375.273 223.878 374.492 224.683C373.712 225.488 373.152 226.478 372.867 227.559C372.581 228.64 372.58 229.776 372.863 230.858C373.146 231.94 373.704 232.932 374.482 233.738C375.261 234.545 376.235 235.139 377.312 235.465C378.388 235.791 379.53 235.837 380.63 235.598C381.729 235.36 382.748 234.846 383.59 234.104C384.432 233.363 385.069 232.419 385.439 231.364" stroke="#707070" stroke-width="3.53879" stroke-miterlimit="10" stroke-linecap="round"/>
<path d="M488.882 33.8343C533.235 31.8421 569.29 32.4207 571.792 87.5302C574.294 142.64 540.308 188.931 495.947 190.923C451.587 192.915 413.624 149.847 411.144 94.7375C408.664 39.628 444.521 35.8193 488.882 33.8343Z" fill="black" stroke="white" stroke-width="3.53879" stroke-miterlimit="10" stroke-linecap="round"/>
<path d="M450.445 101.492C455.153 101.492 458.97 97.6757 458.97 92.9678C458.97 88.2598 455.153 84.4433 450.445 84.4433C445.737 84.4433 441.921 88.2598 441.921 92.9678C441.921 97.6757 445.737 101.492 450.445 101.492Z" fill="black" stroke="white" stroke-width="3.53879" stroke-linecap="round" stroke-linejoin="round"/>
<path d="M470.695 92.1003C467.887 89.1836 464.498 86.9002 460.75 85.401C457.002 83.9018 452.981 83.221 448.953 83.4033C444.924 83.5857 440.98 84.6272 437.381 86.459C433.782 88.2908 430.609 90.8713 428.072 94.03" stroke="white" stroke-width="3.53879" stroke-linecap="round" stroke-linejoin="round"/>
<path d="M533.551 97.2257C538.259 97.2257 542.076 93.4092 542.076 88.7013C542.076 83.9933 538.259 80.1768 533.551 80.1768C528.843 80.1768 525.027 83.9933 525.027 88.7013C525.027 93.4092 528.843 97.2257 533.551 97.2257Z" fill="black" stroke="white" stroke-width="3.53879" stroke-linecap="round" stroke-linejoin="round"/>
<path d="M554.874 88.9026C552.067 85.9859 548.677 83.7026 544.929 82.2034C541.181 80.7042 537.16 80.0234 533.132 80.2057C529.103 80.3881 525.159 81.4296 521.56 83.2615C517.96 85.0933 514.788 87.6738 512.251 90.8324" stroke="white" stroke-width="3.53879" stroke-linecap="round" stroke-linejoin="round"/>
<path d="M515.456 140.914C510.232 143.802 502.514 145.808 493.816 146.18C485.118 146.553 477.248 145.209 471.769 142.775" stroke="white" stroke-width="3.53879" stroke-linecap="round" stroke-linejoin="round"/>
<path d="M500.835 137.939C500.251 135.031 500.042 130.886 503.648 130.128C515.035 127.757 513.21 119.872 513.21 119.872C512.835 115.69 494.583 94.4788 493.551 93.2861L493.458 93.1757C493.273 92.9357 493.14 92.6594 493.065 92.3642C492.991 92.069 492.977 91.7612 493.025 91.4602C494.89 78.4238 494.421 65.1499 491.64 52.2847C490.419 46.6135 488.76 41.0498 486.679 35.6456" stroke="white" stroke-width="3.53879" stroke-linecap="round" stroke-linejoin="round"/>
<path d="M500.971 189.924C504.991 182.583 500.516 175.006 500.516 175.006" stroke="white" stroke-width="3.53879" stroke-linecap="round" stroke-linejoin="round"/>
<path d="M271.901 120.418C277.879 130.883 259.835 149.913 261.754 161.275C263.733 172.866 287.029 184.652 285.084 196.269C283.164 207.707 257.18 211.52 251.776 222.103C246.508 232.338 258.676 255.656 250.356 264.264C242.424 272.466 218.782 261.197 208.305 267.213C197.828 273.229 195.562 299.368 184.494 302.07C172.875 304.917 158.957 282.583 147.474 281.99C135.636 281.346 119.207 301.842 108.392 297.707C97.3992 293.521 99.0312 267.425 90.0596 259.85C81.2572 252.427 55.7461 258.409 49.7678 247.988C43.7896 237.566 61.8342 218.493 59.9148 207.131C57.9361 195.548 34.6489 183.754 36.5938 172.146C38.5048 160.699 64.4471 156.895 69.8926 146.303C75.1606 136.068 62.9927 112.75 71.3216 104.142C79.2447 95.94 102.895 107.209 113.372 101.193C123.849 95.1775 126.107 68.9958 137.184 66.3353C148.802 63.4884 162.72 85.8233 174.195 86.4164C186.033 87.0604 202.462 66.5642 213.286 70.699C224.278 74.8932 222.638 100.981 231.618 108.556C240.403 115.936 265.914 109.954 271.901 120.418Z" fill="url(#paint7_linear_4540_44336)"/>
<path d="M221.196 278.677C260.199 239.675 257.615 173.855 215.424 131.665C173.234 89.4745 107.414 86.8904 68.4119 125.893C29.4093 164.896 31.9935 230.715 74.1837 272.906C116.374 315.096 182.194 317.68 221.196 278.677Z" fill="url(#paint8_linear_4540_44336)"/>
<path d="M157.747 99.5234C165.474 99.5234 172.599 116.67 179.775 116.983C187.646 117.33 196.965 101.023 203.904 102.251C211.749 103.641 213.553 121.786 219.823 125.022C226.507 128.462 243.07 120.702 247.476 127.132C251.271 132.655 238.809 146.099 240.588 154.461C241.961 160.933 259.523 166.558 259.523 175.038C259.523 184.5 241.732 192.065 240.037 200.867C238.25 210.143 251.78 223.926 248.332 232.211C244.689 240.937 225.457 240.683 220.221 247.968C214.714 255.643 220.636 274.06 213.68 279.685C206.411 285.573 190.119 275.56 181.647 278.745C173.175 281.93 167.084 300.228 157.73 300.228C148.377 300.228 142.336 281.947 133.822 278.745C125.307 275.543 109.049 285.573 101.78 279.685C94.8247 274.06 100.755 255.643 95.2397 247.968C90.0209 240.708 70.7722 240.937 67.1377 232.211C63.6895 223.943 77.2111 210.186 75.4235 200.867C73.729 192.065 55.9375 184.5 55.9375 175.038C55.9375 166.566 73.5003 160.933 74.8727 154.461C76.6519 146.091 64.1894 132.647 67.9849 127.123C72.3989 120.702 88.962 128.462 95.6465 125.022C101.916 121.786 103.72 103.632 111.566 102.251C118.504 101.023 127.824 117.33 135.686 116.983C142.896 116.687 150.029 99.5234 157.747 99.5234Z" fill="black" stroke="white" stroke-width="3.53879" stroke-miterlimit="10" stroke-linecap="round"/>
<path d="M111.589 214.762C123.522 214.762 133.196 205.088 133.196 193.155C133.196 181.222 123.522 171.548 111.589 171.548C99.6557 171.548 89.9819 181.222 89.9819 193.155C89.9819 205.088 99.6557 214.762 111.589 214.762Z" fill="url(#paint9_linear_4540_44336)" fill-opacity="0.2"/>
<path d="M208.589 214.762C220.523 214.762 230.196 205.088 230.196 193.155C230.196 181.222 220.523 171.548 208.589 171.548C196.656 171.548 186.982 181.222 186.982 193.155C186.982 205.088 196.656 214.762 208.589 214.762Z" fill="url(#paint10_linear_4540_44336)" fill-opacity="0.2"/>
<path d="M111.111 176.351C116.415 176.351 120.714 172.052 120.714 166.748C120.714 161.445 116.415 157.145 111.111 157.145C105.807 157.145 101.508 161.445 101.508 166.748C101.508 172.052 105.807 176.351 111.111 176.351Z" fill="black" stroke="white" stroke-width="3.53879" stroke-linecap="round" stroke-linejoin="round"/>
<path d="M136.079 168.669C132.953 165.042 129.111 162.139 124.807 160.152C120.503 158.166 115.835 157.141 111.115 157.145C106.393 157.14 101.724 158.165 97.4186 160.152C93.113 162.139 89.2692 165.042 86.1426 168.669" stroke="white" stroke-width="3.53879" stroke-linecap="round" stroke-linejoin="round"/>
<path d="M208.1 176.351C213.403 176.351 217.703 172.052 217.703 166.748C217.703 161.445 213.403 157.145 208.1 157.145C202.796 157.145 198.497 161.445 198.497 166.748C198.497 172.052 202.796 176.351 208.1 176.351Z" fill="black" stroke="white" stroke-width="3.53879" stroke-linecap="round" stroke-linejoin="round"/>
<path d="M233.064 168.669C229.937 165.043 226.094 162.141 221.789 160.154C217.484 158.167 212.817 157.141 208.096 157.145C203.375 157.14 198.707 158.165 194.402 160.152C190.098 162.139 186.254 165.042 183.128 168.669" stroke="white" stroke-width="3.53879" stroke-linecap="round" stroke-linejoin="round"/>
<path d="M168.522 218.601C167.987 215.218 167.953 210.465 172.243 209.788C185.757 207.666 184.015 198.523 184.015 198.523C183.794 193.702 163.417 168.406 162.271 166.976C162.229 166.935 162.192 166.89 162.16 166.841C161.959 166.555 161.819 166.231 161.747 165.89C161.676 165.548 161.675 165.195 161.744 164.853C164.616 149.992 164.751 134.735 162.143 119.825C161.008 113.259 159.356 106.791 157.2 100.483" stroke="white" stroke-width="3.53879" stroke-linecap="round" stroke-linejoin="round"/>
<path d="M165.841 281.979C172.235 273.713 165.991 264.694 165.991 264.694" stroke="white" stroke-width="3.53879" stroke-linecap="round" stroke-linejoin="round"/>
<path d="M109.187 207.088C112.475 217.925 119.151 227.414 128.228 234.158C137.306 240.901 148.305 244.541 159.603 244.54C170.9 244.54 181.899 240.899 190.976 234.156C200.053 227.413 206.729 217.924 210.019 207.088" stroke="white" stroke-width="3.53879" stroke-miterlimit="10" stroke-linecap="round"/>
<path d="M214.943 215.728C216.628 214.777 217.971 213.312 218.781 211.544C219.59 209.775 219.824 207.793 219.449 205.882C218.974 203.48 217.575 201.365 215.556 200.003C213.538 198.641 211.066 198.143 208.684 198.619C206.79 198.998 205.063 199.972 203.751 201.401C202.438 202.83 201.607 204.642 201.377 206.577" stroke="white" stroke-width="3.53879" stroke-miterlimit="10" stroke-linecap="round"/>
<path d="M104.26 215.728C102.575 214.777 101.231 213.312 100.421 211.544C99.6117 209.775 99.3777 207.794 99.753 205.883C99.9858 204.693 100.449 203.561 101.116 202.552C101.783 201.543 102.641 200.676 103.64 200.002C104.64 199.327 105.761 198.858 106.941 198.621C108.12 198.384 109.334 198.383 110.514 198.62C112.409 198.999 114.136 199.973 115.45 201.402C116.763 202.831 117.594 204.643 117.825 206.577" stroke="white" stroke-width="3.53879" stroke-miterlimit="10" stroke-linecap="round"/>
<path d="M628.433 341.554C679.835 341.554 721.504 303.011 721.504 255.464C721.504 207.918 679.835 169.374 628.433 169.374C577.032 169.374 535.363 207.918 535.363 255.464C535.363 303.011 577.032 341.554 628.433 341.554Z" fill="url(#paint11_linear_4540_44336)"/>
<path d="M628.04 320.616C668.09 320.616 700.557 291.274 700.557 255.079C700.557 218.883 668.09 189.541 628.04 189.541C587.99 189.541 555.522 218.883 555.522 255.079C555.522 291.274 587.99 320.616 628.04 320.616Z" fill="black" stroke="white" stroke-width="3.53879" stroke-miterlimit="10" stroke-linecap="round"/>
<path d="M627.658 297.331C620.381 297.331 614.477 297.949 614.477 290.544C614.477 286.999 615.865 283.6 618.337 281.093C620.809 278.587 624.162 277.179 627.658 277.179C629.39 277.178 631.105 277.523 632.705 278.194C634.305 278.865 635.759 279.85 636.983 281.091C638.208 282.332 639.18 283.806 639.842 285.427C640.505 287.049 640.847 288.788 640.847 290.544C640.847 297.949 634.942 297.331 627.658 297.331Z" fill="url(#paint12_linear_4540_44336)"/>
<path d="M627.658 297.331C620.381 297.331 614.477 297.949 614.477 290.544C614.477 286.999 615.865 283.6 618.337 281.093C620.809 278.587 624.162 277.179 627.658 277.179C629.39 277.178 631.105 277.523 632.705 278.194C634.305 278.865 635.759 279.85 636.983 281.091C638.208 282.332 639.18 283.806 639.842 285.427C640.505 287.049 640.847 288.788 640.847 290.544C640.847 297.949 634.942 297.331 627.658 297.331Z" stroke="white" stroke-width="3.53879" stroke-linecap="round" stroke-linejoin="round"/>
<path d="M589.653 235.283C593.937 235.283 597.409 231.811 597.409 227.527C597.409 223.244 593.937 219.771 589.653 219.771C585.37 219.771 581.897 223.244 581.897 227.527C581.897 231.811 585.37 235.283 589.653 235.283Z" fill="black" stroke="white" stroke-width="3.53879" stroke-linecap="round" stroke-linejoin="round"/>
<path d="M609.04 228.311C606.565 225.386 603.522 223.044 600.115 221.44C596.708 219.835 593.014 219.005 589.276 219.004C585.534 219 581.834 219.828 578.422 221.433C575.01 223.037 571.963 225.382 569.485 228.311" stroke="white" stroke-width="3.53879" stroke-linecap="round" stroke-linejoin="round"/>
<path d="M667.22 235.283C671.503 235.283 674.976 231.811 674.976 227.527C674.976 223.244 671.503 219.771 667.22 219.771C662.936 219.771 659.464 223.244 659.464 227.527C659.464 231.811 662.936 235.283 667.22 235.283Z" fill="black" stroke="white" stroke-width="3.53879" stroke-linecap="round" stroke-linejoin="round"/>
<path d="M686.607 228.311C684.131 225.382 681.086 223.037 677.677 221.433C674.267 219.828 670.569 219 666.83 219.004C663.09 219 659.393 219.828 655.983 221.433C652.573 223.037 649.529 225.382 647.052 228.311" stroke="white" stroke-width="3.53879" stroke-linecap="round" stroke-linejoin="round"/>
<path d="M634.476 268.645C634.051 265.935 634.017 262.128 637.479 261.586C648.387 259.885 646.988 252.561 646.988 252.561C646.803 248.699 630.356 228.435 629.43 227.29C629.43 227.29 629.375 227.222 629.341 227.182C629.178 226.953 629.064 226.694 629.005 226.42C628.946 226.146 628.944 225.864 628.998 225.589C631.316 213.684 631.425 201.462 629.32 189.519C628.404 184.258 627.07 179.077 625.33 174.024" stroke="white" stroke-width="3.53879" stroke-linecap="round" stroke-linejoin="round"/>
<path d="M632.317 319.841C637.481 313.165 632.439 305.88 632.439 305.88" stroke="white" stroke-width="3.53879" stroke-linecap="round" stroke-linejoin="round"/>
<path d="M621.495 109.067C609.476 141.981 597.578 172.486 586.551 200.58C599.282 207.084 613.368 210.475 627.657 210.475C641.946 210.475 656.032 207.084 668.763 200.58C657.736 172.486 645.804 141.981 633.819 109.067C631.793 103.638 623.521 103.638 621.495 109.067Z" fill="url(#paint13_linear_4540_44336)" stroke="white" stroke-width="3.53879" stroke-miterlimit="10" stroke-linecap="round"/>
<path d="M588.879 264.766C598.302 264.766 605.942 257.126 605.942 247.703C605.942 238.279 598.302 230.64 588.879 230.64C579.455 230.64 571.816 238.279 571.816 247.703C571.816 257.126 579.455 264.766 588.879 264.766Z" fill="url(#paint14_linear_4540_44336)"/>
<path d="M666.434 264.766C675.858 264.766 683.497 257.126 683.497 247.703C683.497 238.279 675.858 230.64 666.434 230.64C657.01 230.64 649.371 238.279 649.371 247.703C649.371 257.126 657.01 264.766 666.434 264.766Z" fill="url(#paint15_linear_4540_44336)"/>
<path d="M298.236 359.052C340.202 345.987 364.369 304.165 352.216 265.639C340.063 227.113 296.192 206.473 254.226 219.538C212.261 232.603 188.093 274.425 200.246 312.951C212.399 351.477 256.271 372.117 298.236 359.052Z" fill="url(#paint16_linear_4540_44336)"/>
<path d="M312.285 351.607C350.481 329.862 365.087 283.864 344.908 248.868C324.729 213.872 277.407 203.129 239.211 224.874C201.014 246.619 186.409 292.617 206.587 327.613C226.766 362.609 274.089 373.352 312.285 351.607Z" fill="url(#paint17_linear_4540_44336)"/>
<path d="M327.922 340.987C354.747 314.338 353.074 269.47 324.186 240.771C295.297 212.073 250.133 210.411 223.308 237.06C196.484 263.708 198.156 308.576 227.045 337.275C255.933 365.974 301.097 367.635 327.922 340.987Z" fill="url(#paint18_linear_4540_44336)" fill-opacity="0.2"/>
<path d="M330.387 300.522H341.597C344.832 300.52 347.934 299.225 350.221 296.92C352.508 294.616 353.793 291.491 353.793 288.233C353.793 284.975 352.508 281.85 350.221 279.546C347.934 277.242 344.832 275.946 341.597 275.945H330.387" fill="black"/>
<path d="M330.387 300.522H341.597C344.832 300.52 347.934 299.225 350.221 296.92C352.508 294.616 353.793 291.491 353.793 288.233C353.793 284.975 352.508 281.85 350.221 279.546C347.934 277.242 344.832 275.946 341.597 275.945H330.387" stroke="white" stroke-width="3.53879" stroke-miterlimit="10" stroke-linecap="round"/>
<mask id="path-58-inside-1_4540_44336" fill="white">
<path d="M336.239 294.67H341.599C343.282 294.669 344.896 293.99 346.085 292.783C347.274 291.576 347.943 289.94 347.943 288.234C347.941 286.528 347.272 284.892 346.083 283.686C344.894 282.479 343.282 281.8 341.599 281.797H336.239"/>
</mask>
<path d="M336.239 294.67H341.599C343.282 294.669 344.896 293.99 346.085 292.783C347.274 291.576 347.943 289.94 347.943 288.234C347.941 286.528 347.272 284.892 346.083 283.686C344.894 282.479 343.282 281.8 341.599 281.797H336.239" fill="black"/>
<path d="M336.239 291.131C334.285 291.131 332.7 292.716 332.7 294.67C332.7 296.625 334.285 298.209 336.239 298.209V291.131ZM341.599 294.67V298.209L341.602 298.209L341.599 294.67ZM347.943 288.234L351.481 288.234L351.481 288.23L347.943 288.234ZM341.599 281.797L341.606 278.258H341.599V281.797ZM336.239 278.258C334.285 278.258 332.7 279.842 332.7 281.797C332.7 283.751 334.285 285.335 336.239 285.335V278.258ZM336.239 298.209H341.599V291.131H336.239V298.209ZM341.602 298.209C344.239 298.207 346.757 297.143 348.605 295.267L343.564 290.299C343.034 290.837 342.325 291.131 341.596 291.131L341.602 298.209ZM348.605 295.267C350.452 293.393 351.481 290.862 351.481 288.234L344.404 288.234C344.404 289.017 344.096 289.759 343.564 290.299L348.605 295.267ZM351.481 288.23C351.479 285.603 350.45 283.075 348.604 281.202L343.563 286.17C344.095 286.71 344.403 287.452 344.404 288.237L351.481 288.23ZM348.604 281.202C346.756 279.327 344.241 278.263 341.606 278.258L341.593 285.335C342.322 285.337 343.032 285.631 343.563 286.17L348.604 281.202ZM341.599 278.258H336.239V285.335H341.599V278.258Z" fill="white" mask="url(#path-58-inside-1_4540_44336)"/>
<path d="M226.223 300.522H215.013C211.778 300.52 208.676 299.225 206.389 296.92C204.102 294.616 202.817 291.491 202.817 288.233C202.817 284.975 204.102 281.85 206.389 279.546C208.676 277.242 211.778 275.946 215.013 275.945H226.223" fill="black"/>
<path d="M226.223 300.522H215.013C211.778 300.52 208.676 299.225 206.389 296.92C204.102 294.616 202.817 291.491 202.817 288.233C202.817 284.975 204.102 281.85 206.389 279.546C208.676 277.242 211.778 275.946 215.013 275.945H226.223" stroke="white" stroke-width="3.53879" stroke-miterlimit="10" stroke-linecap="round"/>
<mask id="path-62-inside-2_4540_44336" fill="white">
<path d="M220.38 294.67H215.02C213.337 294.669 211.724 293.99 210.534 292.783C209.345 291.576 208.677 289.94 208.677 288.234C208.678 286.528 209.347 284.892 210.536 283.686C211.725 282.479 213.338 281.8 215.02 281.797H220.38"/>
</mask>
<path d="M220.38 294.67H215.02C213.337 294.669 211.724 293.99 210.534 292.783C209.345 291.576 208.677 289.94 208.677 288.234C208.678 286.528 209.347 284.892 210.536 283.686C211.725 282.479 213.338 281.8 215.02 281.797H220.38" fill="black"/>
<path d="M220.38 298.209C222.334 298.209 223.919 296.625 223.919 294.67C223.919 292.716 222.334 291.131 220.38 291.131V298.209ZM215.02 294.67L215.017 298.209H215.02V294.67ZM208.677 288.234L205.138 288.23V288.234L208.677 288.234ZM215.02 281.797V278.258L215.014 278.258L215.02 281.797ZM220.38 285.335C222.334 285.335 223.919 283.751 223.919 281.797C223.919 279.842 222.334 278.258 220.38 278.258V285.335ZM220.38 291.131H215.02V298.209H220.38V291.131ZM215.023 291.131C214.294 291.131 213.585 290.837 213.055 290.299L208.014 295.267C209.862 297.143 212.38 298.207 215.017 298.209L215.023 291.131ZM213.055 290.299C212.523 289.759 212.216 289.017 212.216 288.234L205.138 288.234C205.138 290.862 206.167 293.393 208.014 295.267L213.055 290.299ZM212.216 288.237C212.216 287.452 212.524 286.71 213.057 286.17L208.016 281.202C206.17 283.075 205.14 285.603 205.138 288.23L212.216 288.237ZM213.057 286.17C213.587 285.631 214.297 285.337 215.027 285.335L215.014 278.258C212.379 278.263 209.863 279.327 208.016 281.202L213.057 286.17ZM215.02 285.335H220.38V278.258H215.02V285.335Z" fill="white" mask="url(#path-62-inside-2_4540_44336)"/>
<path d="M277.718 206.945C296.168 206.177 311.949 214.701 322.149 226.759C332.5 239.002 337.234 254.785 337.402 272.821C337.234 290.977 332.5 310.33 322.149 330.3C311.967 349.415 296.168 369.148 277.718 368.38C259.263 369.148 243.487 349.415 233.282 330.3C222.931 310.33 218.197 290.977 218.029 272.821C218.197 254.785 222.931 239.002 233.282 226.759C243.464 214.683 259.263 206.177 277.718 206.945Z" fill="black" stroke="white" stroke-width="3.53879" stroke-miterlimit="10" stroke-linecap="round"/>
<path d="M278.392 318.086H278.181C272.206 318.086 267.417 315.878 265.319 313.683C264.811 313.19 264.403 312.598 264.121 311.942C263.839 311.285 263.688 310.577 263.677 309.859C263.672 309.218 263.8 308.583 264.053 307.996C264.306 307.409 264.677 306.885 265.143 306.457C266.921 304.829 269.008 305.128 271.898 305.538C274.011 305.879 276.145 306.064 278.284 306.094H278.443C280.544 306.061 282.639 305.875 284.714 305.538C287.605 305.122 289.691 304.829 291.47 306.457C291.936 306.885 292.307 307.409 292.56 307.996C292.812 308.583 292.94 309.218 292.935 309.859C292.924 310.577 292.773 311.285 292.491 311.942C292.209 312.598 291.802 313.19 291.293 313.683C289.19 315.878 284.401 318.086 278.392 318.086Z" fill="url(#paint19_linear_4540_44336)" fill-opacity="0.5"/>
<path d="M277.718 300.99C295.22 301.111 308.253 293.099 308.149 299.492C308.248 305.632 295.22 318.2 277.718 318.079C260.222 318.2 247.189 305.632 247.293 299.492C247.194 293.099 260.222 301.122 277.718 300.99Z" stroke="white" stroke-width="3.53879" stroke-linecap="round" stroke-linejoin="round"/>
<path d="M311.662 279.458C320.065 279.458 326.876 272.908 326.876 264.829C326.876 256.75 320.065 250.2 311.662 250.2C303.259 250.2 296.448 256.75 296.448 264.829C296.448 272.908 303.259 279.458 311.662 279.458Z" fill="url(#paint20_linear_4540_44336)"/>
<path d="M246.121 279.458C254.524 279.458 261.336 272.908 261.336 264.829C261.336 256.75 254.524 250.2 246.121 250.2C237.719 250.2 230.907 256.75 230.907 264.829C230.907 272.908 237.719 279.458 246.121 279.458Z" fill="url(#paint21_linear_4540_44336)"/>
<path d="M244.373 271.26C247.928 271.26 250.81 268.379 250.81 264.824C250.81 261.269 247.928 258.387 244.373 258.387C240.818 258.387 237.937 261.269 237.937 264.824C237.937 268.379 240.818 271.26 244.373 271.26Z" fill="black" stroke="white" stroke-width="3.53879" stroke-linecap="round" stroke-linejoin="round"/>
<path d="M261.332 265.41C259.207 262.833 256.595 260.769 253.669 259.357C250.743 257.944 247.571 257.215 244.362 257.218C241.154 257.214 237.981 257.943 235.055 259.356C232.13 260.768 229.517 262.832 227.393 265.41" stroke="white" stroke-width="3.53879" stroke-linecap="round" stroke-linejoin="round"/>
<path d="M311.079 271.26C314.634 271.26 317.516 268.379 317.516 264.824C317.516 261.269 314.634 258.387 311.079 258.387C307.524 258.387 304.642 261.269 304.642 264.824C304.642 268.379 307.524 271.26 311.079 271.26Z" fill="black" stroke="white" stroke-width="3.53879" stroke-linecap="round" stroke-linejoin="round"/>
<path d="M328.049 265.41C325.924 262.832 323.312 260.768 320.386 259.356C317.46 257.943 314.288 257.214 311.079 257.218C307.871 257.215 304.698 257.944 301.773 259.357C298.847 260.769 296.235 262.833 294.109 265.41" stroke="white" stroke-width="3.53879" stroke-linecap="round" stroke-linejoin="round"/>
<path d="M284.444 300.528C284.071 298.215 284.041 294.966 287.028 294.503C296.442 293.052 295.23 286.802 295.23 286.802C295.07 283.506 280.884 266.212 280.085 265.234C280.059 265.206 280.035 265.175 280.014 265.142C279.874 264.947 279.775 264.725 279.725 264.492C279.674 264.258 279.672 264.017 279.719 263.783C281.718 253.623 281.812 243.192 279.997 232.999C279.207 228.51 278.056 224.088 276.555 219.776" stroke="white" stroke-width="3.53879" stroke-linecap="round" stroke-linejoin="round"/>
<path d="M282.389 342.66C287.584 337.063 282.511 330.957 282.511 330.957" stroke="white" stroke-width="3.53879" stroke-linecap="round" stroke-linejoin="round"/>
</g>
<defs>
<linearGradient id="paint0_linear_4540_44336" x1="474.397" y1="480.857" x2="659.521" y2="149.398" gradientUnits="userSpaceOnUse">
<stop offset="0.359486" stop-color="#303030" stop-opacity="0"/>
<stop offset="0.871307" stop-color="#505050" stop-opacity="0.35"/>
<stop offset="0.98" stop-color="#707070"/>
</linearGradient>
<linearGradient id="paint1_linear_4540_44336" x1="273.667" y1="483.893" x2="418.308" y2="74.0233" gradientUnits="userSpaceOnUse">
<stop offset="0.0762807" stop-opacity="0"/>
<stop offset="0.38" stop-color="#0D0D0D" stop-opacity="0"/>
<stop offset="0.52" stop-color="#060606" stop-opacity="0"/>
<stop offset="0.83346" stop-color="#505050"/>
<stop offset="0.93" stop-color="#606060"/>
<stop offset="0.98" stop-color="#707070"/>
</linearGradient>
<linearGradient id="paint2_linear_4540_44336" x1="556.428" y1="224.381" x2="556.428" y2="393.56" gradientUnits="userSpaceOnUse">
<stop offset="0.122129" stop-color="#ABABAB"/>
<stop offset="0.730328" stop-color="#1E1E1E" stop-opacity="0"/>
</linearGradient>
<linearGradient id="paint3_linear_4540_44336" x1="181.145" y1="205.507" x2="181.145" y2="468.712" gradientUnits="userSpaceOnUse">
<stop offset="0.122129" stop-color="#ABABAB"/>
<stop offset="0.730328" stop-color="#1E1E1E" stop-opacity="0"/>
</linearGradient>
<linearGradient id="paint4_linear_4540_44336" x1="304.231" y1="167.292" x2="276.497" y2="475.825" gradientUnits="userSpaceOnUse">
<stop stop-color="#525252" stop-opacity="0"/>
<stop offset="0.38" stop-color="#696969" stop-opacity="0.01"/>
<stop offset="0.52" stop-color="#877F7B" stop-opacity="0.04"/>
<stop offset="0.62" stop-color="#818080" stop-opacity="0.09"/>
<stop offset="0.7" stop-color="#545454" stop-opacity="0.17"/>
<stop offset="0.77" stop-color="#828282" stop-opacity="0.27"/>
<stop offset="0.83" stop-color="#727272" stop-opacity="0.39"/>
<stop offset="0.88" stop-color="#7D7D7D" stop-opacity="0.54"/>
<stop offset="0.93" stop-color="#A9A9A9" stop-opacity="0.71"/>
<stop offset="0.98" stop-color="#C7C7C7" stop-opacity="0.9"/>
</linearGradient>
<linearGradient id="paint5_linear_4540_44336" x1="215.474" y1="211.68" x2="393.37" y2="389.339" gradientUnits="userSpaceOnUse">
<stop stop-color="white" stop-opacity="0"/>
<stop offset="0.38" stop-color="white" stop-opacity="0.01"/>
<stop offset="0.52" stop-color="#585858" stop-opacity="0.04"/>
<stop offset="0.62" stop-color="#555555" stop-opacity="0.09"/>
<stop offset="0.7" stop-color="#7B7B7B" stop-opacity="0.17"/>
<stop offset="0.77" stop-color="#B3B3B3" stop-opacity="0.27"/>
<stop offset="0.83" stop-color="#C9C9C9" stop-opacity="0.39"/>
<stop offset="0.88" stop-color="#A0A0A0" stop-opacity="0.54"/>
<stop offset="0.93" stop-color="#A8A8A8" stop-opacity="0.71"/>
<stop offset="0.98" stop-color="#C4C4C4" stop-opacity="0.9"/>
<stop offset="1" stop-color="#BFBFBF"/>
</linearGradient>
<linearGradient id="paint6_linear_4540_44336" x1="499.478" y1="262.321" x2="324.286" y2="81.9954" gradientUnits="userSpaceOnUse">
<stop stop-color="white" stop-opacity="0"/>
<stop offset="0.38" stop-color="white" stop-opacity="0.01"/>
<stop offset="0.52" stop-color="#585858" stop-opacity="0.04"/>
<stop offset="0.62" stop-color="#555555" stop-opacity="0.09"/>
<stop offset="0.7" stop-color="#7B7B7B" stop-opacity="0.17"/>
<stop offset="0.77" stop-color="#B3B3B3" stop-opacity="0.27"/>
<stop offset="0.83" stop-color="#C9C9C9" stop-opacity="0.39"/>
<stop offset="0.88" stop-color="#A0A0A0" stop-opacity="0.54"/>
<stop offset="0.93" stop-color="#A8A8A8" stop-opacity="0.71"/>
<stop offset="0.98" stop-color="#C4C4C4" stop-opacity="0.9"/>
<stop offset="1" stop-color="#BFBFBF"/>
</linearGradient>
<linearGradient id="paint7_linear_4540_44336" x1="261.871" y1="61.5964" x2="160.839" y2="302.321" gradientUnits="userSpaceOnUse">
<stop/>
<stop offset="0.839878" stop-opacity="0"/>
</linearGradient>
<linearGradient id="paint8_linear_4540_44336" x1="84.9308" y1="349.418" x2="200.531" y2="69.8538" gradientUnits="userSpaceOnUse">
<stop/>
<stop offset="1" stop-opacity="0"/>
</linearGradient>
<linearGradient id="paint9_linear_4540_44336" x1="111.589" y1="171.548" x2="111.589" y2="214.762" gradientUnits="userSpaceOnUse">
<stop stop-color="white"/>
<stop offset="0.188652" stop-color="white"/>
<stop offset="1" stop-color="white" stop-opacity="0"/>
</linearGradient>
<linearGradient id="paint10_linear_4540_44336" x1="208.589" y1="171.548" x2="208.589" y2="214.762" gradientUnits="userSpaceOnUse">
<stop stop-color="white"/>
<stop offset="0.188652" stop-color="white"/>
<stop offset="1" stop-color="white" stop-opacity="0"/>
</linearGradient>
<linearGradient id="paint11_linear_4540_44336" x1="589.798" y1="314.03" x2="714.836" y2="170.119" gradientUnits="userSpaceOnUse">
<stop offset="0.223779"/>
<stop offset="1" stop-color="#5A5A5A"/>
</linearGradient>
<linearGradient id="paint12_linear_4540_44336" x1="627.662" y1="277.179" x2="627.662" y2="297.344" gradientUnits="userSpaceOnUse">
<stop stop-color="#585858"/>
<stop offset="0.680193"/>
</linearGradient>
<linearGradient id="paint13_linear_4540_44336" x1="601.595" y1="220.842" x2="651.138" y2="95.8045" gradientUnits="userSpaceOnUse">
<stop offset="0.380558"/>
<stop offset="1" stop-color="#9F9F9F"/>
</linearGradient>
<linearGradient id="paint14_linear_4540_44336" x1="588.879" y1="264.766" x2="588.879" y2="223.201" gradientUnits="userSpaceOnUse">
<stop/>
<stop offset="0.38"/>
<stop offset="0.52" stop-color="#181818"/>
<stop offset="0.62" stop-color="#393939"/>
<stop offset="0.7" stop-color="#4E4E4E"/>
<stop offset="0.77" stop-color="#505050"/>
<stop offset="0.83" stop-color="#575757"/>
<stop offset="0.88" stop-color="#797979"/>
<stop offset="0.93" stop-color="#8E8E8E"/>
<stop offset="0.98" stop-color="#BEBEBE"/>
<stop offset="1" stop-color="#C0C0C0"/>
</linearGradient>
<linearGradient id="paint15_linear_4540_44336" x1="666.434" y1="264.766" x2="666.434" y2="222.021" gradientUnits="userSpaceOnUse">
<stop/>
<stop offset="0.38"/>
<stop offset="0.52" stop-color="#181818"/>
<stop offset="0.62" stop-color="#393939"/>
<stop offset="0.7" stop-color="#4E4E4E"/>
<stop offset="0.77" stop-color="#505050"/>
<stop offset="0.83" stop-color="#575757"/>
<stop offset="0.88" stop-color="#797979"/>
<stop offset="0.93" stop-color="#8E8E8E"/>
<stop offset="0.98" stop-color="#BEBEBE"/>
<stop offset="1" stop-color="#C0C0C0"/>
</linearGradient>
<linearGradient id="paint16_linear_4540_44336" x1="240.713" y1="356.792" x2="311.021" y2="221.42" gradientUnits="userSpaceOnUse">
<stop/>
<stop offset="0.38" stop-color="#0D0D0D"/>
<stop offset="0.52" stop-color="#060606"/>
<stop offset="0.62" stop-color="#101010"/>
<stop offset="0.7" stop-color="#202020"/>
<stop offset="0.77" stop-color="#303030"/>
<stop offset="0.83" stop-color="#404040"/>
<stop offset="0.88" stop-color="#505050"/>
<stop offset="0.93" stop-color="#606060"/>
<stop offset="0.98" stop-color="#707070"/>
</linearGradient>
<linearGradient id="paint17_linear_4540_44336" x1="230.022" y1="350.598" x2="348.549" y2="247.445" gradientUnits="userSpaceOnUse">
<stop/>
<stop offset="1" stop-opacity="0"/>
</linearGradient>
<linearGradient id="paint18_linear_4540_44336" x1="211.148" y1="324.646" x2="344.445" y2="324.345" gradientUnits="userSpaceOnUse">
<stop stop-color="#8E8E8E"/>
<stop offset="1" stop-color="#373737"/>
</linearGradient>
<linearGradient id="paint19_linear_4540_44336" x1="278.306" y1="305.212" x2="278.306" y2="318.086" gradientUnits="userSpaceOnUse">
<stop offset="0.0398851" stop-color="#F8F8F8"/>
<stop offset="1" stop-color="#464646" stop-opacity="0"/>
</linearGradient>
<linearGradient id="paint20_linear_4540_44336" x1="329.08" y1="256.919" x2="308.319" y2="278.511" gradientUnits="userSpaceOnUse">
<stop stop-opacity="0"/>
<stop offset="1" stop-color="#737373"/>
</linearGradient>
<linearGradient id="paint21_linear_4540_44336" x1="235.283" y1="250.787" x2="256.041" y2="272.374" gradientUnits="userSpaceOnUse">
<stop stop-opacity="0"/>
<stop offset="1" stop-color="#6D6D6D"/>
</linearGradient>
<clipPath id="clip0_4540_44336">
<rect width="762.02" height="483.635" fill="white" transform="translate(0 0.257812)"/>
</clipPath>
</defs>
</svg>
