<svg xmlns="http://www.w3.org/2000/svg" width="48" height="48" fill="none"><g clip-path="url(#a)"><rect width="48" height="48" fill="#000" rx="8"/><path stroke="#fff" stroke-linejoin="round" d="M4.785 18.697a.5.5 0 0 0 0 .903l19.149 9.129a.5.5 0 0 0 .43 0L43.513 19.6a.5.5 0 0 0 0-.903L24.363 9.57a.5.5 0 0 0-.43 0z"/><path stroke="gray" stroke-linejoin="bevel" d="M13 14.5 34.613 24v25" style="mix-blend-mode:lighten"/><path stroke="gray" stroke-linejoin="bevel" d="M35.91 14.627 13.5 24v25" style="mix-blend-mode:lighten"/><path stroke="#fff" d="M24 29.059v31.095M4.5 19.1v34.205M43.8 19.1v34.205"/><path fill="#000" fill-opacity=".6" d="m18.685 19.563 5.443.788L24 19l-2.053-4.523-3.458-4.037-8.49 4.059 3.5 3z"/><path stroke="#fff" stroke-linecap="round" stroke-linejoin="round" stroke-miterlimit="10" d="M7 31.596c9.876 0 8.141-11.334 17.477-11.334m0 0c-9.877 0-17.721-6.04-14.684-10.463 2.663-3.88 10.9-.172 14.684 10.463"/><path fill="#000" fill-opacity=".6" d="m30.084 19.563-5.443.788v-1.74l2.182-4.133L30.5 10.5l8.5 4-3.5 3z"/><path stroke="#fff" stroke-linecap="round" stroke-linejoin="round" stroke-miterlimit="10" d="M41.65 31.596c-9.876 0-8.141-11.334-17.477-11.334m0 0c9.877 0 17.721-6.04 14.684-10.463-2.663-3.88-10.9-.172-14.684 10.463"/></g><rect width="47" height="47" x=".5" y=".5" stroke="#fff" rx="7.5"/><defs><clipPath id="a"><rect width="48" height="48" fill="#fff" rx="8"/></clipPath></defs></svg>