<svg xmlns="http://www.w3.org/2000/svg" width="48" height="48" fill="none"><g clip-path="url(#a)"><rect width="48" height="48" fill="#000" rx="8"/><path fill="#000" d="M6.031 39.345c11.664 6.615 21.073-8.03 31.218 4.931l6.855-29.35C33.45.677 22.475 12.423 14.756 9.9"/><path stroke="gray" stroke-linecap="round" stroke-linejoin="round" stroke-miterlimit="10" d="M6.031 39.345c11.664 6.615 21.073-8.03 31.218 4.931l6.855-29.35C33.45.677 22.475 12.423 14.756 9.9"/><path fill="#000" d="M67.467 53.532c-13.407.832-15.36-16.448-30.208-9.253l6.854-29.35c16.002-8.178 20.595 7.437 28.748 8.366"/><path stroke="gray" stroke-linecap="round" stroke-linejoin="round" stroke-miterlimit="10" d="M67.467 53.532c-13.407.832-15.36-16.448-30.208-9.253l6.854-29.35c16.002-8.178 20.595 7.437 28.748 8.366"/><path fill="#000" stroke="#fff" stroke-linecap="round" stroke-linejoin="round" stroke-miterlimit="10" d="M6.909 35.619c11.664 6.615 21.073-8.03 31.218 4.932L44.98 11.2C33.53-4.108 21.72 10.576 13.976 5.358z"/><path fill="#000" d="M40.849 12.407c-8.751-7.833-17.482-.864-24.227-1.209Z"/><path stroke="#fff" stroke-linecap="round" stroke-linejoin="round" stroke-miterlimit="10" d="M40.849 12.407c-8.751-7.833-17.482-.864-24.227-1.209M39.973 16.448c-8.588-7.48-17.086-.248-24.33-1.02"/><path fill="#000" d="M39.047 20.599c-8.5-7.293-16.895.067-24.38-.926Z"/><path stroke="#fff" stroke-linecap="round" stroke-linejoin="round" stroke-miterlimit="10" d="M39.047 20.599c-8.5-7.293-16.895.067-24.38-.926"/><path fill="#000" d="M38.168 24.684c-8.336-6.94-16.508.68-24.483-.737Z"/><path stroke="#fff" stroke-linecap="round" stroke-linejoin="round" stroke-miterlimit="10" d="M38.168 24.684c-8.336-6.94-16.508.68-24.483-.737"/><path fill="#000" d="M37.24 28.887c-8.247-6.754-16.307.998-24.533-.643Z"/><path stroke="#fff" stroke-linecap="round" stroke-linejoin="round" stroke-miterlimit="10" d="M37.24 28.887c-8.247-6.754-16.307.998-24.533-.643"/><path fill="#000" d="M35.768 32.963c-7.996-6.214-15.72 1.928-24.687-.36Z"/><path stroke="#fff" stroke-linecap="round" stroke-linejoin="round" stroke-miterlimit="10" d="M35.768 32.963c-7.996-6.214-15.72 1.928-24.687-.36"/><path fill="#000" stroke="#fff" stroke-linecap="round" stroke-linejoin="round" stroke-miterlimit="10" d="M68.345 49.805c-13.407.832-15.36-16.448-30.208-9.253l6.854-29.35c17.068-8.725 21.154 9.627 30.43 8.344z"/><path fill="#000" d="M49.155 13.606c11.38-2.905 15.903 7.31 22.045 10.12Z"/><path stroke="#818181" stroke-linecap="round" stroke-linejoin="round" stroke-miterlimit="10" d="M49.155 13.606c11.38-2.905 15.903 7.31 22.045 10.12M48.064 17.594c11.073-2.667 15.269 7.672 22.05 10.334"/><path fill="#000" d="M46.969 21.704c10.907-2.543 14.952 7.863 22.05 10.44Z"/><path stroke="#818181" stroke-linecap="round" stroke-linejoin="round" stroke-miterlimit="10" d="M46.969 21.704c10.907-2.543 14.952 7.863 22.05 10.44"/><path fill="#000" d="M45.86 25.733c10.6-2.305 14.328 8.23 22.055 10.655Z"/><path stroke="#818181" stroke-linecap="round" stroke-linejoin="round" stroke-miterlimit="10" d="M45.86 25.733c10.6-2.305 14.328 8.23 22.055 10.655"/><path fill="#000" d="M44.742 29.89c10.435-2.181 14.002 8.417 22.056 10.761Z"/><path stroke="#818181" stroke-linecap="round" stroke-linejoin="round" stroke-miterlimit="10" d="M44.742 29.89c10.435-2.181 14.002 8.417 22.056 10.761"/><path fill="#000" d="M44.166 34.185c9.962-1.819 13.052 8.971 22.062 11.083Z"/><path stroke="#818181" stroke-linecap="round" stroke-linejoin="round" stroke-miterlimit="10" d="M44.166 34.185c9.962-1.819 13.052 8.971 22.062 11.083"/></g><rect width="47" height="47" x=".5" y=".5" stroke="#fff" rx="7.5"/><defs><clipPath id="a"><rect width="48" height="48" fill="#fff" rx="8"/></clipPath></defs></svg>