<svg xmlns="http://www.w3.org/2000/svg" width="48" height="48" fill="none"><g clip-path="url(#a)"><rect width="48" height="48" fill="#000" rx="8"/><path fill="#000" d="m27.773 48 .967-2.724c.26-.55.449-.932.507-1.042.013-.025.039-.045.052-.077 1.013-2.012 3.943-1.152 5.274-.99 3.846.472 4.8-.647 4.8-.647 1.105-1.1.436-2.607.436-2.607-.306-1.087.136-1.67.513-2.045C41.536 36.658 40.5 36 40.5 36c-.078-.097.14-.241.263-.273.377-.084.676-.136.832-.505.039-.097.006-.298-.02-.42l-.331-1.618c0-.511.104-1.216.753-1.216 2.046 0 2.001-1.391 2.001-1.391.084-.738-2.481-5.176-2.481-5.176-.033-.058-.052-.11-.078-.168a18.545 18.545 0 0 0 1.169-6.516C42.621 8.385 34.203 0 23.811 0 13.424 0 5 8.385 5 18.73c0 5.215 2.137 9.925 5.592 13.322.682.757 1.157 1.527 1.468 2.277 1.092 2.588.345 4.917.11 5.61l-2.734 5.913"/><path stroke="#404040" stroke-miterlimit="10" d="m27.773 48 .967-2.724c.26-.55.449-.932.507-1.042.013-.025.039-.045.052-.077 1.013-2.012 3.943-1.152 5.274-.99 3.846.472 4.8-.647 4.8-.647 1.105-1.1.436-2.607.436-2.607-.306-1.087.136-1.67.513-2.045C41.536 36.658 40.5 36 40.5 36c-.078-.097.14-.241.263-.273.377-.084.676-.136.832-.505.039-.097.006-.298-.02-.42l-.331-1.618c0-.511.104-1.216.753-1.216 2.046 0 2.001-1.391 2.001-1.391.084-.738-2.481-5.176-2.481-5.176-.033-.058-.052-.11-.078-.168a18.545 18.545 0 0 0 1.169-6.516C42.621 8.385 34.203 0 23.811 0 13.424 0 5 8.385 5 18.73c0 5.215 2.137 9.925 5.592 13.322.682.757 1.157 1.527 1.468 2.277 1.092 2.588.345 4.917.11 5.61l-2.734 5.913"/><path fill="#000" d="m20.773 48 .967-2.724c.26-.55.449-.932.507-1.042.013-.025.039-.045.052-.077 1.013-2.012 3.943-1.152 5.274-.99 3.846.472 4.8-.647 4.8-.647 1.105-1.1.436-2.607.436-2.607-.306-1.087.136-1.67.513-2.045C34.536 36.658 33.5 36 33.5 36c-.078-.097.14-.241.263-.273.377-.084.676-.136.832-.505.039-.097.006-.298-.02-.42l-.331-1.618c0-.511.104-1.216.753-1.216 2.046 0 2.001-1.391 2.001-1.391.084-.738-2.481-5.176-2.481-5.176-.033-.058-.052-.11-.078-.168a18.545 18.545 0 0 0 1.169-6.516C35.621 8.385 27.203 0 16.811 0 6.424 0-2 8.385-2 18.73c0 5.215 2.137 9.925 5.592 13.322.682.757 1.157 1.527 1.468 2.277 1.092 2.588.345 4.917.11 5.61l-2.734 5.913"/><path stroke="gray" stroke-miterlimit="10" d="m20.773 48 .967-2.724c.26-.55.449-.932.507-1.042.013-.025.039-.045.052-.077 1.013-2.012 3.943-1.152 5.274-.99 3.846.472 4.8-.647 4.8-.647 1.105-1.1.436-2.607.436-2.607-.306-1.087.136-1.67.513-2.045C34.536 36.658 33.5 36 33.5 36c-.078-.097.14-.241.263-.273.377-.084.676-.136.832-.505.039-.097.006-.298-.02-.42l-.331-1.618c0-.511.104-1.216.753-1.216 2.046 0 2.001-1.391 2.001-1.391.084-.738-2.481-5.176-2.481-5.176-.033-.058-.052-.11-.078-.168a18.545 18.545 0 0 0 1.169-6.516C35.621 8.385 27.203 0 16.811 0 6.424 0-2 8.385-2 18.73c0 5.215 2.137 9.925 5.592 13.322.682.757 1.157 1.527 1.468 2.277 1.092 2.588.345 4.917.11 5.61l-2.734 5.913"/><path fill="#000" d="m13.773 48 .967-2.724c.26-.55.449-.932.507-1.042.013-.025.039-.045.052-.077 1.013-2.012 3.943-1.152 5.274-.99 3.846.472 4.8-.647 4.8-.647 1.104-1.1.435-2.607.435-2.607-.305-1.087.137-1.67.514-2.045C27.536 36.658 26.5 36 26.5 36c-.078-.097.14-.241.263-.273.377-.084.676-.136.832-.505.039-.097.006-.298-.02-.42l-.331-1.618c0-.511.104-1.216.753-1.216 2.046 0 2.001-1.391 2.001-1.391.084-.738-2.481-5.176-2.481-5.176-.033-.058-.052-.11-.078-.168a18.545 18.545 0 0 0 1.169-6.516C28.621 8.385 20.203 0 9.81 0-.576 0-9 8.385-9 18.73c0 5.215 2.137 9.925 5.592 13.322.682.757 1.157 1.527 1.468 2.277 1.092 2.588.345 4.917.11 5.61l-2.734 5.913"/><path stroke="#fff" stroke-miterlimit="10" d="m13.773 48 .967-2.724c.26-.55.449-.932.507-1.042.013-.025.039-.045.052-.077 1.013-2.012 3.943-1.152 5.274-.99 3.846.472 4.8-.647 4.8-.647 1.104-1.1.435-2.607.435-2.607-.305-1.087.137-1.67.514-2.045C27.536 36.658 26.5 36 26.5 36c-.078-.097.14-.241.263-.273.377-.084.676-.136.832-.505.039-.097.006-.298-.02-.42l-.331-1.618c0-.511.104-1.216.753-1.216 2.046 0 2.001-1.391 2.001-1.391.084-.738-2.481-5.176-2.481-5.176-.033-.058-.052-.11-.078-.168a18.545 18.545 0 0 0 1.169-6.516C28.621 8.385 20.203 0 9.81 0-.576 0-9 8.385-9 18.73c0 5.215 2.137 9.925 5.592 13.322.682.757 1.157 1.527 1.468 2.277 1.092 2.588.345 4.917.11 5.61l-2.734 5.913"/></g><rect width="47" height="47" x=".5" y=".5" stroke="#fff" rx="7.5"/><defs><clipPath id="a"><rect width="48" height="48" fill="#fff" rx="8"/></clipPath></defs></svg>