<svg xmlns="http://www.w3.org/2000/svg" width="270" height="166" fill="none"><path fill="url(#a)" fill-rule="evenodd" d="M184.46 15.737 221.001 0 216.2 39.742l-10.072-7.617C172.413 67.988 115.908 95.29 57 91.47l1-15.437c53.17 3.446 104.697-21.039 135.711-53.3z" clip-rule="evenodd"/><g filter="url(#b)"><path fill="#fff" d="m92.92 145 3.9-19.3h-11.4v-9.8h13.4l2.399-11.8h-11.8v-9.8h13.8l4-19.3h10l-4 19.3h11.4l3.9-19.3h10l-3.9 19.3h11.4v9.8h-13.4l-2.4 11.8h11.8v9.8h-13.8l-4 19.3h-10l4-19.3h-11.4l-3.9 19.3zm15.899-29.1h11.4l2.4-11.8h-11.4zm58.488 29.1V92.6l-13.4 8V87l20.5-12h5.5v70z"/></g><defs><linearGradient id="a" x1="196.196" x2="68.969" y1="35.475" y2="90.686" gradientUnits="userSpaceOnUse"><stop stop-color="#fff"/><stop offset=".444" stop-color="#9D9D9D" stop-opacity=".41"/><stop offset=".999" stop-color="#A5A5A5" stop-opacity="0"/></linearGradient><filter id="b" width="124.487" height="100" x="70.419" y="60" color-interpolation-filters="sRGB" filterUnits="userSpaceOnUse"><feFlood flood-opacity="0" result="BackgroundImageFix"/><feColorMatrix in="SourceAlpha" result="hardAlpha" values="0 0 0 0 0 0 0 0 0 0 0 0 0 0 0 0 0 0 127 0"/><feOffset/><feGaussianBlur stdDeviation="7.5"/><feComposite in2="hardAlpha" operator="out"/><feColorMatrix values="0 0 0 0 0 0 0 0 0 0 0 0 0 0 0 0 0 0 1 0"/><feBlend in2="BackgroundImageFix" result="effect1_dropShadow_218_10249"/><feBlend in="SourceGraphic" in2="effect1_dropShadow_218_10249" result="shape"/></filter></defs></svg>