<svg xmlns="http://www.w3.org/2000/svg" width="270" height="166" fill="none"><path fill="url(#a)" fill-rule="evenodd" d="M184.46 15.737 221.001 0 216.2 39.742l-10.072-7.617C172.413 67.988 115.908 95.29 57 91.47l1-15.437c53.17 3.446 104.697-21.039 135.711-53.3z" clip-rule="evenodd"/><g filter="url(#b)"><path fill="#fff" d="M93.458 145h12.4l26.4-64.8V75h-42.4v11.6h27.5zm42.437 0h13l10.3-16.4 10.3 16.4h13l-16.7-26.9 14.6-23.5h-13l-8.2 13.1-8.2-13.1h-13l14.6 23.5z"/></g><defs><linearGradient id="a" x1="196.196" x2="68.969" y1="35.475" y2="90.686" gradientUnits="userSpaceOnUse"><stop stop-color="#fff"/><stop offset=".444" stop-color="#9D9D9D" stop-opacity=".41"/><stop offset=".999" stop-color="#A5A5A5" stop-opacity="0"/></linearGradient><filter id="b" width="122.638" height="100" x="74.857" y="60" color-interpolation-filters="sRGB" filterUnits="userSpaceOnUse"><feFlood flood-opacity="0" result="BackgroundImageFix"/><feColorMatrix in="SourceAlpha" result="hardAlpha" values="0 0 0 0 0 0 0 0 0 0 0 0 0 0 0 0 0 0 127 0"/><feOffset/><feGaussianBlur stdDeviation="7.5"/><feComposite in2="hardAlpha" operator="out"/><feColorMatrix values="0 0 0 0 0 0 0 0 0 0 0 0 0 0 0 0 0 0 1 0"/><feBlend in2="BackgroundImageFix" result="effect1_dropShadow_218_10253"/><feBlend in="SourceGraphic" in2="effect1_dropShadow_218_10253" result="shape"/></filter></defs></svg>