<svg xmlns="http://www.w3.org/2000/svg" width="270" height="166" fill="none"><path fill="url(#a)" fill-rule="evenodd" d="m184.46 76.091 36.541 15.737-4.801-39.742-10.072 7.617C172.413 23.84 115.908-3.462 57 .358l1 15.437c53.17-3.446 104.697 21.04 135.711 53.3l-9.251 6.997" clip-rule="evenodd"/><g filter="url(#b)"><path fill="#fff" d="M69.436 145.628c13.5 0 23.7-9 23.7-23.5 0-12.3-6.6-20.8-17.4-20.8-1.2 0-1.9.1-2.8.2l16.5-22.3v-4.4h-40.1v11.6h22.3l-13.2 18.1 5 7c2.1-1.1 3.9-1.5 6.1-1.5 6.3 0 11 4.2 11 12.3 0 7.2-4.6 11.7-11.1 11.7-6.3 0-9.8-4-11.3-10.2l-12.1 1.6c1.2 11.7 10.4 20.2 23.4 20.2m41.669-.2c4.8 0 8.4-3.6 8.4-8.4s-3.6-8.4-8.4-8.4-8.4 3.6-8.4 8.4 3.6 8.4 8.4 8.4m41.436.2c13.4 0 23.4-9.8 23.4-22.8 0-13.6-9.8-22.8-22.6-22.8h-1.6l14.7-25.2h-13.9l-20 35.7c-2 3.5-3.4 8.1-3.4 12.3 0 13.1 10.2 22.8 23.4 22.8m0-11.6c-5.9 0-10.8-4.4-10.8-11.2 0-7.2 4.8-11.2 10.8-11.2s10.8 4 10.8 11.2c0 6.8-4.8 11.2-10.8 11.2m28.276 10.8h13l10.3-16.4 10.3 16.4h13l-16.7-26.9 14.6-23.5h-13l-8.2 13.1-8.2-13.1h-13l14.6 23.5z"/></g><defs><linearGradient id="a" x1="196.196" x2="68.969" y1="56.353" y2="1.142" gradientUnits="userSpaceOnUse"><stop stop-color="#fff"/><stop offset=".444" stop-color="#9D9D9D" stop-opacity=".41"/><stop offset=".999" stop-color="#A5A5A5" stop-opacity="0"/></linearGradient><filter id="b" width="211.381" height="100.801" x="31.036" y="59.828" color-interpolation-filters="sRGB" filterUnits="userSpaceOnUse"><feFlood flood-opacity="0" result="BackgroundImageFix"/><feColorMatrix in="SourceAlpha" result="hardAlpha" values="0 0 0 0 0 0 0 0 0 0 0 0 0 0 0 0 0 0 127 0"/><feOffset/><feGaussianBlur stdDeviation="7.5"/><feComposite in2="hardAlpha" operator="out"/><feColorMatrix values="0 0 0 0 0 0 0 0 0 0 0 0 0 0 0 0 0 0 1 0"/><feBlend in2="BackgroundImageFix" result="effect1_dropShadow_218_10257"/><feBlend in="SourceGraphic" in2="effect1_dropShadow_218_10257" result="shape"/></filter></defs></svg>