<svg width="270" height="166" viewBox="0 0 270 166" fill="none" xmlns="http://www.w3.org/2000/svg">
<path fill-rule="evenodd" clip-rule="evenodd" d="M184.46 15.7381L221.001 0.00106812L216.2 39.7431L206.128 32.1261C172.413 67.9891 115.908 95.2911 57 91.4711L58 76.0341C111.17 79.4801 162.697 54.9941 193.711 22.7341L184.46 15.7381Z" fill="url(#paint0_linear_7640_10573)"/>
<g filter="url(#filter0_d_7640_10573)">
<path d="M52.5569 144.828L67.2569 119.628H65.6569C52.8569 119.628 43.0569 110.428 43.0569 96.8281C43.0569 83.8281 53.0569 74.0281 66.4569 74.0281C79.6569 74.0281 89.8569 83.7281 89.8569 96.8281C89.8569 101.028 88.4569 105.628 86.4569 109.128L66.5569 144.828H52.5569ZM66.4569 108.028C72.4569 108.028 77.2569 104.028 77.2569 96.8281C77.2569 90.0281 72.3569 85.6281 66.4569 85.6281C60.4569 85.6281 55.6569 90.0281 55.6569 96.8281C55.6569 104.028 60.4569 108.028 66.4569 108.028ZM120.533 145.628C108.633 145.628 99.3329 138.128 98.1329 126.528L110.033 124.328C111.533 132.028 115.933 134.028 120.533 134.028C127.333 134.028 130.933 129.528 130.933 121.628C130.933 113.828 127.033 109.528 119.933 109.528C115.233 109.528 110.833 112.128 107.533 115.828L99.6329 114.228L103.533 74.8281H139.533V86.4281H113.833L112.233 101.028C114.933 99.4281 118.333 98.4281 122.133 98.4281C136.733 98.4281 143.533 107.928 143.533 121.628C143.533 135.728 134.533 145.628 120.533 145.628ZM165.668 148.628L158.468 142.828L212.268 71.0281L219.468 76.7281L165.668 148.628ZM168.668 106.028C159.168 106.028 152.268 99.0281 152.268 90.0281C152.268 81.0281 159.168 74.0281 168.668 74.0281C178.168 74.0281 185.068 81.0281 185.068 90.0281C185.068 99.0281 178.168 106.028 168.668 106.028ZM168.668 96.5281C172.568 96.5281 174.868 93.7281 174.868 90.0281C174.868 86.3281 172.568 83.5281 168.668 83.5281C164.768 83.5281 162.468 86.3281 162.468 90.0281C162.468 93.7281 164.768 96.5281 168.668 96.5281ZM209.268 145.628C199.768 145.628 192.868 138.628 192.868 129.628C192.868 120.628 199.768 113.628 209.268 113.628C218.768 113.628 225.668 120.628 225.668 129.628C225.668 138.628 218.768 145.628 209.268 145.628ZM209.268 136.128C213.168 136.128 215.468 133.328 215.468 129.628C215.468 125.928 213.168 123.128 209.268 123.128C205.368 123.128 203.068 125.928 203.068 129.628C203.068 133.328 205.368 136.128 209.268 136.128Z" fill="white"/>
</g>
<defs>
<filter id="filter0_d_7640_10573" x="28.0569" y="56.0281" width="212.611" height="107.6" filterUnits="userSpaceOnUse" color-interpolation-filters="sRGB">
<feFlood flood-opacity="0" result="BackgroundImageFix"/>
<feColorMatrix in="SourceAlpha" type="matrix" values="0 0 0 0 0 0 0 0 0 0 0 0 0 0 0 0 0 0 127 0" result="hardAlpha"/>
<feOffset/>
<feGaussianBlur stdDeviation="7.5"/>
<feComposite in2="hardAlpha" operator="out"/>
<feColorMatrix type="matrix" values="0 0 0 0 0 0 0 0 0 0 0 0 0 0 0 0 0 0 1 0"/>
<feBlend mode="normal" in2="BackgroundImageFix" result="effect1_dropShadow_7640_10573"/>
<feBlend mode="normal" in="SourceGraphic" in2="effect1_dropShadow_7640_10573" result="shape"/>
</filter>
<linearGradient id="paint0_linear_7640_10573" x1="196.196" y1="35.4761" x2="68.969" y2="90.6871" gradientUnits="userSpaceOnUse">
<stop stop-color="white"/>
<stop offset="0.444" stop-color="#9D9D9D" stop-opacity="0.41"/>
<stop offset="0.999" stop-color="#A5A5A5" stop-opacity="0"/>
</linearGradient>
</defs>
</svg>
