<svg width="564" height="360" viewBox="0 0 564 360" fill="none" xmlns="http://www.w3.org/2000/svg">
<g clip-path="url(#clip0_218_15672)">
<rect width="564" height="360" fill="black"/>
<rect x="663.77" y="360" width="763.538" height="134" transform="rotate(180 663.77 360)" fill="url(#paint0_linear_218_15672)" fill-opacity="0.29"/>
<g opacity="0.17">
<path d="M663.885 52.832L-100.787 52.8321" stroke="white" stroke-width="2.5" stroke-miterlimit="10"/>
<path d="M663.885 103.926L-100.787 103.926" stroke="white" stroke-width="2.5" stroke-miterlimit="10"/>
<path d="M663.885 155.605L-100.787 155.606" stroke="white" stroke-width="2.5" stroke-miterlimit="10"/>
<path d="M663.885 207.285L-100.787 207.285" stroke="white" stroke-width="2.5" stroke-miterlimit="10"/>
<path d="M663.885 258.379L-100.787 258.379" stroke="white" stroke-width="2.5" stroke-miterlimit="10"/>
<path d="M663.885 310.645L-100.787 310.645" stroke="white" stroke-width="2.5" stroke-miterlimit="10"/>
<path d="M555.523 0.000871897L555.523 361.613" stroke="white" stroke-width="2.5" stroke-miterlimit="10"/>
<path d="M500.809 0.000871897L500.809 361.613" stroke="white" stroke-width="2.5" stroke-miterlimit="10"/>
<path d="M446.359 0.000871897L446.359 361.613" stroke="white" stroke-width="2.5" stroke-miterlimit="10"/>
<path d="M391.642 0.000871897L391.642 361.613" stroke="white" stroke-width="2.5" stroke-miterlimit="10"/>
<path d="M336.927 0.000871897L336.927 361.613" stroke="white" stroke-width="2.5" stroke-miterlimit="10"/>
<path d="M282.475 0.000871897L282.475 361.613" stroke="white" stroke-width="2.5" stroke-miterlimit="10"/>
<path d="M227.758 0.000871897L227.758 361.613" stroke="white" stroke-width="2.5" stroke-miterlimit="10"/>
<path d="M173.309 0.000871897L173.309 361.613" stroke="white" stroke-width="2.5" stroke-miterlimit="10"/>
<path d="M118.591 0.000871897L118.591 361.613" stroke="white" stroke-width="2.5" stroke-miterlimit="10"/>
<path d="M64.1416 0.000871897L64.1416 361.613" stroke="white" stroke-width="2.5" stroke-miterlimit="10"/>
<path d="M9.42379 0.000871897L9.42383 361.613" stroke="white" stroke-width="2.5" stroke-miterlimit="10"/>
</g>
<path d="M283.16 258.527C255.723 258.527 255.723 156.496 228.295 156.496C200.858 156.496 200.858 258.527 173.429 258.527C145.992 258.527 145.992 156.496 118.564 156.496C91.1271 156.496 91.1272 258.527 63.6991 258.527C36.271 258.527 36.262 156.496 8.83389 156.496C-18.6032 156.496 -18.6033 258.527 -46.0313 258.527C-73.4685 258.527 -73.4684 156.496 -100.897 156.496C-128.334 156.496 -128.334 258.527 -155.762 258.527" stroke="#555555" stroke-width="2.5" stroke-miterlimit="10"/>
<path d="M718.958 258.527C691.716 258.527 691.716 156.496 664.483 156.496C637.241 156.496 637.241 258.527 610.008 258.527C582.766 258.527 582.766 156.496 555.534 156.496C528.292 156.496 528.292 258.527 501.059 258.527C473.826 258.527 473.817 156.496 446.584 156.496C419.342 156.496 419.342 258.527 392.11 258.527C364.868 258.527 364.868 156.496 337.635 156.496C310.393 156.496 310.393 258.527 283.16 258.527" stroke="url(#paint1_linear_218_15672)" stroke-width="2.5" stroke-miterlimit="10"/>
<path d="M718.958 258.527C691.716 258.527 691.716 156.496 664.483 156.496C637.241 156.496 637.241 258.527 610.008 258.527C582.766 258.527 582.766 156.496 555.534 156.496C528.292 156.496 528.292 258.527 501.059 258.527C473.826 258.527 473.817 156.496 446.584 156.496C419.342 156.496 419.342 258.527 392.11 258.527C364.868 258.527 364.868 156.496 337.635 156.496C310.393 156.496 310.393 258.527 283.16 258.527" stroke="#4F4F4F" stroke-width="2.5" stroke-miterlimit="10"/>
<path d="M-155.762 103.562C-100.898 103.562 -100.898 280.775 -46.0336 280.775C8.83045 280.775 8.83047 103.562 63.6945 103.562C118.559 103.562 118.559 280.775 173.423 280.775C228.287 280.775 228.287 103.562 283.16 103.562" stroke="url(#paint2_linear_218_15672)" stroke-width="2.5" stroke-miterlimit="10"/>
<path d="M-155.762 103.562C-100.898 103.562 -100.898 280.775 -46.0336 280.775C8.83045 280.775 8.83047 103.562 63.6945 103.562C118.559 103.562 118.559 280.775 173.423 280.775C228.287 280.775 228.287 103.562 283.16 103.562" stroke="white" stroke-width="2.5" stroke-miterlimit="10"/>
<path d="M283.16 93.5898L283.16 311.461" stroke="white" stroke-width="2.5" stroke-linecap="round" stroke-linejoin="round"/>
<path d="M-11.2197 310.879H221.034" stroke="white" stroke-width="2.5" stroke-miterlimit="10"/>
<path d="M220.399 306.094L229.855 310.879L220.399 315.665V306.094Z" fill="white"/>
<path d="M462.517 310.879H632.06" stroke="white" stroke-width="2.5" stroke-miterlimit="10"/>
<path d="M465.868 315.665L456.729 310.879L465.868 306.094V315.665Z" fill="white"/>
<path d="M347.475 52.3477H433.674" stroke="white" stroke-width="2.5" stroke-miterlimit="10"/>
<path d="M433.198 47.5625L440.309 52.348L433.198 57.1412V47.5625Z" fill="white"/>
<path d="M283.16 103.562C337.634 103.562 337.634 280.775 392.107 280.775C446.581 280.775 446.581 103.562 501.054 103.562C555.528 103.562 555.528 280.775 610.002 280.775C664.475 280.775 664.475 103.562 718.958 103.562" stroke="url(#paint3_linear_218_15672)" stroke-width="2.5" stroke-miterlimit="10"/>
<path d="M283.16 103.562C337.634 103.562 337.634 280.775 392.107 280.775C446.581 280.775 446.581 103.562 501.054 103.562C555.528 103.562 555.528 280.775 610.002 280.775C664.475 280.775 664.475 103.562 718.958 103.562" stroke="white" stroke-width="2.5" stroke-miterlimit="10"/>
<path d="M-3.4668 82.8516C16.8593 53.0182 49.0396 33.7539 85.2644 33.7539C121.385 33.7539 153.486 52.9116 173.82 82.6029" stroke="url(#paint4_linear_218_15672)" stroke-width="2.5" stroke-miterlimit="10" stroke-linecap="round"/>
<path d="M106.654 82.8516C126.891 53.0182 158.929 33.7539 194.995 33.7539C230.957 33.7539 262.916 52.9116 283.16 82.6029" stroke="url(#paint5_linear_218_15672)" stroke-width="2.5" stroke-miterlimit="10" stroke-linecap="round"/>
<path d="M-149.514 368.997C76.6068 368.997 78.8157 187.949 288.627 187.949" stroke="url(#paint6_linear_218_15672)" stroke-width="2.5" stroke-miterlimit="10"/>
<path d="M283.16 188.718C497.995 188.718 500.093 8.4375 699.433 8.4375" stroke="url(#paint7_linear_218_15672)" stroke-width="2.5" stroke-miterlimit="10"/>
<path d="M392.344 310.785V189.5" stroke="white" stroke-width="2.5" stroke-miterlimit="10"/>
<path d="M387.473 190.113L392.344 180.984L397.216 190.113H387.473Z" fill="white"/>
<ellipse cx="283.19" cy="310.785" rx="8.75657" ry="8.60132" fill="white"/>
<path d="M446.779 52.2539L446.779 310.784" stroke="white" stroke-width="2.5" stroke-linecap="round" stroke-linejoin="round" stroke-dasharray="10.74 10.74"/>
<path d="M337.439 52.2539L337.439 155.819" stroke="white" stroke-width="2.5" stroke-linecap="round" stroke-linejoin="round" stroke-dasharray="10.74 10.74"/>
<path d="M174.131 103.57L173.82 278.474" stroke="white" stroke-width="2.5" stroke-linecap="round" stroke-linejoin="round" stroke-dasharray="10.74 10.74"/>
<rect y="-50" width="106" height="462" fill="url(#paint8_linear_218_15672)"/>
<rect x="564" y="412" width="106" height="462" transform="rotate(-180 564 412)" fill="url(#paint9_linear_218_15672)"/>
<path d="M433 -108C433 139.424 229.066 340 -22.5 340C-274.066 340 -478 139.424 -478 -108C-478 -355.424 -274.066 -556 -22.5 -556C229.066 -556 433 -355.424 433 -108Z" fill="url(#paint10_radial_218_15672)" fill-opacity="0.2"/>
<path d="M1211 -1.5C1211 226.87 1022.74 412 790.5 412C558.264 412 370 226.87 370 -1.5C370 -229.87 558.264 -415 790.5 -415C1022.74 -415 1211 -229.87 1211 -1.5Z" fill="url(#paint11_radial_218_15672)" fill-opacity="0.2"/>
</g>
<defs>
<linearGradient id="paint0_linear_218_15672" x1="1045.54" y1="360" x2="1045.54" y2="494" gradientUnits="userSpaceOnUse">
<stop stop-color="#D9D9D9"/>
<stop offset="1" stop-color="#D9D9D9" stop-opacity="0"/>
</linearGradient>
<linearGradient id="paint1_linear_218_15672" x1="718.958" y1="207.51" x2="283.144" y2="207.51" gradientUnits="userSpaceOnUse">
<stop stop-color="white" stop-opacity="0"/>
<stop offset="0.0089825" stop-color="#F6F5F6" stop-opacity="0.0359"/>
<stop offset="0.0733" stop-color="#B6B6B6" stop-opacity="0.2931"/>
<stop offset="0.1319" stop-color="#848384" stop-opacity="0.5273"/>
<stop offset="0.1828" stop-color="#5F5E60" stop-opacity="0.7306"/>
<stop offset="0.2239" stop-color="#49484A" stop-opacity="0.895"/>
<stop offset="0.2502" stop-color="#414042"/>
<stop offset="0.6519" stop-color="#414042"/>
<stop offset="1" stop-color="white" stop-opacity="0"/>
</linearGradient>
<linearGradient id="paint2_linear_218_15672" x1="-155.762" y1="192.173" x2="283.168" y2="192.173" gradientUnits="userSpaceOnUse">
<stop stop-color="white" stop-opacity="0"/>
<stop offset="0.1163" stop-color="white"/>
<stop offset="0.878" stop-color="white"/>
<stop offset="1" stop-color="white" stop-opacity="0"/>
</linearGradient>
<linearGradient id="paint3_linear_218_15672" x1="283.162" y1="192.175" x2="718.968" y2="192.175" gradientUnits="userSpaceOnUse">
<stop stop-color="white" stop-opacity="0"/>
<stop offset="0.1163" stop-color="white"/>
<stop offset="0.878" stop-color="white"/>
<stop offset="1" stop-color="white" stop-opacity="0"/>
</linearGradient>
<linearGradient id="paint4_linear_218_15672" x1="-4.03837" y1="58.1433" x2="174.399" y2="58.1433" gradientUnits="userSpaceOnUse">
<stop stop-color="white" stop-opacity="0"/>
<stop offset="0.1163" stop-color="white"/>
<stop offset="0.878" stop-color="white"/>
</linearGradient>
<linearGradient id="paint5_linear_218_15672" x1="106.085" y1="58.1433" x2="283.737" y2="58.1433" gradientUnits="userSpaceOnUse">
<stop stop-color="white" stop-opacity="0"/>
<stop offset="0.1163" stop-color="white"/>
<stop offset="0.878" stop-color="white"/>
</linearGradient>
<linearGradient id="paint6_linear_218_15672" x1="-149.511" y1="278.474" x2="288.627" y2="278.474" gradientUnits="userSpaceOnUse">
<stop stop-color="white" stop-opacity="0"/>
<stop offset="0.1163" stop-color="white"/>
<stop offset="0.878" stop-color="white"/>
<stop offset="1" stop-color="white" stop-opacity="0"/>
</linearGradient>
<linearGradient id="paint7_linear_218_15672" x1="283.162" y1="98.5783" x2="699.433" y2="98.5783" gradientUnits="userSpaceOnUse">
<stop stop-color="white" stop-opacity="0"/>
<stop offset="0.1163" stop-color="white"/>
<stop offset="0.878" stop-color="white"/>
<stop offset="1" stop-color="white" stop-opacity="0"/>
</linearGradient>
<linearGradient id="paint8_linear_218_15672" x1="5.34614e-07" y1="100.516" x2="106" y2="100.516" gradientUnits="userSpaceOnUse">
<stop/>
<stop offset="1" stop-opacity="0"/>
</linearGradient>
<linearGradient id="paint9_linear_218_15672" x1="564" y1="562.516" x2="670" y2="562.516" gradientUnits="userSpaceOnUse">
<stop/>
<stop offset="1" stop-opacity="0"/>
</linearGradient>
<radialGradient id="paint10_radial_218_15672" cx="0" cy="0" r="1" gradientUnits="userSpaceOnUse" gradientTransform="translate(-22.5 -108) rotate(90) scale(448 455.5)">
<stop stop-color="#D9D9D9"/>
<stop offset="1" stop-color="#D9D9D9" stop-opacity="0"/>
</radialGradient>
<radialGradient id="paint11_radial_218_15672" cx="0" cy="0" r="1" gradientUnits="userSpaceOnUse" gradientTransform="translate(790.5 -1.5) rotate(90) scale(413.5 420.5)">
<stop stop-color="#D9D9D9"/>
<stop offset="1" stop-color="#D9D9D9" stop-opacity="0"/>
</radialGradient>
<clipPath id="clip0_218_15672">
<rect width="564" height="360" fill="white"/>
</clipPath>
</defs>
</svg>
