<svg width="142" height="32" fill="none" xmlns="http://www.w3.org/2000/svg"><path d="M37.303 25.884h4.536V11.912h-4.536v13.972zM42.777 25.884h4.537V6.45h-4.537v19.434zM48.254 25.884h4.537V6.45h-4.537v19.434zM97.078 11.915h4.537v1.44c.672-1.087 1.665-1.522 3.033-1.577v4.81h-.536c-1.611 0-2.497.925-2.497 2.638v6.659h-4.537v-13.97zM36.94 8.359c0-1.471 1.178-2.664 2.63-2.664 1.454 0 2.632 1.193 2.632 2.664 0 1.47-1.178 2.663-2.631 2.663-1.453 0-2.63-1.192-2.63-2.663zM96.138 11.937h-4.537v1.04c-.636-.704-2.12-1.285-3.247-1.285-3.959 0-6.628 3.051-6.628 7.346s3.003 7.067 6.68 7.067c1.129 0 2.364-.38 3.195-1.006v.789h4.537v-6.115c0-.251-.001-.496-.006-.735.005-.239.006-.483.006-.734v-6.367zm-7.525 9.565c-1.453 0-2.63-1.194-2.63-2.665 0-1.47 1.177-2.663 2.63-2.663 1.453 0 2.63 1.192 2.63 2.663 0 1.471-1.177 2.665-2.63 2.665zM114.716 6.45v6.17c-.885-.625-1.905-.896-3.141-.896-3.784 0-6.737 2.962-6.737 7.229 0 4.022 2.845 7.12 6.308 7.12 1.423 0 2.577-.462 3.651-1.467v1.277h4.456V6.45h-4.537zm-2.671 15.146c-1.453 0-2.63-1.193-2.63-2.664 0-1.47 1.177-2.664 2.63-2.664 1.453 0 2.631 1.193 2.631 2.664 0 1.47-1.178 2.664-2.631 2.664zM61.464 11.726c-1.235 0-2.255.272-3.141.896v-6.17h-4.537v19.434h4.456v-1.278c1.075 1.006 2.228 1.468 3.652 1.468 3.462 0 6.308-3.098 6.308-7.12 0-4.268-2.953-7.23-6.738-7.23zm-.483 9.903c-1.453 0-2.63-1.193-2.63-2.665 0-1.47 1.177-2.662 2.63-2.662 1.453 0 2.63 1.192 2.63 2.663 0 1.471-1.177 2.664-2.63 2.664zM30.058 11.726c-1.235 0-2.255.272-3.141.896v-6.17H22.38v19.434h4.456v-1.278c1.075 1.006 2.228 1.468 3.652 1.468 3.462 0 6.307-3.098 6.307-7.12 0-4.268-2.952-7.23-6.737-7.23zm-.483 9.903c-1.453 0-2.631-1.193-2.631-2.665 0-1.47 1.178-2.662 2.631-2.662 1.453 0 2.63 1.192 2.63 2.663 0 1.471-1.177 2.664-2.63 2.664z" fill="#fff"/><path d="M74.98 11.608c-3.919 0-7.033 3.262-7.033 7.23 0 3.968 3.087 7.23 7.034 7.23 3.973 0 7.033-3.29 7.033-7.23 0-3.94-3.114-7.23-7.033-7.23zm0 9.81c-1.453 0-2.63-1.193-2.63-2.665 0-1.47 1.178-2.663 2.63-2.663 1.454 0 2.63 1.193 2.63 2.663 0 1.472-1.176 2.664-2.63 2.664z" fill="#fff"/></svg>