<svg width="142" height="32" fill="none" xmlns="http://www.w3.org/2000/svg"><path d="M90.236 21.456h4.86v4.62H82.271V5.726h12.825v4.62h-4.86v2.225h4.86v4.676h-4.86v4.209zM72.621 10.346h-4.945v-4.62H81.52c0 .085.014.17.014.24V9.78a.935.935 0 0 1-.085.383c-1.743 3.67-3.5 7.34-5.243 11.01-.043.086-.071.17-.128.298h5.442v4.634H67.194c0-.085-.014-.17-.014-.255v-3.883a.75.75 0 0 1 .099-.397c1.715-3.6 3.444-7.213 5.172-10.812.057-.142.1-.255.17-.411zM113.973 10.05c0-.355-.014-.71-.057-1.064-.184-1.601-1.063-2.65-2.636-3.018a8.75 8.75 0 0 0-2.097-.255c-4.336-.029-8.658-.014-12.995-.014-.099 0-.184.014-.297.014v20.392h.269c4.421 0 8.843 0 13.264-.014a8.49 8.49 0 0 0 1.587-.17c1.502-.27 2.466-1.148 2.778-2.664a9.014 9.014 0 0 0 .184-1.743c.014-3.813.014-7.639 0-11.465zm-8.092 10.075v.212c-.042.794-.368 1.091-1.162 1.091h-.85V10.348c.496.014.978-.071 1.46.113.283.113.425.34.481.624.043.198.071.396.071.609.014 2.806.014 5.612 0 8.432zM47.028 10.092c0-.411-.028-.836-.099-1.247-.227-1.517-1.063-2.523-2.565-2.863a10.07 10.07 0 0 0-2.154-.27c-4.322-.028-8.644-.013-12.967-.013h-.283v20.406h13.222c.538 0 1.063-.043 1.587-.113 1.757-.241 2.735-1.148 3.09-2.863.112-.553.17-1.12.17-1.686.013-3.784.013-7.568 0-11.351zm-8.091 9.905c0 .241-.029.496-.086.737-.085.411-.325.638-.75.666-.383.029-.78 0-1.191 0V10.304c.468.028.921.028 1.346.114.425.07.567.439.638.822.028.184.043.368.043.552v8.205zM63.098 5.713H50.614l-3.586 20.364h8.22l.453-4.393c.737 0 1.446 0 2.154.014.057 0 .142.113.142.198.085.737.156 1.488.227 2.225l.212 1.97h8.248L63.098 5.713zm-7.085 11.464.822-6.689h.056l.794 6.69h-1.672z" fill="#fff"/></svg>