<svg width="142" height="32" fill="none" xmlns="http://www.w3.org/2000/svg"><path d="m36.087 8.815-3.638 6.2-3.622-6.2h-2.952l5.313 8.463v6.295h2.4v-6.299l5.274-8.459h-2.775zM22.353 14.974h-7.477V8.815h-2.4v14.758h2.4v-6.356h7.477v6.356h2.4V8.815h-2.4v6.159zM46.969 8.815h-6.887v14.758h2.4v-6.041h4.487c2.578 0 4.093-1.712 4.093-3.758v-1.141c0-2.165-1.614-3.818-4.093-3.818zm1.692 4.683c0 .945-.65 1.87-1.928 1.87h-4.25v-4.27h4.25c1.24 0 1.928.865 1.928 1.731v.67zM55.548 17.178h7.202v-2.204h-7.202v-3.916h7.615V8.815H53.148v14.758H63.28V21.33h-7.733v-4.152zM130.202 8.815h-11.138v2.125h4.369v12.633h2.4V10.94h4.369V8.815zM75.728 16.005c.91-.482 1.445-1.377 1.445-2.27v-1.3c0-1.81-1.338-3.62-4.093-3.62h-7.103v14.758h7.792c2.813 0 3.837-2.027 3.837-3.66v-1.004c0-1.194-.616-2.294-1.878-2.904zm-2.727-4.947c1.2 0 1.771.827 1.771 1.653v.65c0 .787-.55 1.672-1.77 1.672h-4.625v-3.975h4.624zm2.204 8.658c0 .905-.767 1.614-1.77 1.614h-5.058v-4.093h5.057c1.161 0 1.771.905 1.771 1.77v.71zM113.102 14.894h-2.439c-1.417 0-2.283-.826-2.283-1.81v-.355c0-.964.59-1.83 2.283-1.83h1.79c1.496 0 2.302.906 2.302 1.91h2.421c0-2.342-1.693-4.074-4.408-4.074h-2.381c-2.735 0-4.408 1.673-4.408 3.896v.748c0 1.967 1.791 3.876 4.329 3.876h2.401c1.613 0 2.46.964 2.46 1.948v.256c0 .984-.788 1.987-2.342 1.987H110.8c-1.318 0-2.322-.846-2.322-2.046h-2.459c0 2.066 1.456 4.25 4.604 4.25h2.381c2.755 0 4.565-1.77 4.565-4.191v-.433c0-2.42-2.184-4.132-4.467-4.132zM82.328 17.178h7.202v-2.204h-7.202v-3.916h7.615V8.815H79.928v14.758H90.06V21.33h-7.733v-4.152zM96.909 8.815l-5.333 14.758h2.617l1.179-3.503h5.797l1.19 3.503h2.715L99.781 8.815H96.91zm-.807 9.09 2.156-6.402 2.175 6.403h-4.331z" fill="#fff"/></svg>