<svg width="142" height="32" fill="none" xmlns="http://www.w3.org/2000/svg"><path d="M18.84 23.704c1.354 0 1.896-.632 1.896-2.076V11.156c0-1.445-.452-2.077-1.896-2.077V7.635h7.764c4.242 0 7.041 1.896 7.041 5.236 0 3.07-2.528 5.236-7.132 5.236H25.25v3.43c0 1.626.813 2.077 3.07 2.077v1.444h-9.48v-1.354zM25.25 8.99v7.854h.722c2.166 0 3.34-1.625 3.34-3.972 0-2.437-1.174-3.882-3.43-3.882h-.633zM33.826 23.706c1.264 0 1.715-.542 1.715-1.896v-4.875c0-.722-.542-1.174-1.264-1.083h-.451v-1.535l4.784-1.444h1.174v8.847c0 1.354.451 1.895 1.715 1.895v1.445h-7.764v-1.354h.09zm3.882-15.889c1.263 0 2.347 1.083 2.347 2.347s-1.084 2.347-2.347 2.347c-1.264 0-2.348-1.083-2.348-2.347a2.33 2.33 0 0 1 2.348-2.347zM42.673 15.218h-1.625v-.993c1.896-.541 4.243-2.076 4.965-4.333h.903v3.792h2.979v1.534h-2.98v5.868c0 1.445.813 1.896 1.626 1.896.541 0 1.173-.18 1.534-.451l.452.812c-.722 1.174-2.438 2.076-4.153 2.076-2.528 0-3.701-1.534-3.701-4.062v-6.139zM56.666 12.871c1.625 0 3.069.451 4.423 1.174l-1.535 4.152h-.993c-.27-2.527-1.444-3.52-2.708-3.52-1.535 0-2.437 1.354-2.437 3.16 0 2.707 1.895 4.062 3.882 4.062 1.534 0 2.347-.632 2.888-1.806l.903.361c-.542 2.799-1.805 4.965-5.236 4.965-3.16 0-5.416-2.257-5.416-5.777.09-4.153 2.527-6.771 6.229-6.771z" fill="#fff"/><path d="M60.728 23.705c1.264 0 1.716-.542 1.716-1.896V11.337c0-.722-.542-1.083-1.264-1.083h-.542V8.629l5.146-1.264h.903V15.4c.632-1.716 1.895-2.528 3.61-2.528 2.258 0 3.792 1.264 3.792 3.882v4.965c0 1.354.452 1.896 1.716 1.896v1.444h-7.132v-1.444c1.083 0 1.083-.632 1.083-1.806v-4.965c0-1.083-.542-1.625-1.535-1.625-.812 0-1.444.542-1.625 1.354v5.236c0 1.174.09 1.806 1.084 1.806v1.444h-7.132v-1.354h.18zM76.525 23.705c1.264 0 1.716-.542 1.716-1.896v-6.59h-1.716v-.993c1.354 0 1.806-.361 1.806-1.354 0-2.347 2.076-5.507 6.32-5.507 1.353 0 2.798.451 4.062.993l-1.806 4.514-.903-.18c.09-2.438-.722-3.973-2.166-3.973-1.174 0-1.806.993-1.806 2.257 0 1.083.271 1.986.452 2.708h2.527v1.535h-2.437v6.5c0 1.354.451 1.896 1.715 1.896v1.444h-7.764v-1.354z" fill="#fff"/><path d="M84.922 19.1c0-4.062 2.889-6.319 6.229-6.319 3.34 0 6.229 2.257 6.229 6.32 0 4.062-2.889 6.319-6.23 6.319-3.34 0-6.228-2.257-6.228-6.32zm4.785 0c0 3.973.36 5.146 1.444 5.146 1.083 0 1.444-1.173 1.444-5.145 0-3.973-.36-5.146-1.444-5.146-1.083.09-1.444 1.264-1.444 5.146zM97.65 23.705c1.265 0 1.716-.542 1.716-1.896v-4.695c0-.722-.542-1.173-1.264-1.173h-.541v-1.535l4.513-1.354h1.264v1.896c0 .993-.09 2.437-.09 2.979h.09c.361-3.611 1.986-5.146 3.882-5.146.361 0 .451 0 .722.09v4.153c-1.534-.27-4.243-.18-4.243 2.618v2.077c0 1.354.452 1.895 1.716 1.895v1.445h-7.764v-1.354z" fill="#fff"/><path d="M107.581 23.705c1.263 0 1.715-.542 1.715-1.896V11.337c0-.722-.542-1.083-1.264-1.083h-.542V8.629l5.236-1.264h.903v11.014h.181l2.076-.993c.993-.452 1.173-.903 1.173-1.535 0-.813-.631-1.264-1.624-1.264v-1.444h6.319v1.263c-1.354 1.626-2.618 2.257-4.063 2.98l2.799 3.791c.903 1.174 1.444 2.438 2.347 2.438v1.444h-5.326l-3.701-5.958h-.181v2.979c0 .993.09 1.444 1.083 1.444v1.445h-7.131v-1.264z" fill="#fff"/></svg>