<svg xmlns="http://www.w3.org/2000/svg" width="142" height="32" fill="none"><path fill="#fff" fill-rule="evenodd" d="M27.59 5.79a23.85 23.85 0 0 0-4.44-.15c-1.49.06-2.92.3-4.32.6-1.13.32-2.47.7-2.97 1.84-.27.6-.21 1.49.3 1.96.41.42 1.25.42 1.78.18.42-.18.72-.6.8-1.01.06-.42-.14-.8-.44-1.07a.241.241 0 0 0-.12-.1c-.08-.06-.15-.1-.06-.2a5.1 5.1 0 0 1 2.86-.92c.17-.04.26.08.34.18.04.05.07.09.1.12L20.3 13.2l-.98 5.39c-.02.05-.03.1-.05.15-.06.24-.12.46-.25.65-.47.75-1.4.8-2.23.83-.1.23-.13.5-.17.77-.01.08-.02.16-.04.25v.03h7.2c.07-.33.12-.69.15-1.02-.08 0-.2 0-.26-.03-.6-.2-1.07-.71-1.13-1.33.1-.59.2-1.16.3-1.74.16-.84.32-1.67.44-2.52 0-.03.06-.1.09-.1.42 0 .83.04 1.25.1l.54.6c.06.18.13.36.2.55.22.61.44 1.23.72 1.83a15.16 15.16 0 0 0 4.8 5.56 12.94 12.94 0 0 0 5.17 2.09c2.2.35 4.88.32 6.49-1.28.45-.48.69-1.14.5-1.82-.14-.63-.77-.95-1.33-1.1a2.85 2.85 0 0 1-.21-.24c-.09-.11-.18-.22-.3-.33a.1.1 0 0 0 0-.03c-.01-.02-.02-.04 0-.06l2.77-.03.12-.77-.03-.03a1.16 1.16 0 0 1-.48-.2c-.38-.28-.5-.72-.47-1.17l2.08-11.73.03-.36-4.5 2.8a.6.6 0 0 1-.16.11c-.07.04-.14.08-.2.16.13.27.28.5.45.72.21-.1.48-.03.69.05.27.1.44.4.42.69l-.8 4.32-.54 3c-.02.08-.03.16-.05.24-.04.23-.07.46-.16.66-.24.41-.72.62-1.22.65l-.03.03c-.05.18-.08.42-.1.63-.01.04-.02.08-.02.11.65.03 1.3.24 1.66.8.33.4.3 1.05.06 1.47-.8 1.25-2.5 1.25-3.95 1.13-2.18-.33-3.96-1.6-5.4-3.1a11.05 11.05 0 0 1-2.82-4.91c-.03-.17-.07-.33-.1-.5a5.57 5.57 0 0 1-.17-1.02c.45-.12.9-.24 1.28-.44a4.37 4.37 0 0 0 2.56-4.35c-.09-1.25-.95-2.3-1.96-2.95-.46-.27-1-.37-1.53-.47-.15-.03-.31-.06-.47-.1-.2 0-.38-.03-.56-.05zm-2.83 1.13c.83 0 1.67.06 2.38.33.54.17.98.47 1.34.98.5.62.65 1.58.36 2.35-.21.62-.54 1.16-1.05 1.64-.98.98-2.4 1.34-3.87 1.34a.5.5 0 0 1-.2-.18 2.01 2.01 0 0 0-.12-.12v-.09l.53-2.98.6-3.27h.03zM90 10.58l.03-.03.18-.68.65-3.79-.03-.03-.95-.03-.12.18c-.3.42-.86.48-1.37.39-.27-.06-.54-.14-.8-.22-.38-.1-.76-.22-1.16-.29-1.28-.23-2.5.21-3.42.96a3.7 3.7 0 0 0-1.34 2.62 5.02 5.02 0 0 0 1.42 3.9c.3.33.6.66.92.98.76.8 1.52 1.6 2.03 2.56.42.65.33 1.64-.03 2.3a2.78 2.78 0 0 1-2.62 1.36c-2.05-.06-3.66-1.49-4.46-3.21-.33.08-.69.2-1.04.32v.03l1.19 3.37.38 1.1c.24-.06.45-.12.66-.24.03-.27.24-.48.44-.6.21-.14.57-.05.8 0 .27.1.53.2.8.29 1.23.46 2.49.93 3.91.6a4.5 4.5 0 0 0 3.19-2.64c.53-1.04.68-2.62.06-3.66a29.07 29.07 0 0 0-2.38-2.95c-.48-.55-.97-1.1-1.43-1.67-.6-.71-1.25-1.58-1.02-2.65.15-.71.75-1.22 1.43-1.43 1.04-.3 2.06.21 2.68.96.54.53.54 1.4.45 2.17l.95.03zm29.53 6.04 2.3-1.07 3.42-1.6v-.07c-.18-1.34-.87-2.8-2.3-3.12a4.42 4.42 0 0 0-3.09.36 5.52 5.52 0 0 0-2.83 3.54 5.17 5.17 0 0 0 .86 4.7c.87 1.2 2.54 1.43 4.02 1.13 1.43-.35 2.71-1.37 3.01-2.83.09-.5.06-1.13-.36-1.42-.3-.24-.77-.24-1.1-.1-.33.13-.6.48-.65.84-.06.3.06.57.3.71.23.03.38.21.47.4-.12.26-.36.5-.56.68-.45.38-1.17.5-1.79.3a2.87 2.87 0 0 1-1.6-1.82l-.02-.04c-.06-.17-.13-.4-.08-.59zm1.85-4.7c.56.06.95.56 1.13 1.04.1.28.11.61.13.91 0 .09.01.17.02.25-.64.32-1.28.61-1.93.9-.38.18-.76.35-1.14.53-.12-.03-.18-.12-.24-.2a2.47 2.47 0 0 1-.03-.81c.03-.8.21-1.46.69-2.06.33-.38.8-.65 1.37-.56zm-10.4 8.7h4.92c.06-.3.12-.57.18-.84l-.33-.1c-.47-.2-.8-.62-.77-1.15l.36-1.97.47-2.53c.18-.86.36-1.93-.15-2.68-.41-.5-1.1-.68-1.78-.56a6.17 6.17 0 0 0-3.04 1.9l-.09.06a1.13 1.13 0 0 1-.3-.35c.03-.26.08-.51.12-.76.05-.26.1-.51.12-.76a.38.38 0 0 0-.11.05c-.02.01-.05.03-.07.04l-2.11 1.34c-.9.53-1.79 1.1-2.68 1.66l-.27-.26a4.25 4.25 0 0 0-1.04-2.03 4.09 4.09 0 0 0-2.8-.86 6 6 0 0 0-4.94 4.1c-.33.96-.3 2.2-.09 3.22-.21.17-.45.31-.68.46-.09.05-.18.1-.27.17l-.15.06c-.5.23-1.1.5-1.67.23-.47-.35-.8-.95-.71-1.6 0 0 0-.1.03-.18l.2-1.16.51-3.07.06-.15c.69 0 1.37 0 2.06.03.13 0 .24.04.36.07.07.02.13.04.2.05.18-.45.36-.9.5-1.34h-2.58c-.12-.09-.24-.2-.33-.36.12-.62.24-1.28.33-1.93l-.48.27-3.9 2.38-.15.74 1.01.03v.03c.15 0 .24.12.32.24.04.04.07.09.1.12l-.74 4.02c-.18.8-.24 1.84.03 2.65.24.68 1 1.1 1.75 1.13 1.82.03 3.3-.95 4.56-1.97l.09-.03a5.54 5.54 0 0 0 2.17 1.52c1.1.42 2.5.21 3.42-.38 1.67-1.1 2.5-3.01 2.77-4.92.27-.26.57-.44.9-.6.35-.14.68.07.92.3.18.21.15.54.12.8l-.48 2.84-.12.44c-.2.42-.65.63-1.1.72-.05 0-.1.01-.15.02-.1.01-.2.03-.3.07l-.14.83h5.06c0-.12.03-.24.05-.36.03-.19.06-.38.06-.56l-.17-.06c-.4-.21-.66-.57-.66-1.01l.57-3.37a2.5 2.5 0 0 1 .95-1.63c.36-.3.92-.45 1.4-.24.44.27.83.68.83 1.22l-.62 3.84-.12.44c-.18.51-.75.75-1.25.8a7.4 7.4 0 0 0-.15.87zm-8.09-5.64-.06.57-.15.92-.12.5c-.2.86-.42 1.74-1.1 2.36a1.4 1.4 0 0 1-1.19.27c-.6-.15-.98-.74-1.07-1.34a8.5 8.5 0 0 1 .21-3.12l.06-.3c.05-.16.1-.33.14-.5.24-.82.48-1.66 1.17-2.18.33-.3.8-.3 1.19-.15.53.27.95.74.98 1.34.07.57 0 1.1-.06 1.63zm-23.1-2.23c-.71-.06-1.43.06-1.9.54-.43.4-.6.96-.78 1.5-.11.37-.22.74-.42 1.06a4.12 4.12 0 0 1-3.3 2.23c-.9.06-1.7-.12-2.47-.39-.11.07-.14.19-.17.31-.01.05-.02.1-.04.14-.15.45.03.92.33 1.22.34.42.96.4 1.53.37.13 0 .25-.01.37-.01l.36-.03c1.26-.12 2.7-.25 3.84.2.36.28.54.72.45 1.17-.33 1.25-1.25 2.23-2.23 3.06a8.4 8.4 0 0 1-8.46 1.25c-.65-.3-1.4-.68-1.55-1.45-.12-.87.5-1.55 1.1-2.03.51-.39 1.1-.68 1.67-.95.04-.04-.03-.13-.09-.2a.47.47 0 0 1-.06-.07c-.03-.05-.04-.07-.06-.08-.02-.02-.04-.02-.09-.04h-5.18c0-.24.06-.47.12-.71.5-.12 1.04-.33 1.28-.8l.06-.27.69-4c.03-.26.03-.59-.15-.8a1.38 1.38 0 0 0-1.4-.47 2.58 2.58 0 0 0-1.67 1.87l-.53 3.16c0 .5.3.98.77 1.16 0 .27-.06.56-.12.8h-4.64c0-.04 0-.08.01-.12.03-.19.06-.4.1-.6.54-.14 1.08-.38 1.23-.94l.62-3.55a.97.97 0 0 0-.68-.74h-.42c-.15-.24-.3-.48-.45-.75l.1-.08 4.73-2.83c-.04.51-.14 1-.23 1.5-.04.24-.1.48-.13.73.02.02.04.05.06.07.06.07.12.14.2.14a13.6 13.6 0 0 1 2.06-1.88c.75-.53 2.03-.77 2.86-.24.5.4.6.96.53 1.58l-.03.18-.86 5.63c0 .41.39.86.84 1.01.2.09.47.15.71.12.09-.86.65-1.73 1.55-1.97.06-.03.12-.05.2-.07.06-.02.13-.04.18-.07-.06-.1-.16-.2-.26-.3a1.39 1.39 0 0 1-.21-.21c-.86-.92-.95-2.53-.48-3.7a4.24 4.24 0 0 1 2.47-2.37c1.7-.6 3.9-.33 5.12.92.09.1.18.19.27.28.14.15.28.3.39.43.05 0 .07-.04.1-.1a3.12 3.12 0 0 1 2.73-1.84c-.14.61-.31 1.2-.5 1.8l-.07.23zm-5.09 2.41c.2-.8.48-1.9.06-2.7-.3-.48-.77-.8-1.37-.75-.6.12-.92.66-1.16 1.13v.01c-.36 1.1-.83 2.56-.12 3.62.27.36.63.63 1.13.54.66-.09 1.04-.74 1.28-1.25l.18-.6zm-.18 7.68c.1-.38-.12-.71-.36-.92-.44-.47-1.14-.36-1.79-.27a6.01 6.01 0 0 1-2.44-.06c-.38-.07-.75-.22-1.11-.37-.09-.04-.17-.07-.25-.1-.57.65-1.22 1.49-.9 2.44.21.48.63 1.01 1.2 1.16 1.13.33 2.44.09 3.48-.27.65-.27 1.3-.53 1.81-1.07.1-.1.18-.22.25-.35.04-.06.07-.13.11-.19zM56.16 9.4c-.56.45-1.45.68-2.17.36-.33-.33-.36-.9-.2-1.31.35-.8 1.24-1.25 2.1-1.37.45 0 .96.15 1.17.53.24.78-.42 1.37-.9 1.79zm.12 1.9-.38 2.36-.69 3.93c-.01.1-.04.23-.06.35-.08.44-.18.94.12 1.28.2.36.6.5.98.54 0 .17-.03.34-.05.5-.02.06-.03.12-.04.18l-5.3-.03c.03-.23.06-.44.12-.68.11-.05.24-.08.37-.1.18-.05.37-.1.53-.2.2-.15.44-.36.56-.6.12-.61.23-1.22.34-1.83.08-.48.17-.97.26-1.47a.96.96 0 0 0-.57-.83c-.06-.02-.12-.02-.2-.02-.07 0-.14 0-.21-.01-.21-.27-.36-.57-.51-.9l4.76-2.82.06-.03a3.1 3.1 0 0 0-.03.12c0 .06-.02.12-.06.26zm-7.08 6.82c-.1.5.03 1.04.47 1.31.1.06.24.12.36.15 0 .27-.06.57-.12.83l-4.94-.06-.03-.03c.02-.13.03-.26.05-.38.01-.13.03-.26.04-.39l.06-.06c.48-.09.98-.24 1.25-.65l.09-.3.57-3.1.65-3.75c.01-.09.04-.18.06-.28.07-.32.15-.67-.03-.97-.15-.2-.36-.42-.6-.45-.07-.01-.14 0-.22 0-.08.01-.16.02-.25 0a16.04 16.04 0 0 0-.45-.74l.1-.06 3.6-2.23 1.4-.87-.22 1.4-1.84 10.63zm-10.66.39c-.68.71-1.46 1.46-2.44 1.7-.8.2-1.79.35-2.59.05a3.5 3.5 0 0 1-2.14-1.9 5.39 5.39 0 0 1-.36-3.3c.15-.87.53-1.67 1.1-2.36A6.95 6.95 0 0 1 35 10.73a4.29 4.29 0 0 1 4.31.92 5 5 0 0 1 .48 5c-.36.66-.77 1.28-1.25 1.85zm-1.22-5.93c-.2-.38-.57-.77-1.04-.83-.48-.12-.9.15-1.22.42-.9 1.13-1.2 2.56-1.37 3.99l-.03.33c-.07.68-.14 1.43.12 2.02.3.42.65.9 1.28.8 1.24-.1 1.6-1.32 1.89-2.34.03-.13.07-.25.1-.37.05-.25.1-.5.16-.77.24-1.07.5-2.2.11-3.25z" clip-rule="evenodd"/></svg>