<svg xmlns="http://www.w3.org/2000/svg" width="143" height="32" fill="none"><path fill="#fff" d="M33.57 12.92h11.29V7.16h-11.3v5.76zM11 7.16v5.76h5.64v11.51h5.64v-11.5h5.65V7.15H11zm16.93 17.28h16.93v-5.76h-11.3v-5.76h-5.63v11.52zm31.32-12.93h-8.3v2.4h2.79v7.5h2.73v-7.5h2.78v-2.4zm3.12 2.32c-1.95 0-3.4 1.3-3.4 3.88 0 2.28 1.23 3.87 3.46 3.87 1.17 0 2.11-.3 3.02-.85l-.97-1.63c-.74.38-1.27.52-1.93.52-.68 0-1.17-.36-1.27-1.18h4.37c.02-.12.02-.29.02-.5.02-2.76-1.25-4.11-3.3-4.11zm-1.05 3.02c.08-.75.4-1.13.99-1.13.74 0 1 .38 1.13 1.13h-2.12zm9.2 2.65c-.68 0-1.05-.6-1.05-1.79 0-1.17.33-1.83 1-1.83.53 0 .78.3 1.14.97l1.75-1.33c-.64-1.05-1.45-1.7-2.86-1.7-2.37 0-3.54 1.58-3.54 3.85 0 2.5 1.3 3.89 3.48 3.89 1.3 0 2.11-.5 2.98-1.77l-1.61-1.27c-.48.72-.8.98-1.29.98zm8.78-5.67c-.89 0-1.41.3-1.87.64v-3.36l-2.56 1.03v9.3h2.56v-4.25c0-.93.32-1.19.86-1.19.52 0 .85.26.85 1.2v4.24h2.55v-4.55c0-1.96-.78-3.06-2.4-3.06zm8.53 5.35c-1.19 0-1.67-1.2-1.67-2.72 0-1.57.5-2.71 1.65-2.71.9 0 1.25.58 1.6 1.5l2.49-.98c-.69-1.87-1.65-2.92-4.09-2.92-2.66 0-4.53 1.93-4.53 5.11 0 2.94 1.57 5.12 4.51 5.12a4.28 4.28 0 0 0 4.13-2.56L89.6 17.8c-.54.93-.9 1.4-1.77 1.4zm8.19-4.65V14h-2.55v7.43h2.55v-4.05c0-.9.39-1.2 1-1.2.51 0 .87.25 1.2.62l.6-2.64c-.3-.18-.66-.32-1.2-.32-.67 0-1.17.28-1.6.7zm8.26 3.7c0 .93-.33 1.2-.85 1.2s-.85-.27-.85-1.22V14h-2.55v4.55c0 1.95.78 3.04 2.41 3.04.87 0 1.41-.3 1.86-.65v.5h2.55v-7.42h-2.55v4.22m8.81-4.41c-.89 0-1.4.3-1.87.64v-.5h-2.56v7.43h2.56v-4.25c0-.93.32-1.19.86-1.19.53 0 .85.26.85 1.2v4.24h2.56v-4.55c0-1.92-.77-3.02-2.4-3.02zm7.47 5.67c-.69 0-1.05-.6-1.05-1.79 0-1.17.32-1.83.97-1.83.54 0 .78.3 1.14.97l1.76-1.33c-.65-1.05-1.45-1.7-2.86-1.7-2.38 0-3.55 1.58-3.55 3.85 0 2.5 1.31 3.89 3.49 3.89 1.3 0 2.11-.5 2.98-1.77l-1.61-1.27c-.45.72-.79.98-1.27.98zm8.77-5.67c-.88 0-1.4.3-1.87.64v-3.36l-2.55 1.03v9.3h2.55v-4.25c0-.93.32-1.19.87-1.19.52 0 .84.26.84 1.2v4.24h2.56v-4.55c.02-1.96-.77-3.06-2.4-3.06z"/></svg>