<svg width="143" height="32" fill="none" xmlns="http://www.w3.org/2000/svg"><g clip-path="url(#a)" fill="#fff"><path d="M103.198 24.446c-2.846-.498-5.208-2.392-6.279-5.037-.551-1.362-.738-3.697-.407-5.098.47-1.995 1.736-3.82 3.383-4.877 1.462-.938 2.619-1.202 5.677-1.298l2.74-.086v5.737l-1.054-.43a7.269 7.269 0 0 0-2.318-.499c-1.18-.066-1.317-.037-2.057.44-1.061.683-1.55 1.624-1.56 3-.007.893.065 1.143.505 1.77.683.971 1.613 1.485 2.691 1.485 1.118 0 1.299-.137 1.234-.939l-.054-.657-1.307.008-1.306.009-.001-1.863v-1.863l3.541.048 3.541.05v3.424c0 2.081.074 3.636.187 3.963.237.678.015.953-1.354 1.683-1.65.88-4.138 1.321-5.802 1.03zm-77.562-.63c.078-.162.166-2.75.195-5.75l.053-5.454-1.531.059-1.53.06.046-2.277.047-2.276 3.92-.045 3.92-.046v16.024h-2.632c-2.448 0-2.621-.02-2.488-.295zm6.131-7.714V8.094h6.913v4.664l-.927-.077-.928-.077v1.728h2.866V8.094h5.058V24.11h-5.386l.164-.433c.09-.237.165-1.565.165-2.95V18.21h-2.883l.052 2.655c.028 1.46.116 2.789.194 2.95.134.276-.043.296-2.572.296h-2.716v-8.009zm13.679 7.73c.351-.423.432-14.045.089-15.041l-.24-.697h9.74v4.671l-.886-.232c-.5-.13-1.473-.212-2.234-.186l-1.349.046-.051.991-.051.991 1.442-.075 1.442-.076v3.945l-.746-.16c-.41-.087-1.036-.134-1.39-.105l-.646.053-.051.903-.052.904 1.906-.083c1.049-.046 2.077-.139 2.286-.207l.38-.123v4.76h-4.91c-4.548 0-4.894-.02-4.68-.279zm19.143-.269c-2.333-5.582-6.348-14.628-6.653-14.991l-.403-.478h5.663c3.115 0 5.663.057 5.663.126 0 .07-.331 1-.735 2.066l-.735 1.939-1.288.049c-.708.027-1.288.078-1.288.113 0 .16 1.58 4.405 1.683 4.522.064.073.86-1.881 1.77-4.342l1.654-4.473h13.102v2.462c0 2.285-.021 2.453-.295 2.328-.162-.075-1.187-.166-2.276-.201l-1.981-.065v1.756l1.433-.075 1.433-.075v3.945l-.746-.16c-.41-.087-1.036-.134-1.391-.105l-.645.053-.05.97-.051.969h1.504c.907 0 1.79-.1 2.222-.253.394-.14.745-.253.78-.253.035 0 .063 1.062.063 2.36v2.361h-4.91c-4.022 0-4.877-.04-4.727-.22.2-.243.366-11.92.168-11.92-.062 0-1.274 2.732-2.694 6.07l-2.581 6.07h-3.46l-.23-.548z"/><path d="m83.672 8.092.137.38c.184.506.179 14.965-.005 15.342-.135.275.05.295 2.745.295 2.805 0 2.888-.01 2.718-.327-.096-.179-.174-1.246-.174-2.37 0-2.043.001-2.046.38-1.934.709.21 1.637.922 2.086 1.601.507.767.713 2.107.411 2.672l-.195.358h2.882c1.686 0 2.843-.063 2.788-.153-.053-.084-.233-.985-.406-2.002-.382-2.239-1.067-3.663-2.155-4.494l-.722-.553.411-.553c1.376-1.865 1.156-4.983-.463-6.602-1.318-1.318-2.818-1.653-7.35-1.654l-3.088-.006zm5.79 4.22c.163.01.397.103.733.243 1.004.42 1.207 1.516.426 2.297-.33.331-.663.49-1.011.49h-.516v-1.517c0-1.16.011-1.535.368-1.513zm21.488 11.504c.185-.378.19-14.836.005-15.345l-.138-.382 4.859.044 4.86.045.047 2.331.047 2.332-.385-.124c-.934-.3-1.651-.4-2.871-.404l-1.306-.004v2.066l1.433-.075 1.433-.076v2.011c0 1.847-.024 2.002-.295 1.897-.162-.063-.799-.157-1.415-.21l-1.121-.095-.06.888c-.042.62.007.913.161.972.286.11 3.543-.067 4.036-.219l.38-.116v4.76h-4.908c-4.616 0-4.898-.018-4.762-.296z"/></g><defs><clipPath id="a"><path fill="#fff" transform="translate(22.78 8.05)" d="M0 0h97.892v16.485H0z"/></clipPath></defs></svg>