<svg width="142" height="32" fill="none" xmlns="http://www.w3.org/2000/svg"><path d="M25.23 21.109h-5.518v-.405h.296c.365 0 .58-.174.58-.62v-8.743c0-.446-.215-.62-.58-.62h-.296v-.408h5.518v3.711h-.366v-.04c0-2.2-.666-3.196-1.887-3.196h-.905v4.479h.23c.689 0 1.011-.66 1.011-2.051v-.041h.367v4.67h-.367v-.027c0-1.363-.308-2.068-1.01-2.068h-.232v4.887h.85c1.208 0 1.943-1.176 1.943-3.18v-.043h.366v3.695zm-5.87 0H16.12v-.405h.285c.362 0 .593-.174.593-.62v-4.24h-2.362v4.24c0 .447.23.62.595.62h.284v.404h-3.239v-.405h.283c.365 0 .594-.174.594-.619v-8.743c0-.446-.229-.62-.594-.62h-.283v-.408h3.239v.41h-.284c-.365 0-.595.172-.595.618v3.926H17V11.34c0-.446-.23-.62-.593-.62h-.285v-.408h3.239v.41h-.282c-.365 0-.594.172-.594.618v8.743c0 .447.229.62.593.62h.283v.405zM12.1 14.05h-.364v-.04c0-1.738-.66-3.223-1.43-3.223h-.324v9.297c0 .446.23.618.594.618h.337v.405h-3.33v-.405h.322c.363 0 .592-.174.592-.618v-9.297h-.283c-.77 0-1.43 1.391-1.43 3.222v.04H6.42v-3.737h5.68v3.738zm40.83 7.058h-5.358v-.405h.297c.365 0 .593-.162.593-.606v-8.772c0-.443-.228-.604-.593-.604h-.297v-.409h3.24v.41h-.286c-.363 0-.593.16-.593.603v9.312h.798c1.453 0 1.833-1.66 1.833-3.196v-.041h.365v3.708zM37.613 10.722h-.109c-.52 0-.786.094-.97.982l-1.97 9.485h-.608l-1.229-6.205h-.013L31.46 21.19h-.608l-1.93-9.729c-.123-.618-.3-.739-.85-.739h-.04v-.408h2.914v.409h-.054c-.42 0-.525.12-.525.404 0 .063.012.19.027.268l1.228 6.586h.025l.796-4.335-.416-2.184c-.104-.54-.227-.74-.663-.74H31.3v-.408h2.886v.409h-.052c-.514 0-.648.18-.649.55 0 .101.016.214.04.338l1.23 6.289h.026l1.16-6.303c.018-.092.028-.218.028-.297 0-.39-.143-.577-.716-.577h-.081v-.41h2.443v.41zm9.756 10.387h-8.232v-.405h.069c.558 0 .729-.149.729-.458 0-.087-.018-.203-.04-.326l-.26-1.428h-1.834l-.255 1.428a1.906 1.906 0 0 0-.04.326c0 .335.13.458.687.458h.053v.405H35.94v-.405h.122c.473 0 .743-.11.863-.745l1.876-9.754h.689l1.93 9.714c.115.587.417.784.674.784h.216c.365 0 .594-.161.594-.605v-8.772c0-.443-.229-.604-.594-.604h-.283v-.409h3.238v.409h-.298c-.364 0-.593.16-.593.604v9.311h.796c1.456 0 1.834-1.648 1.834-3.208v-.04h.366v3.72zm-7.84-3.116-.81-4.777h-.028l-.809 4.777h1.647zm51.683-3.942h-.365v-.042c0-1.736-.658-3.22-1.43-3.22h-.324v9.296c0 .445.228.62.593.62h.3v.402h-3.282v-.402h.31c.366 0 .595-.176.595-.62v-9.296h-.284c-.772 0-1.429 1.391-1.429 3.22v.042h-.366v-3.738h5.682v3.738zm-6.153 7.056h-5.52v-.402h.298c.364 0 .58-.176.58-.62V11.34c0-.445-.216-.62-.58-.62h-.297v-.408h5.519v3.71h-.364v-.04c0-2.199-.669-3.194-1.889-3.194h-.904v4.477h.228c.69 0 1.013-.664 1.013-2.05v-.04h.364v4.67h-.364v-.026c0-1.366-.31-2.069-1.013-2.069h-.228v4.885h.849c1.206 0 1.944-1.175 1.944-3.181v-.04h.364v3.692zm-5.883 0h-5.52v-.402h.297c.365 0 .582-.176.582-.62V11.34c0-.445-.217-.62-.582-.62h-.296v-.408h5.519v3.71h-.366v-.04c0-2.199-.666-3.194-1.89-3.194h-.904v4.477h.23c.688 0 1.014-.664 1.014-2.05v-.04h.364v4.67h-.364v-.026c0-1.366-.313-2.069-1.014-2.069h-.23v4.885h.85c1.208 0 1.944-1.175 1.944-3.181v-.04h.366v3.692zm-12.428-7.056h-.363v-.042c0-1.736-.66-3.22-1.431-3.22h-.322v9.296c0 .445.227.62.591.62h.284v.402h-3.265v-.402h.31c.365 0 .594-.176.594-.62v-9.296h-.284c-.771 0-1.43 1.391-1.43 3.22v.042h-.364v-3.738h5.68v3.738zm-5.693 4.442c0 1.908-1.158 2.695-2.51 2.695-.982 0-1.43-.323-1.903-.646l-.255.565h-.283V17.4h.364v.109c0 2.602 1.31 3.195 1.97 3.195.958 0 1.442-.706 1.442-1.716 0-1.237-.778-2.145-1.903-2.992-1.017-.772-1.955-1.718-1.955-3.292 0-1.627 1-2.473 2.2-2.473.997 0 1.46.409 1.726.638l.271-.529h.269v3.723h-.364v-.107c0-2.019-.608-3.236-1.807-3.236-.73 0-1.162.534-1.162 1.39 0 1.014.6 1.59 1.715 2.452 1.234.958 2.184 1.969 2.184 3.93zm12.522 1.143c0 .906-.345 1.552-1.228 1.552-.887 0-1.26-.654-1.323-1.996l-.094-2.01c-.05-1.058-.457-1.351-1.066-1.351h-.392v4.254c0 .444.176.62.54.62h.35v.402H67.1v-.402h.31c.364 0 .593-.176.593-.62V11.34c0-.446-.229-.62-.594-.62h-.309v-.409h2.954c1.786 0 2.9.918 2.9 2.62 0 1.783-1.237 2.455-2.334 2.67v.027c.898.093 1.717.766 1.769 1.786l.122 2.355c.022.473.08.61.31.61.268 0 .335-.202.335-.906v-.39h.42v.552zm-2.175-6.675c0-1.69-.666-2.173-1.577-2.173h-.352v4.546h.406c.95 0 1.523-.645 1.523-2.373zm64.262 7.486c0 .407-.299.74-.62.74-.318 0-.619-.333-.619-.74 0-.403.301-.73.619-.73.32 0 .62.327.62.73zm-12.749-9.726h-.289c-.336 0-.607.255-.607.781v9.646h-.527l-3.371-8.498h-.027v7.268c0 .53.269.786.607.786h.286v.403h-2.27v-.403h.286c.336 0 .607-.256.607-.786v-8.524c0-.377-.148-.673-.529-.673h-.363v-.408h2.051l2.738 6.95h.024v-5.76c0-.532-.269-.782-.603-.782h-.282v-.408h2.27v.408h-.001zm-24.576 0h-.295c-.366 0-.594.173-.594.62v7.528c0 1.69-1.06 2.319-2.417 2.319-.968 0-1.942-.792-1.942-2.319 0-.819.51-1.172.918-1.172.423 0 .729.299.729.807 0 .651-.38.926-.876.997 0 .558.427 1.203 1.157 1.203.704 0 .947-.39.947-1.552v-7.81c0-.447-.214-.621-.581-.621h-.337v-.408h3.291v.408zm35.454 10.386h-8.253v-.403h.083c.557 0 .728-.148.728-.458 0-.087-.02-.203-.041-.328l-.256-1.425h-1.832l-.256 1.425a1.91 1.91 0 0 0-.04.328c0 .334.129.458.686.458h.055v.403h-2.31v-.403h.121c.478 0 .747-.11.869-.744l1.873-9.755h.686l1.931 9.714c.116.588.42.786.68.786h.215c.364 0 .592-.163.592-.606v-8.772c0-.444-.228-.606-.592-.606h-.295v-.408h3.256v.408h-.308c-.365 0-.594.162-.594.606v9.308h.795c1.456 0 1.836-1.646 1.836-3.193V17.4h.371v3.706zm-7.847-3.114-.81-4.777h-.026l-.807 4.777h1.643zm-9.283 1.643c0 .906-.343 1.552-1.227 1.552-.884 0-1.259-.654-1.323-1.996l-.093-2.01c-.052-1.063-.456-1.351-1.065-1.351h-.392v4.254c0 .444.176.62.542.62h.334v.402h-3.251v-.402h.311c.365 0 .591-.176.591-.62V11.34c0-.442-.221-.62-.577-.62h-.569c-.336 0-.539.282-.539.78v7.193c0 1.434-.476 2.494-2.023 2.494-1.645 0-2.604-1.008-2.604-2.494V11.34c0-.446-.215-.62-.58-.62h-.299v-.409h3.254v.408h-.297c-.368 0-.58.175-.58.62v7.448c0 1.214.478 1.861 1.296 1.861.827 0 1.334-.536 1.334-1.861v-7.286c0-.5-.189-.782-.527-.782h-.336v-.408h5.101c1.784 0 2.901.918 2.901 2.62 0 1.783-1.242 2.455-2.336 2.67v.027c.898.093 1.716.761 1.77 1.786l.121 2.355c.023.473.081.61.309.61.269 0 .337-.202.337-.906v-.39h.417v.552zm-2.171-6.675c0-1.69-.667-2.173-1.578-2.173h-.352v4.546h.406c.951 0 1.524-.645 1.524-2.373zm-10.565 2.723c0 3.068-1.006 5.504-2.848 5.504-1.796 0-2.805-2.436-2.805-5.503s.966-5.453 2.805-5.453c1.82 0 2.848 2.386 2.848 5.453zm-1.673 2.566V13.15c0-1.866-.415-2.429-1.175-2.429-.761 0-1.147.535-1.147 2.455v5.06c0 1.799.344 2.47 1.147 2.47.788 0 1.175-.715 1.175-2.455z" fill="#fff"/></svg>