<svg xmlns="http://www.w3.org/2000/svg" width="142" height="32" fill="none"><path fill="#fff" d="m48.98 16.58 1.42-.73V4.72h-1.07L46.7 8.19h-.3l.17-3.9h11.35l.16 3.9h-.31L55.2 4.72h-1.1v11.1l1.42.76v.37h-6.55v-.37zm10.21-.49V3.76l-1.1-.44v-.23l3.98-.74h.43v5.86l.1-.1A5.3 5.3 0 0 1 66 6.86c1.74 0 2.51.99 2.51 2.81v6.43l.93.5v.36h-5.2v-.35l.94-.51V9.64c0-1-.45-1.4-1.27-1.4-.5-.02-.98.14-1.37.45v7.42l.91.5v.34h-5.2v-.33l.94-.53zm13.08-3.79c.1 2.04 1.02 3.62 3.18 3.62 1.05 0 1.8-.48 2.48-.85v.4a4.86 4.86 0 0 1-3.82 1.78c-3.36 0-5.07-1.87-5.07-5.1 0-3.15 1.88-5.12 4.9-5.12 2.86 0 4.34 1.42 4.34 5.18v.1h-6.01zm-.06-.47 2.96-.18c0-2.52-.43-4.2-1.3-4.2-.93 0-1.66 1.95-1.66 4.38zM30.53 21.9c0-5.37 3.55-7.28 7.51-7.28 1.68 0 3.26.28 4.15.64l.08 3.75h-.38l-2.32-3.63a3.45 3.45 0 0 0-1.47-.24c-2.1 0-3.18 2.43-3.15 6.42.04 4.76.87 6.94 2.8 6.94.4 0 .79-.06 1.16-.2v-5.1l-1.28-.73v-.44h6.16v.46l-1.25.7v5.04c-1.5.53-3.07.8-4.66.79-4.5 0-7.35-2.08-7.35-7.12zm12.69-2.5v-.32l4.13-.72.46.03v8.17c0 .98.47 1.28 1.26 1.28a1.7 1.7 0 0 0 1.35-.63v-7.32l-1.13-.5v-.32l4.13-.72.41.03v9.37l1.12.47v.3L50.9 29l-.42-.04v-1.23h-.11a4.6 4.6 0 0 1-3.1 1.3c-2 0-2.9-1.16-2.9-2.94v-6.21l-1.15-.5zm25.96-1.06.35.04v3.03h.09c.44-2.2 1.42-3.03 2.6-3.03.18-.01.35.01.52.07v3.07a5.21 5.21 0 0 0-3.1.37v5.98l.94.52v.41H65.2v-.4l.96-.53V19.7l-1.13-.34v-.27l4.14-.76zm10.4.25V15.4l-1.14-.4v-.25l4.18-.77.4.06v13.68l1.16.42v.36l-4.13.55-.32-.04v-1.13h-.1a3.69 3.69 0 0 1-2.75 1.15c-2.26 0-3.9-1.72-3.9-5.23 0-3.7 1.91-5.53 4.8-5.53.61-.03 1.23.08 1.8.31zm0 8.77v-8.2a1.5 1.5 0 0 0-1.15-.35c-1.12.04-1.8 1.73-1.8 4.74 0 2.7.49 4.22 1.98 4.16.35 0 .7-.12.97-.35zm9.12-9.02.36.04v9.49l.95.52v.41h-5.37v-.4l.96-.53v-8l-1.15-.46v-.32l4.25-.75zm.38-2.57a1.8 1.8 0 0 1-1.83 1.74 1.78 1.78 0 0 1-1.6-2.67c.33-.56.95-.9 1.6-.87 1-.01 1.82.8 1.83 1.79v.01zm12.06 12.1v-8.1l-1.13-.39v-.39l4.13-.77.41.04v1.22h.12a5.44 5.44 0 0 1 3.52-1.31c1.8 0 2.59.85 2.59 2.75v6.94l.96.55v.4h-5.37v-.41l.96-.53v-6.78c0-1.04-.45-1.46-1.3-1.46-.52-.01-1.01.15-1.42.46v7.78l.95.52v.42h-5.38v-.41l.96-.53zm-5.84-5.08v-1.36c0-2.04-.45-2.72-1.71-2.72-.14 0-.29.02-.43.04L90.9 21.8h-.32V19c1.22-.43 2.5-.65 3.78-.67 2.75 0 4.35.77 4.35 3.07V28l.98.26v.26c-.63.32-1.32.48-2.03.47-1.36 0-2-.45-2.3-1.19h-.1c-.58.78-1.4 1.23-2.68 1.23-1.63 0-2.75-1.03-2.75-2.79 0-1.7 1.06-2.63 3.21-3.05l2.25-.41zm0 4.57v-4.09l-.69.06c-1.08.09-1.47.78-1.47 2.3 0 1.65.55 2.08 1.3 2.08a1 1 0 0 0 .86-.35zm-34.87-4.57v-1.36c0-2.04-.45-2.72-1.71-2.72-.14 0-.29.02-.43.04l-2.25 3.05h-.32V19a12.1 12.1 0 0 1 3.78-.67c2.75 0 4.35.77 4.35 3.07V28l.98.26v.26c-.63.32-1.32.48-2.03.47-1.36 0-2-.45-2.3-1.19h-.1c-.57.78-1.39 1.23-2.68 1.23-1.63 0-2.75-1.03-2.75-2.79 0-1.7 1.06-2.63 3.22-3.05l2.24-.41zm0 4.57v-4.09l-.69.06c-1.08.09-1.47.78-1.47 2.3 0 1.65.55 2.08 1.3 2.08a1 1 0 0 0 .86-.35z"/></svg>