<svg width="142" height="32" fill="none" xmlns="http://www.w3.org/2000/svg"><path fill-rule="evenodd" clip-rule="evenodd" d="M18.155 13.209h1.795l7.55 9.494v-9.532h1.122v14.766l-9.345-11.888v11.738h-1.122V13.21zm12.485 0h5.42l.748 1.682s-.897-.86-2.616-.86h-1.234v5.158h2.13c1.122 0 1.31-.149 1.72-.56v2.168s-.486-.748-1.72-.748h-2.13v6.729h2.99c2.991 0 4.486-1.122 4.486-1.122l-1.121 2.169H30.64V13.208zm74.949 0h5.981l.748 1.682s-.822-.86-2.617-.86h-2.018v5.158H110c.897 0 1.122-.074 1.496-.373v1.645s-.262-.524-1.496-.524h-2.28v6.878h1.421c2.616 0 3.588-.747 3.588-.747l-1.308 1.72h-5.869v-14.58h.037zm-68.145 0h2.317l4.935 10.616 1.009-2.168-3.738-8.448h2.168l2.654 5.681 2.617-5.681h1.121l-2.99 7.252 1.607 3.364 4.748-10.579H55.2l-6.617 14.69-2.242-4.859-2.243 4.86-6.654-14.728zm38.24-.524c5.122 0 8.224 3.551 8.224 7.476 0 5.084-2.803 8.299-8.074 8.299-5.308 0-8.448-3.925-8.448-7.85 0-4.411 3.364-7.925 8.336-7.925h-.037zm-6.093 7.589c0 3.439 1.944 7.177 6.355 7.177 4.112 0 5.72-3.365 5.72-7.103 0-2.99-2.056-6.803-6.094-6.803-2.766 0-5.98 2.168-5.98 6.729zm16.074-7.103h3.365c1.869 0 3.364 1.047 3.364 2.99 0 2.243-1.645 2.879-2.804 3.253 2.094.374 2.879 1.345 2.879 4.112 0 2.803.747 3.813 1.345 3.813.486 0 .898-.3 1.01-.524l.299.187c-.113.15-.673 1.047-2.019 1.047s-2.43-1.234-2.43-4.112c0-4.224-1.121-4.299-2.056-4.299v-.299s1.944-.448 1.944-2.803c0-2.243-1.346-2.542-1.869-2.542h-1.01v13.83h-2.167l.075-14.578.074-.075zm28.036 0h3.439c1.869 0 3.364 1.047 3.364 2.99 0 2.243-1.682 2.879-2.841 3.253 2.094.374 2.879 1.345 2.879 4.112 0 2.803.747 3.813 1.345 3.813.449 0 .86-.3.972-.524l.299.187c-.112.15-.672 1.047-2.018 1.047-1.346 0-2.393-1.234-2.393-4.112 0-4.224-1.121-4.299-2.056-4.299v-.299c.075 0 1.982-.448 1.982-2.803 0-2.243-1.346-2.542-1.869-2.542h-1.01v13.83h-2.168l.075-14.578v-.075zm-11.588 10.317c0 2.841.673 3.85 1.346 3.85.486 0 .859-.373 1.009-.523l.299.15c-.075.112-.636 1.009-2.019 1.009-1.345 0-2.355-1.121-2.355-4.112v-.56c0-1.72-.112-3.066-.373-3.926-.262-.747-1.122-1.233-1.496-1.233h-.374v9.644h-2.168V13.21h2.131v4.261l3.85-4.336h1.383l-4.111 4.56c2.13.374 2.878 1.87 2.878 5.234v.56zM68.657 4.162h1.121V6.78h2.617V4.162h1.121v6.093h-1.121v-2.99h-2.617v2.99h-1.121V4.162zm6.953 0h2.84l.375.898s-.599-.374-1.122-.374h-1.01v2.093h.973c.523 0 .673-.224.673-.224v.972s-.15-.3-.673-.3h-.972v2.617h1.346c1.009 0 1.42-.523 1.42-.523l-.486 1.01H75.61V4.124h.075l-.075.037zm-10.504.449h.523c.935 0 1.682.635 1.682.635l-.374-1.121h-5.046l-.374 1.121s.748-.635 1.72-.635h.635v5.607h1.122V4.611H65.106zM64.358 27.788v-7.551l4.112-7.028h-1.346l-3.888 6.729-3.925-6.729h-1.308l4.112 7.028v7.55h2.243z" fill="#fff"/></svg>