<svg xmlns="http://www.w3.org/2000/svg" width="142" height="32" fill="none"><path fill="#fff" d="M39.22 26.72H36.8L34.64 5.28h2.47l.96 12.78 1.05-12.78h2.28l-2.18 21.44zm14.96 0v-15l-1.88 15h-1.74l-1.69-15.04v15.04h-2.22V5.28h3.67l1.4 12.11 1.76-12.11h3.2v21.44h-2.5zm8.15 0-.16-3.88H60.7l-.25 3.88h-2.22l1.74-21.44h3.16l1.77 21.44h-2.57zm-.78-15.17-.64 8.55H62l-.46-8.55zm9.55 15.17-.22-.5c-.35.5-1.05.77-1.72.77-1.69 0-2.78-1.26-2.78-3.67V8.68c0-2.17 1.34-3.67 3.08-3.67s3.08 1.5 3.08 3.67v4.4h-2.43V8.49c0-.48-.22-.77-.65-.77-.4 0-.64.3-.64.77v15.28c0 .5.27.78.67.78.43 0 .7-.3.7-.78v-5.22h-.6v-2.3h3.06v10.47H71.1zm7.02 0-.16-3.88h-1.48l-.24 3.88h-2.22l1.74-21.44h3.16l1.77 21.44h-2.57zm-.78-15.17-.64 8.55h1.1l-.46-8.55zm6.97 12.6H87v2.57h-5.41L84.5 7.85h-2.33V5.28h5.09l-2.95 18.87zM89 26.72V5.28h2.52v21.44H89zm9.2 0-2.58-11.71v11.71h-2.09V5.28h2.55l2.15 11.9V5.28h2.06v21.44h-2.1zm4.02 0V5.28h5.2v2.57h-2.7v6.54h1.82v2.58h-1.83v7.18h2.7v2.57h-5.2z"/></svg>