<svg width="143" height="32" fill="none" xmlns="http://www.w3.org/2000/svg"><path d="m108.403 12.418-.107.477-.98.265c-.217.059-.425.264-.53.398l-4.45 5.67-1.67 5.563c-.087.29.028.457.212.503l1.166.292-.159.477h-5.828l.158-.477 1.087-.265c.293-.072.454-.24.556-.583l1.67-5.617-1.458-5.484c-.07-.263-.14-.48-.423-.556l-.69-.186.106-.477h4.981l-.106.477-.848.239c-.296.083-.366.236-.291.53l1.192 4.662 3.55-4.716a.471.471 0 0 0 .107-.264c0-.106-.089-.181-.213-.212l-.953-.239.132-.477h3.789z" fill="#fff"/><path d="M96.797 15.518h-.662l-.583-1.775c-.107-.327-.265-.424-.583-.424h-1.457l-3.418 11.472c-.087.29-.002.456.265.53l.954.264-.16.477h-5.695l.159-.477 1.006-.238c.447-.105.546-.243.663-.636l3.391-11.392h-1.696c-.263 0-.47.17-.635.397l-1.193 1.643h-.662l1.06-3.285h.423c.106.237.267.344.504.344h7.127c.397 0 .53-.106.689-.344h.45l.053 3.444zm-10.57-.16h-.663l-.636-1.694c-.096-.259-.292-.345-.53-.345h-2.702l-1.537 5.193h2.57c.265 0 .424-.13.61-.398l.714-1.033h.663l-1.219 4.133h-.662l.027-1.457c.004-.263-.16-.345-.425-.345h-2.543l-1.695 5.724h3.735c.5 0 .692-.097.954-.425l1.483-1.854h.716l-1.51 3.576H83.1c-.133-.265-.32-.37-.795-.37h-8.558l.16-.478 1.032-.264c.267-.069.43-.24.53-.583l3.286-11.101c.063-.214-.008-.403-.159-.45l-.927-.292.132-.477h7.392c.25 0 .45-.106.583-.344h.424l.026 3.285z" fill="#fff"/><path d="M108.27 8.842c-6.201 1.413-13.823 2.145-20.295 2.145-16.161 0-27.5-2.199-32.296-3.337L35.464 26.778l-1.642.212 5.934-18.069c-.945.5-4.132 1.325-5.59 1.431-.464.033-.474-.222-.265-.344 1.404-.822 2.072-1.472 2.703-3.074 2.915.71 5.113.159 7.762-.821L38.988 21.32 53.295 5.795c9.113 1.944 18.82 2.755 26.282 2.755 6.96 0 13.078-1.096 16.214-2.384 4.422 2.633 9.484 2.409 12.373 2.225.42-.026.473.367.106.45z" fill="#fff"/><path d="m77.14 12.419-.133.477-1.113.318c-.214.06-.319.188-.397.45l-3.285 11.021c-.098.33-.172.54.238.663l.795.238-.159.477h-5.272l.159-.477.768-.238c.428-.133.56-.29.662-.637l3.26-11.074c.067-.23-.02-.395-.186-.45l-.875-.291.133-.477h5.405zm-7.87 3.364c0 2.072-1.643 3.869-4.318 3.762-.463-.018-1.115-.106-1.536-.238 0 2.533.777 5.113 2.278 5.113.927 0 1.201-.776 1.325-1.43.02-.106.107-.185.238-.053.356.355.663.85.663 1.59 0 1.554-.982 2.251-2.465 2.251-3.755 0-3.925-5.4-3.311-8.716.034-.183.107-.212.238-.133.479.287 1.03.45 1.802.45 1.215 0 2.358-.963 2.358-2.702 0-1.737-1.444-2.808-3.577-2.808l-3.523 11.87a1.059 1.059 0 0 0-.053.29c0 .158.063.246.238.292l1.007.265-.16.477h-5.271l.159-.477.794-.238c.244-.074.362-.218.477-.61l3.498-11.869c-1.516.32-2.253.88-2.253 1.749 0 .5.114.736.266.953.057.084.08.177.079.265-.004.196-.17.371-.662.371-.79 0-1.51-.45-1.51-1.563 0-.658.405-2.888 6.199-2.888 4.906 0 7.02 1.578 7.02 4.027zm-17.008-.953-5.432 6.702h4.822l.61-6.702zm2.808 10.756-.159.477h-4.98l.158-.477.875-.238c.248-.068.37-.242.397-.53l.212-2.305h-5.59l-1.828 2.225c-.119.144-.186.255-.186.345 0 .116.063.192.212.238l.848.265-.16.477h-4.185l.185-.477.874-.212c.307-.074.614-.307.848-.582l11.313-13.3 1.166-.213-1.086 13.565c-.023.29.017.475.344.557l.742.185z" fill="#fff"/></svg>