<svg width="143" height="32" fill="none" xmlns="http://www.w3.org/2000/svg"><g clip-path="url(#a)"><path fill-rule="evenodd" clip-rule="evenodd" d="M47.54 23.393c1.528 1.89 3.89 3.273 6.36 3.273 2.636 0 5.014-1.5 6.588-3.547 1.605-2.102 2.393-4.755 2.393-7.384 0-2.745-.864-5.527-2.6-7.675-1.505-1.864-3.852-3.264-6.298-3.264-2.66 0-5.053 1.476-6.643 3.54-1.612 2.101-2.392 4.754-2.392 7.391 0 2.744.849 5.52 2.591 7.666zM36.524 5.247h-7.438v.214h1.957l7.682 21.005L45.33 5.461h1.774v-.214h-4.013v.214h1.842l-4.686 15.196-5.55-15.196h1.828v-.214zm42.638 6.933v-7.3h-.167c-.512.382-1.108.818-1.774.818-.534 0-1.077-.175-1.574-.359l-.436-.168c-.597-.238-1.23-.436-1.873-.436-1.643 0-3.187.726-4.464 1.712-2.843 2.194-4.181 5.947-4.181 9.456 0 4.8 2.89 10.586 8.316 10.586 1.185 0 2.21-.343 3.28-.817l.474-.26c.526-.29 1.115-.505 1.72-.505.832 0 1.482.451 1.895 1.14h.145v-8.44h1.636v-.22h-6.995v.22h1.911v5.642c0 .375-.015.74-.214 1.07-.772 1.261-2.316 1.995-3.768 1.995-1.828 0-2.814-.863-3.494-2.622-.97-2.506-1.184-5.266-1.184-7.941 0-2.99.397-10.824 4.77-10.824 1.903 0 3.363 1.665 4.28 3.149.772 1.268 1.215 2.667 1.529 4.104h.168zm9.547-6.933h-7.46v.214h2.04v15.456c0 3.837 3.701 5.465 7.057 5.465 2.965 0 6.13-1.475 6.13-4.807V5.46h3.7v20.37h-1.75v.215h15.05v-7.911h-.168c-.038.764-.1 1.536-.229 2.293a6.66 6.66 0 0 1-1.896 3.57c-1.147 1.13-2.76 1.834-4.381 1.834h-3.126V15.497c.375-.03.742-.053 1.116-.053 2.378 0 3.272 2.17 3.6 4.196h.192v-8.477h-.192c-.114 2.232-.794 4.036-3.416 4.036a12.3 12.3 0 0 1-1.3-.076V5.461h2.087c1.933 0 3.814.153 5.197 1.72 1.368 1.551 1.751 3.592 1.973 5.58h.145V5.247H93.824v.214h2.338v16.053c0 2.515-2.071 4.227-4.533 4.227-2.285 0-4.899-1.545-4.899-4.082V5.461h1.98v-.214zM53.915 5.11c4.104 0 5.19 7.583 5.19 10.618s-1.086 10.625-5.19 10.625c-4.113 0-5.19-7.583-5.19-10.625s1.07-10.618 5.19-10.618z" fill="#fff"/></g><defs><clipPath id="a"><path fill="#fff" transform="translate(29.06 4.71)" d="M0 0h84.442v21.98H0z"/></clipPath></defs></svg>