<svg width="142" height="32" fill="none" xmlns="http://www.w3.org/2000/svg"><g clip-path="url(#a)"><path d="M55.105 20.597v2.349h-9.73v-2.349h3.495v-9.394h-3.495V8.854h9.73v2.349H51.61v9.394h3.495zM38.58 8.854h-2.684l-1.93 11.156h-.027L31.703 9.665c-.14-.699-.363-.867-1.034-.867h-1.482c-.643 0-.895.168-1.035.867L25.916 20.01h-.056L23.959 8.854h-2.88l2.768 13.393c.112.587.335.727.978.727h1.902c.643 0 .866-.14.978-.755l2.097-9.702h.056l2.097 9.702c.14.615.335.755.978.755h1.874c.67 0 .866-.14.978-.727l2.796-13.393zm1.454 17.251h-20.41V5.695h20.41v20.41zm33.663-6.766c.01 1.206.094 2.41.251 3.607h2.796c-.084-.755-.168-2.013-.224-3.803-.055-1.79-.727-2.404-2.18-2.684v-.056c1.621-.251 2.32-1.034 2.32-3.523 0-2.069-.335-2.823-.895-3.383-.559-.559-1.146-.615-2.236-.615h-8.584v14.064h2.908v-5.48h4.026c.839 0 1.175.056 1.398.28.224.223.392.475.42 1.593zm-5.844-4.166V11.26h4.613c.643 0 .84.056.95.168.113.111.392.503.392 1.733s-.195 1.622-.419 1.817c-.224.196-.308.196-.95.196h-4.586zm13.001 10.932h-20.41V5.695h20.41v20.41zm24.911-17.25v14.09h6.934c1.985 0 3.076-.279 3.942-1.034.867-.755 1.482-2.516 1.482-5.983 0-3.467-.475-5.117-1.482-5.983-1.006-.867-1.929-1.035-3.942-1.035h-6.934v-.056zm9.478 7.045c0 3.02-.251 3.802-.782 4.222-.532.42-.923.42-1.958.42h-3.83v-9.283h3.83c1.063 0 1.51.056 1.958.42.447.363.782 1.201.782 4.249V15.9zm6.431 10.205h-20.41V5.695h20.41v20.41zM84.602 11.203V8.854h11.994v4.53H94.08v-2.181h-4.865v3.355h3.858v2.265h-3.858v3.774h4.976v-2.46h2.545v4.809H84.6v-2.349h1.902v-9.394h-1.901z" fill="#fff"/></g><defs><clipPath id="a"><path fill="#fff" transform="translate(19.625 5.695)" d="M0 0h102.05v20.41H0z"/></clipPath></defs></svg>