<svg width="28" height="63" viewBox="0 0 28 63" fill="none" xmlns="http://www.w3.org/2000/svg">
<g clip-path="url(#clip0_6348_39891)">
<path d="M12.0324 37C11.7355 42.2732 13.4675 44.9099 17.7234 46C18.7874 41.8169 16.7584 38.5465 12.0324 37Z" fill="white"/>
<path d="M17.7961 2C14.2893 6.14088 14.125 9.11316 17.0564 13C20.6727 10.1547 21.0014 6.2425 17.7961 2Z" fill="white"/>
<path d="M4 0C4.6687 5.125 6.57928 7.275 10.9736 8C11.2841 3.675 8.8481 0.8 4 0Z" fill="white"/>
<path d="M22.0943 35C26.8053 33.4103 28.4619 30.7201 27.8924 26C23.5438 26.856 21.5249 29.913 22.0943 35Z" fill="white"/>
<path d="M20 35C19.4528 30.2853 16.6645 27.928 12 28.0017C12.5212 32.6672 14.8925 34.8281 20 35Z" fill="white"/>
<path d="M28 38C23.278 38.6151 21.0475 41.2361 21 45.9965C25.0814 46.1035 27.1932 43.75 28 38Z" fill="white"/>
<path d="M5 13.3393C7.73418 17.2857 10.8734 18.0211 15 15.6434C12.4177 11.7215 9.27848 10.9861 5 13.3393Z" fill="white"/>
<path d="M21.4749 23C25.3247 20.1178 26.0319 16.363 23.5438 12C19.6678 14.9351 18.9607 18.7957 21.4749 23Z" fill="white"/>
<path d="M10.6814 53C12.9762 48.1777 12.2825 44.8934 8.54675 42C5.93174 46.0664 6.62552 49.872 10.6814 53Z" fill="white"/>
<path d="M22 50.5128C16.7906 49.2511 14.0157 50.2748 12 54.0599C16.0576 56.0359 19.356 54.917 22 50.5128Z" fill="white"/>
<path d="M2.10794 59C5.67753 54.9907 5.89386 51.7009 3.02738 48C-0.650381 51.2126 -1.00193 55.0164 2.10794 59Z" fill="white"/>
<path d="M14 59.7773C9.63726 57.0819 6.86765 57.4447 4 60.9177C7.13725 64.002 10.3971 63.691 14 59.7773Z" fill="white"/>
<path d="M10 20.589C11.7364 24.6901 14.7446 25.9372 19 24.3063C17.5571 20.3971 14.5245 19.126 10 20.589Z" fill="white"/>
</g>
<defs>
<clipPath id="clip0_6348_39891">
<rect width="28" height="63" fill="white" transform="matrix(-1 0 0 1 28 0)"/>
</clipPath>
</defs>
</svg>
