<svg width="28" height="63" viewBox="0 0 28 63" fill="none" xmlns="http://www.w3.org/2000/svg">
<g clip-path="url(#clip0_6348_39891)">
<path d="M15.9676 37C16.2645 42.2732 14.5325 44.9099 10.2766 46C9.21258 41.8169 11.2416 38.5465 15.9676 37Z" fill="white"/>
<path d="M10.2039 2C13.7107 6.14088 13.875 9.11316 10.9436 13C7.32734 10.1547 6.99859 6.2425 10.2039 2Z" fill="white"/>
<path d="M24 0C23.3313 5.125 21.4207 7.275 17.0264 8C16.7159 3.675 19.1519 0.8 24 0Z" fill="white"/>
<path d="M5.90569 35C1.19473 33.4103 -0.461875 30.7201 0.107582 26C4.45617 26.856 6.47515 29.913 5.90569 35Z" fill="white"/>
<path d="M8 35C8.54723 30.2853 11.3355 27.928 16 28.0017C15.4788 32.6672 13.1075 34.8281 8 35Z" fill="white"/>
<path d="M0 38C4.72203 38.6151 6.95254 41.2361 7 45.9965C2.91864 46.1035 0.80678 43.75 0 38Z" fill="white"/>
<path d="M23 13.3393C20.2658 17.2857 17.1266 18.0211 13 15.6434C15.5823 11.7215 18.7215 10.9861 23 13.3393Z" fill="white"/>
<path d="M6.52514 23C2.67525 20.1178 1.96813 16.363 4.45615 12C8.33223 14.9351 9.03935 18.7957 6.52514 23Z" fill="white"/>
<path d="M17.3186 53C15.0238 48.1777 15.7175 44.8934 19.4533 42C22.0683 46.0664 21.3745 49.872 17.3186 53Z" fill="white"/>
<path d="M6 50.5128C11.2094 49.2511 13.9843 50.2748 16 54.0599C11.9424 56.0359 8.64398 54.917 6 50.5128Z" fill="white"/>
<path d="M25.8921 59C22.3225 54.9907 22.1061 51.7009 24.9726 48C28.6504 51.2126 29.0019 55.0164 25.8921 59Z" fill="white"/>
<path d="M14 59.7773C18.3627 57.0819 21.1324 57.4447 24 60.9177C20.8627 64.002 17.6029 63.691 14 59.7773Z" fill="white"/>
<path d="M18 20.589C16.2636 24.6901 13.2554 25.9372 9 24.3063C10.4429 20.3971 13.4755 19.126 18 20.589Z" fill="white"/>
</g>
<defs>
<clipPath id="clip0_6348_39891">
<rect width="28" height="63" fill="white"/>
</clipPath>
</defs>
</svg>
