<svg xmlns="http://www.w3.org/2000/svg" width="1152" height="611" fill="none"><g clip-path="url(#a)"><path fill="#000" d="M0 .893h1152v610H0z"/><path fill="url(#b)" d="M0 .893h1152v610H0z" opacity=".35"/><g opacity=".6"><g opacity=".3"><path fill="url(#c)" d="M303.307 405.421c43.298-43.298 43.298-113.499 0-156.797s-113.499-43.299-156.797 0-43.299 113.499 0 156.797 113.499 43.298 156.797 0" opacity=".6"/><path fill="url(#d)" d="M521.057 418.637c31.233-31.233 31.233-81.872 0-113.105s-81.872-31.233-113.105 0-31.234 81.872 0 113.105c31.233 31.234 81.872 31.234 113.105 0" opacity=".3"/><path fill="url(#e)" d="M455.544 413.424c38.503-38.503 38.503-100.929 0-139.432s-100.93-38.503-139.433 0-38.503 100.929 0 139.432 100.93 38.503 139.433 0" opacity=".3"/><path fill="url(#f)" d="M668.691 478.761c33.05-33.051 33.05-86.637 0-119.688-33.051-33.051-86.637-33.051-119.688 0s-33.051 86.637 0 119.688 86.637 33.051 119.688 0" opacity=".6"/><path fill="url(#g)" d="M502.062 446.399c36.38-36.381 36.38-95.365 0-131.745s-95.364-36.38-131.744 0c-36.381 36.38-36.381 95.364 0 131.745s95.364 36.38 131.744 0" opacity=".6"/><path fill="url(#h)" d="M518.702 316.431c37.837-37.836 37.837-99.181 0-137.017-37.836-37.837-99.181-37.837-137.017 0-37.836 37.836-37.836 99.181 0 137.017s99.181 37.836 137.017 0" opacity=".3"/><path fill="url(#i)" d="M555.205 331.328c47.476 0 85.964-38.488 85.964-85.964S602.681 159.4 555.205 159.4s-85.964 38.487-85.964 85.964 38.488 85.964 85.964 85.964" opacity=".3"/><path fill="url(#j)" d="M294.059 292.437c35.501-35.501 35.501-93.061 0-128.562-35.502-35.502-93.061-35.502-128.563 0-35.501 35.501-35.501 93.061 0 128.562 35.502 35.502 93.061 35.502 128.563 0" opacity=".3"/><path fill="url(#k)" d="M195.899 515.737c28.89-28.89 28.89-75.729 0-104.619-28.889-28.889-75.728-28.889-104.618 0-28.89 28.89-28.89 75.729 0 104.619 28.89 28.889 75.729 28.889 104.618 0" opacity=".7"/><path fill="url(#l)" d="M789.86 480.712c43.298-43.299 43.298-113.499 0-156.797s-113.499-43.299-156.798 0c-43.298 43.298-43.298 113.499 0 156.797s113.499 43.298 156.798 0" opacity=".6"/><path fill="url(#m)" d="M881.537 340.868c31.234-31.233 31.234-81.872 0-113.105-31.233-31.233-81.872-31.233-113.105 0s-31.233 81.872 0 113.105 81.872 31.234 113.105 0" opacity=".3"/><path fill="url(#n)" d="M774.859 389.35c38.503-38.504 38.503-100.93 0-139.433s-100.93-38.503-139.433 0-38.503 100.929 0 139.433 100.929 38.503 139.433 0" opacity=".3"/><path fill="url(#o)" d="M1053.16 453.431c33.05-33.051 33.05-86.637 0-119.688s-86.641-33.051-119.692 0-33.051 86.637 0 119.688 86.642 33.051 119.692 0" opacity=".6"/><path fill="url(#p)" d="M927.298 530.045c51.449 0 93.162-41.708 93.162-93.158 0-51.449-41.713-93.157-93.162-93.157s-93.158 41.708-93.158 93.157c0 51.45 41.708 93.158 93.158 93.158" opacity=".6"/><path fill="url(#q)" d="M762.574 376.456c53.508 0 96.886-43.377 96.886-96.886s-43.378-96.886-96.886-96.886c-53.509 0-96.886 43.378-96.886 96.886 0 53.509 43.377 96.886 96.886 96.886" opacity=".3"/><path fill="url(#r)" d="M868.935 403.599c47.477 0 85.964-38.487 85.964-85.964s-38.487-85.963-85.964-85.963-85.963 38.487-85.963 85.963c0 47.477 38.487 85.964 85.963 85.964" opacity=".3"/><path fill="url(#s)" d="M1076.47 175.868c17.65-37.461 1.59-82.134-35.87-99.78-37.47-17.646-82.138-1.582-99.784 35.879s-1.583 82.134 35.879 99.78c37.465 17.646 82.135 1.582 99.775-35.879" opacity=".4"/><path fill="url(#t)" d="M771.364 246.153c35.502-35.501 35.502-93.061 0-128.563s-93.061-35.501-128.563 0c-35.501 35.502-35.501 93.062 0 128.563 35.502 35.502 93.061 35.502 128.563 0" opacity=".3"/></g></g><path fill="url(#u)" d="M0 505.893h1152v105H0z"/><path fill="#fff" d="M620.102 402.971a1.857 1.857 0 1 0-3.714 0 1.857 1.857 0 0 0 3.714 0M404.025 282.368a1.675 1.675 0 1 0-3.35.001 1.675 1.675 0 0 0 3.35-.001m77.614 47.248a1.516 1.516 0 1 0-3.033 0 1.516 1.516 0 0 0 3.033 0m56.709-7.643a2.104 2.104 0 1 0-4.207.001 2.104 2.104 0 0 0 4.207-.001m-34.017-36.225a1.927 1.927 0 1 0-3.855 0 1.927 1.927 0 0 0 3.855 0m75.747 37.689a1.59 1.59 0 1 0-3.18 0 1.59 1.59 0 0 0 3.18 0m171.358 6.2a1.798 1.798 0 1 0-3.595.001 1.798 1.798 0 0 0 3.595-.001m-54.054-37.759a1.329 1.329 0 1 0-2.658 0 1.329 1.329 0 0 0 2.658 0m70.573 13.861a2.015 2.015 0 1 0-4.03 0 2.015 2.015 0 0 0 4.03 0m-47.835-62.776a1.991 1.991 0 1 0-3.982 0 1.991 1.991 0 0 0 3.982 0m-63.859-11.184a1.854 1.854 0 1 0-3.708 0 1.854 1.854 0 0 0 3.708 0M520.425 257.33a1.917 1.917 0 1 0-3.834 0 1.917 1.917 0 0 0 3.834 0m-245.564-130.7a2.176 2.176 0 1 0-4.352-.002 2.176 2.176 0 0 0 4.352.002m136.754 93.272a1.78 1.78 0 1 0-3.56 0 1.78 1.78 0 0 0 3.56 0m29.958-66.04a1.783 1.783 0 1 0-3.565 0 1.783 1.783 0 0 0 3.565 0m-27.338 17.965a1.906 1.906 0 1 0-3.812 0 1.906 1.906 0 0 0 3.812 0m58.728-18.686a1.523 1.523 0 1 0-3.046 0 1.523 1.523 0 0 0 3.046 0m178.462 49.524a1.643 1.643 0 1 0-3.285 0 1.643 1.643 0 0 0 3.285 0m-18.915-54.508a1.575 1.575 0 1 0-3.15 0 1.575 1.575 0 0 0 3.15 0m96.786 1.01a1.533 1.533 0 1 0-3.067 0 1.533 1.533 0 0 0 3.067 0m-90.019-65.636a1.442 1.442 0 1 0-2.884 0 1.442 1.442 0 0 0 2.884 0m-77.133 26.393a2.026 2.026 0 1 0-4.051 0 2.026 2.026 0 0 0 4.051 0m-162.885 444.52a1.448 1.448 0 1 0-2.896-.002 1.448 1.448 0 0 0 2.896.002M173.827 400.611a1.941 1.941 0 1 0-3.882 0 1.941 1.941 0 0 0 3.882 0m83.674 70.102a2.138 2.138 0 1 0-4.275 0 2.138 2.138 0 0 0 4.275 0m92.094-28.347a1.692 1.692 0 1 0-3.384 0 1.692 1.692 0 0 0 3.384 0m-54.767-14.744a1.83 1.83 0 1 0-3.658 0 1.83 1.83 0 0 0 3.658 0m78.229 1.576a1.617 1.617 0 1 0-3.235-.001 1.617 1.617 0 0 0 3.235.001m173.584 43.238a1.512 1.512 0 1 0-3.024 0 1.512 1.512 0 0 0 3.024 0m-48.869-45.032a1.586 1.586 0 1 0-3.172 0 1.586 1.586 0 0 0 3.172 0m93.719 13.386a1.619 1.619 0 1 0-3.238.002 1.619 1.619 0 0 0 3.238-.002m-88.837-96.072a1.53 1.53 0 1 0-3.06 0 1.53 1.53 0 0 0 3.06 0m-22.439 34.615a1.896 1.896 0 1 0-3.792 0 1.896 1.896 0 0 0 3.792 0m-206.672 54.602a1.787 1.787 0 1 0-3.573.001 1.787 1.787 0 0 0 3.573-.001M91.824 283.149a1.66 1.66 0 1 0-3.32 0 1.66 1.66 0 0 0 3.32 0m96.117 95.748a1.766 1.766 0 1 0-3.533 0 1.766 1.766 0 0 0 3.533 0m52.161-53.104a1.892 1.892 0 1 0-3.784 0 1.892 1.892 0 0 0 3.784 0m-38.234-18.995a2.03 2.03 0 1 0-4.059-.001 2.03 2.03 0 0 0 4.059.001m60.427-11.702a1.643 1.643 0 1 0-3.285.001 1.643 1.643 0 0 0 3.285-.001m147.442 29.413a1.597 1.597 0 1 0-3.194.002 1.597 1.597 0 0 0 3.194-.002m-27.233-34.695a1.702 1.702 0 1 0-3.404-.002 1.702 1.702 0 0 0 3.404.002m96.336.812a1.783 1.783 0 1 0-3.567 0 1.783 1.783 0 0 0 3.567 0m-58.003-47.223a1.4 1.4 0 1 0-2.8 0 1.4 1.4 0 0 0 2.8 0m-66.92-4.882a1.645 1.645 0 1 0-3.29-.001 1.645 1.645 0 0 0 3.29.001m451.92 304.928a2.008 2.008 0 1 0-4.016 0 2.008 2.008 0 0 0 4.016 0M585.378 408.577a1.923 1.923 0 1 0-3.846 0 1.923 1.923 0 0 0 3.846 0m92.115 78.86a2.167 2.167 0 1 0-4.333 0 2.167 2.167 0 0 0 4.333 0m85.809-23.709a2.03 2.03 0 1 0-4.058 0 2.03 2.03 0 0 0 4.058 0m-68.906-35.596a2.07 2.07 0 1 0-4.142 0 2.07 2.07 0 0 0 4.142 0m92.97-8.782a1.628 1.628 0 1 0-3.257 0 1.628 1.628 0 0 0 3.257 0m166.444 67.415a1.863 1.863 0 1 0-3.727-.001 1.863 1.863 0 0 0 3.727.001m-41.413-77.245a1.467 1.467 0 1 0-2.935 0 1.467 1.467 0 0 0 2.935 0m57.244 14.891a1.735 1.735 0 1 0-3.47.002 1.735 1.735 0 0 0 3.47-.002m-50.442-46.101a1.664 1.664 0 1 0-3.328 0 1.664 1.664 0 0 0 3.328 0m-34.731 22.938a1.365 1.365 0 1 0-2.73 0 1.365 1.365 0 0 0 2.73 0m-120.325 10.811a1.787 1.787 0 1 0-3.573.001 1.787 1.787 0 0 0 3.573-.001M542.752 285.277a1.833 1.833 0 1 0-3.667 0 1.833 1.833 0 0 0 3.667 0m74.477 48.827a1.537 1.537 0 1 0-3.074 0 1.537 1.537 0 0 0 3.074 0m82.907-7.811a1.935 1.935 0 1 0-3.87 0 1.935 1.935 0 0 0 3.87 0m-81.68 4.041a1.495 1.495 0 1 0-2.99 0 1.495 1.495 0 0 0 2.99 0m102.691-39.82a1.713 1.713 0 1 0-3.426 0 1.713 1.713 0 0 0 3.426 0M885.031 342a1.523 1.523 0 1 0-3.046 0 1.523 1.523 0 0 0 3.046 0m-37.924-29.048a1.952 1.952 0 1 0-3.904 0 1.952 1.952 0 0 0 3.904 0m91.408 1.091a1.537 1.537 0 1 0-3.074 0 1.537 1.537 0 0 0 3.074 0m-93.965-64.345a1.738 1.738 0 1 0-3.475.001 1.738 1.738 0 0 0 3.475-.001m-42.965.264a1.74 1.74 0 1 0-3.48-.001 1.74 1.74 0 0 0 3.48.001m63.993 6.654a1.505 1.505 0 1 0-3.01 0 1.505 1.505 0 0 0 3.01 0M633.847 123.939a1.864 1.864 0 1 0-3.728 0 1.864 1.864 0 0 0 3.728 0m102.511 48.219a1.923 1.923 0 1 0-3.847-.001 1.923 1.923 0 0 0 3.847.001m68.16-24.848a1.564 1.564 0 1 0-3.128-.002 1.564 1.564 0 0 0 3.128.002m-76.952-7.217a1.92 1.92 0 1 0-3.842 0 1.92 1.92 0 0 0 3.842 0m84.412-6.69a1.885 1.885 0 1 0-3.77 0 1.885 1.885 0 0 0 3.77 0m198.162 18.106c0-1.014-.83-1.836-1.84-1.836s-1.84.822-1.84 1.836.83 1.836 1.84 1.836 1.84-.822 1.84-1.836m-44.062-35.315a1.617 1.617 0 1 0-3.235 0 1.617 1.617 0 0 0 3.235 0m82.292 5.888a1.72 1.72 0 1 0-3.44 0 1.72 1.72 0 0 0 3.44 0m-74.794-59.435a1.656 1.656 0 1 0-3.312 0 1.656 1.656 0 0 0 3.312 0m-29.374 28.696a1.604 1.604 0 1 0-3.208 0 1.604 1.604 0 0 0 3.208 0M912.07 295.694a1.48 1.48 0 1 0-2.962 0 1.48 1.48 0 0 0 2.962 0M676.642 132.397a1.814 1.814 0 1 0-3.628 0 1.814 1.814 0 0 0 3.628 0m78.996 105.02a1.91 1.91 0 1 0-3.82 0 1.91 1.91 0 0 0 3.82 0m91.549-46.12a1.582 1.582 0 1 0-3.163 0 1.582 1.582 0 0 0 3.163 0m-86.631 18.961a2.001 2.001 0 1 0-4.003 0 2.001 2.001 0 0 0 4.003 0m115.348-67.605a1.48 1.48 0 1 0-2.961 0 1.48 1.48 0 0 0 2.961 0M1063.5 201.88a2.066 2.066 0 0 0-4.13 0 2.065 2.065 0 0 0 4.13 0m-49.38-17.909a2.175 2.175 0 1 0-4.35 0 2.174 2.174 0 1 0 4.35 0m41.16 3.057a1.581 1.581 0 0 0-3.16 0 1.581 1.581 0 0 0 3.16 0m-62.146-58.872a1.97 1.97 0 1 0-3.938-.002 1.97 1.97 0 0 0 3.938.002m-27.373 5.511a1.628 1.628 0 1 0-3.256 0 1.628 1.628 0 0 0 3.256 0M511.32 299.433a1.776 1.776 0 1 0-3.552 0 1.776 1.776 0 0 0 3.552 0M293.115 182.164a1.544 1.544 0 1 0-3.087 0 1.544 1.544 0 0 0 3.087 0m96.954 77.516a1.624 1.624 0 1 0-3.249-.001 1.624 1.624 0 0 0 3.249.001m57.247-31.017a1.755 1.755 0 1 0-3.51 0 1.755 1.755 0 0 0 3.51 0m-38.554-25.717a1.65 1.65 0 1 0-3.299-.001 1.65 1.65 0 0 0 3.299.001m65.01-17.413a1.466 1.466 0 1 0-2.933 0 1.466 1.466 0 0 0 2.933 0m196.117 31.942a1.899 1.899 0 1 0-3.797 0 1.899 1.899 0 0 0 3.797 0m-59.758-34.749a2.177 2.177 0 1 0-4.355 0 2.177 2.177 0 0 0 4.355 0m104.006 37.225a1.544 1.544 0 1 0-3.087 0 1.544 1.544 0 0 0 3.087 0m-95.199-90.919a1.72 1.72 0 1 0-3.44 0 1.72 1.72 0 0 0 3.44 0m-10.105-11.561a1.343 1.343 0 1 0-2.685 0 1.343 1.343 0 0 0 2.685 0M376.747 253.198a1.575 1.575 0 1 0-3.15-.002 1.575 1.575 0 0 0 3.15.002M180.794 110.901a1.804 1.804 0 1 0-3.609 0 1.804 1.804 0 0 0 3.609 0m73.809 71.625a1.83 1.83 0 1 0-3.658 0 1.83 1.83 0 0 0 3.658 0m82.883-16.045a1.576 1.576 0 1 0-3.151.001 1.576 1.576 0 0 0 3.151-.001"/><path fill="#fff" d="M271.193 128.307a1.635 1.635 0 1 0-3.27 0 1.635 1.635 0 0 0 3.27 0M372.786 116.3a1.973 1.973 0 1 0-3.945 0 1.973 1.973 0 0 0 3.945 0m154.519 61.689a1.559 1.559 0 1 0-3.117.001 1.559 1.559 0 0 0 3.117-.001m-27.599-42.701a1.927 1.927 0 1 0-3.855 0 1.927 1.927 0 0 0 3.855 0m65.815-8.152a1.955 1.955 0 1 0-3.911.001 1.955 1.955 0 0 0 3.911-.001m-63.342-44.023a1.674 1.674 0 1 0-3.349 0 1.674 1.674 0 0 0 3.349 0m-26.642-25.956a1.597 1.597 0 1 0-3.193 0 1.597 1.597 0 0 0 3.193 0m-96.874 437.149a1.843 1.843 0 1 0-3.686 0 1.843 1.843 0 0 0 3.686 0m-245.278-139.1a1.365 1.365 0 1 0-2.73.001 1.365 1.365 0 0 0 2.73-.001m104.083 57.954a1.569 1.569 0 1 0-3.138.002 1.569 1.569 0 0 0 3.138-.002m38.758-25.601a1.867 1.867 0 1 0-3.735 0 1.867 1.867 0 0 0 3.735 0m-45.324.472a1.488 1.488 0 1 0-2.975 0 1.488 1.488 0 0 0 2.975 0m126.666-44.22a1.734 1.734 0 1 0-3.467 0 1.734 1.734 0 0 0 3.467 0m141.189 62.206a1.776 1.776 0 1 0-3.552 0 1.776 1.776 0 0 0 3.552 0m-57.001-44.673a1.829 1.829 0 1 0-3.657-.001 1.829 1.829 0 0 0 3.657.001m100.383 7.174a1.39 1.39 0 1 0-2.778 0 1.39 1.39 0 0 0 2.778 0m-72.06-67.896a1.917 1.917 0 1 0-3.833 0 1.917 1.917 0 0 0 3.833 0m-50.041 10.568a1.688 1.688 0 1 0-3.377 0 1.688 1.688 0 0 0 3.377 0m52.647 231.9a1.892 1.892 0 1 0-3.784 0 1.892 1.892 0 0 0 3.784 0M286.819 413.853a1.628 1.628 0 1 0-3.256 0 1.628 1.628 0 0 0 3.256 0m67.718 71.871a1.682 1.682 0 1 0-3.363.001 1.682 1.682 0 0 0 3.363-.001m58.878 5.015a1.755 1.755 0 1 0-3.51 0 1.755 1.755 0 0 0 3.51 0m-61.21-51.514a1.626 1.626 0 1 0-3.251.001 1.626 1.626 0 0 0 3.251-.001m79.228 19.998a1.54 1.54 0 1 0-3.08-.002 1.54 1.54 0 0 0 3.08.002m187.171-5.04a1.86 1.86 0 1 0-3.721.001 1.86 1.86 0 0 0 3.721-.001m-50.484-33.546a1.48 1.48 0 1 0-2.961.001 1.48 1.48 0 0 0 2.961-.001m88.907-6.844a1.699 1.699 0 1 0-3.397 0 1.699 1.699 0 0 0 3.397 0m-55.238-57.458a1.52 1.52 0 1 0-3.04.002 1.52 1.52 0 0 0 3.04-.002m-53.523 17.258a1.357 1.357 0 1 0-2.714 0 1.357 1.357 0 0 0 2.714 0m71.836 29.378a1.857 1.857 0 1 0-3.714 0 1.857 1.857 0 0 0 3.714 0M404.025 282.368a1.675 1.675 0 1 0-3.35.001 1.675 1.675 0 0 0 3.35-.001m77.614 47.248a1.516 1.516 0 1 0-3.033 0 1.516 1.516 0 0 0 3.033 0m56.709-7.643a2.104 2.104 0 1 0-4.207.001 2.104 2.104 0 0 0 4.207-.001m-34.017-36.225a1.927 1.927 0 1 0-3.855 0 1.927 1.927 0 0 0 3.855 0m75.747 37.689a1.59 1.59 0 1 0-3.18 0 1.59 1.59 0 0 0 3.18 0m171.358 6.2a1.798 1.798 0 1 0-3.595.001 1.798 1.798 0 0 0 3.595-.001m-54.054-37.759a1.329 1.329 0 1 0-2.658 0 1.329 1.329 0 0 0 2.658 0m70.573 13.861a2.015 2.015 0 1 0-4.03 0 2.015 2.015 0 0 0 4.03 0m-47.835-62.776a1.991 1.991 0 1 0-3.982 0 1.991 1.991 0 0 0 3.982 0m-63.859-11.184a1.854 1.854 0 1 0-3.708 0 1.854 1.854 0 0 0 3.708 0M520.425 257.33a1.917 1.917 0 1 0-3.834 0 1.917 1.917 0 0 0 3.834 0"/><path fill="#fff" d="M274.861 126.63a2.176 2.176 0 1 0-4.352-.002 2.176 2.176 0 0 0 4.352.002m136.754 93.272a1.78 1.78 0 1 0-3.56 0 1.78 1.78 0 0 0 3.56 0m29.958-66.04a1.783 1.783 0 1 0-3.565 0 1.783 1.783 0 0 0 3.565 0m-27.338 17.965a1.906 1.906 0 1 0-3.812 0 1.906 1.906 0 0 0 3.812 0m58.728-18.686a1.523 1.523 0 1 0-3.046 0 1.523 1.523 0 0 0 3.046 0m178.462 49.524a1.643 1.643 0 1 0-3.285 0 1.643 1.643 0 0 0 3.285 0m-18.915-54.508a1.575 1.575 0 1 0-3.15 0 1.575 1.575 0 0 0 3.15 0m96.786 1.01a1.533 1.533 0 1 0-3.067 0 1.533 1.533 0 0 0 3.067 0m-90.019-65.636a1.442 1.442 0 1 0-2.884 0 1.442 1.442 0 0 0 2.884 0m-77.133 26.393a2.026 2.026 0 1 0-4.051 0 2.026 2.026 0 0 0 4.051 0m-162.885 444.52a1.448 1.448 0 1 0-2.896-.002 1.448 1.448 0 0 0 2.896.002M173.827 400.611a1.941 1.941 0 1 0-3.882 0 1.941 1.941 0 0 0 3.882 0m83.674 70.102a2.138 2.138 0 1 0-4.275 0 2.138 2.138 0 0 0 4.275 0m92.094-28.347a1.692 1.692 0 1 0-3.384 0 1.692 1.692 0 0 0 3.384 0m-54.767-14.744a1.83 1.83 0 1 0-3.658 0 1.83 1.83 0 0 0 3.658 0m78.229 1.576a1.617 1.617 0 1 0-3.235-.001 1.617 1.617 0 0 0 3.235.001m-6.821-64.688a1.619 1.619 0 1 0-3.238.002 1.619 1.619 0 0 0 3.238-.002m-11 9a1.619 1.619 0 1 0-3.238.002 1.619 1.619 0 0 0 3.238-.002m191.405 98.926a1.512 1.512 0 1 0-3.024 0 1.512 1.512 0 0 0 3.024 0m-48.869-45.032a1.586 1.586 0 1 0-3.172 0 1.586 1.586 0 0 0 3.172 0m93.719 13.386a1.619 1.619 0 1 0-3.238.002 1.619 1.619 0 0 0 3.238-.002m-88.837-96.072a1.53 1.53 0 1 0-3.06 0 1.53 1.53 0 0 0 3.06 0m-22.439 34.615a1.896 1.896 0 1 0-3.792 0 1.896 1.896 0 0 0 3.792 0m-206.672 54.602a1.787 1.787 0 1 0-3.573.001 1.787 1.787 0 0 0 3.573-.001M91.824 283.149a1.66 1.66 0 1 0-3.32 0 1.66 1.66 0 0 0 3.32 0m96.117 95.748a1.766 1.766 0 1 0-3.533 0 1.766 1.766 0 0 0 3.533 0m52.161-53.104a1.892 1.892 0 1 0-3.784 0 1.892 1.892 0 0 0 3.784 0m137.682 25.992a1.892 1.892 0 1 0-3.784 0 1.892 1.892 0 0 0 3.784 0m-20-163a1.892 1.892 0 1 0-3.784 0 1.892 1.892 0 0 0 3.784 0m-45-71a1.892 1.892 0 1 0-3.784 0 1.892 1.892 0 0 0 3.784 0m21 165a1.892 1.892 0 1 0-3.784 0 1.892 1.892 0 0 0 3.784 0m450 77a1.892 1.892 0 1 0-3.784 0 1.892 1.892 0 0 0 3.784 0m-4 86a1.892 1.892 0 1 0-3.784 0 1.892 1.892 0 0 0 3.784 0m-8-272a1.892 1.892 0 1 0-3.784 0 1.892 1.892 0 0 0 3.784 0m61 36a1.892 1.892 0 1 0-3.784 0 1.892 1.892 0 0 0 3.784 0m-47 200a1.892 1.892 0 1 0-3.784 0 1.892 1.892 0 0 0 3.784 0m12-151a1.892 1.892 0 1 0-3.784 0 1.892 1.892 0 0 0 3.784 0m38 202a1.892 1.892 0 1 0-3.784 0 1.892 1.892 0 0 0 3.784 0m118-229a1.892 1.892 0 1 0-3.784 0 1.892 1.892 0 0 0 3.784 0m-168-34a1.892 1.892 0 1 0-3.784 0 1.892 1.892 0 0 0 3.784 0M201.868 306.798a2.03 2.03 0 1 0-4.059-.001 2.03 2.03 0 0 0 4.059.001m60.427-11.702a1.643 1.643 0 1 0-3.285.001 1.643 1.643 0 0 0 3.285-.001m147.442 29.413a1.597 1.597 0 1 0-3.194.002 1.597 1.597 0 0 0 3.194-.002m-27.233-34.695a1.702 1.702 0 1 0-3.404-.002 1.702 1.702 0 0 0 3.404.002m96.336.812a1.783 1.783 0 1 0-3.567 0 1.783 1.783 0 0 0 3.567 0m-58.003-47.223a1.4 1.4 0 1 0-2.8 0 1.4 1.4 0 0 0 2.8 0m-66.92-4.882a1.645 1.645 0 1 0-3.29-.001 1.645 1.645 0 0 0 3.29.001m451.92 304.928a2.008 2.008 0 1 0-4.016 0 2.008 2.008 0 0 0 4.016 0M585.378 408.577a1.923 1.923 0 1 0-3.846 0 1.923 1.923 0 0 0 3.846 0m92.115 78.86a2.167 2.167 0 1 0-4.333 0 2.167 2.167 0 0 0 4.333 0m85.809-23.709a2.03 2.03 0 1 0-4.058 0 2.03 2.03 0 0 0 4.058 0m-68.906-35.596a2.07 2.07 0 1 0-4.142 0 2.07 2.07 0 0 0 4.142 0m92.97-8.782a1.628 1.628 0 1 0-3.257 0 1.628 1.628 0 0 0 3.257 0m166.444 67.415a1.863 1.863 0 1 0-3.727-.001 1.863 1.863 0 0 0 3.727.001m-41.413-77.245a1.467 1.467 0 1 0-2.935 0 1.467 1.467 0 0 0 2.935 0m57.244 14.891a1.735 1.735 0 1 0-3.47.002 1.735 1.735 0 0 0 3.47-.002m-50.442-46.101a1.664 1.664 0 1 0-3.328 0 1.664 1.664 0 0 0 3.328 0m-34.731 22.938a1.365 1.365 0 1 0-2.73 0 1.365 1.365 0 0 0 2.73 0m-120.325 10.811a1.787 1.787 0 1 0-3.573.001 1.787 1.787 0 0 0 3.573-.001M542.752 285.277a1.833 1.833 0 1 0-3.667 0 1.833 1.833 0 0 0 3.667 0m74.477 48.827a1.537 1.537 0 1 0-3.074 0 1.537 1.537 0 0 0 3.074 0m82.907-7.811a1.935 1.935 0 1 0-3.87 0 1.935 1.935 0 0 0 3.87 0m-81.68 4.041a1.495 1.495 0 1 0-2.99 0 1.495 1.495 0 0 0 2.99 0m102.691-39.82a1.713 1.713 0 1 0-3.426 0 1.713 1.713 0 0 0 3.426 0M885.031 342a1.523 1.523 0 1 0-3.046 0 1.523 1.523 0 0 0 3.046 0m-37.924-29.048a1.952 1.952 0 1 0-3.904 0 1.952 1.952 0 0 0 3.904 0m91.408 1.091a1.537 1.537 0 1 0-3.074 0 1.537 1.537 0 0 0 3.074 0m-93.965-64.345a1.738 1.738 0 1 0-3.475.001 1.738 1.738 0 0 0 3.475-.001m-42.965.264a1.74 1.74 0 1 0-3.48-.001 1.74 1.74 0 0 0 3.48.001m63.993 6.654a1.505 1.505 0 1 0-3.01 0 1.505 1.505 0 0 0 3.01 0M633.847 123.939a1.864 1.864 0 1 0-3.728 0 1.864 1.864 0 0 0 3.728 0m102.511 48.219a1.923 1.923 0 1 0-3.847-.001 1.923 1.923 0 0 0 3.847.001m68.16-24.848a1.564 1.564 0 1 0-3.128-.002 1.564 1.564 0 0 0 3.128.002m-76.952-7.217a1.92 1.92 0 1 0-3.842 0 1.92 1.92 0 0 0 3.842 0m84.412-6.69a1.885 1.885 0 1 0-3.77 0 1.885 1.885 0 0 0 3.77 0m198.162 18.106c0-1.014-.83-1.836-1.84-1.836s-1.84.822-1.84 1.836.83 1.836 1.84 1.836 1.84-.822 1.84-1.836m-44.062-35.315a1.617 1.617 0 1 0-3.235 0 1.617 1.617 0 0 0 3.235 0m82.292 5.888a1.72 1.72 0 1 0-3.44 0 1.72 1.72 0 0 0 3.44 0m-74.794-59.435a1.656 1.656 0 1 0-3.312 0 1.656 1.656 0 0 0 3.312 0m-29.374 28.696a1.604 1.604 0 1 0-3.208 0 1.604 1.604 0 0 0 3.208 0M912.07 295.694a1.48 1.48 0 1 0-2.962 0 1.48 1.48 0 0 0 2.962 0M676.642 132.397a1.814 1.814 0 1 0-3.628 0 1.814 1.814 0 0 0 3.628 0m78.996 105.02a1.91 1.91 0 1 0-3.82 0 1.91 1.91 0 0 0 3.82 0m91.549-46.12a1.582 1.582 0 1 0-3.163 0 1.582 1.582 0 0 0 3.163 0m-86.631 18.961a2.001 2.001 0 1 0-4.003 0 2.001 2.001 0 0 0 4.003 0m115.348-67.605a1.48 1.48 0 1 0-2.961 0 1.48 1.48 0 0 0 2.961 0M1063.5 201.88a2.066 2.066 0 0 0-4.13 0 2.065 2.065 0 0 0 4.13 0m-49.38-17.909a2.175 2.175 0 1 0-4.35 0 2.174 2.174 0 1 0 4.35 0m41.16 3.057a1.581 1.581 0 0 0-3.16 0 1.581 1.581 0 0 0 3.16 0m-62.146-58.872a1.97 1.97 0 1 0-3.938-.002 1.97 1.97 0 0 0 3.938.002m-27.373 5.511a1.628 1.628 0 1 0-3.256 0 1.628 1.628 0 0 0 3.256 0M511.32 299.433a1.776 1.776 0 1 0-3.552 0 1.776 1.776 0 0 0 3.552 0M293.115 182.164a1.544 1.544 0 1 0-3.087 0 1.544 1.544 0 0 0 3.087 0m96.954 77.516a1.624 1.624 0 1 0-3.249-.001 1.624 1.624 0 0 0 3.249.001m57.247-31.017a1.755 1.755 0 1 0-3.51 0 1.755 1.755 0 0 0 3.51 0m-38.554-25.717a1.65 1.65 0 1 0-3.299-.001 1.65 1.65 0 0 0 3.299.001m65.01-17.413a1.466 1.466 0 1 0-2.933 0 1.466 1.466 0 0 0 2.933 0m196.117 31.942a1.899 1.899 0 1 0-3.797 0 1.899 1.899 0 0 0 3.797 0m-59.758-34.749a2.177 2.177 0 1 0-4.355 0 2.177 2.177 0 0 0 4.355 0m104.006 37.225a1.544 1.544 0 1 0-3.087 0 1.544 1.544 0 0 0 3.087 0m-95.199-90.919a1.72 1.72 0 1 0-3.44 0 1.72 1.72 0 0 0 3.44 0m-10.105-11.561a1.343 1.343 0 1 0-2.685 0 1.343 1.343 0 0 0 2.685 0M376.747 253.198a1.575 1.575 0 1 0-3.15-.002 1.575 1.575 0 0 0 3.15.002M180.794 110.901a1.804 1.804 0 1 0-3.609 0 1.804 1.804 0 0 0 3.609 0m73.809 71.625a1.83 1.83 0 1 0-3.658 0 1.83 1.83 0 0 0 3.658 0m82.883-16.045a1.576 1.576 0 1 0-3.151.001 1.576 1.576 0 0 0 3.151-.001"/><path fill="#fff" d="M271.193 128.307a1.635 1.635 0 1 0-3.27 0 1.635 1.635 0 0 0 3.27 0M372.786 116.3a1.973 1.973 0 1 0-3.945 0 1.973 1.973 0 0 0 3.945 0m154.519 61.689a1.559 1.559 0 1 0-3.117.001 1.559 1.559 0 0 0 3.117-.001m-27.599-42.701a1.927 1.927 0 1 0-3.855 0 1.927 1.927 0 0 0 3.855 0m65.815-8.152a1.955 1.955 0 1 0-3.911.001 1.955 1.955 0 0 0 3.911-.001m-63.342-44.023a1.674 1.674 0 1 0-3.349 0 1.674 1.674 0 0 0 3.349 0m-26.642-25.956a1.597 1.597 0 1 0-3.193 0 1.597 1.597 0 0 0 3.193 0m-96.874 437.149a1.843 1.843 0 1 0-3.686 0 1.843 1.843 0 0 0 3.686 0m-245.278-139.1a1.365 1.365 0 1 0-2.73.001 1.365 1.365 0 0 0 2.73-.001m104.083 57.954a1.569 1.569 0 1 0-3.138.002 1.569 1.569 0 0 0 3.138-.002m38.758-25.601a1.867 1.867 0 1 0-3.735 0 1.867 1.867 0 0 0 3.735 0m-45.324.472a1.488 1.488 0 1 0-2.975 0 1.488 1.488 0 0 0 2.975 0m126.666-44.22a1.734 1.734 0 1 0-3.467 0 1.734 1.734 0 0 0 3.467 0m141.189 62.206a1.776 1.776 0 1 0-3.552 0 1.776 1.776 0 0 0 3.552 0m-57.001-44.673a1.829 1.829 0 1 0-3.657-.001 1.829 1.829 0 0 0 3.657.001m100.383 7.174a1.39 1.39 0 1 0-2.778 0 1.39 1.39 0 0 0 2.778 0m-72.06-67.896a1.917 1.917 0 1 0-3.833 0 1.917 1.917 0 0 0 3.833 0m-50.041 10.568a1.688 1.688 0 1 0-3.377 0 1.688 1.688 0 0 0 3.377 0m52.647 231.9a1.892 1.892 0 1 0-3.784 0 1.892 1.892 0 0 0 3.784 0M286.819 413.853a1.628 1.628 0 1 0-3.256 0 1.628 1.628 0 0 0 3.256 0m67.718 71.871a1.682 1.682 0 1 0-3.363.001 1.682 1.682 0 0 0 3.363-.001m58.878 5.015a1.755 1.755 0 1 0-3.51 0 1.755 1.755 0 0 0 3.51 0m-61.21-51.514a1.626 1.626 0 1 0-3.251.001 1.626 1.626 0 0 0 3.251-.001m79.228 19.998a1.54 1.54 0 1 0-3.08-.002 1.54 1.54 0 0 0 3.08.002m187.171-5.04a1.86 1.86 0 1 0-3.721.001 1.86 1.86 0 0 0 3.721-.001m-50.484-33.546a1.48 1.48 0 1 0-2.961.001 1.48 1.48 0 0 0 2.961-.001m88.907-6.844a1.699 1.699 0 1 0-3.397 0 1.699 1.699 0 0 0 3.397 0m-55.238-57.458a1.52 1.52 0 1 0-3.04.002 1.52 1.52 0 0 0 3.04-.002m-53.523 17.258a1.357 1.357 0 1 0-2.714 0 1.357 1.357 0 0 0 2.714 0"/></g><defs><linearGradient id="c" x1="290.108" x2="159.83" y1="237.324" y2="416.768" gradientUnits="userSpaceOnUse"><stop stop-color="#fff" stop-opacity="0"/><stop offset=".13" stop-color="#fff" stop-opacity=".01"/><stop offset=".26" stop-color="#fff" stop-opacity=".06"/><stop offset=".38" stop-color="#fff" stop-opacity=".13"/><stop offset=".51" stop-color="#fff" stop-opacity=".24"/><stop offset=".63" stop-color="#fff" stop-opacity=".38"/><stop offset=".75" stop-color="#fff" stop-opacity=".54"/><stop offset=".87" stop-color="#fff" stop-opacity=".74"/><stop offset=".98" stop-color="#fff" stop-opacity=".96"/><stop offset="1" stop-color="#fff"/></linearGradient><linearGradient id="d" x1="426.451" x2="513.543" y1="293.168" y2="427.765" gradientUnits="userSpaceOnUse"><stop stop-color="#fff" stop-opacity="0"/><stop offset=".13" stop-color="#fff" stop-opacity=".01"/><stop offset=".26" stop-color="#fff" stop-opacity=".06"/><stop offset=".38" stop-color="#fff" stop-opacity=".13"/><stop offset=".51" stop-color="#fff" stop-opacity=".24"/><stop offset=".63" stop-color="#fff" stop-opacity=".38"/><stop offset=".75" stop-color="#fff" stop-opacity=".54"/><stop offset=".87" stop-color="#fff" stop-opacity=".74"/><stop offset=".98" stop-color="#fff" stop-opacity=".96"/><stop offset="1" stop-color="#fff"/></linearGradient><linearGradient id="e" x1="463.996" x2="307.66" y1="403.797" y2="283.619" gradientUnits="userSpaceOnUse"><stop stop-color="#fff" stop-opacity="0"/><stop offset=".13" stop-color="#fff" stop-opacity=".01"/><stop offset=".26" stop-color="#fff" stop-opacity=".06"/><stop offset=".38" stop-color="#fff" stop-opacity=".13"/><stop offset=".51" stop-color="#fff" stop-opacity=".24"/><stop offset=".63" stop-color="#fff" stop-opacity=".38"/><stop offset=".75" stop-color="#fff" stop-opacity=".54"/><stop offset=".87" stop-color="#fff" stop-opacity=".74"/><stop offset=".98" stop-color="#fff" stop-opacity=".96"/><stop offset="1" stop-color="#fff"/></linearGradient><linearGradient id="f" x1="681.54" x2="536.361" y1="375.476" y2="462.502" gradientUnits="userSpaceOnUse"><stop stop-color="#fff" stop-opacity="0"/><stop offset=".13" stop-color="#fff" stop-opacity=".01"/><stop offset=".26" stop-color="#fff" stop-opacity=".06"/><stop offset=".38" stop-color="#fff" stop-opacity=".13"/><stop offset=".51" stop-color="#fff" stop-opacity=".24"/><stop offset=".63" stop-color="#fff" stop-opacity=".38"/><stop offset=".75" stop-color="#fff" stop-opacity=".54"/><stop offset=".87" stop-color="#fff" stop-opacity=".74"/><stop offset=".98" stop-color="#fff" stop-opacity=".96"/><stop offset="1" stop-color="#fff"/></linearGradient><linearGradient id="g" x1="494.364" x2="378.074" y1="307.748" y2="453.318" gradientUnits="userSpaceOnUse"><stop stop-color="#fff" stop-opacity="0"/><stop offset=".13" stop-color="#fff" stop-opacity=".01"/><stop offset=".26" stop-color="#fff" stop-opacity=".06"/><stop offset=".38" stop-color="#fff" stop-opacity=".13"/><stop offset=".51" stop-color="#fff" stop-opacity=".24"/><stop offset=".63" stop-color="#fff" stop-opacity=".38"/><stop offset=".75" stop-color="#fff" stop-opacity=".54"/><stop offset=".87" stop-color="#fff" stop-opacity=".74"/><stop offset=".98" stop-color="#fff" stop-opacity=".96"/><stop offset="1" stop-color="#fff"/></linearGradient><linearGradient id="h" x1="478.78" x2="421.512" y1="155.366" y2="340.483" gradientUnits="userSpaceOnUse"><stop stop-color="#fff" stop-opacity="0"/><stop offset=".13" stop-color="#fff" stop-opacity=".01"/><stop offset=".26" stop-color="#fff" stop-opacity=".06"/><stop offset=".38" stop-color="#fff" stop-opacity=".13"/><stop offset=".51" stop-color="#fff" stop-opacity=".24"/><stop offset=".63" stop-color="#fff" stop-opacity=".38"/><stop offset=".75" stop-color="#fff" stop-opacity=".54"/><stop offset=".87" stop-color="#fff" stop-opacity=".74"/><stop offset=".98" stop-color="#fff" stop-opacity=".96"/><stop offset="1" stop-color="#fff"/></linearGradient><linearGradient id="i" x1="641.121" x2="469.225" y1="243.632" y2="246.962" gradientUnits="userSpaceOnUse"><stop stop-color="#fff" stop-opacity="0"/><stop offset=".13" stop-color="#fff" stop-opacity=".01"/><stop offset=".26" stop-color="#fff" stop-opacity=".06"/><stop offset=".38" stop-color="#fff" stop-opacity=".13"/><stop offset=".51" stop-color="#fff" stop-opacity=".24"/><stop offset=".63" stop-color="#fff" stop-opacity=".38"/><stop offset=".75" stop-color="#fff" stop-opacity=".54"/><stop offset=".87" stop-color="#fff" stop-opacity=".74"/><stop offset=".98" stop-color="#fff" stop-opacity=".96"/><stop offset="1" stop-color="#fff"/></linearGradient><linearGradient id="j" x1="174.097" x2="285.383" y1="156.303" y2="300.082" gradientUnits="userSpaceOnUse"><stop stop-color="#fff" stop-opacity="0"/><stop offset=".13" stop-color="#fff" stop-opacity=".01"/><stop offset=".26" stop-color="#fff" stop-opacity=".06"/><stop offset=".38" stop-color="#fff" stop-opacity=".13"/><stop offset=".51" stop-color="#fff" stop-opacity=".24"/><stop offset=".63" stop-color="#fff" stop-opacity=".38"/><stop offset=".75" stop-color="#fff" stop-opacity=".54"/><stop offset=".87" stop-color="#fff" stop-opacity=".74"/><stop offset=".98" stop-color="#fff" stop-opacity=".96"/><stop offset="1" stop-color="#fff"/></linearGradient><linearGradient id="k" x1="98.28" x2="188.839" y1="404.957" y2="521.958" gradientUnits="userSpaceOnUse"><stop stop-color="#fff" stop-opacity="0"/><stop offset=".13" stop-color="#fff" stop-opacity=".01"/><stop offset=".26" stop-color="#fff" stop-opacity=".06"/><stop offset=".38" stop-color="#fff" stop-opacity=".13"/><stop offset=".51" stop-color="#fff" stop-opacity=".24"/><stop offset=".63" stop-color="#fff" stop-opacity=".38"/><stop offset=".75" stop-color="#fff" stop-opacity=".54"/><stop offset=".87" stop-color="#fff" stop-opacity=".74"/><stop offset=".98" stop-color="#fff" stop-opacity=".96"/><stop offset="1" stop-color="#fff"/></linearGradient><linearGradient id="l" x1="647.092" x2="775.862" y1="312.017" y2="492.545" gradientUnits="userSpaceOnUse"><stop stop-color="#fff" stop-opacity="0"/><stop offset=".13" stop-color="#fff" stop-opacity=".01"/><stop offset=".26" stop-color="#fff" stop-opacity=".06"/><stop offset=".38" stop-color="#fff" stop-opacity=".13"/><stop offset=".51" stop-color="#fff" stop-opacity=".24"/><stop offset=".63" stop-color="#fff" stop-opacity=".38"/><stop offset=".75" stop-color="#fff" stop-opacity=".54"/><stop offset=".87" stop-color="#fff" stop-opacity=".74"/><stop offset=".98" stop-color="#fff" stop-opacity=".96"/><stop offset="1" stop-color="#fff"/></linearGradient><linearGradient id="m" x1="878.766" x2="771.051" y1="225.178" y2="343.431" gradientUnits="userSpaceOnUse"><stop stop-color="#fff" stop-opacity="0"/><stop offset=".13" stop-color="#fff" stop-opacity=".01"/><stop offset=".26" stop-color="#fff" stop-opacity=".06"/><stop offset=".38" stop-color="#fff" stop-opacity=".13"/><stop offset=".51" stop-color="#fff" stop-opacity=".24"/><stop offset=".63" stop-color="#fff" stop-opacity=".38"/><stop offset=".75" stop-color="#fff" stop-opacity=".54"/><stop offset=".87" stop-color="#fff" stop-opacity=".74"/><stop offset=".98" stop-color="#fff" stop-opacity=".96"/><stop offset="1" stop-color="#fff"/></linearGradient><linearGradient id="n" x1="779.481" x2="630.818" y1="254.86" y2="384.41" gradientUnits="userSpaceOnUse"><stop stop-color="#fff" stop-opacity="0"/><stop offset=".13" stop-color="#fff" stop-opacity=".01"/><stop offset=".26" stop-color="#fff" stop-opacity=".06"/><stop offset=".38" stop-color="#fff" stop-opacity=".13"/><stop offset=".51" stop-color="#fff" stop-opacity=".24"/><stop offset=".63" stop-color="#fff" stop-opacity=".38"/><stop offset=".75" stop-color="#fff" stop-opacity=".54"/><stop offset=".87" stop-color="#fff" stop-opacity=".74"/><stop offset=".98" stop-color="#fff" stop-opacity=".96"/><stop offset="1" stop-color="#fff"/></linearGradient><linearGradient id="o" x1="982.204" x2="1004.24" y1="309.757" y2="477.582" gradientUnits="userSpaceOnUse"><stop stop-color="#fff" stop-opacity="0"/><stop offset=".13" stop-color="#fff" stop-opacity=".01"/><stop offset=".26" stop-color="#fff" stop-opacity=".06"/><stop offset=".38" stop-color="#fff" stop-opacity=".13"/><stop offset=".51" stop-color="#fff" stop-opacity=".24"/><stop offset=".63" stop-color="#fff" stop-opacity=".38"/><stop offset=".75" stop-color="#fff" stop-opacity=".54"/><stop offset=".87" stop-color="#fff" stop-opacity=".74"/><stop offset=".98" stop-color="#fff" stop-opacity=".96"/><stop offset="1" stop-color="#fff"/></linearGradient><linearGradient id="p" x1="1020.3" x2="834.168" y1="432.73" y2="440.921" gradientUnits="userSpaceOnUse"><stop stop-color="#fff" stop-opacity="0"/><stop offset=".13" stop-color="#fff" stop-opacity=".01"/><stop offset=".26" stop-color="#fff" stop-opacity=".06"/><stop offset=".38" stop-color="#fff" stop-opacity=".13"/><stop offset=".51" stop-color="#fff" stop-opacity=".24"/><stop offset=".63" stop-color="#fff" stop-opacity=".38"/><stop offset=".75" stop-color="#fff" stop-opacity=".54"/><stop offset=".87" stop-color="#fff" stop-opacity=".74"/><stop offset=".98" stop-color="#fff" stop-opacity=".96"/><stop offset="1" stop-color="#fff"/></linearGradient><linearGradient id="q" x1="855.497" x2="661.724" y1="290.458" y2="274.956" gradientUnits="userSpaceOnUse"><stop stop-color="#fff" stop-opacity="0"/><stop offset=".13" stop-color="#fff" stop-opacity=".01"/><stop offset=".26" stop-color="#fff" stop-opacity=".06"/><stop offset=".38" stop-color="#fff" stop-opacity=".13"/><stop offset=".51" stop-color="#fff" stop-opacity=".24"/><stop offset=".63" stop-color="#fff" stop-opacity=".38"/><stop offset=".75" stop-color="#fff" stop-opacity=".54"/><stop offset=".87" stop-color="#fff" stop-opacity=".74"/><stop offset=".98" stop-color="#fff" stop-opacity=".96"/><stop offset="1" stop-color="#fff"/></linearGradient><linearGradient id="r" x1="867.561" x2="870.382" y1="231.65" y2="403.559" gradientUnits="userSpaceOnUse"><stop stop-color="#fff" stop-opacity="0"/><stop offset=".13" stop-color="#fff" stop-opacity=".01"/><stop offset=".26" stop-color="#fff" stop-opacity=".06"/><stop offset=".38" stop-color="#fff" stop-opacity=".13"/><stop offset=".51" stop-color="#fff" stop-opacity=".24"/><stop offset=".63" stop-color="#fff" stop-opacity=".38"/><stop offset=".75" stop-color="#fff" stop-opacity=".54"/><stop offset=".87" stop-color="#fff" stop-opacity=".74"/><stop offset=".98" stop-color="#fff" stop-opacity=".96"/><stop offset="1" stop-color="#fff"/></linearGradient><linearGradient id="s" x1="940.288" x2="1076.98" y1="113.043" y2="174.712" gradientUnits="userSpaceOnUse"><stop stop-color="#fff" stop-opacity="0"/><stop offset=".13" stop-color="#fff" stop-opacity=".01"/><stop offset=".26" stop-color="#fff" stop-opacity=".06"/><stop offset=".38" stop-color="#fff" stop-opacity=".13"/><stop offset=".51" stop-color="#fff" stop-opacity=".24"/><stop offset=".63" stop-color="#fff" stop-opacity=".38"/><stop offset=".75" stop-color="#fff" stop-opacity=".54"/><stop offset=".87" stop-color="#fff" stop-opacity=".74"/><stop offset=".98" stop-color="#fff" stop-opacity=".96"/><stop offset="1" stop-color="#fff"/></linearGradient><linearGradient id="t" x1="743.027" x2="671.11" y1="98.379" y2="265.369" gradientUnits="userSpaceOnUse"><stop stop-color="#fff" stop-opacity="0"/><stop offset=".13" stop-color="#fff" stop-opacity=".01"/><stop offset=".26" stop-color="#fff" stop-opacity=".06"/><stop offset=".38" stop-color="#fff" stop-opacity=".13"/><stop offset=".51" stop-color="#fff" stop-opacity=".24"/><stop offset=".63" stop-color="#fff" stop-opacity=".38"/><stop offset=".75" stop-color="#fff" stop-opacity=".54"/><stop offset=".87" stop-color="#fff" stop-opacity=".74"/><stop offset=".98" stop-color="#fff" stop-opacity=".96"/><stop offset="1" stop-color="#fff"/></linearGradient><linearGradient id="u" x1="576" x2="576" y1="505.893" y2="610.893" gradientUnits="userSpaceOnUse"><stop stop-opacity="0"/><stop offset="1"/></linearGradient><radialGradient id="b" cx="0" cy="0" r="1" gradientTransform="matrix(0 305 -576 0 576 305.893)" gradientUnits="userSpaceOnUse"><stop stop-color="#D9D9D9"/><stop offset="1" stop-color="#D9D9D9" stop-opacity="0"/></radialGradient><clipPath id="a"><path fill="#fff" d="M0 .893h1152v610H0z"/></clipPath></defs></svg>