<svg width="368" height="553" viewBox="0 0 368 553" fill="none" xmlns="http://www.w3.org/2000/svg">
<g clip-path="url(#clip0_224_23317)">
<rect width="368" height="553" fill="black"/>
<g clip-path="url(#clip1_224_23317)">
<path d="M368.687 -56.3984H-0.294434V555.998H368.687V-56.3984Z" fill="#000105"/>
<path d="M-0.588379 -56V556H368.589V-56H-0.588379Z" fill="url(#paint0_linear_224_23317)"/>
<path d="M368.491 -17.4492H-0.588379V555.997H368.491V-17.4492Z" fill="url(#paint1_linear_224_23317)"/>
<g opacity="0.5">
<path d="M188.228 127.99L461.076 -156.177L461.076 661.034L188.228 376.866L187.326 375.927L186.424 376.866L-86.4243 661.034L-86.4244 -156.177L186.424 127.99L187.326 128.929L188.228 127.99Z" fill="black" stroke="url(#paint2_linear_224_23317)" stroke-width="2.5"/>
<path d="M188.255 119.484L461.076 -183.88L461.076 688.741L188.255 385.376L187.326 384.343L186.396 385.376L-86.4243 688.741L-86.4244 -183.88L186.396 119.484L187.326 120.517L188.255 119.484Z" fill="black" stroke="url(#paint3_linear_224_23317)" stroke-width="2.5"/>
<path d="M-86.4243 606.434L-86.4243 -101.576L186.488 144.76L187.326 145.516L188.163 144.76L461.076 -101.576L461.076 606.434L188.163 360.097L187.326 359.341L186.488 360.097L-86.4243 606.434Z" fill="black" stroke="url(#paint4_linear_224_23317)" stroke-width="2.5"/>
<path d="M-86.4243 551.824L-86.4243 -46.9656L186.567 161.533L187.326 162.113L188.085 161.533L461.076 -46.9656L461.076 551.824L188.085 343.325L187.326 342.746L186.567 343.325L-86.4243 551.824Z" fill="black" stroke="url(#paint5_linear_224_23317)" stroke-width="2.5"/>
<path d="M-86.4243 497.202L-86.4243 7.65732L186.663 178.307L187.326 178.721L187.988 178.307L461.076 7.65729L461.076 497.202L187.988 326.552L187.326 326.138L186.664 326.552L-86.4243 497.202Z" fill="black" stroke="url(#paint6_linear_224_23317)" stroke-width="2.5"/>
<path d="M-86.4243 442.565L-86.4243 62.295L186.779 195.079L187.326 195.345L187.872 195.079L461.076 62.295L461.076 442.565L187.872 309.781L187.326 309.515L186.78 309.781L-86.4243 442.565Z" fill="black" stroke="url(#paint7_linear_224_23317)" stroke-width="2.5"/>
<path d="M-86.4243 387.878L-86.4243 116.983L186.895 217.276L187.326 217.434L187.757 217.276L461.076 116.983L461.076 387.878L187.757 287.585L187.326 287.427L186.895 287.585L-86.4243 387.878Z" fill="black" stroke="url(#paint8_linear_224_23317)" stroke-width="2.5"/>
<path d="M-86.4243 333.201L-86.4243 171.636L187.063 230.463L187.326 230.52L187.589 230.463L461.076 171.636L461.076 333.201L187.608 269.853L187.326 269.787L187.044 269.853L-86.4243 333.201Z" fill="black" stroke="url(#paint9_linear_224_23317)" stroke-width="2.5"/>
<path d="M-86.4243 278.529L-86.4243 226.327L187.237 245.948L187.326 245.955L187.415 245.948L461.076 226.327L461.076 278.529L187.422 257.398L187.326 257.391L187.23 257.398L-86.4243 278.529Z" fill="black" stroke="url(#paint10_linear_224_23317)" stroke-width="2.5"/>
</g>
</g>
<rect y="-1" width="368" height="47" fill="url(#paint11_linear_224_23317)"/>
<rect x="368" y="553" width="368" height="47" transform="rotate(180 368 553)" fill="url(#paint12_linear_224_23317)"/>
<g filter="url(#filter0_f_224_23317)">
<rect x="117" y="39" width="134.102" height="475.115" fill="#010203"/>
</g>
<g clip-path="url(#clip2_224_23317)">
<path d="M183.56 151.859C209.383 151.859 230.317 130.925 230.317 105.102C230.317 79.2779 209.383 58.3438 183.56 58.3438C157.736 58.3438 136.802 79.2779 136.802 105.102C136.802 130.925 157.736 151.859 183.56 151.859Z" fill="black" stroke="#919191" stroke-width="2.5" stroke-miterlimit="10" stroke-linecap="round" stroke-linejoin="round"/>
<path d="M229.609 105.105C206.52 105.105 206.52 71.1172 183.431 71.1172C160.343 71.1172 160.343 105.105 137.254 105.105" stroke="#919191" stroke-width="2.5" stroke-miterlimit="10" stroke-linecap="round" stroke-linejoin="round"/>
<path d="M229.609 105.102C206.52 105.102 206.52 139.09 183.431 139.09C160.343 139.09 160.343 105.102 137.254 105.102" stroke="#919191" stroke-width="2.5" stroke-miterlimit="10" stroke-linecap="round" stroke-linejoin="round"/>
<path d="M215.612 139.029C183.559 139.029 183.559 70.9883 151.441 70.9883" stroke="#919191" stroke-width="2.5" stroke-miterlimit="10" stroke-linecap="round" stroke-linejoin="round"/>
<path d="M229.607 105.102H137.51" stroke="#919191" stroke-width="2.5" stroke-miterlimit="10" stroke-linecap="round" stroke-linejoin="round"/>
</g>
<g clip-path="url(#clip3_224_23317)">
<path d="M183.56 266.156C209.383 266.156 230.317 245.222 230.317 219.398C230.317 193.575 209.383 172.641 183.56 172.641C157.736 172.641 136.802 193.575 136.802 219.398C136.802 245.222 157.736 266.156 183.56 266.156Z" fill="black" stroke="#919191" stroke-width="2.5" stroke-miterlimit="10" stroke-linecap="round" stroke-linejoin="round"/>
<path d="M215.159 253.001V236.168" stroke="#919191" stroke-width="2.5" stroke-miterlimit="10" stroke-linecap="round" stroke-linejoin="round"/>
<path d="M215.159 202.563V185.73" stroke="#919191" stroke-width="2.5" stroke-miterlimit="10" stroke-linecap="round" stroke-linejoin="round"/>
<path d="M215.159 236.167V219.398" stroke="#919191" stroke-width="2.5" stroke-miterlimit="10" stroke-linecap="round" stroke-linejoin="round"/>
<path d="M215.159 219.399V202.566" stroke="#919191" stroke-width="2.5" stroke-miterlimit="10" stroke-linecap="round" stroke-linejoin="round"/>
<path d="M194.072 236.168V253.001" stroke="#919191" stroke-width="2.5" stroke-miterlimit="10" stroke-linecap="round" stroke-linejoin="round"/>
<path d="M194.072 202.566V219.399" stroke="#919191" stroke-width="2.5" stroke-miterlimit="10" stroke-linecap="round" stroke-linejoin="round"/>
<path d="M194.072 219.398V236.167" stroke="#919191" stroke-width="2.5" stroke-miterlimit="10" stroke-linecap="round" stroke-linejoin="round"/>
<path d="M194.072 173.863V185.73" stroke="#919191" stroke-width="2.5" stroke-miterlimit="10" stroke-linecap="round" stroke-linejoin="round"/>
<path d="M194.072 264.867V253" stroke="#919191" stroke-width="2.5" stroke-miterlimit="10" stroke-linecap="round" stroke-linejoin="round"/>
<path d="M194.072 202.563V185.73" stroke="#919191" stroke-width="2.5" stroke-miterlimit="10" stroke-linecap="round" stroke-linejoin="round"/>
<path d="M172.982 236.168V253.001" stroke="#919191" stroke-width="2.5" stroke-miterlimit="10" stroke-linecap="round" stroke-linejoin="round"/>
<path d="M172.982 253V264.867" stroke="#919191" stroke-width="2.5" stroke-miterlimit="10" stroke-linecap="round" stroke-linejoin="round"/>
<path d="M172.982 219.399V202.566" stroke="#919191" stroke-width="2.5" stroke-miterlimit="10" stroke-linecap="round" stroke-linejoin="round"/>
<path d="M172.982 185.73V202.563" stroke="#919191" stroke-width="2.5" stroke-miterlimit="10" stroke-linecap="round" stroke-linejoin="round"/>
<path d="M172.982 219.398V236.167" stroke="#919191" stroke-width="2.5" stroke-miterlimit="10" stroke-linecap="round" stroke-linejoin="round"/>
<path d="M172.982 173.863V185.73" stroke="#919191" stroke-width="2.5" stroke-miterlimit="10" stroke-linecap="round" stroke-linejoin="round"/>
<path d="M151.892 236.168V253.001" stroke="#919191" stroke-width="2.5" stroke-miterlimit="10" stroke-linecap="round" stroke-linejoin="round"/>
<path d="M151.892 202.563V185.73" stroke="#919191" stroke-width="2.5" stroke-miterlimit="10" stroke-linecap="round" stroke-linejoin="round"/>
<path d="M151.892 202.566V219.399" stroke="#919191" stroke-width="2.5" stroke-miterlimit="10" stroke-linecap="round" stroke-linejoin="round"/>
<path d="M151.892 236.167V219.398" stroke="#919191" stroke-width="2.5" stroke-miterlimit="10" stroke-linecap="round" stroke-linejoin="round"/>
<path d="M227.09 202.566H215.159" stroke="#919191" stroke-width="2.5" stroke-miterlimit="10" stroke-linecap="round" stroke-linejoin="round"/>
<path d="M151.892 202.566H172.981" stroke="#919191" stroke-width="2.5" stroke-miterlimit="10" stroke-linecap="round" stroke-linejoin="round"/>
<path d="M139.961 202.566H151.892" stroke="#919191" stroke-width="2.5" stroke-miterlimit="10" stroke-linecap="round" stroke-linejoin="round"/>
<path d="M172.982 202.566H194.071" stroke="#919191" stroke-width="2.5" stroke-miterlimit="10" stroke-linecap="round" stroke-linejoin="round"/>
<path d="M194.072 202.566H215.161" stroke="#919191" stroke-width="2.5" stroke-miterlimit="10" stroke-linecap="round" stroke-linejoin="round"/>
<path d="M151.892 219.398H172.981" stroke="#919191" stroke-width="2.5" stroke-miterlimit="10" stroke-linecap="round" stroke-linejoin="round"/>
<path d="M229.541 219.398H215.159" stroke="#919191" stroke-width="2.5" stroke-miterlimit="10" stroke-linecap="round" stroke-linejoin="round"/>
<path d="M194.072 219.398H215.161" stroke="#919191" stroke-width="2.5" stroke-miterlimit="10" stroke-linecap="round" stroke-linejoin="round"/>
<path d="M137.51 219.398H151.892" stroke="#919191" stroke-width="2.5" stroke-miterlimit="10" stroke-linecap="round" stroke-linejoin="round"/>
<path d="M172.982 219.398H194.071" stroke="#919191" stroke-width="2.5" stroke-miterlimit="10" stroke-linecap="round" stroke-linejoin="round"/>
<path d="M227.09 236.168H215.159" stroke="#919191" stroke-width="2.5" stroke-miterlimit="10" stroke-linecap="round" stroke-linejoin="round"/>
<path d="M194.072 236.168H215.161" stroke="#919191" stroke-width="2.5" stroke-miterlimit="10" stroke-linecap="round" stroke-linejoin="round"/>
<path d="M151.892 236.168H139.961" stroke="#919191" stroke-width="2.5" stroke-miterlimit="10" stroke-linecap="round" stroke-linejoin="round"/>
<path d="M172.982 236.168H194.071" stroke="#919191" stroke-width="2.5" stroke-miterlimit="10" stroke-linecap="round" stroke-linejoin="round"/>
<path d="M151.892 236.168H172.981" stroke="#919191" stroke-width="2.5" stroke-miterlimit="10" stroke-linecap="round" stroke-linejoin="round"/>
<path d="M172.981 253H151.892" stroke="#919191" stroke-width="2.5" stroke-miterlimit="10" stroke-linecap="round" stroke-linejoin="round"/>
<path d="M194.072 253H215.161" stroke="#919191" stroke-width="2.5" stroke-miterlimit="10" stroke-linecap="round" stroke-linejoin="round"/>
<path d="M172.982 253H194.071" stroke="#919191" stroke-width="2.5" stroke-miterlimit="10" stroke-linecap="round" stroke-linejoin="round"/>
<path d="M215.161 185.73H194.072" stroke="#919191" stroke-width="2.5" stroke-miterlimit="10" stroke-linecap="round" stroke-linejoin="round"/>
<path d="M194.071 185.73H172.982" stroke="#919191" stroke-width="2.5" stroke-miterlimit="10" stroke-linecap="round" stroke-linejoin="round"/>
<path d="M151.892 185.73H172.981" stroke="#919191" stroke-width="2.5" stroke-miterlimit="10" stroke-linecap="round" stroke-linejoin="round"/>
<path d="M172.982 236.168V253.001" stroke="#919191" stroke-width="2.5" stroke-miterlimit="10" stroke-linecap="round" stroke-linejoin="round"/>
<path d="M172.982 253V264.867" stroke="#919191" stroke-width="2.5" stroke-miterlimit="10" stroke-linecap="round" stroke-linejoin="round"/>
<path d="M172.982 219.399V202.566" stroke="#919191" stroke-width="2.5" stroke-miterlimit="10" stroke-linecap="round" stroke-linejoin="round"/>
<path d="M172.982 185.73V202.563" stroke="#919191" stroke-width="2.5" stroke-miterlimit="10" stroke-linecap="round" stroke-linejoin="round"/>
<path d="M172.982 219.398V236.167" stroke="#919191" stroke-width="2.5" stroke-miterlimit="10" stroke-linecap="round" stroke-linejoin="round"/>
<path d="M172.982 173.863V185.73" stroke="#919191" stroke-width="2.5" stroke-miterlimit="10" stroke-linecap="round" stroke-linejoin="round"/>
<path d="M151.892 236.168V253.001" stroke="#919191" stroke-width="2.5" stroke-miterlimit="10" stroke-linecap="round" stroke-linejoin="round"/>
<path d="M151.892 202.563V185.73" stroke="#919191" stroke-width="2.5" stroke-miterlimit="10" stroke-linecap="round" stroke-linejoin="round"/>
<path d="M151.892 202.566V219.399" stroke="#919191" stroke-width="2.5" stroke-miterlimit="10" stroke-linecap="round" stroke-linejoin="round"/>
<path d="M151.892 236.167V219.398" stroke="#919191" stroke-width="2.5" stroke-miterlimit="10" stroke-linecap="round" stroke-linejoin="round"/>
<path d="M151.892 202.566H172.981" stroke="#919191" stroke-width="2.5" stroke-miterlimit="10" stroke-linecap="round" stroke-linejoin="round"/>
<path d="M139.961 202.566H151.892" stroke="#919191" stroke-width="2.5" stroke-miterlimit="10" stroke-linecap="round" stroke-linejoin="round"/>
<path d="M172.982 202.566H194.071" stroke="#919191" stroke-width="2.5" stroke-miterlimit="10" stroke-linecap="round" stroke-linejoin="round"/>
<path d="M151.892 219.398H172.981" stroke="#919191" stroke-width="2.5" stroke-miterlimit="10" stroke-linecap="round" stroke-linejoin="round"/>
<path d="M137.51 219.398H151.892" stroke="#919191" stroke-width="2.5" stroke-miterlimit="10" stroke-linecap="round" stroke-linejoin="round"/>
<path d="M172.982 219.398H194.071" stroke="#919191" stroke-width="2.5" stroke-miterlimit="10" stroke-linecap="round" stroke-linejoin="round"/>
<path d="M151.892 236.168H139.961" stroke="#919191" stroke-width="2.5" stroke-miterlimit="10" stroke-linecap="round" stroke-linejoin="round"/>
<path d="M172.982 236.168H194.071" stroke="#919191" stroke-width="2.5" stroke-miterlimit="10" stroke-linecap="round" stroke-linejoin="round"/>
<path d="M151.892 236.168H172.981" stroke="#919191" stroke-width="2.5" stroke-miterlimit="10" stroke-linecap="round" stroke-linejoin="round"/>
<path d="M172.981 253H151.892" stroke="#919191" stroke-width="2.5" stroke-miterlimit="10" stroke-linecap="round" stroke-linejoin="round"/>
<path d="M172.982 253H194.071" stroke="#919191" stroke-width="2.5" stroke-miterlimit="10" stroke-linecap="round" stroke-linejoin="round"/>
<path d="M194.071 185.73H172.982" stroke="#919191" stroke-width="2.5" stroke-miterlimit="10" stroke-linecap="round" stroke-linejoin="round"/>
<path d="M151.892 185.73H172.981" stroke="#919191" stroke-width="2.5" stroke-miterlimit="10" stroke-linecap="round" stroke-linejoin="round"/>
</g>
<g clip-path="url(#clip4_224_23317)">
<path d="M183.56 380.453C209.383 380.453 230.317 359.519 230.317 333.695C230.317 307.872 209.383 286.938 183.56 286.938C157.736 286.938 136.802 307.872 136.802 333.695C136.802 359.519 157.736 380.453 183.56 380.453Z" fill="black" stroke="#919191" stroke-width="2.5" stroke-miterlimit="10" stroke-linecap="round" stroke-linejoin="round"/>
<path d="M183.816 321.118C184.279 321.118 184.654 320.743 184.654 320.28C184.654 319.817 184.279 319.441 183.816 319.441C183.353 319.441 182.978 319.817 182.978 320.28C182.978 320.743 183.353 321.118 183.816 321.118Z" fill="#919191" stroke="#919191" stroke-width="2.5" stroke-miterlimit="10" stroke-linejoin="round"/>
<path d="M211.29 321.118C211.753 321.118 212.128 320.743 212.128 320.28C212.128 319.817 211.753 319.441 211.29 319.441C210.827 319.441 210.452 319.817 210.452 320.28C210.452 320.743 210.827 321.118 211.29 321.118Z" fill="#919191" stroke="#919191" stroke-width="2.5" stroke-miterlimit="10" stroke-linejoin="round"/>
<path d="M183.816 337.177C184.279 337.177 184.654 336.801 184.654 336.338C184.654 335.875 184.279 335.5 183.816 335.5C183.353 335.5 182.978 335.875 182.978 336.338C182.978 336.801 183.353 337.177 183.816 337.177Z" fill="#919191" stroke="#919191" stroke-width="2.5" stroke-miterlimit="10" stroke-linejoin="round"/>
<path d="M211.29 337.177C211.753 337.177 212.128 336.801 212.128 336.338C212.128 335.875 211.753 335.5 211.29 335.5C210.827 335.5 210.452 335.875 210.452 336.338C210.452 336.801 210.827 337.177 211.29 337.177Z" fill="#919191" stroke="#919191" stroke-width="2.5" stroke-miterlimit="10" stroke-linejoin="round"/>
<path d="M197.553 329.181C198.016 329.181 198.391 328.805 198.391 328.342C198.391 327.879 198.016 327.504 197.553 327.504C197.09 327.504 196.714 327.879 196.714 328.342C196.714 328.805 197.09 329.181 197.553 329.181Z" fill="#919191" stroke="#919191" stroke-width="2.5" stroke-miterlimit="10" stroke-linejoin="round"/>
<path d="M197.553 344.591C198.016 344.591 198.391 344.216 198.391 343.752C198.391 343.289 198.016 342.914 197.553 342.914C197.09 342.914 196.714 343.289 196.714 343.752C196.714 344.216 197.09 344.591 197.553 344.591Z" fill="#919191" stroke="#919191" stroke-width="2.5" stroke-miterlimit="10" stroke-linejoin="round"/>
<path d="M197.553 313.767C198.016 313.767 198.391 313.391 198.391 312.928C198.391 312.465 198.016 312.09 197.553 312.09C197.09 312.09 196.714 312.465 196.714 312.928C196.714 313.391 197.09 313.767 197.553 313.767Z" fill="#919191" stroke="#919191" stroke-width="2.5" stroke-miterlimit="10" stroke-linejoin="round"/>
<path d="M197.103 360.335C179.432 360.335 165.115 346.017 165.115 328.346C165.115 315.834 172.338 304.935 182.85 299.711C164.405 300.098 149.572 315.125 149.572 333.699C149.572 352.467 164.792 367.687 183.56 367.687C192.266 367.687 200.199 364.398 206.197 359.045C203.295 359.819 200.264 360.335 197.103 360.335Z" stroke="#919191" stroke-width="2.5" stroke-miterlimit="10" stroke-linecap="round" stroke-linejoin="round"/>
</g>
<g clip-path="url(#clip5_224_23317)">
<path d="M183.56 494.75C209.383 494.75 230.317 473.816 230.317 447.992C230.317 422.169 209.383 401.234 183.56 401.234C157.736 401.234 136.802 422.169 136.802 447.992C136.802 473.816 157.736 494.75 183.56 494.75Z" fill="black" stroke="#919191" stroke-width="2.5" stroke-miterlimit="10" stroke-linecap="round" stroke-linejoin="round"/>
<path d="M210.904 457.856L218.45 448.44C218.773 448.182 218.773 447.86 218.45 447.537L210.904 438.121" stroke="#919191" stroke-width="2.5" stroke-miterlimit="10" stroke-linecap="round" stroke-linejoin="round"/>
<path d="M148.41 447.992H217.87" stroke="#919191" stroke-width="2.5" stroke-miterlimit="10" stroke-linecap="round" stroke-linejoin="round"/>
<path d="M194.329 437.157L201.875 427.741C202.197 427.483 202.197 427.16 201.875 426.838L194.329 417.422" stroke="#919191" stroke-width="2.5" stroke-miterlimit="10" stroke-linecap="round" stroke-linejoin="round"/>
<path d="M161.052 427.293H201.231" stroke="#919191" stroke-width="2.5" stroke-miterlimit="10" stroke-linecap="round" stroke-linejoin="round"/>
<path d="M194.717 478.497L202.263 469.081C202.585 468.823 202.585 468.5 202.263 468.178L194.717 458.762" stroke="#919191" stroke-width="2.5" stroke-miterlimit="10" stroke-linecap="round" stroke-linejoin="round"/>
<path d="M161.437 468.633H201.681" stroke="#919191" stroke-width="2.5" stroke-miterlimit="10" stroke-linecap="round" stroke-linejoin="round"/>
</g>
</g>
<rect x="2" y="2" width="364" height="549" stroke="black" stroke-width="4"/>
<defs>
<filter id="filter0_f_224_23317" x="68.5105" y="-9.48954" width="231.081" height="572.096" filterUnits="userSpaceOnUse" color-interpolation-filters="sRGB">
<feFlood flood-opacity="0" result="BackgroundImageFix"/>
<feBlend mode="normal" in="SourceGraphic" in2="BackgroundImageFix" result="shape"/>
<feGaussianBlur stdDeviation="24.2448" result="effect1_foregroundBlur_224_23317"/>
</filter>
<linearGradient id="paint0_linear_224_23317" x1="184" y1="-56" x2="184" y2="555.988" gradientUnits="userSpaceOnUse">
<stop offset="0.1094"/>
<stop offset="0.2609" stop-opacity="0.4"/>
<stop offset="0.2845" stop-opacity="0.3435"/>
<stop offset="0.4279" stop-opacity="0"/>
<stop offset="0.4585" stop-opacity="0.011762"/>
<stop offset="0.6878" stop-opacity="0.1"/>
<stop offset="0.8034" stop-opacity="0.7"/>
<stop offset="0.8098" stop-opacity="0.7174"/>
<stop offset="0.9137"/>
</linearGradient>
<linearGradient id="paint1_linear_224_23317" x1="-0.56257" y1="269.253" x2="368.563" y2="269.253" gradientUnits="userSpaceOnUse">
<stop stop-opacity="0.9"/>
<stop offset="0.1313" stop-opacity="0.4"/>
<stop offset="0.2783" stop-opacity="0"/>
<stop offset="0.3329" stop-opacity="0"/>
<stop offset="0.7433" stop-opacity="0"/>
<stop offset="0.7599" stop-opacity="0.0470479"/>
<stop offset="0.8845" stop-opacity="0.4"/>
<stop offset="1" stop-opacity="0.9"/>
</linearGradient>
<linearGradient id="paint2_linear_224_23317" x1="-87.6743" y1="252.428" x2="462.326" y2="252.428" gradientUnits="userSpaceOnUse">
<stop offset="0.175873" stop-color="white"/>
<stop offset="0.45713" stop-color="white" stop-opacity="0"/>
<stop offset="0.540466" stop-color="white" stop-opacity="0"/>
<stop offset="0.790472" stop-color="white"/>
</linearGradient>
<linearGradient id="paint3_linear_224_23317" x1="-87.6743" y1="252.43" x2="462.326" y2="252.43" gradientUnits="userSpaceOnUse">
<stop offset="0.175873" stop-color="white"/>
<stop offset="0.45713" stop-color="white" stop-opacity="0"/>
<stop offset="0.540466" stop-color="white" stop-opacity="0"/>
<stop offset="0.790472" stop-color="white"/>
</linearGradient>
<linearGradient id="paint4_linear_224_23317" x1="-87.6743" y1="252.429" x2="462.326" y2="252.429" gradientUnits="userSpaceOnUse">
<stop offset="0.175873" stop-color="white"/>
<stop offset="0.45713" stop-color="white" stop-opacity="0"/>
<stop offset="0.540466" stop-color="white" stop-opacity="0"/>
<stop offset="0.790472" stop-color="white"/>
</linearGradient>
<linearGradient id="paint5_linear_224_23317" x1="-87.6743" y1="252.429" x2="462.326" y2="252.429" gradientUnits="userSpaceOnUse">
<stop offset="0.175873" stop-color="white"/>
<stop offset="0.45713" stop-color="white" stop-opacity="0"/>
<stop offset="0.540466" stop-color="white" stop-opacity="0"/>
<stop offset="0.790472" stop-color="white"/>
</linearGradient>
<linearGradient id="paint6_linear_224_23317" x1="-87.6743" y1="252.43" x2="462.326" y2="252.43" gradientUnits="userSpaceOnUse">
<stop offset="0.175873" stop-color="white"/>
<stop offset="0.45713" stop-color="white" stop-opacity="0"/>
<stop offset="0.540466" stop-color="white" stop-opacity="0"/>
<stop offset="0.790472" stop-color="white"/>
</linearGradient>
<linearGradient id="paint7_linear_224_23317" x1="-87.6743" y1="252.43" x2="462.326" y2="252.43" gradientUnits="userSpaceOnUse">
<stop offset="0.175873" stop-color="white"/>
<stop offset="0.45713" stop-color="white" stop-opacity="0"/>
<stop offset="0.540466" stop-color="white" stop-opacity="0"/>
<stop offset="0.790472" stop-color="white"/>
</linearGradient>
<linearGradient id="paint8_linear_224_23317" x1="-87.6743" y1="252.431" x2="462.326" y2="252.43" gradientUnits="userSpaceOnUse">
<stop offset="0.175873" stop-color="white"/>
<stop offset="0.45713" stop-color="white" stop-opacity="0"/>
<stop offset="0.540466" stop-color="white" stop-opacity="0"/>
<stop offset="0.790472" stop-color="white"/>
</linearGradient>
<linearGradient id="paint9_linear_224_23317" x1="-87.6743" y1="252.431" x2="462.326" y2="252.431" gradientUnits="userSpaceOnUse">
<stop offset="0.175873" stop-color="white"/>
<stop offset="0.45713" stop-color="white" stop-opacity="0"/>
<stop offset="0.540466" stop-color="white" stop-opacity="0"/>
<stop offset="0.790472" stop-color="white"/>
</linearGradient>
<linearGradient id="paint10_linear_224_23317" x1="-87.6743" y1="252.431" x2="462.326" y2="252.431" gradientUnits="userSpaceOnUse">
<stop offset="0.175873" stop-color="white"/>
<stop offset="0.45713" stop-color="white" stop-opacity="0"/>
<stop offset="0.540466" stop-color="white" stop-opacity="0"/>
<stop offset="0.790472" stop-color="white"/>
</linearGradient>
<linearGradient id="paint11_linear_224_23317" x1="184" y1="-1" x2="184" y2="46" gradientUnits="userSpaceOnUse">
<stop/>
<stop offset="1" stop-opacity="0"/>
</linearGradient>
<linearGradient id="paint12_linear_224_23317" x1="552" y1="553" x2="552" y2="600" gradientUnits="userSpaceOnUse">
<stop/>
<stop offset="1" stop-opacity="0"/>
</linearGradient>
<clipPath id="clip0_224_23317">
<rect width="368" height="553" fill="white"/>
</clipPath>
<clipPath id="clip1_224_23317">
<path d="M0 4C0 -29.1371 26.8629 -56 60 -56H308C341.137 -56 368 -29.1371 368 4V556H0V4Z" fill="white"/>
</clipPath>
<clipPath id="clip2_224_23317">
<rect width="96.9791" height="96.9791" fill="white" transform="translate(135.07 56.6094)"/>
</clipPath>
<clipPath id="clip3_224_23317">
<rect width="96.9791" height="96.9791" fill="white" transform="translate(135.07 170.906)"/>
</clipPath>
<clipPath id="clip4_224_23317">
<rect width="96.9791" height="96.9791" fill="white" transform="translate(135.07 285.203)"/>
</clipPath>
<clipPath id="clip5_224_23317">
<rect width="96.9791" height="96.9791" fill="white" transform="translate(135.07 399.5)"/>
</clipPath>
</defs>
</svg>
