<svg xmlns="http://www.w3.org/2000/svg" width="368" height="610" fill="none"><g clip-path="url(#a)"><path fill="url(#b)" d="M307.734 0H61.252C29.63 0 4 25.771 4 57.582v632.85C4 722.229 29.63 748 61.252 748h246.482C339.37 748 365 722.229 365 690.432V57.596C365 25.786 339.37 0 307.734 0m41.287 692.174c0 21.488-17.333 38.917-38.703 38.917H59.52c-21.37 0-39.52-17.429-39.52-38.917V55.728C20 34.24 38.15 16.81 59.52 16.81h250.798c21.37 0 38.703 17.429 38.703 38.917z"/><path fill="url(#c)" d="M3 145H1.494C.66 145 0 145.752 0 146.671v22.658C0 170.262.672 171 1.494 171H3z"/><path fill="url(#d)" d="M365 74h-5v8h5z"/><path fill="url(#e)" d="M290 1h-8v4h8z"/><path fill="url(#f)" d="M8 74H3v8h5z"/><path fill="#000" d="M354.311 33.656a52.4 52.4 0 0 0-22.823-22.939C320.32 5 305.701 5 276.462 5H91.552c-29.253 0-43.873 0-55.04 5.717-9.826 5.029-17.806 13.064-22.81 22.939C8 44.879 8 59.559 8 88.959V659.04c0 29.386 0 44.08 5.703 55.303a52.28 52.28 0 0 0 22.81 22.925C47.678 743 62.298 743 91.551 743h184.91c29.239 0 43.858 0 55.026-5.731 9.825-5.015 17.806-13.05 22.823-22.925C360 703.121 360 688.427 360 659.041V88.959c0-29.4 0-44.08-5.689-55.303M349 692.206c0 21.506-18.127 38.938-39.526 38.938H58.539C37.141 731.144 20 713.712 20 692.206V55.78c0-21.506 17.141-38.938 38.54-38.938h250.934C330.859 16.842 349 34.274 349 55.78z"/><path fill="url(#g)" d="M365 237h1.506c.834 0 1.494.756 1.494 1.68v82.64c0 .938-.672 1.68-1.494 1.68H365z"/><path fill="url(#h)" d="M365 237h1.506c.834 0 1.494.756 1.494 1.68v82.64c0 .938-.672 1.68-1.494 1.68H365z"/><path fill="url(#i)" d="M3 270H1.494C.66 270 0 270.756 0 271.695v50.625c0 .938.672 1.68 1.494 1.68H3z"/><path fill="url(#j)" d="M3 270H1.494C.66 270 0 270.756 0 271.695v50.625c0 .938.672 1.68 1.494 1.68H3z"/><path fill="url(#k)" d="M3 199H1.494C.66 199 0 199.756 0 200.694v50.612C0 252.244.672 253 1.494 253H3z"/><path fill="url(#l)" d="M3 199H1.494C.66 199 0 199.756 0 200.694v50.612C0 252.244.672 253 1.494 253H3z"/><path fill="url(#m)" d="M3 145H1.494C.66 145 0 145.752 0 146.671v22.658C0 170.262.672 171 1.494 171H3z"/><path fill="#000" d="M153 5h62v3.557c0 2.45-1.878 4.443-4.186 4.443h-53.628C154.878 13 153 11.007 153 8.557z"/><path fill="#131313" d="M157.683 7h53.648c.932 0 1.669.675 1.669 1.5 0 .837-.751 1.5-1.669 1.5h-53.648c-.932 0-1.683-.675-1.683-1.5s.751-1.5 1.683-1.5"/><path stroke="url(#n)" stroke-miterlimit="10" stroke-width=".666" d="M4 58C4 26.239 29.652.408 61.285.408L307.715 0C339.348 0 365 25.831 365 57.593"/><rect width="104" height="30" x="132" y="26" fill="#000" rx="15"/><path fill="#090909" d="M220.5 48a6.5 6.5 0 1 0 0-13 6.5 6.5 0 0 0 0 13"/><path fill="url(#o)" d="M220.5 45a3.5 3.5 0 1 0 0-7 3.5 3.5 0 0 0 0 7"/><path fill="url(#p)" d="M0 566h368v45H0z"/><path fill="#000" d="M236.251 16h94c11.046 0 20 8.954 20 20v21h-114z"/><path fill="#fff" d="M267.923 38.79a.84.84 0 0 1 .839-.84h.839c.464 0 .839.377.839.84v6.712a.84.84 0 0 1-.839.839h-.839a.84.84 0 0 1-.839-.84zM272.118 37.112a.84.84 0 0 1 .839-.84h.839c.464 0 .839.377.839.84v8.39a.84.84 0 0 1-.839.839h-.839a.84.84 0 0 1-.839-.84zM263.728 41.726a.84.84 0 0 1 .839-.839h.839c.464 0 .839.376.839.84v3.775a.84.84 0 0 1-.839.839h-.839a.84.84 0 0 1-.839-.84zM259.533 43.824a.84.84 0 0 1 .839-.84h.839c.464 0 .839.377.839.84v1.678a.84.84 0 0 1-.839.839h-.839a.84.84 0 0 1-.839-.84z"/><path fill="#fff" fill-rule="evenodd" d="M288.479 38.513a7.98 7.98 0 0 1 5.559 2.267.284.284 0 0 0 .405-.003l1.08-1.112a.313.313 0 0 0-.003-.435 10.03 10.03 0 0 0-14.083 0 .309.309 0 0 0-.003.435l1.08 1.112a.284.284 0 0 0 .405.003 7.98 7.98 0 0 1 5.56-2.267m.03 3.358a4.53 4.53 0 0 1 3.076 1.21c.114.11.294.108.405-.005l1.078-1.112a.31.31 0 0 0-.004-.438 6.587 6.587 0 0 0-9.108 0 .31.31 0 0 0-.004.438l1.078 1.112a.286.286 0 0 0 .405.005 4.53 4.53 0 0 1 3.074-1.21m2.194 2.17a.3.3 0 0 1-.088.22l-1.866 1.922a.29.29 0 0 1-.414 0l-1.866-1.922a.305.305 0 0 1 .009-.436 3.15 3.15 0 0 1 4.128 0c.06.056.095.134.097.216" clip-rule="evenodd"/><path stroke="#fff" stroke-width=".885" d="M304.931 35.42h14.265a2.914 2.914 0 0 1 2.914 2.915v4.195a2.914 2.914 0 0 1-2.914 2.914h-14.265a2.914 2.914 0 0 1-2.914-2.914v-4.195a2.914 2.914 0 0 1 2.914-2.914Z" opacity=".35"/><path fill="#fff" d="M323.392 39.174v3.541a1.921 1.921 0 0 0 0-3.541" opacity=".4"/><path fill="#fff" d="M303.252 38.335c0-.927.752-1.679 1.679-1.679h14.265c.927 0 1.678.752 1.678 1.678v4.196c0 .927-.751 1.678-1.678 1.678h-14.265a1.68 1.68 0 0 1-1.679-1.678z"/><path fill="#000" d="M130.828 16.197H37c-11.046 0-20 8.954-20 20v20.49h113.828z"/><path fill="#fff" d="M63.97 36.02c-2.18 0-3.732 1.49-3.732 3.53v.014c0 1.908 1.35 3.315 3.28 3.315 1.379 0 2.256-.703 2.625-1.497h.14c0 .076-.007.153-.007.23-.077 1.922-.752 3.482-2.347 3.482-.885 0-1.505-.46-1.77-1.163l-.02-.07H60.37l.014.077c.32 1.539 1.7 2.632 3.545 2.632 2.528 0 4.053-2.006 4.053-5.39v-.014c0-3.622-1.866-5.147-4.011-5.147m-.006 5.48c-1.143 0-1.971-.836-1.971-1.999v-.014c0-1.121.884-2.005 1.991-2.005 1.115 0 1.985.898 1.985 2.047v.014c0 1.135-.87 1.957-2.005 1.957m6.838-1.692c.64 0 1.107-.488 1.107-1.1 0-.62-.467-1.101-1.108-1.101-.633 0-1.107.48-1.107 1.1 0 .613.474 1.1 1.108 1.1m0 5.167c.64 0 1.107-.48 1.107-1.1s-.467-1.1-1.108-1.1c-.633 0-1.107.48-1.107 1.1s.474 1.1 1.108 1.1m7.694 1.344h1.72V44.39h1.351v-1.483h-1.35V36.27h-2.543a134 134 0 0 0-4.095 6.65v1.47h4.917zm-3.245-3.37v-.105a104 104 0 0 1 3.168-5.14h.105v5.245zm10.139 3.37h1.796V36.27h-1.79l-2.625 1.846v1.693l2.5-1.77h.119z"/><path fill="#000" d="M130.828 16.197h105.624v40.49H130.828z"/></g><defs><linearGradient id="b" x1="184.498" x2="184.498" y1=".007" y2="748.01" gradientUnits="userSpaceOnUse"><stop stop-color="#666"/><stop offset="1" stop-color="#404040"/></linearGradient><linearGradient id="c" x1="1.502" x2="1.502" y1="171.009" y2="144.998" gradientUnits="userSpaceOnUse"><stop stop-color="#474747"/><stop offset=".024" stop-color="#4D4D4D"/><stop offset=".054" stop-color="#5D5D5D"/><stop offset=".089" stop-color="#797979"/><stop offset=".098" stop-color="gray"/><stop offset=".133" stop-color="#747474"/><stop offset=".192" stop-color="#696969"/><stop offset=".275" stop-color="#626262"/><stop offset=".506" stop-color="#606060"/><stop offset=".671" stop-color="#636363"/><stop offset=".772" stop-color="#6B6B6B"/><stop offset=".855" stop-color="#797979"/><stop offset=".882" stop-color="gray"/><stop offset=".891" stop-color="#7A7A7A"/><stop offset=".934" stop-color="#5E5E5E"/><stop offset=".972" stop-color="#4D4D4D"/><stop offset="1" stop-color="#474747"/></linearGradient><linearGradient id="d" x1="359.997" x2="365.004" y1="78.005" y2="78.005" gradientUnits="userSpaceOnUse"><stop offset=".286" stop-color="#3C3735"/><stop offset=".807" stop-color="#3C3735" stop-opacity="0"/></linearGradient><linearGradient id="e" x1="286.006" x2="286.006" y1="5" y2=".997" gradientUnits="userSpaceOnUse"><stop offset=".286" stop-color="#3C3735"/><stop offset=".807" stop-color="#3C3735" stop-opacity="0"/></linearGradient><linearGradient id="f" x1="8.01" x2="3.003" y1="78.005" y2="78.005" gradientUnits="userSpaceOnUse"><stop offset=".286" stop-color="#3C3735"/><stop offset=".807" stop-color="#3C3735" stop-opacity="0"/></linearGradient><linearGradient id="g" x1="366.503" x2="366.503" y1="237.005" y2="323.025" gradientUnits="userSpaceOnUse"><stop stop-color="#474747"/><stop offset=".024" stop-color="#4D4D4D"/><stop offset=".054" stop-color="#5D5D5D"/><stop offset=".089" stop-color="#797979"/><stop offset=".098" stop-color="gray"/><stop offset=".133" stop-color="#747474"/><stop offset=".192" stop-color="#696969"/><stop offset=".275" stop-color="#626262"/><stop offset=".506" stop-color="#606060"/><stop offset=".671" stop-color="#636363"/><stop offset=".772" stop-color="#6B6B6B"/><stop offset=".855" stop-color="#797979"/><stop offset=".882" stop-color="gray"/><stop offset=".891" stop-color="#7A7A7A"/><stop offset=".934" stop-color="#5E5E5E"/><stop offset=".972" stop-color="#4D4D4D"/><stop offset="1" stop-color="#474747"/></linearGradient><linearGradient id="h" x1="368.003" x2="365.003" y1="280.015" y2="280.015" gradientUnits="userSpaceOnUse"><stop stop-color="#383838"/><stop offset=".139" stop-color="#343434" stop-opacity=".706"/><stop offset=".471" stop-color="#2E2E2E" stop-opacity="0"/></linearGradient><linearGradient id="i" x1="1.502" x2="1.502" y1="269.998" y2="323.997" gradientUnits="userSpaceOnUse"><stop stop-color="#474747"/><stop offset=".024" stop-color="#4D4D4D"/><stop offset=".054" stop-color="#5D5D5D"/><stop offset=".089" stop-color="#797979"/><stop offset=".098" stop-color="gray"/><stop offset=".133" stop-color="#747474"/><stop offset=".192" stop-color="#696969"/><stop offset=".275" stop-color="#626262"/><stop offset=".506" stop-color="#606060"/><stop offset=".671" stop-color="#636363"/><stop offset=".772" stop-color="#6B6B6B"/><stop offset=".855" stop-color="#797979"/><stop offset=".882" stop-color="gray"/><stop offset=".891" stop-color="#7A7A7A"/><stop offset=".934" stop-color="#5E5E5E"/><stop offset=".972" stop-color="#4D4D4D"/><stop offset="1" stop-color="#474747"/></linearGradient><linearGradient id="j" x1=".003" x2="3.003" y1="296.997" y2="296.997" gradientUnits="userSpaceOnUse"><stop stop-color="#383838"/><stop offset=".139" stop-color="#343434" stop-opacity=".706"/><stop offset=".471" stop-color="#2E2E2E" stop-opacity="0"/></linearGradient><linearGradient id="k" x1="1.502" x2="1.502" y1="199.005" y2="252.991" gradientUnits="userSpaceOnUse"><stop stop-color="#474747"/><stop offset=".024" stop-color="#4D4D4D"/><stop offset=".054" stop-color="#5D5D5D"/><stop offset=".089" stop-color="#797979"/><stop offset=".098" stop-color="gray"/><stop offset=".133" stop-color="#747474"/><stop offset=".192" stop-color="#696969"/><stop offset=".275" stop-color="#626262"/><stop offset=".506" stop-color="#606060"/><stop offset=".671" stop-color="#636363"/><stop offset=".772" stop-color="#6B6B6B"/><stop offset=".855" stop-color="#797979"/><stop offset=".882" stop-color="gray"/><stop offset=".891" stop-color="#7A7A7A"/><stop offset=".934" stop-color="#5E5E5E"/><stop offset=".972" stop-color="#4D4D4D"/><stop offset="1" stop-color="#474747"/></linearGradient><linearGradient id="l" x1=".003" x2="3.003" y1="225.998" y2="225.998" gradientUnits="userSpaceOnUse"><stop stop-color="#383838"/><stop offset=".139" stop-color="#343434" stop-opacity=".706"/><stop offset=".471" stop-color="#2E2E2E" stop-opacity="0"/></linearGradient><linearGradient id="m" x1=".003" x2="3.003" y1="158.004" y2="158.004" gradientUnits="userSpaceOnUse"><stop stop-color="#383838"/><stop offset=".139" stop-color="#343434" stop-opacity=".706"/><stop offset=".471" stop-color="#2E2E2E" stop-opacity="0"/></linearGradient><linearGradient id="n" x1="3.555" x2="365.327" y1="28.679" y2="28.679" gradientUnits="userSpaceOnUse"><stop stop-color="#fff" stop-opacity="0"/><stop offset=".035" stop-color="#fff" stop-opacity=".141"/><stop offset=".248" stop-color="#fff"/><stop offset=".636" stop-color="#666"/><stop offset="1" stop-color="#171717" stop-opacity="0"/></linearGradient><linearGradient id="o" x1="223.484" x2="217.435" y1="39.72" y2="43.222" gradientUnits="userSpaceOnUse"><stop stop-color="#5E5E5E" stop-opacity=".5"/><stop offset="1" stop-color="#424242" stop-opacity="0"/></linearGradient><linearGradient id="p" x1="184" x2="184" y1="566" y2="611" gradientUnits="userSpaceOnUse"><stop stop-opacity="0"/><stop offset="1"/></linearGradient><clipPath id="a"><path fill="#fff" d="M0 0h368v610H0z"/></clipPath></defs></svg>